<svg width="1440" height="461" viewBox="0 0 1440 461" fill="none" xmlns="http://www.w3.org/2000/svg">
<rect x="-1" width="1441" height="461" fill="#5D6716"/>
<mask id="mask0_921_12845" style="mask-type:alpha" maskUnits="userSpaceOnUse" x="1020" y="0" width="421" height="461">
<rect x="1020" width="421" height="461" fill="#5D6716"/>
</mask>
<g mask="url(#mask0_921_12845)">
<path d="M1300.69 241.948C1300.69 241.948 1197.59 108.69 1160.65 167.977C1149.68 185.588 1141.85 198.387 1134.68 204.808C1128.97 209.913 1127.89 218.483 1132.25 224.777C1139 234.536 1153.91 234.965 1169.78 231.776C1195.86 226.533 1243.06 231.402 1254.44 238.497C1265.83 245.592 1284.17 255.144 1292.33 253.646C1300.5 252.147 1300.69 241.948 1300.69 241.948Z" fill="#A4AE4D"/>
<path d="M1300.69 241.942L1259.12 122.135C1258.12 119.251 1260.17 116.216 1263.22 116.082C1272.34 115.676 1290.04 115.807 1304.41 121.459C1324.7 129.437 1310.82 128.371 1321.21 140.078C1331.61 151.785 1334.38 157.378 1333.73 166.367C1333.32 172.074 1325.16 212.422 1316.65 232.663C1312.32 242.941 1300.69 241.946 1300.69 241.946L1300.69 241.942Z" fill="#DBE192"/>
<path d="M1347.57 229.407C1286.66 234.084 1230.71 259.31 1206.57 307.661C1182.43 356.007 1189.57 422.996 1225.48 463.589C1262.04 504.921 1294.28 526.816 1381.24 516.481C1408.52 513.239 1447.97 498.871 1467.1 480.728C1478.4 470.01 1499.71 442.191 1504.1 428.038C1516.73 387.326 1505.51 324.527 1482.27 288.629C1458.71 252.254 1416.15 233.912 1347.57 229.407" fill="#F2973E"/>
<path d="M1311.61 372.88C1316.09 372.361 1319.93 367.924 1319.19 363.321C1318.44 358.704 1314.43 355.19 1309.63 355.746C1305.15 356.265 1301.31 360.702 1302.05 365.304C1302.79 369.907 1306.81 373.435 1311.61 372.88Z" fill="#A45314"/>
<path d="M1307.1 363.886C1308.79 363.691 1310.23 362.018 1309.95 360.283C1309.67 358.542 1308.16 357.217 1306.35 357.427C1304.66 357.622 1303.21 359.295 1303.49 361.03C1303.77 362.765 1305.29 364.096 1307.1 363.886Z" fill="#FFFEFC"/>
<path d="M1314.84 370.424C1315.74 370.32 1316.51 369.427 1316.36 368.501C1316.21 367.571 1315.41 366.864 1314.44 366.976C1313.54 367.08 1312.77 367.973 1312.92 368.9C1313.06 369.826 1313.87 370.536 1314.84 370.424Z" fill="#FFFEFC"/>
<path d="M1262.57 416.664C1272.49 415.515 1280.98 405.692 1279.33 395.504C1277.68 385.284 1268.8 377.505 1258.18 378.735C1248.25 379.883 1239.77 389.706 1241.41 399.894C1243.05 410.082 1251.94 417.894 1262.57 416.664Z" fill="#FEB167"/>
<path d="M1396.17 359.585C1400.66 359.066 1404.49 354.629 1403.75 350.026C1403 345.409 1398.99 341.895 1394.19 342.451C1389.71 342.97 1385.87 347.407 1386.62 352.009C1387.36 356.627 1391.37 360.141 1396.17 359.585Z" fill="#A45314"/>
<path d="M1341.17 391.783C1345.05 400.66 1354.99 404.863 1364.3 404.186C1369.28 403.824 1374.02 401.822 1377.47 398.202C1380.58 394.948 1382.39 390.257 1382.77 385.813C1383 383.033 1381.53 380.324 1378.6 379.795C1376.05 379.335 1372.82 381.164 1372.58 383.963C1372.34 386.779 1371.67 389.055 1370.09 390.941C1368.61 392.697 1366.04 393.678 1363.37 393.875C1361.78 393.995 1360.73 393.908 1359.1 393.596C1357.46 393.285 1356.96 393.118 1355.55 392.46C1354.13 391.802 1353.78 391.525 1352.48 390.43C1352.04 389.989 1351.96 389.919 1352.24 390.221C1352 389.946 1351.77 389.658 1351.56 389.362C1351.35 389.065 1351.15 388.76 1350.96 388.446C1351.16 388.82 1351.13 388.719 1350.86 388.147C1349.74 385.588 1346.91 384.099 1344.19 385.116C1341.68 386.057 1340.04 389.206 1341.16 391.78L1341.17 391.783Z" fill="#A45314"/>
<path d="M1392.91 350.46C1394.6 350.265 1396.04 348.592 1395.76 346.857C1395.48 345.116 1393.97 343.791 1392.16 344.001C1390.47 344.196 1389.02 345.869 1389.3 347.604C1389.58 349.339 1391.1 350.67 1392.91 350.46Z" fill="#FFFEFC"/>
<path d="M1399.15 357.174C1400.05 357.07 1400.82 356.177 1400.67 355.251C1400.52 354.321 1399.72 353.614 1398.75 353.726C1397.85 353.83 1397.08 354.723 1397.22 355.65C1397.37 356.576 1398.18 357.286 1399.15 357.174Z" fill="#FFFEFC"/>
<path d="M1206.05 416.224C1173.98 411.213 1112.01 396.88 1120.66 379.636" stroke="#F2973E" stroke-width="12.975" stroke-linejoin="round"/>
<path fill-rule="evenodd" clip-rule="evenodd" d="M1141.46 345.044C1138.69 342.644 1135.12 341.28 1131.39 341.2C1127.65 341.12 1124.01 342.33 1121.11 344.609C1117.84 342.511 1113.85 341.685 1109.96 342.298C1106.07 342.911 1102.55 344.917 1100.13 347.913C1097.7 350.908 1096.54 354.67 1096.89 358.441C1097.23 362.212 1099.05 365.712 1101.98 368.236L1121.38 385.073C1121.62 385.284 1121.91 385.448 1122.22 385.554C1122.52 385.66 1122.85 385.706 1123.18 385.689C1123.51 385.673 1123.83 385.594 1124.13 385.458C1124.42 385.322 1124.69 385.13 1124.91 384.895L1142.52 366.198C1143.9 364.736 1144.96 363.03 1145.66 361.175C1146.35 359.321 1146.65 357.356 1146.56 355.391C1146.46 353.427 1145.96 351.502 1145.08 349.727C1144.21 347.951 1142.98 346.36 1141.46 345.044ZM1122.75 379.803L1122.89 379.928L1123.02 379.789L1122.75 379.803Z" fill="#FFFEFC"/>
</g>
</svg>
