<svg width="1440" height="545" viewBox="0 0 1440 545" fill="none" xmlns="http://www.w3.org/2000/svg">
<rect width="1440" height="545" fill="#FDF1D6"/>
<mask id="mask0_822_14180" style="mask-type:alpha" maskUnits="userSpaceOnUse" x="0" y="0" width="1440" height="545">
<rect width="1440" height="545" fill="#FDF1D6"/>
</mask>
<g mask="url(#mask0_822_14180)">
<path d="M714.955 492.858C715.059 492.6 715.295 492.391 715.675 492.322C725.168 490.658 734.126 494.96 741.237 500.114C748.498 505.379 754.552 512.267 757.629 520.232C762.548 532.942 758.646 548.183 746.344 556.657C733.54 565.469 714.716 564.601 702.08 556.424C688.661 547.738 681.226 531.034 685.653 516.43C686.019 515.228 686.476 514.054 687.005 512.907C683.987 511.693 680.969 510.47 677.96 509.246C676.147 513.194 675.03 517.432 674.764 521.868C673.659 540.232 685.108 559.128 703.415 567.506C721.093 575.587 745.039 573.479 758.6 559.49C771.602 546.084 772.413 527.003 763.516 511.832C758.707 503.618 751.475 496.621 743.192 491.112C735.926 486.277 727.261 482.308 718.078 482.622C717.814 482.925 717.415 483.152 716.868 483.212C700.275 484.97 685.532 494.525 678.713 507.719C681.723 508.952 684.75 510.165 687.769 511.388C692.875 501.866 703.409 494.967 714.955 492.858Z" fill="#FFF8E9"/>
<path d="M707.979 557.701C721.226 563.754 739.129 562.209 749.408 551.845C759.281 541.882 760.134 527.524 753.61 516.06C750.06 509.839 744.688 504.531 738.493 500.337C732.806 496.481 726.054 493.364 718.824 493.673C718.705 493.887 718.482 494.049 718.136 494.087C705.854 495.426 694.813 502.39 689.556 512.111C693.077 513.544 696.598 514.977 700.094 516.449C703.498 510.598 710.056 506.431 717.259 505.037C717.39 504.84 717.605 504.688 717.919 504.635C729.961 502.691 741.916 513.76 745.343 523.131C748.361 531.404 745.642 541.222 737.613 546.611C729.243 552.23 717.052 551.566 708.898 546.225C700.277 540.579 695.509 529.791 698.363 520.361C698.611 519.538 698.94 518.743 699.3 517.963C695.814 516.499 692.303 515.065 688.793 513.639C687.473 516.473 686.635 519.509 686.389 522.7C685.294 536.746 693.948 551.286 707.979 557.701Z" fill="#A4AE4D"/>
<path d="M713.137 546.613C721.495 550.46 732.79 549.467 739.301 542.964C745.623 536.655 746.138 527.409 741.896 520.157C737.966 513.466 729.274 505.834 720.116 506.117C719.987 506.25 719.804 506.343 719.555 506.37C711.987 507.247 705.258 511.369 701.841 517.194C706.601 519.222 711.322 521.319 715.961 523.544C716.465 522.748 717.188 522.157 718.17 521.921C718.217 521.833 718.284 521.744 718.381 521.669C721.496 519.123 726.485 521.739 728.172 524.453C730.14 527.629 728.83 532.034 725.109 533.759C721.635 535.366 717.018 534.026 715.544 530.759C714.913 529.356 714.722 527.036 715.271 525.11C710.601 522.871 705.849 520.759 701.037 518.709C700.101 520.722 699.545 522.896 699.46 525.191C699.137 533.868 704.48 542.635 713.137 546.613Z" fill="#FFF8E9"/>
<path d="M725.123 531.776C727.128 530.313 727.779 527.727 726.765 525.662C725.853 523.796 722.544 521.48 720.155 522.592C720.124 523.044 719.744 523.506 719.098 523.468C718.452 523.429 717.983 523.8 717.643 524.35C719.246 525.134 720.831 525.929 722.4 526.744C723.429 527.281 722.678 528.826 721.638 528.282C720.122 527.497 718.599 526.732 717.057 525.978C716.882 526.838 716.844 527.702 716.866 528.12C716.933 529.521 717.423 530.884 718.69 531.778C720.513 533.078 723.287 533.112 725.123 531.776Z" fill="#210B03"/>
<path d="M714.959 492.862C715.063 492.604 715.3 492.395 715.68 492.326C725.172 490.662 734.131 494.964 741.242 500.117C748.502 505.374 754.555 512.262 757.632 520.227C762.541 532.937 758.649 548.178 746.338 556.653C733.534 565.465 714.71 564.597 702.073 556.419C688.655 547.734 681.22 531.039 685.657 516.425C686.023 515.223 686.47 514.049 686.998 512.903C683.98 511.68 680.972 510.465 677.962 509.232C676.149 513.18 675.022 517.418 674.757 521.864C673.661 540.217 685.111 559.123 703.417 567.491C721.095 575.572 745.041 573.465 758.594 559.486C771.594 546.071 772.406 526.99 763.518 511.817C758.7 503.605 751.477 496.607 743.194 491.097C735.928 486.262 727.264 482.294 718.08 482.607C717.817 482.911 717.417 483.137 716.869 483.188C700.267 484.956 685.533 494.502 678.714 507.695C681.724 508.928 684.751 510.141 687.77 511.365C692.876 501.843 703.42 494.943 714.956 492.835L714.959 492.862Z" fill="#5D6716"/>
<path d="M694.875 566.736C712.245 577.978 738.219 579.059 755.6 566.644C772.097 554.857 777.057 534.196 770.16 516.976C765.952 506.474 757.908 497.4 748.324 490.414C738.699 483.397 726.333 477.403 713.437 479.751C712.848 479.861 712.427 480.145 712.171 480.512C696.316 483.45 681.984 493.107 675.201 506.269C676.369 506.754 677.536 507.229 678.713 507.713C685.532 494.519 700.274 484.964 716.868 483.206C717.415 483.146 717.814 482.919 718.079 482.625C727.262 482.311 735.927 486.28 743.193 491.115C751.475 496.624 758.708 503.621 763.517 511.835C772.414 527.006 771.593 546.088 758.592 559.503C745.039 573.482 721.084 575.591 703.416 567.509C685.108 559.131 673.66 540.235 674.756 521.881C675.022 517.445 676.138 513.198 677.961 509.249C676.794 508.774 675.617 508.29 674.449 507.806C673.668 509.501 673 511.248 672.475 513.052C666.77 532.716 676.851 555.082 694.866 566.737L694.875 566.736Z" fill="#5D6716"/>
<path d="M702.083 556.424C714.72 564.602 733.545 565.479 746.348 556.658C758.65 548.184 762.55 532.934 757.642 520.232C754.565 512.267 748.502 505.38 741.252 500.122C734.141 494.969 725.182 490.667 715.69 492.331C715.31 492.4 715.073 492.609 714.969 492.867C703.433 494.975 692.89 501.875 687.783 511.397C688.376 511.633 688.97 511.879 689.563 512.116C694.82 502.395 705.871 495.43 718.143 494.092C718.489 494.054 718.711 493.892 718.831 493.678C726.061 493.369 732.813 496.486 738.499 500.333C744.694 504.527 750.066 509.844 753.607 516.057C760.139 527.52 759.286 541.878 749.405 551.842C739.135 562.205 721.223 563.751 707.975 557.698C693.944 551.283 685.291 536.752 686.386 522.697C686.631 519.506 687.47 516.469 688.79 513.636C688.196 513.391 687.603 513.154 687.009 512.908C686.479 514.045 686.032 515.219 685.667 516.43C681.239 531.034 688.665 547.739 702.083 556.424Z" fill="#5D6716"/>
<path d="M708.908 546.224C717.062 551.565 729.253 552.229 737.622 546.601C745.651 541.212 748.371 531.403 745.351 523.121C741.925 513.75 729.97 502.681 717.928 504.625C717.614 504.678 717.399 504.83 717.277 505.017C710.064 506.412 703.517 510.587 700.102 516.43C700.686 516.677 701.271 516.924 701.855 517.171C705.273 511.346 712.001 507.224 719.579 506.346C719.829 506.319 720.011 506.225 720.141 506.092C729.289 505.81 737.99 513.441 741.91 520.134C746.162 527.385 745.637 536.632 739.317 542.949C732.815 549.451 721.509 550.437 713.151 546.59C704.495 542.612 699.151 533.844 699.475 525.168C699.559 522.872 700.116 520.699 701.052 518.685C700.467 518.439 699.883 518.192 699.308 517.944C698.948 518.724 698.619 519.519 698.371 520.342C695.527 529.771 700.285 540.56 708.905 546.206L708.908 546.224Z" fill="#5D6716"/>
<path d="M640.213 490.431C639.959 489.947 639.695 489.464 639.44 488.979C637.277 487.681 635.147 486.333 633.058 484.925C632.104 484.28 630.926 485.598 631.89 486.242C634.128 487.752 636.415 489.193 638.735 490.584C639.224 490.53 639.714 490.486 640.203 490.432L640.213 490.431Z" fill="#210B03"/>
<path d="M663.962 502.647C663.695 502.137 663.429 501.636 663.161 501.126C660.199 499.805 657.26 498.445 654.365 497.035C654.427 497.147 654.48 497.26 654.542 497.372C654.818 497.872 654.345 498.446 653.772 498.527C653.705 498.534 653.628 498.543 653.561 498.55C656.57 500.012 659.621 501.414 662.697 502.786C663.118 502.74 663.54 502.694 663.972 502.646L663.962 502.647Z" fill="#210B03"/>
<path d="M687.01 512.909C687.603 513.146 688.197 513.391 688.791 513.637C692.301 515.062 695.812 516.496 699.298 517.961C699.882 518.207 700.467 518.454 701.042 518.702C705.843 520.744 710.604 522.855 715.266 525.105C715.429 524.538 715.654 524.001 715.955 523.529C711.325 521.304 706.605 519.207 701.835 517.179C701.25 516.933 700.666 516.686 700.081 516.439C696.585 514.967 693.064 513.534 689.543 512.1C688.95 511.864 688.356 511.618 687.763 511.382C684.745 510.158 681.717 508.936 678.708 507.712C677.541 507.237 676.364 506.753 675.196 506.269C672.062 504.976 668.945 503.664 665.852 502.311C665.977 502.535 666.094 502.77 666.219 502.994C666.457 503.425 666.138 503.908 665.684 504.086C668.59 505.348 671.513 506.582 674.452 507.795C675.62 508.28 676.787 508.755 677.964 509.239C680.973 510.463 683.992 511.686 687.001 512.91L687.01 512.909Z" fill="#210B03"/>
<path d="M652.267 497.01C652.026 496.552 651.785 496.094 651.543 495.636C648.464 494.081 645.435 492.457 642.464 490.753C642.466 490.771 642.477 490.779 642.488 490.796C642.764 491.296 642.291 491.87 641.718 491.951C641.536 491.971 641.354 491.991 641.172 492.011C644.311 493.815 647.507 495.531 650.761 497.167C651.261 497.121 651.769 497.065 652.267 497.01Z" fill="#210B03"/>
<path d="M722.409 526.745C720.84 525.93 719.255 525.134 717.652 524.35C717.369 524.811 717.188 525.389 717.066 525.978C718.598 526.734 720.131 527.498 721.647 528.282C722.685 528.818 723.436 527.272 722.409 526.745Z" fill="#5D6716"/>
<path d="M642.479 490.788C642.479 490.788 642.466 490.762 642.455 490.745C639.807 485.851 637.364 480.88 635.122 475.813C634.678 474.819 632.939 475.449 633.384 476.452C635.25 480.682 637.273 484.849 639.435 488.964C639.689 489.448 639.944 489.932 640.208 490.415C639.719 490.469 639.23 490.523 638.74 490.567C634.128 490.991 629.52 490.976 624.895 490.515C623.694 490.39 623.404 492.05 624.596 492.175C630.135 492.728 635.638 492.673 641.172 492.001C641.354 491.981 641.536 491.961 641.719 491.941C642.283 491.87 642.756 491.297 642.489 490.787L642.479 490.788Z" fill="#210B03"/>
<path d="M715.559 530.752C717.033 534.02 721.65 535.36 725.125 533.753C728.847 532.037 730.157 527.632 728.178 524.447C726.491 521.734 721.501 519.109 718.396 521.654C718.298 521.728 718.232 521.818 718.175 521.906C717.203 522.141 716.479 522.733 715.966 523.53C715.664 523.993 715.439 524.529 715.277 525.105C714.729 527.031 714.929 529.349 715.559 530.752ZM717.652 524.35C717.982 523.802 718.451 523.431 719.107 523.468C719.753 523.507 720.133 523.045 720.165 522.593C722.553 521.481 725.863 523.796 726.774 525.662C727.788 527.727 727.137 530.313 725.132 531.777C723.297 533.122 720.513 533.08 718.691 531.789C717.423 530.895 716.934 529.532 716.875 528.121C716.853 527.703 716.891 526.839 717.066 525.978C717.189 525.398 717.369 524.811 717.652 524.35Z" fill="#5D6716"/>
<path d="M654.539 497.362C654.476 497.25 654.423 497.137 654.361 497.025C651.773 492.225 649.381 487.348 647.183 482.396C646.739 481.402 645 482.032 645.445 483.035C647.323 487.291 649.37 491.492 651.545 495.633C651.786 496.091 652.028 496.549 652.269 497.007C651.771 497.062 651.263 497.118 650.763 497.164C646.159 497.578 641.562 497.57 636.947 497.108C635.746 496.983 635.456 498.643 636.648 498.768C642.296 499.337 647.914 499.269 653.56 498.557C653.627 498.55 653.703 498.542 653.77 498.534C654.335 498.463 654.808 497.89 654.541 497.38L654.539 497.362Z" fill="#210B03"/>
<path d="M666.228 503.013C666.103 502.789 665.986 502.555 665.861 502.331C663.346 497.642 661.007 492.888 658.872 488.047C658.428 487.054 656.689 487.683 657.134 488.686C658.997 492.898 661.007 497.039 663.147 501.129C663.414 501.639 663.681 502.141 663.948 502.651C663.526 502.697 663.104 502.743 662.673 502.791C657.985 503.232 653.32 503.223 648.626 502.751C647.425 502.627 647.135 504.286 648.326 504.411C654.044 504.991 659.729 504.915 665.448 504.168C665.525 504.16 665.599 504.134 665.674 504.107C666.128 503.929 666.447 503.446 666.209 503.015L666.228 503.013Z" fill="#210B03"/>
<path fill-rule="evenodd" clip-rule="evenodd" d="M177.636 -48.0781C140.551 -133.737 21.2767 -144.869 -97.9981 -156L-58.4689 566.559L464.618 566.656C478.948 535.227 482.503 506.597 468.432 482.569C432.101 420.544 278.274 389.205 223.929 293.457C169.583 197.708 214.72 37.5512 177.635 -48.1081L177.636 -48.0781Z" fill="#FFD697"/>
</g>
<g clip-path="url(#clip0_822_14180)">
<path d="M1426.08 28.1946L1424.59 28.3144L1420.94 23.9855C1420.94 23.9855 1337.09 90.879 1334.97 95.0809C1332.85 99.2827 1332.98 107.77 1335.64 109.263C1338.3 110.755 1360.13 105.959 1378.25 102.641C1396.37 99.3174 1413.72 96.4489 1414.19 96.3925C1414.65 96.3362 1421.16 61.0144 1421.68 58.3012C1422.21 55.5879 1426.86 29.5915 1426.86 29.5915L1426.09 28.2009L1426.08 28.1946Z" fill="#A4AE4D"/>
<path d="M1421.59 25.8933C1421.59 25.8933 1418.69 40.0217 1417.7 44.5639C1416.7 49.0982 1410.23 84.0651 1410.23 84.0651C1410.23 84.0651 1404.14 85.3283 1400.23 86.0324C1396.32 86.7366 1340.08 96.7793 1338.29 97.2825C1336.5 97.7857 1336.17 98.0988 1335.29 99.7154C1334.42 101.332 1334.84 105.328 1336.06 106.573C1337.28 107.819 1339.7 107.67 1342.88 107.065C1346.06 106.452 1376.56 100.542 1386.19 98.8547C1399.04 96.5954 1413 94.189 1413 94.189C1413 94.189 1413.33 92.1192 1413.46 91.1292C1413.59 90.1392 1420.99 52.0658 1421.86 47.2811C1422.73 42.4964 1424.76 30.066 1424.76 30.066L1421.6 25.9076L1421.59 25.8933Z" fill="#FFFEFC"/>
<path d="M1421.03 22.1744C1420.71 21.952 1410.02 23.6538 1410.02 23.6538L1339.83 82.7923C1339.83 82.7923 1333.46 97.7891 1334.13 97.5689C1334.79 97.3486 1360.76 93.011 1367.07 91.9881C1373.37 90.9653 1410.69 83.9927 1410.69 83.9927C1410.69 83.9927 1416.46 53.6213 1417.31 48.2228C1418.18 42.8227 1422.12 23.8849 1422.12 23.8849C1422.12 23.8849 1421.33 22.4065 1421.02 22.1841L1421.03 22.1744Z" fill="#A4AE4D"/>
<path d="M1410.82 24.3843L1409.35 20.5654L1409.5 19.9798L1409.1 18.0841C1409.1 18.0841 1399.33 18.6934 1387.94 20.4142C1376.56 22.1238 1359.4 25.2216 1359.01 25.3976C1358.61 25.5735 1350.83 42.3395 1347.84 48.8133C1344.86 55.287 1334.47 73.6035 1334.02 75.3286C1333.56 77.0553 1333.83 79.8658 1334.46 81.3161C1335.1 82.7664 1335.86 82.9853 1338.12 83.0252C1340.36 83.0667 1373.91 76.4124 1381.44 75.1205C1388.96 73.8287 1401.97 72.0386 1401.97 72.0386C1401.97 72.0386 1409.04 41.1245 1410.23 34.7816C1411.41 28.4466 1412.27 25.6696 1412.27 25.6696C1411.98 25.1002 1411.48 24.4821 1410.81 24.3939L1410.82 24.3843Z" fill="#5D6716"/>
<path d="M1393.42 26.6775C1393.42 26.6775 1390.55 37.2875 1390.07 39.2765C1389.59 41.267 1388.89 43.6469 1388.89 43.6469C1388.89 43.6469 1371.84 46.025 1366.66 47.0142C1361.49 48.0035 1356.7 48.8008 1356.7 48.8008C1356.7 48.8008 1360.11 40.4806 1361.59 36.1776C1363.07 31.8747 1363.82 31.3967 1363.82 31.3967C1363.82 31.3967 1389.31 27.368 1393.42 26.6758L1393.42 26.6775Z" fill="#FFFEFC"/>
<path d="M1409.09 21.5741C1409.09 21.5741 1408.72 24.8062 1408.63 25.1566C1408.05 27.4145 1406.45 32.6404 1405.48 37.71C1404.37 43.5651 1399.29 68.3198 1399.29 68.3198C1399.29 68.3198 1383.05 70.5346 1377.05 71.7319C1371.05 72.9293 1360.3 74.4508 1350.6 76.0956C1348.87 76.3859 1336.07 77.654 1335.33 79.545C1334.67 81.2022 1336.54 82.2971 1337.78 82.0265C1338.96 81.7737 1365.09 76.9142 1370.7 76.0078C1376.32 75.0998 1401.13 71.2195 1401.18 70.6183C1401.24 70.017 1405.44 51.62 1406.71 44.9186C1407.99 38.2092 1410.75 25.3633 1410.75 25.3633L1409.08 21.5757L1409.09 21.5741Z" fill="#FFFEFC"/>
<path d="M1420.19 22.5694C1418.66 30.6514 1417.12 38.7349 1415.57 46.8122C1413.86 55.7693 1412.14 64.7184 1410.45 73.6802C1409.88 76.6845 1409.31 79.6809 1408.75 82.6852C1408.85 82.5745 1408.95 82.4718 1409.05 82.361C1401.45 83.65 1393.85 84.9565 1386.26 86.2774C1374.59 88.3095 1362.95 90.519 1351.26 92.4968C1347.77 93.0856 1344.28 93.6584 1340.79 94.2712C1339.85 94.4367 1338.91 94.5926 1337.97 94.798C1337.05 95.0001 1335.96 95.2685 1335.17 95.7627C1334.77 96.0137 1335.1 96.6485 1335.51 96.3958C1336.86 95.5444 1338.82 95.341 1340.4 95.0545C1343.31 94.5353 1346.23 94.0561 1349.14 93.5705C1355.65 92.4732 1362.16 91.2944 1368.66 90.1093C1379.25 88.1761 1389.88 86.3626 1400.5 84.5412C1403.39 84.0413 1406.29 83.5493 1409.2 83.0557C1409.38 83.0214 1409.47 82.8867 1409.5 82.7315C1410.91 75.2799 1412.33 67.8362 1413.74 60.3925C1415.47 51.2899 1417.22 42.192 1418.96 33.0973C1419.62 29.6082 1420.28 26.1111 1420.95 22.6221C1421.04 22.1725 1420.29 22.1342 1420.2 22.5757L1420.19 22.5694Z" fill="#210B03"/>
<path d="M1411.88 25.635C1410.65 32.0214 1409.16 38.364 1407.74 44.7192C1406.08 52.1783 1404.39 59.6327 1402.7 67.0808C1402.33 68.6904 1401.97 70.308 1401.59 71.9193C1401.68 71.8438 1401.78 71.7666 1401.87 71.6911C1400.16 71.9782 1398.47 72.2716 1396.76 72.5586C1392.52 73.2849 1388.27 74.0032 1384.02 74.7295C1378.61 75.6559 1373.2 76.5822 1367.8 77.5149C1362.54 78.4198 1357.28 79.3326 1352.02 80.2551C1348.23 80.9187 1344.44 81.5824 1340.66 82.2859C1340.36 82.3431 1340.06 82.4004 1339.76 82.4576C1339.29 82.5491 1339.44 83.2358 1339.92 83.1523C1343.4 82.4979 1346.89 81.8836 1350.37 81.2708C1355.54 80.3583 1360.71 79.4618 1365.88 78.5749C1371.34 77.6308 1376.8 76.6946 1382.27 75.7585C1386.72 74.9929 1391.17 74.2354 1395.62 73.4778C1397.05 73.2351 1398.48 72.9924 1399.92 72.7497C1400.56 72.6414 1401.31 72.5983 1401.94 72.4022C1401.96 72.3972 1401.99 72.3907 1402.02 72.3858C1402.14 72.3629 1402.28 72.2696 1402.3 72.1576C1403.33 67.6408 1404.36 63.1255 1405.37 58.6039C1407.18 50.5847 1408.99 42.5655 1410.74 34.5401C1411.38 31.5962 1412.05 28.657 1412.61 25.6942C1412.7 25.2447 1411.95 25.2063 1411.86 25.6479L1411.88 25.635Z" fill="#210B03"/>
<path d="M1372.04 32.58C1366.95 33.3195 1363.93 33.7848 1363.93 33.7848L1363.7 34.6698C1363.7 34.6698 1382.48 31.6513 1383.71 31.4143C1384.94 31.1772 1389.04 30.5026 1389.04 30.5026L1389.08 30.0134C1389.08 30.0134 1377.13 31.8325 1372.04 32.58Z" fill="#210B03"/>
<path d="M1387.94 33.9496L1362.58 37.9953L1362.65 38.9397L1388.14 34.8679L1387.94 33.9496Z" fill="#210B03"/>
<path d="M1362.55 42.4368L1361.93 43.512L1387.02 39.5186L1386.87 38.8239L1362.55 42.4368Z" fill="#210B03"/>
</g>
<path d="M684.137 114.024C683.924 114.508 680.277 114.118 676.15 113.507C670.549 112.668 664.056 111.435 664.056 111.435C664.056 111.435 666.659 101.693 673.794 98.2789C673.794 98.2789 677.664 103.488 680.675 107.93C682.7 110.921 684.341 113.561 684.137 114.024Z" fill="#A4AE4D"/>
<path d="M683.095 113.449C682.301 113.458 680.466 113.339 676.263 112.715C671.973 112.075 666.397 111.01 664.419 110.646C665.181 108.389 667.855 101.306 672.952 98.4602C674.051 99.951 677.566 104.856 679.942 108.361C681.988 111.377 682.788 112.793 683.103 113.446L683.095 113.449Z" fill="#FFFEFC"/>
<path d="M607.785 56.9219C607.785 56.9219 604.094 54.6388 603.147 54.1399C602.19 53.6368 600.498 53.5616 598.194 55.5191C595.89 57.4767 592.323 61.7035 592.409 63.2301C592.496 64.7567 593.954 66.0745 595.148 66.8941C596.342 67.7138 598.536 69.1535 598.536 69.1535L607.785 56.9219Z" fill="#F2973E"/>
<path d="M614.88 61.3407C614.88 61.3407 660.297 89.7457 664.966 92.6576C669.635 95.5695 673.779 98.277 673.779 98.277C673.779 98.277 671.593 103.243 667.982 107.228C664.371 111.213 664.037 111.443 664.037 111.443C664.037 111.443 620.859 84.277 617.441 82.2128C614.015 80.1514 604.495 73.6725 604.495 73.6725L614.872 61.3437L614.88 61.3407Z" fill="#A4AE4D"/>
<path d="M615.287 61.6749C615.287 61.6749 615.325 60.8928 614.754 60.3223C614.184 59.7518 613.634 59.4489 612.898 59.7106C612.898 59.7106 612.809 58.9858 611.91 58.3518C611.005 57.7278 610.081 58.3468 610.081 58.3468C610.081 58.3468 610.257 57.0348 609.338 56.7002C608.42 56.3656 607.607 56.7571 607.607 56.7571C607.607 56.7571 604.976 60.2274 603.112 62.6223C601.241 65.0202 598.158 68.3911 597.859 68.9414C597.56 69.4917 597.921 70.2106 598.25 70.5161C598.929 71.1526 599.102 70.9602 599.921 70.666C599.921 70.666 600.086 71.8868 600.796 72.3111C601.498 72.7383 602.398 72.3043 602.398 72.3043C602.398 72.3043 602.635 73.447 603.299 73.8889C603.964 74.3309 604.59 74.1205 604.973 73.963C605.355 73.8054 605.803 73.5727 605.803 73.5727L615.287 61.6749Z" fill="#56574E"/>
<path d="M612.607 59.5075C610.021 62.9014 607.382 66.2744 604.566 69.5077C603.806 70.3796 603.044 71.2688 602.17 72.0432C601.839 72.339 602.274 72.8624 602.608 72.5737C604.368 71.0117 605.841 69.1195 607.313 67.3275C608.964 65.3158 610.577 63.2773 612.165 61.2234C612.506 60.79 612.837 60.3525 613.175 59.912C613.44 59.5668 612.879 59.1594 612.607 59.5075Z" fill="#210B03"/>
<path d="M609.803 58.1441C607.13 61.4802 604.439 64.8151 601.689 68.0978C601.022 68.8999 600.355 69.7021 599.639 70.4733C599.339 70.7989 599.904 71.1962 600.207 70.8778C601.711 69.2572 603.084 67.5207 604.48 65.8169C606.11 63.8383 607.716 61.8444 609.324 59.8575C609.673 59.4212 610.025 58.9919 610.367 58.5586C610.642 58.2175 610.074 57.8131 609.799 58.1541L609.803 58.1441Z" fill="#210B03"/>
<path d="M683.405 113.518C683.425 113.564 683.443 113.606 683.458 113.645C683.418 113.649 683.373 113.652 683.323 113.654C682.927 113.674 682.354 113.654 681.635 113.598C680.451 113.506 678.929 113.32 677.273 113.086C678.389 111.716 679.637 110.173 680.596 108.989C680.609 108.974 680.621 108.958 680.634 108.942C681.455 110.17 682.183 111.303 682.712 112.209C683.027 112.748 683.262 113.191 683.405 113.518ZM683.543 113.917C683.544 113.924 683.544 113.927 683.544 113.927C683.544 113.927 683.543 113.923 683.543 113.917Z" fill="#210B03" stroke="#210B03" stroke-width="1.19077"/>
<path d="M608.348 73.2426C610.017 74.2945 611.686 75.3464 613.355 76.3983C617.454 78.9817 621.552 81.5651 625.654 84.1556C630.759 87.3733 635.853 90.5868 640.958 93.8044C645.681 96.7787 650.404 99.753 655.135 102.724C658.091 104.585 661.047 106.445 664.011 108.286C664.183 108.394 664.366 108.506 664.538 108.615C664.916 108.851 665.349 108.323 664.967 108.08C662.314 106.444 659.685 104.781 657.04 103.125C652.433 100.231 647.832 97.3341 643.232 94.4371C638.103 91.204 632.973 87.9709 627.843 84.7378C623.559 82.0348 619.278 79.339 614.994 76.636C612.956 75.352 610.971 73.9229 608.855 72.7615C608.822 72.749 608.795 72.7264 608.767 72.7038C608.388 72.4676 607.955 72.9951 608.337 73.2384L608.348 73.2426Z" fill="#210B03"/>
<g clip-path="url(#clip1_822_14180)">
<path d="M1438.48 181.091C1437.9 179.902 1437.24 178.684 1436.73 177.404C1436.53 176.916 1436.43 176.125 1436.69 175.788C1436.97 175.445 1437.77 175.288 1438.27 175.402C1440.01 175.792 1441.73 176.287 1443.42 176.847C1444.09 177.064 1444.52 176.931 1445.06 176.58C1446.85 175.385 1448.65 174.2 1450.49 173.097C1450.94 172.824 1451.8 172.616 1452.08 172.847C1452.46 173.152 1452.65 173.95 1452.56 174.484C1452.33 175.946 1451.95 177.394 1451.56 178.831C1451.38 179.493 1451.2 179.65 1452.17 180.076C1453.25 180.554 1454.36 180.994 1455.4 181.574C1455.76 181.776 1456.16 182.329 1456.14 182.705C1456.13 183.083 1455.69 183.661 1455.33 183.788C1453.83 184.296 1452.3 184.699 1450.76 185.058C1450.17 185.191 1449.86 185.368 1449.67 185.979C1448.93 188.556 1448.12 191.106 1447.33 193.668C1447.26 193.892 1446.8 195.53 1445.84 195.365C1445.42 195.298 1445.02 195.234 1444.55 194.375C1443.37 192.009 1442.25 189.605 1441.18 187.189C1440.89 186.554 1440.6 186.295 1439.87 186.363C1438.22 186.528 1436.57 186.625 1434.92 186.679C1434.51 186.69 1433.84 186.868 1433.69 186.27C1433.54 185.867 1433.94 185.468 1434.21 185.2C1435.58 183.827 1437 182.497 1438.48 181.091ZM1449.16 180.78C1447.61 180.218 1446.19 179.677 1444.75 179.193C1444.54 179.117 1444.21 179.174 1444.02 179.295C1442.84 180.075 1441.68 180.899 1440.49 181.727C1440.89 182.6 1441.19 183.366 1441.59 184.087C1441.71 184.308 1442.08 184.537 1442.32 184.517C1444.16 184.333 1446 184.105 1447.83 183.844C1448.06 183.814 1448.38 183.571 1448.46 183.364C1448.73 182.557 1448.92 181.719 1449.16 180.78ZM1445.71 192.783C1446.46 190.224 1447.13 187.946 1447.83 185.573C1446.01 185.802 1444.32 186.011 1442.49 186.238C1443.57 188.435 1444.58 190.486 1445.71 192.783ZM1450.82 174.718C1449.17 175.809 1447.76 176.744 1446.17 177.787C1447.44 178.244 1448.5 178.635 1449.66 179.048C1450.04 177.618 1450.39 176.3 1450.82 174.718ZM1442.44 178.307C1440.97 177.867 1439.73 177.491 1438.21 177.036C1438.82 178.247 1439.31 179.194 1439.81 180.158C1440.67 179.556 1441.45 179.007 1442.44 178.307ZM1453.66 182.482C1452.76 182.144 1451.86 181.805 1450.91 181.449C1450.72 182.168 1450.56 182.751 1450.37 183.495C1451.6 183.205 1453.66 182.559 1453.66 182.482ZM1436.86 184.682C1436.89 184.755 1438.95 184.765 1440.04 184.698C1439.73 184.007 1439.49 183.453 1439.19 182.816C1438.34 183.504 1437.6 184.094 1436.86 184.682Z" fill="#210B03"/>
<path d="M1423.13 200.517C1422.18 199.826 1421.24 199.167 1420.33 198.449C1419.19 197.557 1419.31 196.548 1420.69 196.104C1422.13 195.637 1423.63 195.28 1425.13 195.083C1425.89 194.977 1426.69 194.694 1426.69 194.694C1426.69 194.694 1427.28 193.844 1427.44 193.55C1428.12 192.345 1428.95 191.214 1429.75 190.087C1430.63 188.847 1431.68 188.94 1432.26 190.365C1432.73 191.52 1433.03 192.748 1433.44 194.036C1434.88 194.016 1436.4 194.006 1437.91 193.972C1438.63 193.961 1439.51 193.934 1439.63 194.746C1439.71 195.29 1439.33 196.105 1438.88 196.497C1437.86 197.428 1436.71 198.229 1435.54 198.977C1434.83 199.435 1434.61 199.863 1434.81 200.729C1435.19 202.468 1435.45 204.247 1435.66 206.016C1435.72 206.497 1435.51 207.24 1435.17 207.471C1434.82 207.702 1434.05 207.62 1433.63 207.383C1431.96 206.448 1430.32 205.434 1428.73 204.352C1428.06 203.899 1427.61 203.936 1426.96 204.345C1425.36 205.353 1423.75 206.332 1422.09 207.227C1421.67 207.447 1421.05 207.6 1420.54 207.341C1420.08 207.174 1420.34 206.297 1420.51 205.895C1421.31 204.11 1422.2 202.382 1423.13 200.517ZM1425.25 200.108C1426.05 200.651 1426.74 201.166 1427.48 201.597C1427.7 201.726 1428.13 201.727 1428.36 201.604C1429.58 200.933 1430.78 200.223 1431.95 199.477C1432.16 199.343 1432.43 199.241 1432.35 198.723C1432.23 197.853 1432 196.989 1431.79 196.037C1430.37 196.188 1429.03 196.317 1427.7 196.508C1427.46 196.545 1427.37 196.489 1427.04 197.018C1426.42 197.98 1425.88 199.005 1425.25 200.108ZM1429.42 202.895C1430.85 203.733 1432.13 204.478 1433.62 205.342C1433.32 203.676 1433.07 202.304 1432.8 200.802C1431.65 201.511 1430.63 202.146 1429.42 202.895ZM1428.48 194.535C1429.59 194.418 1430.45 194.322 1431.43 194.218C1431.2 193.212 1431.01 192.321 1430.74 191.149C1429.91 192.397 1429.26 193.371 1428.48 194.535ZM1422.79 204.66C1422.83 204.7 1425.15 203.481 1426.36 202.782C1425.69 202.311 1425.13 201.919 1424.5 201.48C1423.9 202.606 1423.34 203.636 1422.79 204.66ZM1434.21 197.709C1435.15 197.058 1436.09 196.392 1437.05 195.722C1436 195.78 1434.94 195.844 1433.78 195.903C1433.95 196.604 1434.09 197.201 1434.21 197.709ZM1425.36 196.781C1423.99 197.058 1422.93 197.266 1421.63 197.529C1422.52 198.168 1423.2 198.665 1423.94 199.199C1424.4 198.429 1424.8 197.728 1425.36 196.781Z" fill="#210B03"/>
<path d="M1424.57 174.636C1426.11 174.369 1427.6 174.062 1429.1 173.865C1429.54 173.809 1430.26 173.925 1430.4 174.175C1430.7 174.73 1430.46 175.265 1430.19 175.574C1428.88 177.058 1427.5 178.488 1426.08 179.869C1425.5 180.425 1425.24 180.922 1425.37 181.761C1425.61 183.191 1425.76 184.647 1425.82 186.098C1425.84 186.59 1425.63 187.332 1425.28 187.544C1424.93 187.75 1424.19 187.562 1423.76 187.309C1422.74 186.714 1421.76 186.009 1420.83 185.285C1420.22 184.817 1419.76 184.819 1419.08 185.232C1417.9 185.943 1416.63 186.54 1415.35 187.084C1414.26 187.548 1413.65 187.165 1413.91 186.093C1414.07 185.478 1414.2 184.817 1414.43 184.204C1414.67 183.519 1415.28 182.067 1415.29 181.916C1414.36 181.386 1413.35 180.887 1412.42 180.274C1412.03 180.008 1411.52 179.463 1411.57 179.109C1411.63 178.671 1412.12 178.102 1412.56 177.928C1414.1 177.333 1418.18 176.17 1418.18 176.17C1418.71 175.235 1419.45 173.559 1419.95 172.611C1420.47 171.633 1420.99 170.655 1421.53 169.697C1421.74 169.326 1422.27 168.862 1422.59 168.897C1422.94 168.937 1423.4 169.466 1423.51 169.864C1423.92 171.396 1424.21 172.96 1424.57 174.636ZM1417.35 181.337C1418.13 181.817 1418.8 182.244 1419.48 182.633C1419.66 182.729 1419.98 182.814 1420.1 182.724C1421.14 181.965 1422.16 181.168 1423.17 180.369C1423.26 180.307 1423.29 180.12 1423.28 179.999C1423.14 178.899 1423 177.805 1422.85 176.677C1421.66 176.966 1420.63 177.196 1419.61 177.479C1419.32 177.559 1418.96 177.754 1418.84 177.995C1418.32 179.057 1417.87 180.156 1417.35 181.337ZM1425.03 178.841C1426.3 177.663 1428.4 175.464 1428.35 175.387C1427.14 175.674 1425.94 175.952 1424.69 176.249C1424.8 177.084 1424.9 177.833 1425.03 178.841ZM1419.91 175.698C1420.96 175.437 1421.79 175.241 1422.67 175.022C1422.5 173.839 1422.34 172.718 1422.14 171.346C1421.36 172.88 1420.68 174.187 1419.91 175.698ZM1421.24 183.801C1422.21 184.438 1423.06 184.997 1424.07 185.664C1423.89 184.379 1423.74 183.318 1423.57 182.17C1422.75 182.738 1422.07 183.218 1421.24 183.801ZM1417.11 178.088C1415.84 178.481 1414.8 178.802 1413.5 179.199C1414.5 179.749 1415.24 180.146 1416.01 180.556C1416.37 179.746 1416.68 179.055 1417.11 178.088ZM1415.57 185.138C1415.64 185.208 1417.56 184.372 1418.59 183.804C1417.86 183.375 1417.34 183.072 1416.74 182.722C1416.32 183.59 1415.94 184.364 1415.57 185.138Z" fill="#210B03"/>
</g>
<path d="M206.75 410.077C207.013 413.602 207.272 416.534 207.431 419.47C207.512 421.075 207.108 422.549 205.409 423.24C203.992 423.809 202.32 423.266 201.117 421.615C199.954 420.028 199.007 418.273 198.037 416.55C195.239 411.61 191.536 407.437 187.218 403.792C185.875 402.656 184.546 401.518 182.997 400.202C182.883 401.191 182.793 401.988 182.702 402.785C181.777 411.435 182.448 419.962 184.325 428.434C184.926 431.176 185.102 434.051 185.197 436.868C185.257 438.679 184.916 440.59 182.855 441.359C181.376 441.91 179.639 440.917 178.307 438.782C177.417 437.349 176.72 435.781 175.881 434.31C175.416 433.482 174.821 432.734 174.251 431.881C170.214 439.044 177.791 458.969 185.179 460.769C184.229 455.241 185.957 450.222 188.192 445.373C191.357 438.509 192.473 431.343 191.943 423.861C191.903 423.304 191.916 422.724 191.919 422.174C191.954 419.594 192.905 419.006 195.097 420.526C196.514 421.504 197.84 422.788 198.812 424.191C203.614 431.061 206.433 438.572 205.523 447.147C205.415 448.091 205.036 449.46 205.599 450.025C206.558 450.867 207.493 448.967 207.638 448.233C208.019 446.3 208.118 444.331 208.349 442.367C208.493 441.142 208.477 439.829 208.929 438.708C209.281 437.836 210.175 436.68 210.916 436.621C211.686 436.557 212.928 437.45 213.33 438.247C216.29 444.185 216.436 450.072 211.522 455.959C208.995 458.995 205.48 460.456 201.824 461.609C197.701 462.903 193.568 463.809 189.163 463.591C187.063 463.486 184.905 463.55 183.606 463.318C182.307 463.085 181.109 462.358 180.484 461.688C172.54 453.162 169.72 443.194 172.223 431.777C172.744 429.415 174.415 428.642 176.279 430.192C177.653 431.336 178.618 433.03 179.631 434.586C180.33 435.677 180.823 436.905 181.377 438.079C182.071 439.546 182.73 439.676 183.103 439.335C183.595 439.089 183.573 437.17 183.187 435.315C182.545 432.263 182.055 429.169 181.194 426.184C178.675 417.435 179.369 408.695 181.087 399.948C181.509 397.762 182.362 397.351 184.297 398.483C192.229 403.107 198.467 409.347 202.293 417.806C202.882 419.09 203.262 420.584 205.161 421.347C205.098 420.013 205.047 418.909 205.013 417.816C204.938 415.111 204.719 412.403 204.851 409.72C204.94 408.099 205.962 407.585 207.296 408.506C209.043 409.715 210.789 411.082 212.081 412.747C216.9 418.978 219.454 426.217 220.787 433.904C221.829 439.951 221.745 446.009 219.926 451.897C219.312 453.9 217.996 455.695 216.935 457.545C216.462 458.381 215.046 458.386 215.389 456.648C215.42 456.498 215.46 456.317 215.533 456.16C219.509 448.241 218.578 439.963 217.188 431.708C216.08 425.123 213.985 418.844 209.862 413.444C209.001 412.339 207.981 411.392 206.75 410.077ZM211.085 438.962C210.745 441.856 210.502 444.241 210.159 446.63C209.885 448.514 209.274 450.285 207.664 451.481C205.801 452.881 203.607 452.084 203.088 449.805C202.879 448.873 202.75 447.898 202.771 446.955C202.905 439.384 200.976 432.41 196.897 426.034C196.198 424.943 195.292 423.991 194.348 422.828C194.171 423.293 194.259 424.853 194.348 425.517C195.049 430.54 195.362 435.573 193.521 440.439C192.415 443.339 191.093 446.161 189.835 449.015C188.446 452.196 187.285 455.437 187.274 458.967C187.268 461.382 187.47 461.462 189.815 461.64C194.781 462.004 199.298 460.408 203.774 458.661C208.873 456.674 211.551 452.614 212.665 447.473C213.28 444.66 212.49 441.995 211.085 438.962Z" fill="#210B03"/>
<path d="M1319.78 439.614L1319.78 439.614C1323.06 433.691 1333.32 418.433 1362.68 391.368L1362.77 391.287C1364.78 389.48 1367.55 388.746 1370.17 389.38C1371.26 389.644 1372.42 390.152 1373.55 391.047C1375.97 392.951 1384.52 400.451 1392.62 407.692C1396.67 411.307 1400.59 414.851 1403.58 417.587C1405.07 418.955 1406.32 420.12 1407.24 420.99C1407.69 421.425 1408.06 421.783 1408.33 422.055C1408.47 422.192 1408.58 422.303 1408.66 422.39C1408.7 422.433 1408.73 422.468 1408.75 422.495C1408.76 422.508 1408.77 422.519 1408.78 422.526C1408.78 422.534 1408.78 422.537 1408.78 422.536C1408.88 422.67 1408.98 422.806 1409.08 422.945C1409.64 423.689 1410.27 424.539 1410.47 425.88C1410.7 427.452 1410.33 429.813 1408.03 433.447C1405.71 437.119 1396.38 449.741 1386.22 461.31C1381.15 467.093 1375.89 472.59 1371.21 476.567C1368.87 478.556 1366.7 480.149 1364.78 481.207C1362.84 482.277 1361.26 482.746 1360.08 482.63C1359.56 482.579 1358.63 482.239 1357.31 481.561C1356.02 480.899 1354.44 479.959 1352.66 478.796C1349.1 476.471 1344.77 473.276 1340.4 469.682C1336.02 466.088 1331.62 462.104 1327.9 458.204C1324.18 454.294 1321.18 450.507 1319.59 447.304L1318.96 447.617L1319.59 447.304C1318.39 444.87 1318.46 441.992 1319.78 439.614Z" fill="#F2973E" stroke="#210B03" stroke-width="1.40627"/>
<path d="M1400.71 423.972L1370.91 398.564C1369.05 396.973 1366.25 397.196 1364.66 399.061L1329.19 440.654C1327.6 442.519 1327.82 445.321 1329.69 446.912L1359.48 472.32C1361.35 473.91 1364.15 473.688 1365.74 471.822L1401.21 430.229C1402.8 428.364 1402.57 425.562 1400.71 423.972Z" fill="#FFFEFC"/>
<path d="M1366.72 410.617C1373 415.572 1379.1 420.752 1385 426.145C1386.68 427.68 1388.35 429.233 1390 430.801C1390.98 431.739 1392.43 430.205 1391.45 429.266C1385.65 423.747 1379.65 418.433 1373.46 413.344C1371.72 411.906 1369.95 410.485 1368.17 409.082C1367.73 408.729 1367.1 408.683 1366.68 409.124C1366.32 409.511 1366.27 410.262 1366.72 410.617Z" fill="#210B03"/>
<path d="M1349.86 430.547C1356.28 435.901 1362.57 441.406 1368.73 447.058C1370.5 448.675 1372.25 450.305 1373.99 451.945C1374.98 452.877 1376.43 451.343 1375.44 450.41C1369.35 444.671 1363.13 439.076 1356.78 433.632C1354.97 432.079 1353.14 430.539 1351.31 429.012C1350.87 428.646 1350.23 428.62 1349.82 429.054C1349.44 429.449 1349.42 430.18 1349.86 430.547L1349.86 430.547Z" fill="#210B03"/>
<path d="M1339.2 441.823C1345.62 447.176 1351.91 452.682 1358.07 458.334C1359.84 459.951 1361.59 461.58 1363.33 463.22C1364.32 464.152 1365.77 462.619 1364.78 461.685C1358.69 455.946 1352.47 450.351 1346.12 444.907C1344.31 443.354 1342.48 441.815 1340.65 440.287C1340.21 439.921 1339.57 439.896 1339.16 440.329C1338.78 440.725 1338.76 441.455 1339.2 441.822L1339.2 441.823Z" fill="#210B03"/>
<path d="M1376.95 402.077C1377.02 401.774 1378.71 398.64 1379.73 397.911C1381.17 396.88 1382.24 397.137 1383.63 398.157C1384.13 398.53 1385.76 399.839 1386.19 400.717C1389.6 395.473 1400.69 397.899 1396.18 407.815C1396.18 407.815 1400.91 411.025 1401.07 412.622C1401.23 414.22 1397.1 421.02 1395.75 420.098C1393.83 418.787 1375.97 406.141 1376.95 402.075L1376.95 402.077Z" fill="#5D6716" stroke="#210B03" stroke-width="1.1518" stroke-linecap="round" stroke-linejoin="round"/>
<path d="M1392.26 404.442C1391.49 403.648 1390.46 403.194 1389.45 403.489C1388.43 403.784 1387.49 404.762 1387.28 405.798C1387.07 406.853 1387.11 407.592 1388.26 408.677C1388.63 409.018 1389.09 409.195 1389.58 409.226C1389.87 409.243 1390.52 409.075 1390.78 408.951C1391.55 408.594 1392.62 407.906 1392.9 407.109C1393.18 406.301 1392.98 405.463 1392.26 404.442" fill="#FFFEFC"/>
<path d="M1392.99 403.679C1391.75 402.434 1389.99 401.954 1388.39 402.8C1386.97 403.548 1386.14 405.073 1386.13 406.652C1386.12 408.116 1387.27 409.608 1388.62 410.094C1390.18 410.655 1391.88 409.777 1393.02 408.728C1393.69 408.114 1394.08 407.289 1394.08 406.379C1394.08 405.469 1393.66 404.623 1393.16 403.898C1392.84 403.429 1392.22 403.233 1391.71 403.542C1391.25 403.824 1391.03 404.521 1391.36 404.993C1391.52 405.229 1391.67 405.471 1391.8 405.727C1391.81 405.748 1391.88 405.916 1391.82 405.773C1391.84 405.821 1391.86 405.87 1391.87 405.919C1391.89 405.968 1391.9 406.014 1391.92 406.062C1391.92 406.057 1391.98 406.332 1391.96 406.208C1391.94 406.129 1391.96 406.379 1391.97 406.44C1391.97 406.454 1391.96 406.605 1391.97 406.483C1391.98 406.353 1391.96 406.538 1391.96 406.569C1391.94 406.623 1391.86 406.884 1391.93 406.712C1391.91 406.771 1391.72 407.05 1391.81 406.939C1391.47 407.362 1391.13 407.577 1390.62 407.856C1390.58 407.881 1390.19 408.061 1390.42 407.971C1390.33 408.006 1390.24 408.035 1390.16 408.063C1390.04 408.099 1389.91 408.128 1389.79 408.156C1389.62 408.197 1389.92 408.151 1389.76 408.166C1389.7 408.171 1389.65 408.177 1389.59 408.175C1389.21 408.161 1388.92 407.88 1388.57 407.482C1388.69 407.617 1388.5 407.38 1388.47 407.337C1388.42 407.249 1388.37 407.157 1388.32 407.065C1388.41 407.235 1388.32 407.069 1388.29 406.974C1388.28 406.936 1388.27 406.898 1388.26 406.861C1388.19 406.637 1388.27 406.993 1388.26 406.863C1388.25 406.774 1388.24 406.685 1388.24 406.595C1388.24 406.552 1388.27 406.278 1388.25 406.413C1388.23 406.547 1388.28 406.248 1388.28 406.216C1388.31 406.086 1388.33 405.957 1388.37 405.83C1388.37 405.834 1388.43 405.667 1388.4 405.748C1388.36 405.845 1388.46 405.635 1388.46 405.619C1388.53 405.501 1388.59 405.381 1388.67 405.274C1388.59 405.377 1388.77 405.167 1388.79 405.139C1388.9 405.026 1389.01 404.911 1389.13 404.816C1389.02 404.903 1389.18 404.792 1389.19 404.785C1389.25 404.746 1389.32 404.702 1389.38 404.663C1389.45 404.625 1389.52 404.587 1389.58 404.558C1389.46 404.611 1389.65 404.537 1389.69 404.525C1389.75 404.508 1389.8 404.493 1389.86 404.48L1389.96 404.457C1389.9 404.47 1389.9 404.473 1389.97 404.466C1390.02 404.463 1390.08 404.462 1390.13 404.46L1390.24 404.463C1390.17 404.455 1390.17 404.456 1390.24 404.467C1390.77 404.558 1391.11 404.792 1391.54 405.215C1391.96 405.638 1392.65 405.579 1393.03 405.173C1393.43 404.748 1393.39 404.086 1392.99 403.68L1392.99 403.679Z" fill="#210B03"/>
<path d="M1358.57 420.697C1364.85 425.652 1370.94 430.832 1376.85 436.225C1378.53 437.76 1380.19 439.313 1381.84 440.882C1382.83 441.819 1384.28 440.285 1383.29 439.347C1377.49 433.827 1371.49 428.513 1365.31 423.424C1363.56 421.986 1361.8 420.565 1360.02 419.162C1359.57 418.809 1358.95 418.763 1358.53 419.204C1358.16 419.591 1358.12 420.342 1358.57 420.697Z" fill="#210B03"/>
<path d="M1353.67 464.704L1383.73 461.257L1383.4 466.941L1383.04 473.234L1355.05 476.451L1354.34 470.442L1353.67 464.704Z" fill="#FFFEFC" stroke="#210B03" stroke-width="1.1518" stroke-linecap="round" stroke-linejoin="round"/>
<path d="M1384.26 461.179C1384.26 461.179 1390.12 459.969 1390.79 465.516C1391.81 473.869 1386.49 472.174 1383.84 472.873" fill="#F2973E"/>
<path d="M1384.26 461.179C1384.26 461.179 1390.12 459.969 1390.79 465.516C1391.81 473.869 1386.49 472.174 1383.84 472.873" stroke="#210B03" stroke-width="1.1518" stroke-linecap="round" stroke-linejoin="round"/>
<path d="M1354.35 470.448L1382.8 467.02" stroke="#210B03" stroke-width="1.1518" stroke-linecap="round" stroke-linejoin="round"/>
<path d="M1353.68 464.704L1343.86 470.902L1355.05 476.452L1353.68 464.704Z" fill="#FFFEFC" stroke="#210B03" stroke-width="1.1518" stroke-linecap="round" stroke-linejoin="round"/>
<path d="M1349.06 468.088L1344.51 470.832L1349.96 473.694L1349.06 468.088Z" fill="#5D6716" stroke="#210B03" stroke-width="0.691083" stroke-linecap="round" stroke-linejoin="round"/>
<path d="M560.85 205.559C553.656 211.209 546.46 216.84 539.314 222.56C538.816 222.953 538.578 223.976 538.618 224.676C539.684 241.346 533.192 254.498 519.757 264.161C517.524 265.767 514.757 266.686 511.563 266.865C507.349 267.109 504.253 264.169 504.103 259.942C503.969 256.246 505.389 253.039 507.168 249.953C511.132 243.134 516.533 237.467 522.115 232.004C525.651 228.539 529.39 225.295 533.137 221.839C531.828 219.964 529.124 218.875 526.983 219.363C522.919 220.272 521.087 221.48 518.157 223.145C508.961 228.37 501.396 235.595 494.948 243.865C490.149 250.019 485.796 256.512 481.252 262.859C480.852 263.41 480.498 264.012 480.091 264.507C479.456 265.281 478.764 265.644 478.007 265.273C477.213 265.041 477.324 263.787 477.441 263.123C477.632 262.03 478.051 260.943 478.604 259.99C487.184 244.871 497.598 231.305 512.187 221.444C515.39 219.283 518.963 217.585 522.551 216.133C527.711 214.062 532.591 214.506 536.484 219.201C543.521 214.069 550.454 209.007 557.508 203.853C554.705 204.244 552.051 204.613 549.38 204.986C548.931 205.048 548.49 205.167 548.037 205.192C546.809 205.267 545.236 205.734 544.879 203.994C544.528 202.29 546.151 202.045 547.213 201.878C552.595 200.995 558.003 200.165 563.421 199.543C565.634 199.292 566.902 200.601 566.281 202.707C564.542 208.816 562.509 214.871 560.453 220.891C560.264 221.45 559.423 222.386 558.285 222.012C557.433 221.635 557.274 220.362 557.431 219.711C558.389 215.787 559.523 211.896 560.617 207.991C560.807 207.298 561.033 206.6 561.241 205.904C561.773 204.802 561.417 205.118 560.85 205.559ZM535.344 226.332C535.306 225.651 534.42 226.67 534.267 226.806C526.284 233.899 518.543 241.225 512.525 250.121C510.913 252.498 509.658 255.244 508.842 258.005C507.773 261.678 510.071 263.815 513.73 262.601C516.097 261.814 518.507 260.659 520.442 259.094C528.682 252.479 534.383 241.037 535.181 233.364C535.458 230.43 535.349 229.645 535.344 226.332Z" fill="#210B03"/>
<path d="M307.67 171.69C307.67 171.69 250.185 57.4159 214.048 96.2334C203.314 107.765 195.623 116.166 189.345 119.91C184.354 122.886 182.306 129.116 184.636 134.438C188.249 142.691 199.303 145.176 211.591 145.104C231.788 144.983 266.25 155.463 273.705 162.403C281.16 169.343 293.439 179.124 299.743 179.193C306.047 179.262 307.67 171.69 307.67 171.69Z" fill="#A4AE4D"/>
<path d="M307.681 171.694L294.095 76.3766C293.768 74.0825 295.74 72.1188 298.028 72.4606C304.881 73.4822 318.059 76.1504 327.945 82.4482C341.906 91.3391 331.717 88.5296 337.762 98.7628C343.808 108.996 345.064 113.567 343.274 120.171C342.137 124.364 330.202 153.248 320.92 167.096C316.204 174.127 307.68 171.697 307.68 171.697L307.681 171.694Z" fill="#5D6716"/>
<path d="M344.435 169.153C298.361 163.794 253.006 174.471 227.994 206.997C202.986 239.521 198.581 290.479 219.449 325.942C240.695 362.052 261.543 383.049 327.842 387.972C348.643 389.516 380.13 384.537 397.017 373.793C406.996 367.447 426.92 349.811 432.245 339.901C447.565 311.395 448.324 262.968 436.213 232.841C423.941 202.314 394.884 182.466 344.432 169.153" fill="#F2973E"/>
<path d="M288.248 260.166C289.868 266.317 295.895 270.05 302.004 270.551C305.268 270.82 308.545 269.999 311.154 268C313.501 266.203 315.148 263.342 315.84 260.496C316.274 258.716 315.594 256.81 313.744 256.17C312.136 255.614 309.855 256.474 309.418 258.267C308.977 260.069 308.316 261.479 307.096 262.542C305.962 263.533 304.195 263.909 302.441 263.767C301.394 263.684 300.727 263.522 299.696 263.154C298.666 262.787 298.358 262.628 297.508 262.058C296.657 261.488 296.459 261.274 295.725 260.431C295.481 260.1 295.437 260.047 295.586 260.271C295.461 260.069 295.343 259.859 295.234 259.645C295.126 259.431 295.027 259.213 294.938 258.99C295.03 259.254 295.019 259.185 294.901 258.786C294.434 257.013 292.75 255.76 290.884 256.146C289.158 256.502 287.774 258.38 288.243 260.163L288.248 260.166Z" fill="#A45314"/>
<path d="M346.084 263.772C347.704 269.923 353.731 273.655 359.84 274.157C363.104 274.425 366.381 273.604 368.99 271.605C371.337 269.809 372.984 266.947 373.676 264.102C374.11 262.322 373.43 260.416 371.58 259.776C369.972 259.219 367.691 260.08 367.254 261.872C366.813 263.675 366.151 265.084 364.932 266.148C363.798 267.138 362.031 267.515 360.277 267.373C359.23 267.289 358.562 267.127 357.532 266.76C356.502 266.393 356.194 266.234 355.344 265.664C354.493 265.094 354.295 264.879 353.56 264.037C353.317 263.706 353.273 263.652 353.422 263.876C353.297 263.674 353.179 263.465 353.069 263.251C352.962 263.037 352.863 262.819 352.774 262.596C352.865 262.859 352.855 262.79 352.737 262.392C352.27 260.618 350.586 259.366 348.72 259.751C346.994 260.108 345.61 261.985 346.079 263.769L346.084 263.772Z" fill="#A45314"/>
<path d="M315.99 290.848C317.891 298.067 324.964 302.447 332.133 303.035C335.964 303.35 339.809 302.387 342.872 300.041C345.626 297.932 347.559 294.575 348.371 291.235C348.88 289.146 348.082 286.91 345.911 286.158C344.024 285.506 341.347 286.515 340.834 288.619C340.317 290.734 339.54 292.388 338.109 293.636C336.779 294.798 334.704 295.24 332.646 295.074C331.418 294.976 330.634 294.786 329.425 294.355C328.216 293.924 327.855 293.737 326.857 293.068C325.859 292.399 325.626 292.148 324.764 291.159C324.479 290.77 324.427 290.708 324.602 290.971C324.455 290.733 324.317 290.487 324.188 290.236C324.062 289.985 323.946 289.729 323.842 289.468C323.949 289.777 323.936 289.696 323.798 289.228C323.25 287.147 321.274 285.677 319.083 286.13C317.058 286.548 315.434 288.751 315.985 290.844L315.99 290.848Z" fill="#A45314"/>
<path d="M324.126 376.557C320.884 400.873 316.491 447.291 321.673 459.262M321.673 459.262C322.33 460.779 323.14 461.742 324.126 462.038C332.893 464.668 326.144 461.283 321.673 459.262Z" stroke="#F2973E" stroke-width="8.76733"/>
<path d="M486.857 247.014L490.689 249.143C491.051 248.492 491.241 247.759 491.241 247.014H486.857ZM420.465 298.291C431.304 294.18 447.125 286.666 460.254 279.209C466.812 275.485 472.834 271.698 477.268 268.289C479.473 266.594 481.423 264.888 482.865 263.236C484.121 261.797 485.761 259.555 485.761 256.878H476.994C476.994 256.117 477.344 256.229 476.26 257.471C475.361 258.5 473.921 259.804 471.924 261.339C467.957 264.389 462.334 267.945 455.924 271.586C443.117 278.86 427.704 286.168 417.355 290.093L420.465 298.291ZM485.761 256.878C485.761 253.595 486.867 250.909 487.719 249.682C487.92 249.392 488.029 249.298 488.002 249.321C487.985 249.336 487.882 249.425 487.69 249.53C487.508 249.63 487.13 249.807 486.588 249.881C486.009 249.959 485.248 249.913 484.467 249.542C483.69 249.172 483.188 248.618 482.898 248.152C482.407 247.361 482.473 246.766 482.473 247.014H491.241C491.241 246.166 491.136 244.798 490.345 243.525C489.906 242.817 489.222 242.095 488.235 241.626C487.246 241.155 486.249 241.079 485.414 241.192C483.911 241.395 482.822 242.206 482.244 242.71C481.575 243.293 480.999 243.987 480.516 244.684C478.627 247.405 476.994 251.842 476.994 256.878H485.761ZM483.025 244.885L477.545 254.749L485.209 259.006L490.689 249.143L483.025 244.885Z" fill="#F2973E"/>
<path d="M163.487 350.834L165.372 354.791C166.196 354.399 166.876 353.76 167.319 352.963L163.487 350.834ZM229.879 299.557C218.808 303.756 204.691 312.174 192.65 319.923C186.581 323.828 180.954 327.62 176.4 330.71C171.78 333.844 168.4 336.163 166.655 337.246L171.278 344.695C173.223 343.488 176.847 341.001 181.322 337.965C185.861 334.885 191.417 331.142 197.394 327.295C209.445 319.541 222.871 311.592 232.988 307.755L229.879 299.557ZM166.655 337.246C162.517 339.814 159.247 343.476 157.703 346.487C157.307 347.258 156.932 348.165 156.743 349.13C156.581 349.958 156.397 351.636 157.393 353.259C158.614 355.248 160.656 355.738 162.068 355.691C163.334 355.648 164.489 355.212 165.372 354.791L161.601 346.876C161.169 347.082 161.288 346.945 161.775 346.928C162.41 346.907 163.931 347.15 164.866 348.675C165.239 349.283 165.345 349.846 165.372 350.184C165.4 350.519 165.361 350.744 165.348 350.812C165.324 350.932 165.328 350.831 165.504 350.487C166.248 349.037 168.349 346.513 171.278 344.695L166.655 337.246ZM167.319 352.963L172.798 343.099L165.134 338.842L159.655 348.705L167.319 352.963Z" fill="#F2973E"/>
<path d="M274.704 367.789C271.462 392.106 267.069 438.523 272.251 450.494M272.251 450.494C272.908 452.011 273.718 452.975 274.704 453.271C283.472 455.901 276.722 452.516 272.251 450.494Z" stroke="#F2973E" stroke-width="8.76733"/>
<defs>
<clipPath id="clip0_822_14180">
<rect width="107.161" height="80.1887" fill="white" transform="matrix(0.981944 -0.189173 0.212616 0.977136 1318 33.2695)"/>
</clipPath>
<clipPath id="clip1_822_14180">
<rect width="47.9308" height="47.9308" fill="white" transform="translate(1412.62 162) rotate(9.14818)"/>
</clipPath>
</defs>
</svg>
