<svg width="717" height="972" viewBox="0 0 717 972" fill="none" xmlns="http://www.w3.org/2000/svg">
<mask id="mask0_772_14505" style="mask-type:alpha" maskUnits="userSpaceOnUse" x="0" y="0" width="717" height="972">
<rect width="717" height="972" fill="#F2F5C8"/>
</mask>
<g mask="url(#mask0_772_14505)">
<rect width="717" height="972" fill="#F2F5C8"/>
<g clip-path="url(#clip0_772_14505)">
<path d="M749.644 253.343L748.158 253.463L744.502 249.134C744.502 249.134 660.658 316.027 658.54 320.229C656.421 324.431 656.544 332.918 659.203 334.411C661.862 335.904 683.692 331.108 701.82 327.79C719.939 324.466 737.29 321.597 737.755 321.541C738.22 321.485 744.725 286.163 745.249 283.45C745.772 280.736 750.425 254.74 750.425 254.74L749.654 253.349L749.644 253.343Z" fill="#A4AE4D"/>
<path d="M745.158 251.042C745.158 251.042 742.255 265.17 741.263 269.712C740.269 274.247 733.793 309.213 733.793 309.213C733.793 309.213 727.71 310.477 723.796 311.181C719.882 311.885 663.651 321.928 661.859 322.431C660.068 322.934 659.738 323.247 658.861 324.864C657.984 326.48 658.402 330.476 659.628 331.721C660.845 332.968 663.262 332.818 666.446 332.213C669.628 331.6 700.128 325.691 709.752 324.003C722.602 321.744 736.561 319.337 736.561 319.337C736.561 319.337 736.898 317.268 737.027 316.278C737.157 315.288 744.557 277.214 745.426 272.429C746.295 267.645 748.329 255.214 748.329 255.214L745.17 251.056L745.158 251.042Z" fill="#FFFEFC"/>
<path d="M744.593 247.323C744.28 247.1 733.589 248.802 733.589 248.802L663.399 307.941C663.399 307.941 657.024 322.938 657.693 322.717C658.361 322.497 684.331 318.159 690.634 317.137C696.936 316.114 734.252 309.141 734.252 309.141C734.252 309.141 740.021 278.77 740.88 273.371C741.748 267.971 745.691 249.033 745.691 249.033C745.691 249.033 744.9 247.555 744.587 247.332L744.593 247.323Z" fill="#A4AE4D"/>
<path d="M734.387 249.533L732.919 245.714L733.066 245.128L732.671 243.233C732.671 243.233 722.901 243.842 711.507 245.563C700.128 247.272 682.969 250.37 682.574 250.546C682.179 250.722 674.395 267.488 671.409 273.962C668.423 280.435 658.032 298.752 657.585 300.477C657.13 302.204 657.397 305.014 658.031 306.465C658.664 307.915 659.428 308.134 661.683 308.174C663.929 308.215 697.476 301.561 705.002 300.269C712.528 298.977 725.534 297.187 725.534 297.187C725.534 297.187 732.609 266.273 733.793 259.93C734.979 253.595 735.833 250.818 735.833 250.818C735.55 250.249 735.044 249.631 734.38 249.542L734.387 249.533Z" fill="#5D6716"/>
<path d="M716.981 251.826C716.981 251.826 714.118 262.436 713.64 264.425C713.153 266.415 712.46 268.795 712.46 268.795C712.46 268.795 695.409 271.173 690.231 272.163C685.053 273.152 680.266 273.949 680.266 273.949C680.266 273.949 683.681 265.629 685.158 261.326C686.636 257.023 687.39 256.545 687.39 256.545C687.39 256.545 712.879 252.516 716.99 251.824L716.981 251.826Z" fill="#FFFEFC"/>
<path d="M732.653 246.723C732.653 246.723 732.287 249.955 732.195 250.305C731.617 252.563 730.013 257.789 729.047 262.858C727.934 268.714 722.86 293.468 722.86 293.468C722.86 293.468 706.614 295.683 700.615 296.88C694.615 298.078 683.868 299.599 674.164 301.244C672.441 301.534 659.64 302.802 658.893 304.693C658.237 306.351 660.111 307.446 661.343 307.175C662.526 306.922 688.656 302.063 694.268 301.156C699.888 300.248 724.694 296.368 724.749 295.767C724.804 295.165 729.006 276.768 730.279 270.067C731.552 263.358 734.318 250.512 734.318 250.512L732.645 246.724L732.653 246.723Z" fill="#FFFEFC"/>
<path d="M743.752 247.718C742.222 255.8 740.683 263.883 739.133 271.961C737.422 280.918 735.709 289.867 734.016 298.829C733.449 301.833 732.881 304.829 732.315 307.834C732.415 307.723 732.516 307.62 732.616 307.509C725.018 308.798 717.416 310.105 709.825 311.426C698.154 313.458 686.513 315.667 674.822 317.645C671.333 318.234 667.842 318.807 664.359 319.42C663.413 319.585 662.475 319.741 661.538 319.946C660.618 320.149 659.527 320.417 658.733 320.911C658.337 321.162 658.669 321.797 659.074 321.544C660.427 320.693 662.39 320.489 663.963 320.203C666.874 319.684 669.794 319.205 672.703 318.719C679.22 317.622 685.727 316.443 692.224 315.258C702.82 313.324 713.442 311.511 724.063 309.69C726.96 309.19 729.859 308.698 732.767 308.204C732.945 308.17 733.039 308.035 733.068 307.88C734.479 300.428 735.892 292.985 737.305 285.541C739.038 276.438 740.789 267.34 742.524 258.246C743.188 254.757 743.851 251.26 744.515 247.77C744.603 247.321 743.852 247.283 743.762 247.724L743.752 247.718Z" fill="#210B03"/>
<path d="M735.449 250.783C734.213 257.17 732.728 263.512 731.308 269.868C729.642 277.327 727.957 284.781 726.262 292.229C725.896 293.839 725.532 295.456 725.158 297.068C725.247 296.992 725.346 296.915 725.435 296.84C723.729 297.127 722.034 297.42 720.328 297.707C716.083 298.433 711.836 299.152 707.591 299.878C702.178 300.804 696.765 301.731 691.362 302.663C686.104 303.568 680.847 304.481 675.584 305.404C671.794 306.067 668.003 306.731 664.222 307.434C663.925 307.492 663.628 307.549 663.331 307.606C662.856 307.698 663.005 308.384 663.482 308.301C666.965 307.646 670.456 307.032 673.939 306.419C679.107 305.507 684.279 304.61 689.444 303.723C694.906 302.779 700.37 301.843 705.834 300.907C710.283 300.141 714.733 299.384 719.184 298.626C720.616 298.384 722.049 298.141 723.482 297.898C724.13 297.79 724.872 297.747 725.501 297.551C725.527 297.546 725.561 297.539 725.586 297.534C725.705 297.511 725.844 297.418 725.864 297.306C726.897 292.789 727.921 288.274 728.936 283.752C730.745 275.733 732.555 267.714 734.31 259.689C734.951 256.745 735.611 253.805 736.178 250.843C736.266 250.393 735.515 250.355 735.425 250.796L735.449 250.783Z" fill="#210B03"/>
<path d="M695.608 257.728C690.517 258.468 687.497 258.933 687.497 258.933L687.265 259.818C687.265 259.818 706.043 256.8 707.273 256.563C708.503 256.326 712.61 255.651 712.61 255.651L712.645 255.162C712.645 255.162 700.697 256.981 695.608 257.728Z" fill="#210B03"/>
<path d="M711.509 259.098L686.147 263.144L686.212 264.088L711.709 260.016L711.509 259.098Z" fill="#210B03"/>
<path d="M686.115 267.585L685.501 268.66L710.591 264.667L710.44 263.972L686.115 267.585Z" fill="#210B03"/>
</g>
<path d="M601.76 868.017C601.76 868.017 524.864 812.26 512.912 848.423C509.362 859.166 506.864 866.953 503.801 871.305C501.367 874.764 502.014 879.407 505.359 882.112C510.543 886.305 518.921 884.484 527.302 880.636C541.076 874.309 568.094 870.389 575.475 872.55C582.856 874.71 594.471 877.205 598.805 875.299C603.139 873.393 601.76 868.017 601.76 868.017Z" fill="#A4AE4D"/>
<path d="M601.762 868.017L561.126 810.876C560.148 809.501 560.851 807.627 562.529 807.139C567.552 805.676 577.442 803.316 586.275 804.31C598.748 805.712 590.854 807.057 598.355 811.772C605.855 816.487 608.217 819.04 609.164 823.844C609.766 826.895 611.1 849.177 609.305 860.961C608.393 866.945 601.763 868.019 601.763 868.019L601.762 868.017Z" fill="#5D6716"/>
<path d="M626.063 855.009C592.787 865.817 565.277 886.722 558.866 915.394C552.456 944.064 566.2 978.222 592.135 994.589C618.541 1011.25 639.705 1018.32 686.67 1000.97C701.405 995.528 721.304 982.581 729.321 970.441C734.059 963.269 741.887 945.754 742.271 937.729C743.375 914.643 727.97 883.241 709.779 867.6C691.347 851.75 664.946 847.967 626.06 855.01" fill="#F2973E"/>
<path d="M619.246 927.842C622.991 927.905 630.274 928.602 629.447 930.883C628.62 933.164 626.495 937.052 625.536 938.711" stroke="#A45314" stroke-width="5" stroke-linecap="round" stroke-linejoin="round"/>
<path d="M672.456 917.812C674.879 916.925 676.37 914.072 675.286 911.759C674.197 909.44 671.449 908.147 668.854 909.097C666.431 909.983 664.94 912.837 666.024 915.149C667.113 917.469 669.861 918.762 672.456 917.812Z" fill="#A45314"/>
<path d="M646.492 942.244C649.948 946.368 656.104 947.209 661.195 945.577C663.915 944.705 666.264 943.005 667.665 940.632C668.924 938.499 669.248 935.79 668.809 933.408C668.535 931.917 667.321 930.698 665.608 930.823C664.12 930.931 662.585 932.333 662.861 933.834C663.138 935.344 663.098 936.629 662.489 937.836C661.923 938.959 660.633 939.826 659.172 940.296C658.301 940.578 657.707 940.675 656.749 940.736C655.792 940.798 655.489 940.779 654.605 940.627C653.721 940.476 653.486 940.379 652.601 939.983C652.289 939.812 652.234 939.786 652.433 939.907C652.261 939.795 652.093 939.675 651.93 939.549C651.769 939.423 651.613 939.29 651.463 939.151C651.629 939.32 651.596 939.271 651.362 939.008C650.366 937.819 648.572 937.426 647.206 938.332C645.942 939.17 645.486 941.047 646.487 942.243L646.492 942.244Z" fill="#A45314"/>
<path d="M670.867 698.528C670.655 699.012 667.007 698.622 662.88 698.011C657.28 697.172 650.786 695.939 650.786 695.939C650.786 695.939 653.389 686.197 660.524 682.783C660.524 682.783 664.395 687.992 667.405 692.434C669.431 695.425 671.071 698.065 670.867 698.528Z" fill="#A4AE4D"/>
<path d="M669.826 697.953C669.031 697.962 667.196 697.843 662.994 697.219C658.704 696.579 653.127 695.514 651.149 695.15C651.911 692.892 654.585 685.81 659.682 682.964C660.782 684.455 664.297 689.36 666.673 692.865C668.719 695.881 669.519 697.297 669.833 697.95L669.826 697.953Z" fill="#FFFEFC"/>
<path d="M594.516 641.426C594.516 641.426 590.824 639.143 589.877 638.644C588.92 638.141 587.229 638.065 584.924 640.023C582.62 641.981 579.053 646.207 579.14 647.734C579.226 649.261 580.684 650.578 581.878 651.398C583.073 652.218 585.267 653.657 585.267 653.657L594.516 641.426Z" fill="#FFB697"/>
<path d="M601.61 645.845C601.61 645.845 647.028 674.25 651.697 677.162C656.366 680.073 660.51 682.781 660.51 682.781C660.51 682.781 658.323 687.746 654.712 691.732C651.101 695.717 650.768 695.947 650.768 695.947C650.768 695.947 607.589 668.781 604.171 666.717C600.746 664.655 591.226 658.176 591.226 658.176L601.603 645.848L601.61 645.845Z" fill="#A4AE4D"/>
<path d="M602.018 646.177C602.018 646.177 602.055 645.395 601.485 644.824C600.914 644.254 600.364 643.951 599.628 644.213C599.628 644.213 599.54 643.488 598.64 642.854C597.736 642.23 596.811 642.849 596.811 642.849C596.811 642.849 596.987 641.537 596.069 641.202C595.15 640.868 594.338 641.259 594.338 641.259C594.338 641.259 591.706 644.729 589.843 647.124C587.971 649.522 584.888 652.893 584.589 653.443C584.291 653.994 584.651 654.713 584.981 655.018C585.66 655.655 585.832 655.462 586.652 655.168C586.652 655.168 586.817 656.389 587.527 656.813C588.229 657.24 589.129 656.806 589.129 656.806C589.129 656.806 589.365 657.949 590.03 658.391C590.694 658.833 591.32 658.622 591.703 658.465C592.086 658.307 592.533 658.075 592.533 658.075L602.018 646.177Z" fill="#56574E"/>
<path d="M599.337 644.011C596.752 647.405 594.113 650.778 591.297 654.012C590.536 654.884 589.775 655.773 588.901 656.547C588.57 656.843 589.004 657.366 589.338 657.078C591.098 655.516 592.571 653.623 594.044 651.831C595.695 649.82 597.307 647.781 598.895 645.727C599.237 645.294 599.567 644.856 599.905 644.416C600.17 644.071 599.61 643.663 599.337 644.011Z" fill="#210B03"/>
<path d="M596.534 642.65C593.86 645.986 591.169 649.321 588.419 652.604C587.752 653.406 587.086 654.208 586.37 654.979C586.07 655.305 586.635 655.702 586.938 655.384C588.442 653.763 589.815 652.027 591.211 650.323C592.841 648.344 594.446 646.35 596.055 644.363C596.404 643.927 596.756 643.498 597.097 643.064C597.373 642.723 596.805 642.319 596.529 642.66L596.534 642.65Z" fill="#210B03"/>
<path d="M670.135 698.022C670.156 698.068 670.173 698.11 670.189 698.149C670.148 698.153 670.103 698.156 670.054 698.158C669.658 698.178 669.085 698.158 668.365 698.102C667.181 698.01 665.659 697.824 664.004 697.59C665.119 696.22 666.368 694.677 667.326 693.493C667.339 693.478 667.352 693.462 667.364 693.446C668.185 694.674 668.913 695.807 669.442 696.712C669.757 697.251 669.993 697.695 670.135 698.022ZM670.274 698.421C670.275 698.428 670.275 698.431 670.275 698.431C670.274 698.43 670.274 698.427 670.274 698.421Z" fill="#210B03" stroke="#210B03" stroke-width="1.19077"/>
<path d="M595.078 657.746C596.747 658.798 598.416 659.85 600.085 660.902C604.184 663.486 608.283 666.069 612.385 668.66C617.49 671.877 622.584 675.091 627.689 678.308C632.412 681.283 637.135 684.257 641.865 687.228C644.821 689.089 647.777 690.949 650.742 692.79C650.914 692.898 651.096 693.01 651.268 693.119C651.647 693.355 652.08 692.827 651.698 692.584C649.045 690.948 646.415 689.285 643.771 687.629C639.163 684.735 634.563 681.838 629.963 678.941C624.833 675.708 619.703 672.475 614.574 669.242C610.29 666.539 606.008 663.843 601.724 661.14C599.687 659.856 597.701 658.427 595.585 657.265C595.553 657.253 595.525 657.23 595.498 657.208C595.119 656.971 594.686 657.499 595.068 657.742L595.078 657.746Z" fill="#210B03"/>
<path d="M57.137 292.618C56.9241 293.102 53.2766 292.712 49.1499 292.1C43.549 291.262 37.056 290.029 37.056 290.029C37.056 290.029 39.659 280.287 46.7937 276.873C46.7937 276.873 50.6645 282.081 53.6748 286.524C55.7004 289.515 57.341 292.155 57.137 292.618Z" fill="#A4AE4D"/>
<path d="M56.095 292.043C55.3009 292.052 53.4659 291.932 49.2631 291.309C44.9732 290.669 39.3968 289.604 37.4187 289.24C38.1809 286.982 40.8546 279.899 45.9517 277.054C47.0511 278.545 50.5665 283.45 52.9425 286.955C54.9881 289.971 55.7884 291.386 56.1026 292.04L56.095 292.043Z" fill="#FFFEFC"/>
<path d="M-12.1203 239.934C-12.1203 239.934 33.2972 268.339 37.9661 271.251C42.635 274.163 46.7795 276.871 46.7795 276.871C46.7795 276.871 44.5929 281.836 40.9818 285.822C37.3706 289.807 37.0373 290.037 37.0373 290.037C37.0373 290.037 -6.14122 262.871 -9.55923 260.807C-12.9848 258.745 -22.5046 252.266 -22.5046 252.266L-12.1278 239.937L-12.1203 239.934Z" fill="#A4AE4D"/>
<path d="M56.4049 292.112C56.4251 292.158 56.4427 292.2 56.4581 292.239C56.4176 292.242 56.3728 292.245 56.3235 292.248C55.9274 292.268 55.3543 292.248 54.6348 292.192C53.4507 292.099 51.9288 291.914 50.273 291.68C51.3887 290.31 52.6375 288.767 53.5958 287.583C53.6085 287.567 53.6212 287.552 53.6338 287.536C54.455 288.764 55.1829 289.897 55.7119 290.802C56.0268 291.341 56.2622 291.784 56.4049 292.112ZM56.5434 292.511C56.5443 292.518 56.5443 292.521 56.5441 292.52C56.5439 292.52 56.5435 292.517 56.5434 292.511Z" fill="#210B03" stroke="#210B03" stroke-width="1.19077"/>
<path d="M-18.652 251.836C-16.983 252.888 -15.3141 253.94 -13.6452 254.992C-9.54645 257.575 -5.44773 260.159 -1.34588 262.749C3.75911 265.967 8.8534 269.181 13.9584 272.398C18.6814 275.372 23.4044 278.347 28.135 281.318C31.0908 283.179 34.0467 285.039 37.0115 286.879C37.1833 286.988 37.3658 287.1 37.5376 287.208C37.9165 287.445 38.3494 286.917 37.9674 286.674C35.3142 285.038 32.6849 283.375 30.0405 281.719C25.4326 278.825 20.8324 275.928 16.2321 273.031C11.1025 269.798 5.97301 266.565 0.843478 263.332C-3.44088 260.629 -7.7221 257.933 -12.0065 255.23C-14.0435 253.946 -16.0292 252.517 -18.1454 251.355C-18.1775 251.343 -18.2052 251.32 -18.2329 251.298C-18.6117 251.061 -19.0447 251.589 -18.6627 251.832L-18.652 251.836Z" fill="#210B03"/>
<path d="M416.703 345.394C416.703 345.394 342.677 282.779 327.478 318.882C322.964 329.606 319.769 337.386 316.279 341.612C313.504 344.971 313.784 349.766 316.98 352.775C321.936 357.44 330.652 356.19 339.537 352.866C354.141 347.401 382.087 345.365 389.456 348.112C396.824 350.858 408.494 354.257 413.083 352.624C417.671 350.991 416.703 345.394 416.703 345.394Z" fill="#A4AE4D"/>
<path d="M416.729 345.377L379.889 283.992C379.002 282.515 379.875 280.65 381.631 280.274C386.887 279.144 397.194 277.452 406.143 279.113C418.779 281.456 410.598 282.255 417.878 287.623C425.158 292.991 427.363 295.774 427.935 300.754C428.299 303.917 427.828 326.796 425.023 338.714C423.596 344.765 416.73 345.379 416.73 345.379L416.729 345.377Z" fill="#5D6716"/>
<path d="M442.618 333.856C407.706 342.48 377.858 361.847 368.941 390.694C360.026 419.539 371.264 455.465 396.433 474.09C422.058 493.055 443.114 501.819 492.561 487.51C508.075 483.02 529.486 471.234 538.683 459.407C544.118 452.419 553.564 435.082 554.617 426.905C557.648 403.382 544.484 370.153 527.174 352.834C509.634 335.286 482.953 329.492 442.616 333.857" fill="#F2973E"/>
<path d="M436.86 415.9C439.41 415.17 441.169 412.361 440.251 409.918C439.329 407.467 436.626 405.945 433.894 406.727C431.344 407.456 429.585 410.265 430.503 412.709C431.42 415.152 434.128 416.682 436.86 415.9Z" fill="#A45314"/>
<path d="M484.622 400.216C487.171 399.486 488.931 396.678 488.013 394.234C487.091 391.784 484.388 390.261 481.656 391.043C479.106 391.773 477.347 394.582 478.264 397.025C479.187 399.476 481.89 400.998 484.622 400.216Z" fill="#A45314"/>
<path d="M456.112 423.589C459.427 427.978 465.685 429.136 470.988 427.709C473.821 426.947 476.319 425.319 477.882 422.956C479.288 420.832 479.766 418.074 479.446 415.613C479.247 414.074 478.069 412.767 476.309 412.812C474.778 412.852 473.131 414.214 473.332 415.764C473.533 417.324 473.423 418.638 472.734 419.844C472.093 420.968 470.725 421.794 469.203 422.205C468.296 422.451 467.682 422.522 466.698 422.539C465.714 422.555 465.405 422.521 464.508 422.324C463.611 422.126 463.376 422.015 462.49 421.567C462.181 421.377 462.126 421.348 462.323 421.481C462.153 421.358 461.988 421.228 461.828 421.091C461.67 420.953 461.517 420.81 461.371 420.66C461.532 420.842 461.501 420.79 461.275 420.51C460.319 419.244 458.504 418.755 457.055 419.617C455.715 420.415 455.146 422.315 456.107 423.588L456.112 423.589Z" fill="#A45314"/>
<path d="M110.99 67.7604C110.99 67.7604 203.608 40.3911 178.951 10.4574C171.627 1.56616 166.274 -4.82096 164.238 -9.67601C162.619 -13.5357 158.203 -15.696 153.931 -14.6657C147.309 -13.069 144.096 -5.56401 142.648 3.10422C140.269 17.3525 128.207 40.4352 122.097 44.8908C115.988 49.3463 107.161 56.8756 106.338 61.3102C105.516 65.7448 110.99 67.7604 110.99 67.7604Z" fill="#A4AE4D"/>
<path d="M110.99 67.7631L184.044 69.1523C185.802 69.1861 187.032 70.8017 186.496 72.3751C184.893 77.0873 181.284 86.0678 175.358 92.3109C166.992 101.127 170.342 94.2692 161.938 97.353C153.535 100.437 149.957 100.796 145.23 98.7748C142.228 97.4914 122.053 85.7573 112.815 77.6225C108.125 73.4906 110.988 67.7626 110.988 67.7626L110.99 67.7631Z" fill="#5D6716"/>
<path d="M108.4 93.9549C118.046 62.0992 115.594 28.9066 94.2889 7.53758C72.9859 -13.8289 35.3569 -22.795 6.24336 -12.1669C-23.4002 -1.34696 -41.6756 10.931 -53.4675 57.0906C-57.1673 71.573 -57.2869 94.3367 -51.3042 107.474C-47.7706 115.237 -36.9967 131.307 -30.2254 136.2C-10.7472 150.277 25.4323 156.382 49.4777 151.312C73.8427 146.174 92.2613 127.979 108.4 93.9528" fill="#F2973E"/>
<path d="M47.0918 43.9382C42.2864 44.3719 38.7541 48.1904 37.6316 52.4381C37.0317 54.7076 37.2457 57.1115 38.424 59.1807C39.4828 61.0413 41.4247 62.5311 43.4712 63.3464C44.7516 63.857 46.2622 63.5967 46.9678 62.3665C47.5811 61.297 47.2156 59.5907 45.9264 59.0764C44.6301 58.5587 43.6552 57.9301 43.008 56.9484C42.4048 56.0352 42.3387 54.7463 42.6595 53.5266C42.8498 52.7987 43.0529 52.3466 43.4539 51.6627C43.855 50.9788 44.0115 50.7803 44.5424 50.2464C45.0733 49.7124 45.2583 49.5976 45.9791 49.1768C46.2568 49.0435 46.3022 49.0183 46.1161 49.0978C46.283 49.0326 46.4543 48.9738 46.6279 48.9212C46.8012 48.8703 46.9769 48.8254 47.1545 48.7884C46.9462 48.8224 46.999 48.8229 47.312 48.7857C48.6973 48.6605 49.8412 47.6177 49.7807 46.2581C49.7246 45.0008 48.4877 43.8098 47.0945 43.9351L47.0918 43.9382Z" fill="#A45314"/>
<path d="M37.3222 84.2898C32.5168 84.7235 28.9846 88.5419 27.8621 92.7897C27.2622 95.0592 27.4762 97.4631 28.6544 99.5323C29.7133 101.393 31.6552 102.883 33.7017 103.698C34.982 104.209 36.4926 103.948 37.1983 102.718C37.8116 101.649 37.446 99.9423 36.1568 99.428C34.8606 98.9103 33.8857 98.2816 33.2385 97.2999C32.6352 96.3868 32.5692 95.0978 32.89 93.8781C33.0803 93.1503 33.2833 92.6982 33.6844 92.0143C34.0855 91.3303 34.242 91.1319 34.7729 90.5979C35.3038 90.064 35.4888 89.9492 36.2095 89.5284C36.4873 89.395 36.5327 89.3698 36.3466 89.4493C36.5135 89.3841 36.6847 89.3254 36.8584 89.2727C37.0316 89.2218 37.2073 89.177 37.385 89.1399C37.1767 89.174 37.2295 89.1744 37.5425 89.1373C38.9278 89.0121 40.0717 87.9693 40.0112 86.6096C39.955 85.3523 38.7181 84.1614 37.3249 84.2867L37.3222 84.2898Z" fill="#A45314"/>
<path d="M20.7202 59.9581C15.0808 60.4671 10.9355 64.9482 9.6182 69.9332C8.91418 72.5965 9.16531 75.4176 10.5481 77.8459C11.7907 80.0294 14.0696 81.7778 16.4713 82.7346C17.9739 83.3337 19.7466 83.0283 20.5747 81.5846C21.2944 80.3295 20.8655 78.327 19.3525 77.7235C17.8313 77.116 16.6872 76.3782 15.9277 75.2261C15.2197 74.1545 15.1422 72.6419 15.5187 71.2105C15.7421 70.3563 15.9803 69.8258 16.451 69.0231C16.9217 68.2205 17.1054 67.9877 17.7284 67.361C18.3515 66.7344 18.5686 66.5997 19.4144 66.1059C19.7403 65.9494 19.7936 65.9198 19.5752 66.0131C19.7711 65.9366 19.972 65.8676 20.1759 65.8058C20.3792 65.7461 20.5853 65.6935 20.7938 65.65C20.5494 65.69 20.6114 65.6905 20.9787 65.6468C22.6044 65.4999 23.9468 64.2762 23.8758 62.6805C23.8099 61.205 22.3584 59.8074 20.7234 59.9544L20.7202 59.9581Z" fill="#A45314"/>
<path d="M22.0526 673.727C22.0526 673.727 -27.6863 591.046 -59.0247 618.159C-68.333 626.213 -75.0031 632.084 -80.4453 634.65C-84.7719 636.69 -86.5507 641.107 -84.5347 644.952C-81.4096 650.914 -71.8324 652.883 -61.185 653.046C-43.6838 653.313 -13.8282 661.405 -7.37298 666.496C-0.917772 671.587 9.71655 678.792 15.1786 678.952C20.6407 679.111 22.0526 673.727 22.0526 673.727Z" fill="#A4AE4D"/>
<path d="M22.0507 673.728L10.3391 605.363C10.0577 603.717 11.7676 602.348 13.7502 602.633C19.6876 603.482 31.1048 605.62 39.6674 610.294C51.759 616.893 42.9313 614.706 48.1635 622.126C53.3958 629.546 54.481 632.835 52.9256 637.524C51.938 640.501 41.5775 660.937 33.5255 670.673C29.4353 675.616 22.0505 673.73 22.0505 673.73L22.0507 673.728Z" fill="#5D6716"/>
<path d="M53.8986 672.554C13.9776 667.919 -25.3294 674.758 -47.0233 697.569C-68.7144 720.378 -72.5639 756.723 -54.5037 782.435C-36.1168 808.616 -18.065 823.987 39.3812 828.664C57.4049 830.132 84.6918 827.123 99.3315 819.739C107.982 815.377 125.258 803.12 129.879 796.13C143.172 776.023 143.86 741.423 133.385 719.679C122.771 697.645 97.6052 682.951 53.896 672.554" fill="#F2973E"/>
<path d="M8.50781 734.555C12.3266 736.217 19.4511 739.962 17.3994 741.64C15.3476 743.319 11.1147 745.874 9.25469 746.942" stroke="#A45314" stroke-width="5" stroke-linecap="round" stroke-linejoin="round"/>
<path d="M68.52 748.43C71.479 748.679 74.5154 746.774 74.6181 744.248C74.7191 741.713 72.5734 739.382 69.4033 739.116C66.4444 738.867 63.408 740.772 63.3052 743.298C63.2042 745.833 65.3499 748.164 68.52 748.43Z" fill="#A45314"/>
<path d="M28.9474 759.074C30.3307 764.233 36.2201 767.622 42.3165 768.351C45.5738 768.74 48.8861 768.232 51.5761 766.717C53.995 765.355 55.7544 763.079 56.5577 760.767C57.0608 759.321 56.4534 757.714 54.6261 757.09C53.0376 756.549 50.7211 757.141 50.2141 758.597C49.7035 760.062 48.9863 761.191 47.7244 762.005C46.5508 762.764 44.7669 762.983 43.0166 762.776C41.9723 762.653 41.3099 762.485 40.2926 762.129C39.2753 761.773 38.9736 761.626 38.144 761.112C37.3144 760.598 37.1246 760.411 36.4218 759.678C36.1911 759.392 36.1487 759.346 36.2895 759.539C36.1717 759.365 36.0621 759.186 35.9607 759.004C35.8617 758.822 35.7707 758.637 35.6904 758.449C35.7716 758.671 35.7636 758.613 35.6611 758.278C35.2621 756.791 33.6247 755.671 31.7413 755.893C29.9998 756.098 28.5422 757.576 28.9426 759.072L28.9474 759.074Z" fill="#A45314"/>
<path d="M582.08 -64.5174C548.354 -55.0236 519.942 -35.2151 512.267 -6.81861C504.593 21.5751 516.812 56.243 542.001 73.6123C567.646 91.2987 588.479 99.1847 636.172 83.6945C651.136 78.8346 671.59 66.6786 680.138 54.8636C685.19 47.8836 693.787 30.6903 694.525 22.6868C696.651 -0.336246 682.649 -32.3148 665.167 -48.656C647.452 -65.2141 621.241 -70.0292 582.077 -64.5167" fill="#F2973E"/>
<path d="M579.381 15.6364C581.841 14.8455 583.457 12.0529 582.476 9.69995C581.49 7.33983 578.802 5.9401 576.167 6.78751C573.707 7.57846 572.091 10.3711 573.072 12.724C574.052 15.0769 576.746 16.4838 579.381 15.6364Z" fill="#A45314"/>
<path d="M575.747 11.3886C576.675 11.0904 577.284 10.0376 576.914 9.15053C576.543 8.26077 575.529 7.73307 574.536 8.05254C573.609 8.35073 572.999 9.40354 573.369 10.2906C573.739 11.1776 574.754 11.708 575.747 11.3886Z" fill="#FFFEFC"/>
<path d="M580.906 13.9587C581.401 13.7995 581.727 13.2375 581.529 12.764C581.331 12.289 580.79 12.0074 580.26 12.1779C579.765 12.3371 579.439 12.8991 579.637 13.3726C579.834 13.8461 580.376 14.1292 580.906 13.9587Z" fill="#FFFEFC"/>
<path d="M557.126 44.4789C562.571 42.728 566.148 36.5461 563.977 31.3375C561.796 26.113 555.845 23.0145 550.011 24.8903C544.566 26.6413 540.989 32.8232 543.16 38.0318C545.33 43.2404 551.292 46.3548 557.126 44.4789Z" fill="#FEB167"/>
<path d="M668.391 -1.24403C674.331 -3.15412 678.234 -9.89802 675.866 -15.5801C673.486 -21.2796 666.994 -24.6598 660.63 -22.6134C654.69 -20.7033 650.788 -13.9594 653.156 -8.27732C655.524 -2.59522 662.027 0.802378 668.391 -1.24403Z" fill="#FEB167"/>
<path d="M625.381 -1.14872C627.841 -1.93967 629.457 -4.73228 628.476 -7.08521C627.49 -9.44532 624.802 -10.8451 622.167 -9.99765C619.707 -9.2067 618.091 -6.41409 619.072 -4.06116C620.057 -1.70105 622.746 -0.301314 625.381 -1.14872Z" fill="#A45314"/>
<path d="M598.357 22.2395C601.627 26.4955 607.74 27.5771 612.899 26.1461C615.656 25.3817 618.079 23.7749 619.583 21.4589C620.936 19.3769 621.379 16.6832 621.046 14.2857C620.838 12.7856 619.679 11.5202 617.962 11.5775C616.47 11.6275 614.875 12.9685 615.084 14.4792C615.294 15.9984 615.198 17.281 614.535 18.4626C613.92 19.5628 612.593 20.3787 611.112 20.791C610.23 21.0381 609.632 21.112 608.672 21.1356C607.713 21.1592 607.411 21.1284 606.534 20.9425C605.658 20.7565 605.428 20.65 604.56 20.2198C604.256 20.0371 604.203 20.0092 604.396 20.1374C604.23 20.0189 604.067 19.8925 603.91 19.7604C603.755 19.6276 603.604 19.4889 603.461 19.3438C603.619 19.5194 603.589 19.4696 603.366 19.1976C602.423 17.9708 600.649 17.5072 599.243 18.3592C597.943 19.1473 597.404 21.0046 598.352 22.2388L598.357 22.2395Z" fill="#A45314"/>
<g clip-path="url(#clip1_772_14505)">
<path d="M149.962 907.446L148.481 907.283L145.821 902.352C145.821 902.352 49.4223 952.061 46.4513 955.778C43.4802 959.495 41.7911 967.833 44.0779 969.797C46.3647 971.761 68.7732 971.182 87.2405 971.354C105.699 971.517 123.309 971.981 123.777 972.014C124.245 972.046 138.147 938.67 139.238 936.111C140.33 933.552 150.43 908.962 150.43 908.962L149.971 907.454L149.962 907.446Z" fill="#A4AE4D"/>
<path d="M146.06 904.346C146.06 904.346 140.205 917.639 138.265 921.902C136.324 926.156 122.526 959.19 122.526 959.19C122.526 959.19 116.298 959.28 112.313 959.231C108.329 959.182 51.0991 958.408 49.2367 958.563C47.3744 958.718 46.9846 958.962 45.7806 960.38C44.5766 961.798 44.1348 965.792 45.0703 967.243C45.9971 968.694 48.3965 969.003 51.6448 969.012C54.893 969.012 86.0328 968.979 95.8209 969.142C108.892 969.354 123.08 969.631 123.08 969.631C123.08 969.631 123.851 967.667 124.189 966.721C124.527 965.776 139.893 929.873 141.764 925.349C143.635 920.826 148.278 909.032 148.278 909.032L146.069 904.362L146.06 904.346Z" fill="#FFFEFC"/>
<path d="M146.299 900.596C146.039 900.319 135.203 899.969 135.203 899.969L53.8319 944.658C53.8319 944.658 44.3903 958.147 45.0919 958.057C45.7936 957.968 72.1606 958.62 78.5532 958.807C84.9457 958.995 122.989 959.206 122.989 959.206C122.989 959.206 135.116 930.541 137.108 925.415C139.109 920.288 147.009 902.479 147.009 902.479C147.009 902.479 146.55 900.882 146.29 900.604L146.299 900.596Z" fill="#A4AE4D"/>
<path d="M135.829 900.834L135.205 896.815L135.473 896.269L135.491 894.338C135.491 894.338 125.789 893.091 114.26 892.626C102.748 892.153 85.2772 891.95 84.8528 892.047C84.4283 892.145 73.2284 907.101 68.9234 912.88C64.6184 918.659 50.534 934.642 49.7284 936.247C48.9142 937.853 48.5764 940.657 48.8882 942.197C49.2 943.738 49.9017 944.096 52.1018 944.561C54.2933 945.025 88.5774 944.838 96.2259 944.993C103.874 945.148 116.997 945.849 116.997 945.849C116.997 945.849 130.519 916.898 133.031 910.908C135.543 904.925 136.972 902.366 136.972 902.366C136.816 901.755 136.452 901.054 135.82 900.842L135.829 900.834Z" fill="#5D6716"/>
<path d="M118.287 899.796C118.287 899.796 113.22 909.65 112.327 911.508C111.427 913.366 110.24 915.567 110.24 915.567C110.24 915.567 93.0286 914.679 87.7447 914.67C82.4609 914.662 77.6016 914.54 77.6016 914.54C77.6016 914.54 82.7208 907.033 85.0855 903.097C87.4502 899.16 88.2904 898.834 88.2904 898.834C88.2904 898.834 114.12 899.698 118.296 899.796H118.287Z" fill="#FFFEFC"/>
<path d="M134.727 897.754C134.727 897.754 133.679 900.851 133.514 901.177C132.466 903.28 129.781 908.097 127.754 912.881C125.416 918.407 115.168 941.701 115.168 941.701C115.168 941.701 98.7799 940.805 92.6473 940.845C86.5146 940.886 75.6611 940.348 65.8038 940.128C64.0541 940.087 51.243 938.914 50.1083 940.625C49.1122 942.125 50.7146 943.551 51.9793 943.519C53.1919 943.494 79.8275 943.666 85.5184 943.837C91.218 944.008 116.346 944.888 116.528 944.309C116.71 943.731 124.749 926.501 127.425 920.176C130.102 913.843 135.55 901.78 135.55 901.78L134.718 897.754H134.727Z" fill="#FFFEFC"/>
<path d="M145.39 900.823C142.168 908.452 138.937 916.081 135.698 923.702C132.112 932.154 128.525 940.598 124.957 949.058C123.761 951.894 122.566 954.722 121.371 957.559C121.492 957.469 121.613 957.388 121.735 957.298C114.017 957.127 106.29 956.972 98.5724 956.833C86.7055 956.621 74.8299 956.589 62.9543 956.32C59.4116 956.238 55.8688 956.141 52.3261 956.083C51.3646 956.067 50.4118 956.043 49.4503 956.067C48.5061 956.092 47.3801 956.149 46.4966 956.483C46.0548 956.654 46.2454 957.339 46.6958 957.167C48.203 956.589 50.1692 956.76 51.7717 956.776C54.7341 956.817 57.6965 956.899 60.6502 956.972C67.268 957.127 73.8944 957.2 80.5122 957.265C91.305 957.371 102.098 957.599 112.891 957.82C115.836 957.877 118.781 957.942 121.735 958.007C121.916 958.007 122.038 957.893 122.098 957.746C125.069 950.712 128.04 943.687 131.011 936.661C134.65 928.07 138.305 919.488 141.943 910.905C143.337 907.613 144.732 904.312 146.127 901.019C146.309 900.595 145.581 900.416 145.399 900.831L145.39 900.823Z" fill="#210B03"/>
<path d="M136.602 902.261C134.029 908.284 131.223 914.217 128.477 920.175C125.254 927.169 122.015 934.154 118.767 941.13C118.065 942.638 117.363 944.154 116.653 945.662C116.757 945.605 116.87 945.548 116.974 945.491C115.241 945.45 113.517 945.418 111.785 945.377C107.471 945.287 103.158 945.189 98.8441 945.1C93.3437 944.986 87.8434 944.871 82.3517 944.765C77.0072 944.66 71.6628 944.562 66.3097 944.472C62.4551 944.407 58.6005 944.342 54.746 944.317C54.4428 944.317 54.1396 944.317 53.8365 944.317C53.3514 944.317 53.3514 945.018 53.8365 945.026C57.3879 945.043 60.9393 945.1 64.482 945.157C69.7399 945.238 74.9977 945.336 80.2468 945.442C85.7992 945.548 91.3515 945.662 96.9038 945.776C101.425 945.866 105.947 945.964 110.468 946.061C111.924 946.094 113.379 946.127 114.834 946.159C115.492 946.176 116.229 946.273 116.887 946.2C116.913 946.2 116.948 946.2 116.974 946.2C117.095 946.2 117.251 946.135 117.294 946.029C119.269 941.799 121.235 937.569 123.193 933.33C126.675 925.816 130.157 918.301 133.587 910.77C134.843 908.007 136.117 905.252 137.303 902.456C137.485 902.033 136.758 901.853 136.576 902.269L136.602 902.261Z" fill="#210B03"/>
<path d="M96.0913 901.546C90.9461 901.309 87.8884 901.195 87.8884 901.195L87.4727 902.019C87.4727 902.019 106.512 902.605 107.768 902.605C109.024 902.605 113.19 902.719 113.19 902.719L113.329 902.247C113.329 902.247 101.237 901.774 96.0913 901.546Z" fill="#210B03"/>
<path d="M111.379 905.888L85.6698 905.064L85.5312 906.002L111.379 906.825V905.888Z" fill="#210B03"/>
<path d="M84.687 909.408L83.8555 910.346L109.287 911.169V910.46L84.687 909.408Z" fill="#210B03"/>
</g>
<path d="M360.544 35.3639C360.398 35.6036 360.129 35.7748 359.743 35.7868C350.09 36.0238 341.963 30.4486 335.803 24.3057C329.514 18.0305 324.688 10.3313 322.982 2.00988C320.251 -11.2699 326.655 -25.7434 340.221 -32.2891C354.339 -39.0947 372.783 -35.4484 383.894 -25.5011C395.692 -14.9358 400.24 2.66089 393.424 16.4272C392.861 17.5595 392.214 18.652 391.5 19.7056C394.277 21.3515 397.053 23.0065 399.819 24.6611C402.271 21.0309 404.083 17.0118 405.088 12.6699C409.251 -5.30094 401.107 -25.6577 384.43 -36.6429C368.324 -47.2419 344.325 -48.7078 328.592 -36.9026C313.509 -25.5898 309.515 -6.86688 315.763 9.43341C319.137 18.257 325.109 26.2378 332.367 32.9059C338.733 38.7569 346.626 43.9592 355.747 45.0103C356.058 44.7498 356.491 44.5851 357.04 44.6068C373.721 45.3292 389.879 38.0768 398.82 26.0579C396.054 24.3942 393.268 22.7479 390.491 21.0929C383.855 29.7394 372.298 34.9918 360.544 35.3639Z" fill="#FFF8E9"/>
<path d="M378.284 -27.6361C366.214 -35.5759 348.276 -36.7024 336.391 -27.9905C324.975 -19.6145 321.731 -5.56173 326.254 6.72526C328.72 13.3949 333.136 19.4326 338.552 24.4917C343.523 29.1422 349.669 33.2211 356.861 33.9869C357.015 33.7929 357.262 33.6663 357.609 33.6801C369.963 34.177 382.031 28.9357 388.849 20.1146C385.612 18.1778 382.375 16.241 379.169 14.269C374.827 19.5427 367.654 22.6865 360.308 22.9964C360.145 23.1718 359.908 23.2897 359.589 23.2952C347.372 23.4309 337.418 10.7295 335.602 0.967498C334.006 -7.64955 338.333 -16.9417 347.164 -21.0746C356.37 -25.3835 368.297 -22.9217 375.457 -16.4393C383.024 -9.58633 385.928 1.7731 381.532 10.6626C381.15 11.4383 380.692 12.1748 380.206 12.8919C383.403 14.8544 386.63 16.7908 389.858 18.7182C391.636 16.1158 392.971 13.2415 393.748 10.1269C397.18 -3.5822 391.067 -19.2227 378.284 -27.6361Z" fill="#A4AE4D"/>
<path d="M371.335 -17.4504C363.724 -22.487 352.404 -23.1795 344.886 -17.7222C337.588 -12.4289 335.532 -3.37427 338.508 4.41551C341.269 11.6059 348.575 20.4303 357.666 21.5074C357.816 21.3952 358.012 21.3302 358.263 21.3401C365.884 21.5956 373.218 18.5218 377.567 13.2757C373.206 10.5672 368.895 7.79716 364.686 4.91293C364.055 5.62434 363.242 6.10128 362.233 6.18872C362.171 6.2681 362.091 6.34673 361.982 6.40606C358.48 8.45855 353.991 5.13602 352.779 2.2065C351.367 -1.22178 353.397 -5.3777 357.361 -6.53017C361.061 -7.60218 365.396 -5.59474 366.305 -2.14996C366.693 -0.671086 366.493 1.64814 365.629 3.46847C369.867 6.37199 374.205 9.16135 378.614 11.8989C379.875 10.0488 380.789 7.98504 381.256 5.73092C383.027 -2.78952 379.217 -12.2394 371.335 -17.4504Z" fill="#FFF8E9"/>
<path d="M357.014 -4.57366C354.79 -3.42524 353.714 -0.967869 354.37 1.22154C354.958 3.19918 357.838 5.97642 360.384 5.23152C360.49 4.7903 360.943 4.39001 361.574 4.52404C362.206 4.65807 362.731 4.36065 363.159 3.86848C361.707 2.85664 360.274 1.83649 358.862 0.798956C357.936 0.116973 358.936 -1.29799 359.871 -0.606551C361.237 0.392784 362.613 1.37436 364.009 2.34761C364.326 1.52382 364.509 0.676531 364.557 0.260253C364.725 -1.13301 364.469 -2.5521 363.368 -3.62282C361.785 -5.17614 359.051 -5.62043 357.014 -4.57366Z" fill="#A45314"/>
<path d="M360.542 35.3592C360.397 35.5989 360.128 35.7701 359.741 35.7821C350.089 36.0191 341.962 30.4439 335.802 24.301C329.512 18.0348 324.687 10.3356 322.981 2.01424C320.259 -11.2652 326.653 -25.739 340.229 -32.2843C354.347 -39.09 372.791 -35.4436 383.902 -25.4964C395.7 -14.9311 400.248 2.65655 393.422 16.4316C392.859 17.5638 392.221 18.6568 391.508 19.7103C394.284 21.3653 397.051 23.0108 399.817 24.6745C402.268 21.0443 404.09 17.0256 405.096 12.6746C409.249 -5.2875 401.105 -25.6533 384.427 -36.6295C368.322 -47.2285 344.322 -48.6944 328.6 -36.8978C313.517 -25.576 309.522 -6.85307 315.761 9.44684C319.145 18.2708 325.107 26.2513 332.364 32.9193C338.731 38.7704 346.623 43.9726 355.745 45.0237C356.056 44.7633 356.488 44.5985 357.038 44.6293C373.729 45.343 389.876 38.0993 398.817 26.0804C396.051 24.4167 393.265 22.7704 390.489 21.1155C383.853 29.7619 372.286 35.0139 360.541 35.3864L360.542 35.3592Z" fill="#5D6716"/>
<path d="M392.734 -34.6186C377.461 -48.2936 351.992 -53.2082 332.751 -43.5233C314.487 -34.3269 306.132 -14.658 310.062 3.36877C312.461 14.3628 318.886 24.5159 327.181 32.8339C335.513 41.1897 346.721 48.941 359.849 48.5322C360.449 48.5104 360.913 48.2924 361.227 47.9684C377.376 47.4153 393.144 40.0021 402.045 28.0089C400.973 27.3575 399.9 26.7152 398.819 26.0634C389.878 38.0823 373.72 45.3347 357.039 44.6123C356.489 44.5906 356.057 44.7554 355.746 45.0067C346.625 43.9557 338.732 38.7534 332.366 32.9023C325.108 26.2343 319.137 18.2535 315.762 9.42987C309.514 -6.87043 313.518 -25.593 328.601 -36.9148C344.324 -48.7113 368.333 -47.2451 384.429 -36.6465C401.106 -25.6612 409.251 -5.30448 405.097 12.6577C404.092 16.9995 402.28 21.0277 399.818 24.6576C400.891 25.2999 401.973 25.9517 403.045 26.6031C404.1 25.0448 405.052 23.4189 405.872 21.715C414.796 3.14127 408.583 -20.439 392.743 -34.6182L392.734 -34.6186Z" fill="#5D6716"/>
<path d="M383.889 -25.5015C372.778 -35.4487 354.335 -39.1042 340.216 -32.2894C326.65 -25.7438 320.246 -11.2612 322.968 2.00912C324.674 10.3305 329.508 18.0301 335.789 24.2959C341.949 30.4388 350.076 36.0139 359.728 35.777C360.115 35.765 360.384 35.5938 360.53 35.3541C372.274 34.9816 383.841 29.7296 390.477 21.0831C389.931 20.7616 389.385 20.4309 388.839 20.1094C382.022 28.9305 369.944 34.1714 357.6 33.6749C357.253 33.6611 357.006 33.7877 356.852 33.9817C349.66 33.2159 343.514 29.137 338.543 24.4955C333.126 19.4365 328.711 13.3898 326.254 6.72953C321.721 -5.55785 324.966 -19.6107 336.391 -27.9862C348.267 -36.6985 366.214 -35.5716 378.284 -27.6318C391.067 -19.2184 397.181 -3.58701 393.748 10.1311C392.971 13.2457 391.635 16.1201 389.858 18.7224C390.403 19.053 390.949 19.3746 391.495 19.7052C392.208 18.6607 392.846 17.5678 393.409 16.4265C400.225 2.66012 395.687 -14.9362 383.889 -25.5015Z" fill="#5D6716"/>
<path d="M375.442 -16.4386C368.282 -22.9209 356.355 -25.3827 347.149 -21.0648C338.318 -16.9319 333.991 -7.64882 335.587 0.977307C337.402 10.7393 347.357 23.4407 359.574 23.3051C359.893 23.2995 360.13 23.1816 360.282 23.0149C367.638 22.7054 374.803 19.5521 379.153 14.2879C378.617 13.9577 378.081 13.6274 377.545 13.2972C373.196 18.5433 365.861 21.6171 358.231 21.3612C357.98 21.3513 357.784 21.4163 357.634 21.5286C348.553 20.4518 341.237 11.6271 338.485 4.43702C335.5 -3.35314 337.565 -12.4074 344.864 -17.7097C352.372 -23.1674 363.702 -22.4655 371.312 -17.4289C379.195 -12.2179 383.005 -2.76801 381.234 5.75243C380.766 8.00655 379.853 10.0704 378.592 11.9204C379.128 12.2507 379.664 12.5809 380.19 12.9108C380.676 12.1936 381.134 11.4572 381.516 10.6815C385.903 1.7916 383.009 -9.56745 375.441 -16.4204L375.442 -16.4386Z" fill="#5D6716"/>
<path d="M433.949 48.8336C434.119 49.3493 434.299 49.8655 434.469 50.3813C436.388 51.9842 438.266 53.631 440.093 55.3304C440.928 56.1087 442.311 54.9816 441.467 54.2029C439.51 52.3802 437.492 50.6188 435.434 48.9013C434.942 48.8819 434.45 48.8534 433.958 48.8339L433.949 48.8336Z" fill="#A45314"/>
<path d="M412.54 33.253C412.719 33.7963 412.898 34.3307 413.076 34.874C415.781 36.6171 418.455 38.3953 421.079 40.217C421.036 40.0971 421.003 39.9777 420.96 39.8578C420.771 39.3231 421.334 38.8272 421.913 38.8319C421.981 38.8345 422.058 38.8376 422.126 38.8403C419.399 36.9509 416.621 35.114 413.813 33.3032C413.389 33.2865 412.964 33.2697 412.53 33.2526L412.54 33.253Z" fill="#A45314"/>
<path d="M391.493 19.7034C390.947 19.3818 390.402 19.0512 389.856 18.7206C386.629 16.7933 383.401 14.8568 380.204 12.8943C379.668 12.5641 379.132 12.2339 378.606 11.904C374.206 9.17588 369.858 6.38614 365.631 3.47392C365.375 4.00925 365.063 4.50599 364.687 4.92746C368.886 7.81131 373.197 10.5814 377.568 13.2902C378.104 13.6205 378.64 13.9507 379.176 14.2809C382.383 16.2529 385.619 18.1897 388.856 20.1265C389.402 20.448 389.948 20.7787 390.494 21.1002C393.27 22.7552 396.056 24.4106 398.822 26.0652C399.895 26.7075 400.977 27.3593 402.049 28.0107C404.928 29.7515 407.786 31.5097 410.614 33.3031C410.528 33.0634 410.452 32.815 410.367 32.5752C410.204 32.1143 410.599 31.6845 411.078 31.5761C408.419 29.8984 405.739 28.2473 403.039 26.6135C401.967 25.9621 400.894 25.3197 399.812 24.668C397.046 23.0134 394.27 21.3584 391.503 19.7038L391.493 19.7034Z" fill="#A45314"/>
<path d="M423.143 40.5482C423.305 41.0363 423.467 41.5245 423.629 42.0127C426.409 44.0042 429.129 46.0569 431.778 48.1796C431.779 48.1614 431.769 48.152 431.761 48.1335C431.572 47.5988 432.135 47.1028 432.715 47.1075C432.898 47.1148 433.081 47.122 433.264 47.1293C430.466 44.8825 427.597 42.7148 424.657 40.617C424.156 40.5881 423.645 40.568 423.143 40.5482Z" fill="#A45314"/>
<path d="M358.851 0.794161C360.264 1.8317 361.696 2.85185 363.149 3.86368C363.505 3.45052 363.781 2.90689 363.999 2.34282C362.612 1.36994 361.226 0.387989 359.861 -0.611346C358.925 -1.29371 357.925 0.121253 358.851 0.794161Z" fill="#5D6716"/>
<path d="M431.769 48.1456C431.769 48.1456 431.778 48.1732 431.786 48.1917C433.582 53.4169 435.163 58.6881 436.529 64.0235C436.801 65.0706 438.624 64.7062 438.352 63.6501C437.218 59.1965 435.917 54.7818 434.47 50.3976C434.3 49.8818 434.13 49.366 433.95 48.8499C434.442 48.8693 434.934 48.8887 435.425 48.9172C440.051 49.1817 444.599 49.8794 449.088 51.0203C450.254 51.3209 450.817 49.725 449.662 49.4249C444.284 48.058 438.84 47.2976 433.263 47.141C433.08 47.1338 432.897 47.1266 432.713 47.1193C432.144 47.1059 431.581 47.6019 431.759 48.1452L431.769 48.1456Z" fill="#A45314"/>
<path d="M366.287 -2.14745C365.378 -5.59223 361.043 -7.59967 357.344 -6.52766C353.38 -5.38426 351.349 -1.22835 352.771 2.20939C353.983 5.1389 358.472 8.47051 361.964 6.41764C362.073 6.3583 362.153 6.27968 362.225 6.20068C363.224 6.11286 364.037 5.63593 364.677 4.9249C365.053 4.51249 365.365 4.01575 365.621 3.47135C366.485 1.65103 366.675 -0.66858 366.287 -2.14745ZM363.15 3.86464C362.732 4.35719 362.207 4.65461 361.565 4.5202C360.934 4.38617 360.481 4.78646 360.374 5.22767C357.829 5.97257 354.949 3.19534 354.361 1.21769C353.705 -0.971711 354.78 -3.42908 357.005 -4.5775C359.043 -5.63335 361.785 -5.1796 363.368 -3.63536C364.47 -2.56464 364.726 -1.14555 364.547 0.25641C364.5 0.672689 364.317 1.51997 364 2.34377C363.782 2.89877 363.506 3.45147 363.15 3.86464Z" fill="#5D6716"/>
<path d="M420.958 39.8692C421.001 39.989 421.035 40.1085 421.078 40.2284C422.829 45.3518 424.376 50.5217 425.719 55.738C425.991 56.785 427.813 56.4207 427.542 55.3646C426.399 50.8833 425.081 46.4316 423.625 42.0198C423.464 41.5316 423.302 41.0435 423.14 40.5553C423.641 40.5751 424.153 40.5953 424.654 40.6241C429.269 40.8973 433.808 41.5856 438.288 42.7261C439.453 43.0266 440.017 41.4308 438.862 41.1307C433.379 39.7324 427.819 38.9674 422.125 38.8335C422.058 38.8308 421.98 38.8278 421.913 38.8251C421.344 38.8117 420.78 39.3076 420.959 39.851L420.958 39.8692Z" fill="#A45314"/>
<path d="M410.363 32.5543C410.449 32.7941 410.524 33.0425 410.61 33.2822C412.31 38.2854 413.824 43.3267 415.123 48.4232C415.395 49.4702 417.218 49.1059 416.946 48.0497C415.811 43.6143 414.519 39.2271 413.09 34.871C412.911 34.3276 412.732 33.7933 412.554 33.2499C412.978 33.2667 413.402 33.2834 413.836 33.3005C418.539 33.559 423.145 34.259 427.702 35.4207C428.867 35.7213 429.431 34.1254 428.275 33.8253C422.726 32.4062 417.099 31.6386 411.326 31.5288C411.249 31.5258 411.171 31.5409 411.093 31.556C410.615 31.6643 410.219 32.0941 410.382 32.5551L410.363 32.5543Z" fill="#A45314"/>
<path d="M374.955 679.23C375.059 678.971 375.295 678.762 375.675 678.693C385.168 677.029 394.126 681.331 401.237 686.485C408.498 691.75 414.552 698.638 417.629 706.603C422.548 719.313 418.646 734.554 406.344 743.028C393.54 751.84 374.716 750.972 362.08 742.795C348.661 734.109 341.226 717.405 345.653 702.801C346.019 701.599 346.476 700.425 347.005 699.278C343.987 698.064 340.969 696.841 337.96 695.617C336.147 699.565 335.03 703.803 334.764 708.239C333.659 726.603 345.108 745.499 363.415 753.877C381.093 761.958 405.039 759.85 418.6 745.861C431.602 732.455 432.413 713.374 423.516 698.203C418.707 689.989 411.475 682.992 403.192 677.483C395.926 672.648 387.261 668.68 378.078 668.993C377.814 669.296 377.415 669.523 376.868 669.583C360.275 671.341 345.532 680.896 338.713 694.09C341.723 695.323 344.75 696.536 347.769 697.759C352.875 688.237 363.409 681.338 374.955 679.23Z" fill="#FFF8E9"/>
<path d="M367.979 744.072C381.226 750.125 399.129 748.58 409.408 738.216C419.281 728.253 420.134 713.895 413.61 702.431C410.06 696.21 404.688 690.902 398.493 686.709C392.806 682.852 386.054 679.735 378.824 680.044C378.705 680.258 378.482 680.42 378.136 680.458C365.854 681.797 354.813 688.761 349.556 698.482C353.077 699.915 356.598 701.348 360.094 702.821C363.498 696.97 370.056 692.802 377.259 691.408C377.39 691.211 377.605 691.059 377.919 691.006C389.961 689.063 401.916 700.131 405.343 709.502C408.361 717.775 405.642 727.593 397.613 732.982C389.243 738.601 377.052 737.937 368.898 732.596C360.277 726.95 355.509 716.162 358.363 706.732C358.611 705.909 358.94 705.114 359.3 704.334C355.814 702.87 352.303 701.436 348.793 700.01C347.473 702.844 346.635 705.88 346.389 709.071C345.294 723.117 353.948 737.657 367.979 744.072Z" fill="#A4AE4D"/>
<path d="M373.137 732.985C381.495 736.831 392.79 735.838 399.301 729.335C405.623 723.026 406.138 713.78 401.896 706.528C397.966 699.837 389.274 692.205 380.116 692.488C379.987 692.621 379.804 692.714 379.555 692.741C371.987 693.618 365.258 697.74 361.841 703.565C366.601 705.594 371.322 707.69 375.961 709.915C376.465 709.119 377.188 708.528 378.17 708.292C378.217 708.204 378.284 708.115 378.381 708.04C381.496 705.494 386.485 708.111 388.172 710.824C390.14 714 388.83 718.405 385.109 720.131C381.635 721.737 377.018 720.397 375.544 717.13C374.913 715.727 374.722 713.407 375.271 711.481C370.601 709.242 365.849 707.13 361.037 705.08C360.101 707.094 359.545 709.267 359.46 711.562C359.137 720.239 364.48 729.006 373.137 732.985Z" fill="#FFF8E9"/>
<path d="M385.123 718.147C387.128 716.684 387.779 714.098 386.765 712.033C385.853 710.167 382.544 707.851 380.155 708.964C380.124 709.415 379.744 709.877 379.098 709.839C378.452 709.8 377.983 710.171 377.643 710.721C379.246 711.505 380.831 712.3 382.4 713.115C383.429 713.652 382.678 715.197 381.638 714.653C380.122 713.868 378.599 713.103 377.057 712.349C376.882 713.209 376.844 714.073 376.866 714.491C376.933 715.892 377.423 717.255 378.69 718.15C380.513 719.449 383.287 719.483 385.123 718.147Z" fill="#A45314"/>
<path d="M374.959 679.235C375.063 678.977 375.3 678.768 375.68 678.699C385.172 677.035 394.131 681.337 401.242 686.49C408.502 691.747 414.555 698.635 417.632 706.6C422.541 719.31 418.649 734.551 406.338 743.026C393.534 751.838 374.71 750.97 362.073 742.792C348.655 734.107 341.22 717.412 345.657 702.798C346.023 701.596 346.47 700.422 346.998 699.276C343.98 698.053 340.972 696.838 337.962 695.605C336.149 699.553 335.022 703.791 334.757 708.237C333.661 726.59 345.111 745.496 363.417 753.864C381.095 761.945 405.041 759.838 418.594 745.859C431.594 732.444 432.406 713.363 423.518 698.19C418.7 689.978 411.477 682.98 403.194 677.47C395.928 672.635 387.264 668.667 378.08 668.98C377.817 669.284 377.417 669.51 376.869 669.561C360.267 671.329 345.533 680.875 338.714 694.068C341.724 695.301 344.751 696.514 347.77 697.738C352.876 688.216 363.42 681.316 374.956 679.208L374.959 679.235Z" fill="#5D6716"/>
<path d="M354.875 753.108C372.245 764.35 398.219 765.43 415.6 753.015C432.097 741.228 437.057 720.567 430.16 703.347C425.952 692.845 417.908 683.771 408.324 676.785C398.699 669.768 386.333 663.774 373.437 666.122C372.848 666.233 372.427 666.517 372.171 666.883C356.316 669.822 341.984 679.478 335.201 692.64C336.369 693.125 337.536 693.6 338.713 694.084C345.532 680.89 360.274 671.335 376.868 669.577C377.415 669.517 377.814 669.29 378.079 668.996C387.262 668.683 395.927 672.651 403.193 677.486C411.475 682.995 418.708 689.992 423.517 698.206C432.414 713.377 431.593 732.459 418.592 745.874C405.039 759.853 381.084 761.962 363.416 753.88C345.108 745.502 333.66 726.606 334.756 708.252C335.022 703.816 336.138 699.569 337.961 695.62C336.794 695.145 335.617 694.661 334.449 694.177C333.668 695.872 333 697.619 332.475 699.423C326.77 719.087 336.851 741.453 354.866 753.109L354.875 753.108Z" fill="#5D6716"/>
<path d="M362.083 742.795C374.72 750.973 393.545 751.85 406.348 743.029C418.65 734.555 422.55 719.305 417.642 706.603C414.565 698.638 408.502 691.751 401.252 686.493C394.141 681.34 385.182 677.038 375.69 678.702C375.31 678.771 375.073 678.98 374.969 679.238C363.433 681.346 352.89 688.246 347.783 697.768C348.376 698.004 348.97 698.25 349.563 698.487C354.82 688.766 365.871 681.801 378.143 680.463C378.489 680.425 378.711 680.263 378.831 680.049C386.061 679.74 392.813 682.857 398.499 686.704C404.694 690.898 410.066 696.215 413.607 702.428C420.139 713.891 419.286 728.249 409.405 738.213C399.135 748.576 381.223 750.122 367.975 744.069C353.944 737.654 345.291 723.123 346.386 709.068C346.631 705.877 347.47 702.841 348.79 700.007C348.196 699.762 347.603 699.525 347.009 699.279C346.479 700.416 346.032 701.59 345.667 702.801C341.239 717.405 348.665 734.11 362.083 742.795Z" fill="#5D6716"/>
<path d="M368.908 732.595C377.062 737.936 389.253 738.6 397.622 732.972C405.651 727.583 408.371 717.774 405.351 709.492C401.925 700.121 389.97 689.052 377.928 690.996C377.614 691.049 377.399 691.201 377.277 691.388C370.064 692.783 363.517 696.958 360.102 702.802C360.686 703.048 361.271 703.295 361.855 703.542C365.273 697.717 372.001 693.595 379.579 692.717C379.829 692.69 380.011 692.596 380.141 692.463C389.289 692.181 397.99 699.812 401.91 706.505C406.162 713.756 405.637 723.003 399.317 729.321C392.815 735.822 381.509 736.808 373.151 732.961C364.495 728.983 359.151 720.215 359.475 711.539C359.559 709.244 360.116 707.07 361.052 705.056C360.467 704.81 359.883 704.563 359.308 704.315C358.948 705.095 358.619 705.89 358.371 706.713C355.527 716.142 360.285 726.931 368.905 732.577L368.908 732.595Z" fill="#5D6716"/>
<path d="M300.213 676.802C299.959 676.318 299.695 675.835 299.44 675.351C297.277 674.052 295.147 672.704 293.058 671.296C292.104 670.651 290.926 671.969 291.89 672.613C294.128 674.123 296.415 675.564 298.735 676.955C299.224 676.901 299.714 676.857 300.203 676.803L300.213 676.802Z" fill="#A45314"/>
<path d="M323.962 689.019C323.695 688.508 323.429 688.007 323.161 687.497C320.199 686.177 317.26 684.817 314.365 683.406C314.427 683.518 314.48 683.631 314.542 683.743C314.818 684.243 314.345 684.817 313.772 684.898C313.705 684.905 313.628 684.914 313.561 684.921C316.57 686.383 319.621 687.785 322.697 689.158C323.118 689.111 323.54 689.065 323.972 689.018L323.962 689.019Z" fill="#A45314"/>
<path d="M347.01 699.28C347.603 699.517 348.197 699.762 348.791 700.008C352.301 701.433 355.812 702.867 359.298 704.332C359.882 704.579 360.467 704.825 361.042 705.073C365.843 707.115 370.604 709.226 375.266 711.476C375.429 710.909 375.654 710.372 375.955 709.901C371.325 707.675 366.605 705.578 361.835 703.55C361.25 703.304 360.666 703.057 360.081 702.81C356.585 701.338 353.064 699.905 349.543 698.472C348.95 698.235 348.356 697.989 347.763 697.753C344.745 696.53 341.717 695.307 338.708 694.083C337.541 693.608 336.364 693.125 335.196 692.64C332.062 691.347 328.945 690.035 325.852 688.683C325.977 688.907 326.094 689.141 326.219 689.365C326.457 689.796 326.138 690.279 325.684 690.457C328.59 691.719 331.513 692.953 334.452 694.167C335.62 694.651 336.787 695.126 337.964 695.61C340.973 696.834 343.992 698.057 347.001 699.281L347.01 699.28Z" fill="#A45314"/>
<path d="M312.267 683.382C312.026 682.923 311.785 682.465 311.543 682.007C308.464 680.452 305.435 678.828 302.464 677.124C302.466 677.142 302.477 677.15 302.488 677.167C302.764 677.667 302.291 678.241 301.718 678.322C301.536 678.342 301.354 678.362 301.172 678.382C304.311 680.186 307.507 681.902 310.761 683.538C311.261 683.492 311.769 683.436 312.267 683.382Z" fill="#A45314"/>
<path d="M382.409 713.114C380.84 712.299 379.255 711.504 377.652 710.719C377.369 711.18 377.188 711.758 377.066 712.347C378.598 713.103 380.131 713.867 381.647 714.652C382.685 715.187 383.436 713.641 382.409 713.114Z" fill="#5D6716"/>
<path d="M302.479 677.159C302.479 677.159 302.466 677.133 302.455 677.116C299.807 672.222 297.364 667.251 295.122 662.184C294.678 661.19 292.939 661.82 293.384 662.823C295.25 667.053 297.273 671.22 299.435 675.335C299.689 675.819 299.944 676.303 300.208 676.786C299.719 676.84 299.23 676.894 298.74 676.938C294.128 677.363 289.52 677.347 284.895 676.886C283.694 676.762 283.404 678.421 284.596 678.546C290.135 679.099 295.638 679.044 301.172 678.372C301.354 678.352 301.536 678.332 301.719 678.312C302.283 678.241 302.756 677.668 302.489 677.158L302.479 677.159Z" fill="#A45314"/>
<path d="M375.559 717.121C377.033 720.389 381.65 721.729 385.125 720.122C388.847 718.406 390.157 714.001 388.178 710.817C386.491 708.103 381.501 705.478 378.396 708.023C378.298 708.097 378.232 708.187 378.175 708.276C377.203 708.51 376.479 709.102 375.966 709.899C375.664 710.362 375.439 710.899 375.277 711.474C374.729 713.4 374.929 715.719 375.559 717.121ZM377.652 710.72C377.982 710.171 378.451 709.8 379.107 709.837C379.753 709.876 380.133 709.414 380.165 708.962C382.553 707.85 385.863 710.166 386.774 712.031C387.788 714.096 387.137 716.683 385.132 718.146C383.297 719.491 380.513 719.449 378.691 718.158C377.423 717.264 376.934 715.901 376.875 714.49C376.853 714.072 376.891 713.208 377.066 712.347C377.189 711.767 377.369 711.18 377.652 710.72Z" fill="#5D6716"/>
<path d="M314.539 683.731C314.476 683.619 314.423 683.506 314.361 683.394C311.773 678.594 309.381 673.718 307.183 668.765C306.739 667.771 305 668.401 305.445 669.404C307.323 673.66 309.37 677.861 311.545 682.002C311.786 682.46 312.028 682.918 312.269 683.376C311.771 683.431 311.263 683.487 310.763 683.533C306.159 683.947 301.562 683.939 296.947 683.477C295.746 683.353 295.456 685.012 296.648 685.137C302.296 685.706 307.914 685.638 313.56 684.926C313.627 684.919 313.703 684.911 313.77 684.903C314.335 684.832 314.808 684.259 314.541 683.749L314.539 683.731Z" fill="#A45314"/>
<path d="M326.228 689.386C326.103 689.162 325.986 688.928 325.861 688.704C323.346 684.015 321.007 679.261 318.872 674.42C318.428 673.427 316.689 674.056 317.134 675.059C318.997 679.271 321.007 683.412 323.147 687.502C323.414 688.012 323.681 688.514 323.948 689.024C323.526 689.07 323.104 689.116 322.673 689.164C317.985 689.605 313.32 689.596 308.626 689.124C307.425 689 307.135 690.659 308.326 690.784C314.044 691.364 319.729 691.288 325.448 690.541C325.525 690.533 325.599 690.507 325.674 690.48C326.128 690.302 326.447 689.819 326.209 689.388L326.228 689.386Z" fill="#A45314"/>
<g clip-path="url(#clip2_772_14505)">
<path d="M194.12 401.967C195.592 399.127 196.723 396.183 197.502 393.124C196.338 392.912 194.863 392.557 193.927 393.03C192.88 393.565 192.855 394.979 192.573 396.016C192.056 397.933 191.528 399.852 191.006 401.768C191.58 401.846 192.149 401.922 192.722 402.004C193.174 402.066 193.631 402.129 194.083 402.191C194.068 402.124 194.078 402.05 194.12 401.967Z" fill="#DBE192"/>
<path d="M197.641 412.396C197.688 412.481 197.692 412.589 197.631 412.702C194.932 417.919 192.54 423.273 190.512 428.743C189.535 431.38 188.633 434.045 187.817 436.731C187.604 437.427 187.107 438.474 187.088 439.227C187.065 440.049 187.639 440.019 188.467 440.26C190.118 440.744 191.8 441.144 193.493 441.47C194.94 441.752 196.596 442.162 198.082 442.164C199.574 442.167 200.102 441.832 200.539 440.652C200.762 440.065 200.971 439.471 201.179 438.882C202.172 436.135 203.142 433.375 204.088 430.613C206.007 425.031 207.831 419.424 209.574 413.792C205.669 412.784 201.676 412.32 197.641 412.396Z" fill="#5D6716"/>
<path d="M186.631 401.165C187.577 398.328 188.442 395.471 189.202 392.588C189.548 391.279 189.875 389.968 190.182 388.654C190.425 387.612 190.331 386.915 189.058 386.604C188.497 386.468 187.79 386.458 187.215 386.389C186.855 386.344 185.731 386.024 185.377 386.175C184.701 386.463 184.547 387.679 184.33 388.258C183.882 389.451 183.439 390.644 182.99 391.837L179.861 400.194C179.861 400.194 179.853 400.217 179.846 400.225C180.832 400.369 181.82 400.499 182.806 400.633C184.08 400.809 185.358 400.985 186.631 401.165Z" fill="#FFD697"/>
<path d="M166.827 432.558C169.768 434.722 173.8 433.773 175.502 430.888C176.903 428.505 176.473 425.456 174.107 423.939C173.952 423.99 173.772 423.962 173.641 423.806C173.573 423.727 173.505 423.649 173.435 423.579C173.152 423.45 172.846 423.337 172.516 423.248C172.211 423.167 172.184 422.903 172.32 422.715C169.829 421.35 166.504 422.663 165.182 425.075C163.853 427.504 164.423 430.789 166.827 432.558Z" fill="#A4AE4D"/>
<path d="M208.071 395.459C208.269 394.528 209.263 392.155 208.026 391.583C207.561 391.37 206.533 391.52 205.981 391.501L203.646 391.401C202.94 393.872 202.23 396.337 201.521 398.803C201.149 400.085 200.876 401.436 200.405 402.682C200.351 402.82 200.309 402.94 200.259 403.046C202.023 403.293 203.787 403.535 205.552 403.777C206.619 401.068 207.477 398.294 208.071 395.459Z" fill="#A4AE4D"/>
<path d="M182.103 386.615C182.196 385.96 182.275 385.303 182.364 384.648C181.964 385.264 181.582 385.887 181.205 386.515C179.038 390.713 177.101 395.001 175.4 399.369C176.593 399.689 177.809 399.917 179.036 400.11C179.016 400.038 179.017 399.963 179.049 399.879L183.831 387.109L182.951 386.816C182.8 387.217 182.04 387.088 182.103 386.615Z" fill="#FFFEFC"/>
<path d="M213.963 437.19C213.205 439.753 212.427 442.312 211.63 444.865C211.193 446.255 210.793 447.664 210.305 449.034C210.041 449.766 209.729 450.426 208.996 450.869C207.38 451.839 205.271 451.096 203.569 450.699C200.811 450.055 198.009 449.584 195.191 449.217C189.509 448.473 183.782 448.144 178.074 447.649C172.527 447.17 166.969 446.526 161.582 445.167C158.951 444.502 156.374 443.672 153.904 442.613C153.371 442.386 152.747 442.144 152.124 441.855C152.567 446.239 160.899 446.269 164.403 446.718L179.178 448.591C188.221 449.747 197.271 450.894 206.32 452.045C207.605 452.208 209.468 452.766 210.145 451.397C210.507 450.664 210.69 449.839 210.939 449.073C211.542 447.176 212.136 445.279 212.716 443.375C213.947 439.343 215.122 435.29 216.244 431.226C218.435 423.263 220.409 415.254 222.172 407.199C223.011 403.346 223.811 399.488 224.544 395.617C224.835 394.072 225.096 392.52 225.229 390.97C223.314 400.922 221.084 410.82 218.546 420.651C217.119 426.188 215.591 431.702 213.963 437.19Z" fill="#FFD697"/>
<path d="M185.602 446.671C190.664 447.08 195.737 447.546 200.722 448.485C202.165 448.757 203.589 449.096 205.018 449.431C205.896 449.635 207.294 450.083 208.1 449.509C208.789 449.018 209.036 447.329 209.261 446.62C209.64 445.428 210.014 444.235 210.388 443.042C216.387 423.711 221.148 404.065 224.707 384.224C224.704 384.21 224.701 384.2 224.698 384.186C224.682 384.123 224.671 384.061 224.669 384.005C208.118 380.662 191.576 377.32 175.029 373.977C174.042 375.545 173.113 377.148 172.255 378.779C171.213 380.764 169.669 383.138 169.32 385.332C169.036 387.139 171.322 387.685 172.633 388.536C173.649 389.197 174.193 389.961 174.2 391.095C174.205 391.543 173.643 391.798 173.216 391.768C166.325 391.263 163.107 397.78 161.309 402.65C160.235 405.55 159.105 408.456 158.155 411.391C157.685 412.833 157.527 414.007 159.051 414.927C160.164 415.6 161.578 415.831 162.866 416.013C163.536 416.107 163.843 416.803 163.447 417.285C162.262 418.744 160.477 419.301 158.732 420.064C155.698 421.386 155.187 423.914 154.38 426.643C153.601 429.282 152.817 431.92 152.033 434.558C151.676 435.767 150.409 438.181 151.219 439.375C151.416 439.661 151.755 439.923 152.164 440.152C153.102 440.691 154.403 441.089 155.152 441.399C164.694 445.336 175.348 445.843 185.602 446.671ZM186.801 426.252L179.744 426.001C179.182 425.981 179.299 425.198 179.857 425.218L186.913 425.469C187.481 425.485 187.358 426.271 186.801 426.252ZM210.523 413.678C208.123 421.441 205.57 429.167 202.841 436.838C202.492 437.82 202.138 438.806 201.784 439.787C201.489 440.603 201.295 441.646 200.737 442.359C200.131 443.127 199.252 443.071 198.309 442.979C194.196 442.589 190.141 441.66 186.247 440.401C186.082 440.348 185.938 440.138 185.981 439.98C188.618 430.493 192.233 421.269 196.811 412.42C196.656 412.428 196.497 412.427 196.342 412.435C195.779 412.461 195.653 411.676 196.217 411.65C200.988 411.42 205.689 411.927 210.285 413.158C210.539 413.222 210.579 413.493 210.523 413.678ZM191.501 413.953C184.894 413.675 178.34 412.891 171.87 411.59C171.321 411.479 171.428 410.695 171.982 410.807C178.862 412.192 185.844 412.998 192.874 413.222C193.373 413.238 193.366 413.975 192.881 414.006C192.537 414.023 192.192 414.045 191.846 414.066C191.701 414.076 191.584 414.033 191.501 413.953ZM173.083 398.616C173.515 398.782 173.949 398.935 174.386 399.07C175.941 394.65 177.929 390.388 180.347 386.306C180.716 385.597 181.085 384.888 181.463 384.185C180.411 384.579 179.408 385.077 178.464 385.68C178.006 385.972 177.484 385.36 177.93 385.048C179.082 384.238 180.33 383.585 181.67 383.088C181.658 383.072 181.639 383.06 181.627 383.045C181.24 382.665 181.943 382.189 182.319 382.568C182.319 382.573 182.333 382.575 182.338 382.575C182.558 382.216 183.149 382.38 183.182 382.706C183.357 382.765 183.484 382.916 183.456 383.113C183.299 384.315 183.136 385.521 182.979 386.723C182.974 386.755 182.965 386.787 182.956 386.814L183.836 387.107L184.415 385.553C184.473 385.392 184.694 385.299 184.875 385.317C186.103 385.464 187.327 385.605 188.556 385.746C189.271 385.837 190.245 385.788 190.84 386.237C191.814 386.976 191.125 388.465 190.907 389.37C189.955 393.386 188.812 397.354 187.501 401.283L190.14 401.645C190.887 398.853 191.45 395.926 192.449 393.207C193.265 391.002 196.144 392.146 198.093 392.421C198.312 392.449 198.525 392.658 198.475 392.866C197.676 396.127 196.498 399.266 194.931 402.281C194.925 402.289 194.924 402.298 194.913 402.306C196.283 402.499 197.654 402.686 199.03 402.875C199.206 402.748 199.483 402.718 199.673 402.914C199.237 402.467 200.241 400.123 200.397 399.588C200.654 398.692 200.911 397.801 201.168 396.906L202.884 390.939C202.946 390.714 203.113 390.59 203.374 390.6C204.512 390.651 205.645 390.697 206.779 390.743C207.394 390.769 208.27 390.675 208.847 390.939C209.931 391.436 209.486 392.606 209.341 393.474C208.753 397.032 207.764 400.512 206.437 403.897C207.919 404.104 209.401 404.311 210.889 404.513C210.606 403.96 210.395 403.387 210.565 402.933C210.611 402.813 210.767 402.697 210.911 402.697C211.194 402.691 211.332 402.732 211.516 402.937C211.644 403.079 211.621 403.277 211.516 403.417C211.498 403.443 211.48 403.464 211.467 403.486C211.442 403.52 211.414 403.544 211.391 403.565C211.651 403.756 211.885 404.234 212.069 404.677C212.347 404.712 212.624 404.747 212.901 404.791C213.459 404.872 213.347 405.655 212.788 405.575C212.657 405.558 212.526 405.537 212.395 405.52C212.433 405.67 212.376 405.826 212.238 405.925C211.215 406.667 210.191 407.409 209.163 408.156C208.726 408.474 208.192 407.842 208.629 407.524C209.563 406.845 210.498 406.166 211.428 405.491C211.408 405.456 211.389 405.416 211.364 405.38C207.374 404.828 203.389 404.276 199.399 403.724C196.91 403.38 194.417 403.036 191.928 402.693L186.942 402.005C185.071 401.744 183.199 401.488 181.328 401.228C179.229 400.938 177.139 400.65 175.119 400.114C174.72 401.136 174.339 402.165 173.973 403.201C173.824 403.62 173.011 403.415 173.136 402.988C173.442 401.926 173.771 400.872 174.129 399.83C173.664 399.683 173.201 399.521 172.746 399.343C172.226 399.137 172.563 398.41 173.083 398.616ZM169.755 417.189C170.189 417.239 170.617 417.294 171.051 417.344C171.178 417.36 171.269 417.414 171.329 417.482C177.562 418.64 183.861 419.369 190.209 419.651C190.776 419.676 190.659 420.459 190.097 420.434C183.217 420.131 176.386 419.307 169.643 417.972C169.094 417.861 169.185 417.117 169.755 417.189ZM164.928 423.904C166.986 421.157 171.37 420.416 173.955 422.921C177.421 424.536 178.022 428.716 176.025 431.658C173.959 434.698 169.467 435.504 166.296 433.181C163.264 430.954 162.809 426.727 164.928 423.904Z" fill="#FFFEFC"/>
<path d="M225.852 382.635C209.214 379.271 192.581 375.913 175.943 372.549C176.013 372.442 176.078 372.333 176.152 372.231C176.726 371.371 175.341 370.384 174.761 371.248C172.041 375.324 169.171 379.829 167.746 384.452C167.311 385.861 167.57 387.172 168.809 388.173C169.511 388.738 171.382 389.344 172.135 390.18C164.723 390.407 161.326 397.48 159.301 403.072C158.588 405.043 157.879 407.014 157.165 408.99C156.63 410.48 155.718 412.173 156.092 413.783C156.574 415.854 158.788 416.797 160.94 417.28C159.711 418.071 158.15 418.456 156.853 419.168C154.884 420.252 153.991 421.953 153.38 423.905C152.577 426.461 151.857 429.037 151.093 431.604C150.7 432.925 150.309 434.242 149.921 435.564C149.586 436.692 148.916 438.048 149.22 439.248C149.68 441.055 152.253 441.917 153.892 442.62C156.362 443.679 158.94 444.505 161.571 445.169C166.962 446.529 172.516 447.172 178.067 447.657C183.775 448.152 189.502 448.481 195.185 449.225C198.002 449.591 200.804 450.063 203.562 450.706C205.264 451.104 207.369 451.846 208.99 450.872C209.722 450.433 210.035 449.769 210.293 449.041C210.782 447.667 211.186 446.263 211.618 444.872C212.42 442.32 213.198 439.76 213.956 437.198C215.58 431.71 217.108 426.195 218.539 420.659C221.71 408.38 224.395 395.993 226.605 383.537C226.684 383.09 226.299 382.733 225.846 382.643L225.852 382.635ZM210.378 443.045C210.009 444.239 209.63 445.431 209.251 446.624C209.026 447.332 208.779 449.022 208.089 449.513C207.283 450.087 205.885 449.639 205.008 449.435C203.579 449.1 202.16 448.761 200.717 448.49C195.732 447.55 190.659 447.084 185.597 446.676C175.337 445.851 164.689 445.341 155.147 441.403C154.07 440.959 151.856 440.328 151.214 439.379C150.403 438.185 151.671 435.772 152.027 434.567L154.374 426.652C155.181 423.923 155.692 421.395 158.727 420.068C160.471 419.305 162.256 418.752 163.446 417.294C163.842 416.813 163.53 416.116 162.864 416.022C161.577 415.84 160.163 415.61 159.05 414.937C157.522 414.011 157.679 412.842 158.149 411.4C159.104 408.466 160.234 405.559 161.303 402.659C163.101 397.789 166.319 391.271 173.215 391.777C173.642 391.808 174.199 391.552 174.198 391.104C174.192 389.97 173.647 389.206 172.627 388.545C171.316 387.694 169.03 387.147 169.314 385.341C169.658 383.146 171.207 380.773 172.249 378.788C173.108 377.152 174.036 375.554 175.024 373.981C191.595 377.327 208.17 380.678 224.741 384.023C221.177 403.933 216.402 423.648 210.383 443.046L210.378 443.045Z" fill="#210B03"/>
<path d="M226.433 383.984C226.151 383.011 224.409 383.201 224.694 384.188C225.795 387.989 225.261 391.82 224.545 395.614C223.812 399.485 223.011 403.348 222.172 407.201C220.414 415.256 218.435 423.265 216.244 431.228C215.127 435.293 213.953 439.341 212.721 443.378C212.141 445.282 211.547 447.179 210.938 449.075C210.695 449.841 210.512 450.667 210.15 451.4C209.468 452.768 207.609 452.216 206.32 452.048C197.27 450.901 188.226 449.749 179.177 448.598L164.403 446.725C160.728 446.255 151.739 446.239 152.112 441.175C152.188 440.163 150.446 439.938 150.37 440.954C150.126 444.286 153.159 446.4 156.452 447.177C161.155 448.291 166.243 448.549 171.048 449.158C181.241 450.45 191.434 451.751 201.627 453.043C203.837 453.323 206.061 453.717 208.287 453.887C209.949 454.009 211.101 453.409 211.765 452.029C212.611 450.271 213.018 448.256 213.595 446.413C214.301 444.147 214.988 441.874 215.66 439.6C218.267 430.771 220.607 421.875 222.676 412.927C223.85 407.843 224.942 402.739 225.942 397.624C226.824 393.128 227.745 388.525 226.431 383.994L226.433 383.984Z" fill="#210B03"/>
<path d="M182.318 382.592C181.637 383.821 180.978 385.062 180.339 386.305C177.214 391.585 174.8 397.164 173.129 402.987C173.008 403.415 173.821 403.62 173.97 403.201C175.986 397.496 178.409 391.932 181.206 386.517C181.746 385.616 182.302 384.716 182.884 383.834C182.985 383.679 182.96 383.512 182.873 383.39C182.961 383.228 183.043 383.071 183.135 382.91C183.388 382.457 182.576 382.144 182.327 382.598L182.318 382.592Z" fill="#210B03"/>
<path d="M212.895 404.795C206.169 403.863 199.447 402.937 192.721 402.005C189.416 401.548 186.111 401.092 182.806 400.636C179.511 400.181 176.17 399.837 173.083 398.62C172.562 398.414 172.225 399.141 172.741 399.346C175.481 400.426 178.398 400.823 181.323 401.232C184.856 401.721 188.39 402.207 191.923 402.696C198.878 403.657 205.828 404.617 212.783 405.578C213.342 405.654 213.455 404.871 212.895 404.795Z" fill="#210B03"/>
<path d="M212.372 405.462C212.208 405.115 211.846 403.903 211.384 403.57C211.411 403.55 211.435 403.52 211.459 403.491C211.477 403.47 211.49 403.448 211.509 403.422C211.614 403.277 211.637 403.084 211.509 402.937C211.325 402.732 211.192 402.692 210.904 402.697C210.764 402.703 210.605 402.813 210.563 402.934C210.288 403.673 211.018 404.74 211.426 405.492C210.491 406.171 209.557 406.845 208.627 407.525C208.19 407.842 208.724 408.474 209.161 408.157C210.184 407.414 211.208 406.667 212.236 405.925C212.386 405.814 212.447 405.626 212.372 405.458L212.372 405.462Z" fill="#210B03"/>
<path d="M183.455 383.118C183.5 382.807 183.157 382.605 182.846 382.696C182.79 382.712 182.732 382.733 182.675 382.749C182.555 382.692 182.435 382.63 182.315 382.568C181.938 382.189 181.24 382.665 181.622 383.044C181.639 383.061 181.653 383.072 181.67 383.088C180.33 383.585 179.076 384.242 177.93 385.048C177.484 385.36 178.006 385.972 178.464 385.68C179.708 384.887 181.044 384.277 182.475 383.834C182.353 384.76 182.23 385.687 182.107 386.613C182.04 387.118 182.911 387.228 182.979 386.724C183.141 385.522 183.298 384.32 183.461 383.114L183.455 383.118Z" fill="#210B03"/>
<path d="M192.871 413.221C185.84 412.996 178.858 412.191 171.979 410.806C171.425 410.693 171.318 411.477 171.867 411.589C178.336 412.894 184.89 413.678 191.497 413.951C191.581 414.027 191.698 414.075 191.843 414.065C192.188 414.043 192.533 414.026 192.873 414.004C193.357 413.977 193.364 413.236 192.866 413.22L192.871 413.221Z" fill="#210B03"/>
<path d="M190.207 419.651C183.859 419.369 177.56 418.641 171.327 417.482C171.268 417.409 171.177 417.356 171.049 417.344C170.616 417.289 170.187 417.24 169.753 417.189C169.188 417.118 169.091 417.866 169.641 417.973C176.384 419.308 183.215 420.131 190.095 420.439C190.656 420.464 190.773 419.681 190.207 419.656L190.207 419.651Z" fill="#210B03"/>
<path d="M186.913 425.467C184.561 425.384 182.208 425.305 179.856 425.221C179.299 425.202 179.177 425.984 179.744 426.004C182.096 426.088 184.449 426.167 186.801 426.251C187.358 426.27 187.48 425.488 186.913 425.467Z" fill="#210B03"/>
</g>
</g>
<defs>
<clipPath id="clip0_772_14505">
<rect width="107.161" height="80.1886" fill="white" transform="matrix(0.981944 -0.189173 0.212616 0.977136 641.566 258.418)"/>
</clipPath>
<clipPath id="clip1_772_14505">
<rect width="107.409" height="79.9806" fill="white" transform="translate(43 892.02)"/>
</clipPath>
<clipPath id="clip2_772_14505">
<rect width="70.41" height="78.3162" fill="white" transform="matrix(0.992062 0.125749 -0.141719 0.989907 159.098 368.852)"/>
</clipPath>
</defs>
</svg>
