<svg width="722" height="972" viewBox="0 0 722 972" fill="none" xmlns="http://www.w3.org/2000/svg">
<mask id="mask0_772_14672" style="mask-type:alpha" maskUnits="userSpaceOnUse" x="0" y="0" width="722" height="972">
<rect width="722" height="972" fill="#D9D9D9"/>
</mask>
<g mask="url(#mask0_772_14672)">
<path fill-rule="evenodd" clip-rule="evenodd" d="M798.098 166.928C798.098 212.388 759.111 249.264 711.05 249.264C662.988 249.264 624.002 212.388 624.002 166.928C624.002 121.468 662.988 84.5918 711.05 84.5918C759.111 84.5918 798.098 121.468 798.098 166.928Z" fill="#FFD697"/>
<path fill-rule="evenodd" clip-rule="evenodd" d="M-293.969 33.3316C-228.198 138.046 -66.4791 185.645 95.5181 140.406C211.421 108.04 299.922 35.8338 339.085 -47.1922L311.448 -135.735L-293.999 33.3399L-293.969 33.3316Z" fill="#FFD697"/>
<path fill-rule="evenodd" clip-rule="evenodd" d="M130.495 762.54C42.3119 731.945 -46.5437 812.268 -135.399 892.59L423.645 1351.95L777.434 966.757C763.971 934.955 745.282 912.983 718.066 907.102C647.804 891.929 520.696 984.038 413.409 959.335C306.122 934.632 218.655 793.116 130.472 762.521L130.495 762.54Z" fill="#FFD697"/>
</g>
<path d="M444.556 358.948C444.717 358.746 444.98 358.619 445.33 358.65C454.065 359.478 460.721 365.43 465.533 371.685C470.446 378.075 473.866 385.603 474.397 393.359C475.253 405.737 467.725 418.214 454.696 422.703C441.138 427.369 424.943 422.056 416.126 411.804C406.764 400.915 404.792 384.412 412.607 372.623C413.251 371.653 413.968 370.729 414.739 369.848C412.434 368.05 410.13 366.244 407.835 364.439C405.185 367.477 403.064 370.938 401.631 374.78C395.7 390.682 400.581 410.085 414.294 421.884C427.537 433.269 449.006 437.199 464.626 428.158C479.6 419.496 485.47 402.892 481.808 387.385C479.833 378.991 475.412 371.084 469.674 364.232C464.64 358.22 458.151 352.632 450.051 350.69C449.739 350.893 449.329 350.996 448.836 350.917C433.877 348.456 418.426 353.307 408.906 363.276C411.199 365.089 413.513 366.889 415.817 368.695C422.849 361.545 433.909 358.016 444.556 358.948Z" fill="#FDF1D6"/>
<path d="M420.926 414.352C430.851 422.881 446.895 425.846 458.669 419.205C469.98 412.818 474.608 400.382 472.016 388.713C470.599 382.378 467.347 376.407 463.074 371.218C459.154 366.449 454.104 362.073 447.71 360.598C447.548 360.758 447.31 360.846 446.998 360.796C435.916 359.008 424.396 362.472 417.179 369.761C419.864 371.874 422.549 373.986 425.202 376.127C429.756 371.798 436.607 369.713 443.271 370.226C443.438 370.084 443.667 370.002 443.955 370.031C454.991 371.229 462.432 383.863 462.887 392.941C463.284 400.955 458.256 408.941 449.79 411.747C440.965 414.672 430.505 411.142 424.832 404.47C418.836 397.416 417.592 386.766 422.634 379.153C423.073 378.488 423.575 377.868 424.1 377.268C421.454 375.136 418.777 373.025 416.099 370.923C414.181 373.098 412.628 375.569 411.551 378.319C406.795 390.422 410.415 405.314 420.926 414.352Z" fill="#A4AE4D"/>
<path d="M428.428 405.838C434.683 411.243 444.81 413.098 452.251 408.945C459.475 404.918 462.426 396.902 460.685 389.492C459.065 382.651 453.543 373.831 445.474 371.868C445.325 371.954 445.14 371.992 444.915 371.956C438.073 370.899 431.085 372.903 426.527 377.206C430.133 380.142 433.686 383.129 437.133 386.208C437.788 385.629 438.58 385.283 439.5 385.313C439.565 385.247 439.647 385.184 439.753 385.142C443.16 383.653 446.806 387.162 447.545 389.959C448.404 393.231 446.069 396.793 442.354 397.412C438.887 397.988 435.22 395.692 434.817 392.46C434.646 391.072 435.108 388.984 436.107 387.421C432.637 384.321 429.061 381.313 425.416 378.346C424.054 379.893 422.981 381.672 422.286 383.672C419.657 391.233 421.949 400.244 428.428 405.838Z" fill="#FDF1D6"/>
<path d="M442.901 395.673C445.047 394.868 446.315 392.749 445.988 390.685C445.697 388.822 443.435 385.984 441.05 386.386C440.9 386.776 440.443 387.092 439.89 386.901C439.336 386.711 438.827 386.925 438.381 387.327C439.569 388.404 440.737 389.487 441.886 390.584C442.638 391.305 441.565 392.484 440.805 391.754C439.694 390.697 438.571 389.655 437.43 388.618C437.044 389.334 436.777 390.085 436.684 390.459C436.363 391.708 436.422 393.027 437.286 394.12C438.526 395.705 440.937 396.405 442.901 395.673Z" fill="#A45314"/>
<path d="M444.559 358.954C444.72 358.751 444.983 358.625 445.333 358.656C454.068 359.484 460.723 365.435 465.536 371.691C470.45 378.073 473.87 385.6 474.401 393.356C475.248 405.733 467.729 418.212 454.691 422.699C441.133 427.365 424.938 422.052 416.121 411.8C406.759 400.911 404.786 384.416 412.611 372.62C413.255 371.651 413.963 370.725 414.734 369.844C412.431 368.038 410.134 366.241 407.841 364.428C405.19 367.466 403.061 370.926 401.627 374.776C395.706 390.671 400.585 410.082 414.299 421.873C427.542 433.259 449.012 437.188 464.622 428.154C479.597 419.484 485.466 402.88 481.813 387.374C479.829 378.979 475.418 371.073 469.679 364.221C464.645 358.209 458.156 352.622 450.057 350.679C449.744 350.882 449.334 350.985 448.843 350.898C433.874 348.444 418.433 353.288 408.913 363.257C411.206 365.07 413.52 366.87 415.824 368.676C422.856 361.526 433.925 357.998 444.563 358.929L444.559 358.954Z" fill="#5D6716"/>
<path d="M407.05 419.144C419.169 433.239 441.546 440.465 460.074 433.733C477.661 427.34 487.578 410.347 486.216 393.52C485.384 383.257 480.817 373.324 474.343 364.858C467.84 356.354 458.668 348.089 446.778 347.042C446.234 346.997 445.789 347.145 445.467 347.406C430.834 346.163 415.714 351.203 406.233 361.153C407.122 361.861 408.011 362.562 408.908 363.272C418.428 353.303 433.88 348.451 448.838 350.912C449.331 350.991 449.741 350.888 450.052 350.693C458.152 352.636 464.641 358.223 469.675 364.235C475.413 371.087 479.833 378.995 481.809 387.388C485.471 402.896 479.592 419.498 464.617 428.169C449.007 437.202 427.529 433.272 414.295 421.887C400.582 410.088 395.701 390.685 401.622 374.791C403.055 370.949 405.177 367.479 407.836 364.443C406.947 363.742 406.05 363.032 405.161 362.324C404.021 363.627 402.966 365.004 402.02 366.466C391.722 382.401 394.471 404.528 407.041 419.143L407.05 419.144Z" fill="#5D6716"/>
<path d="M416.13 411.806C424.947 422.059 441.14 427.379 454.7 422.706C467.729 418.217 475.258 405.732 474.41 393.363C473.879 385.607 470.45 378.078 465.545 371.698C460.732 365.442 454.076 359.49 445.342 358.662C444.991 358.631 444.729 358.758 444.568 358.96C433.929 358.029 422.861 361.557 415.828 368.707C416.282 369.058 416.734 369.418 417.187 369.77C424.405 362.481 435.933 359.018 447.007 360.805C447.318 360.855 447.557 360.767 447.719 360.607C454.113 362.081 459.163 366.457 463.085 371.218C467.357 376.407 470.608 382.386 472.017 388.712C474.619 400.383 469.99 412.818 458.671 419.204C446.905 425.847 430.853 422.88 420.928 414.351C410.417 405.313 406.795 390.429 411.552 378.318C412.63 375.568 414.183 373.097 416.101 370.922C415.649 370.562 415.195 370.21 414.743 369.85C413.974 370.724 413.266 371.649 412.62 372.627C404.805 384.416 406.768 400.917 416.13 411.806Z" fill="#5D6716"/>
<path d="M424.843 404.472C430.516 411.145 440.976 414.675 449.802 411.741C458.268 408.936 463.294 400.957 462.899 392.936C462.444 383.857 455.003 371.224 443.967 370.026C443.679 369.996 443.451 370.078 443.293 370.213C436.621 369.699 429.777 371.794 425.216 376.113C425.659 376.472 426.103 376.83 426.546 377.188C431.104 372.885 438.092 370.882 444.943 371.94C445.168 371.976 445.353 371.938 445.502 371.852C453.563 373.814 459.093 382.635 460.704 389.474C462.454 396.885 459.494 404.9 452.269 408.936C444.836 413.09 434.702 411.226 428.448 405.82C421.969 400.226 419.676 391.216 422.305 383.655C423 381.654 424.074 379.875 425.435 378.328C424.992 377.97 424.548 377.611 424.114 377.254C423.588 377.854 423.086 378.475 422.647 379.139C417.615 386.754 418.85 397.402 424.846 404.456L424.843 404.472Z" fill="#5D6716"/>
<path d="M379.977 338.755C379.886 338.267 379.786 337.778 379.695 337.29C378.159 335.624 376.664 333.923 375.222 332.179C374.563 331.38 373.179 332.256 373.846 333.056C375.39 334.926 376.997 336.747 378.646 338.532C379.087 338.603 379.527 338.682 379.968 338.753L379.977 338.755Z" fill="#A45314"/>
<path d="M397.401 355.249C397.306 354.736 397.209 354.23 397.114 353.716C394.885 351.838 392.689 349.931 390.543 347.989C390.567 348.103 390.583 348.215 390.607 348.329C390.712 348.836 390.144 349.226 389.622 349.159C389.562 349.15 389.492 349.139 389.432 349.129C391.663 351.143 393.946 353.115 396.259 355.066C396.64 355.127 397.02 355.188 397.41 355.251L397.401 355.249Z" fill="#A45314"/>
<path d="M414.743 369.851C415.196 370.203 415.648 370.563 416.1 370.922C418.778 373.025 421.455 375.136 424.101 377.268C424.544 377.626 424.988 377.984 425.423 378.342C429.061 381.3 432.645 384.308 436.105 387.415C436.401 386.956 436.742 386.537 437.133 386.195C433.694 383.117 430.141 380.13 426.526 377.192C426.083 376.834 425.639 376.476 425.196 376.117C422.543 373.976 419.858 371.864 417.172 369.751C416.719 369.4 416.267 369.04 415.813 368.688C413.51 366.882 411.197 365.075 408.903 363.27C408.013 362.57 407.116 361.86 406.228 361.151C403.842 359.256 401.477 357.347 399.143 355.409C399.191 355.637 399.23 355.871 399.278 356.098C399.369 356.535 398.96 356.884 398.516 356.93C400.711 358.744 402.928 360.537 405.166 362.315C406.054 363.024 406.944 363.724 407.841 364.434C410.136 366.239 412.439 368.045 414.734 369.85L414.743 369.851Z" fill="#A45314"/>
<path d="M388.72 347.462C388.633 347 388.546 346.538 388.459 346.076C386.193 343.964 383.988 341.802 381.856 339.584C381.853 339.6 381.86 339.61 381.866 339.628C381.971 340.135 381.403 340.525 380.881 340.458C380.717 340.432 380.552 340.405 380.388 340.379C382.64 342.726 384.965 345.008 387.363 347.235C387.811 347.316 388.27 347.389 388.72 347.462Z" fill="#A45314"/>
<path d="M441.897 390.587C440.748 389.49 439.58 388.407 438.392 387.329C438.021 387.667 437.706 388.132 437.441 388.621C438.574 389.656 439.705 390.7 440.816 391.757C441.577 392.479 442.651 391.299 441.897 390.587Z" fill="#5D6716"/>
<path d="M381.861 339.616C381.861 339.616 381.857 339.59 381.851 339.573C380.864 334.624 380.076 329.657 379.49 324.655C379.371 323.672 377.683 323.807 377.8 324.797C378.284 328.972 378.923 333.13 379.697 337.275C379.788 337.763 379.879 338.251 379.979 338.74C379.538 338.669 379.096 338.598 378.657 338.519C374.517 337.778 370.499 336.651 366.587 335.128C365.573 334.728 364.871 336.119 365.877 336.518C370.562 338.343 375.38 339.623 380.392 340.369C380.556 340.395 380.72 340.422 380.885 340.448C381.397 340.522 381.965 340.132 381.869 339.618L381.861 339.616Z" fill="#A45314"/>
<path d="M434.835 392.457C435.238 395.689 438.905 397.985 442.372 397.409C446.086 396.798 448.42 393.236 447.554 389.954C446.816 387.158 443.171 383.641 439.772 385.131C439.667 385.173 439.584 385.236 439.511 385.3C438.599 385.272 437.807 385.618 437.144 386.196C436.755 386.53 436.413 386.949 436.116 387.416C435.117 388.979 434.664 391.069 434.835 392.457ZM438.393 387.326C438.83 386.923 439.34 386.709 439.902 386.901C440.455 387.091 440.912 386.776 441.062 386.386C443.447 385.983 445.709 388.822 446 390.685C446.327 392.748 445.059 394.867 442.913 395.672C440.948 396.412 438.529 395.703 437.288 394.126C436.424 393.033 436.365 391.714 436.696 390.458C436.789 390.084 437.056 389.333 437.442 388.618C437.706 388.136 438.021 387.663 438.393 387.326Z" fill="#5D6716"/>
<path d="M390.609 348.319C390.585 348.205 390.569 348.093 390.545 347.979C389.585 343.128 388.816 338.256 388.237 333.365C388.118 332.383 386.43 332.517 386.547 333.507C387.036 337.709 387.686 341.902 388.464 346.073C388.551 346.535 388.638 346.997 388.724 347.458C388.274 347.386 387.816 347.313 387.367 347.232C383.238 346.484 379.227 345.367 375.324 343.845C374.31 343.446 373.608 344.837 374.614 345.235C379.39 347.1 384.312 348.397 389.431 349.135C389.492 349.145 389.561 349.156 389.622 349.165C390.134 349.239 390.702 348.849 390.606 348.335L390.609 348.319Z" fill="#A45314"/>
<path d="M399.278 356.117C399.23 355.889 399.191 355.655 399.143 355.428C398.216 350.692 397.46 345.941 396.906 341.163C396.787 340.181 395.099 340.315 395.216 341.306C395.703 345.464 396.337 349.596 397.099 353.714C397.194 354.228 397.291 354.733 397.386 355.247C397.005 355.186 396.625 355.125 396.235 355.062C392.025 354.319 387.955 353.183 383.986 351.634C382.971 351.234 382.269 352.625 383.275 353.023C388.109 354.915 393.092 356.222 398.285 356.946C398.354 356.957 398.426 356.952 398.498 356.946C398.943 356.899 399.352 356.551 399.261 356.114L399.278 356.117Z" fill="#A45314"/>
<path d="M211.612 431.215C208.843 428.481 206.064 425.758 203.294 423.025C199.914 427.642 196.649 432.33 193.497 437.061L199.294 446.473C203.532 441.46 207.645 436.377 211.612 431.215Z" fill="#FFFEFC"/>
<path d="M151.706 449.277L158.598 462.575C160.601 457.113 162.604 451.652 164.607 446.19C162.196 442.021 159.785 437.852 157.374 433.684C155.375 438.848 153.479 444.046 151.706 449.277Z" fill="#FFFEFC"/>
<path d="M136.496 459.564C138.817 462.223 141.216 464.83 143.694 467.395C145.425 461.371 147.299 455.379 149.326 449.418C147.1 445.125 144.874 440.823 142.648 436.531C140.224 444.14 138.166 451.818 136.496 459.564Z" fill="#FFFEFC"/>
<path d="M190.925 437.027C186.618 430.036 182.301 423.045 177.994 416.053C174.333 426.04 170.671 436.018 167.009 446.005C169.997 451.162 172.985 456.319 175.963 461.467C180.633 453.176 185.623 445.023 190.925 437.027Z" fill="#FFFEFC"/>
<path d="M126.618 509.949C129.346 509.992 131.623 510.104 132.641 510.074C146.365 509.766 160.089 509.457 173.812 509.148C198.274 508.596 222.736 508.035 247.209 507.482C250.95 507.4 254.812 507.12 258.626 507.092C257.742 457.898 258.078 408.684 259.626 359.479C234.801 356.234 209.626 358.2 184.748 360.621C181.986 360.887 179.224 361.162 176.462 361.428C154.075 363.615 131.691 365.86 109.305 368.076C115.076 415.371 120.857 462.655 126.618 509.949ZM243.305 497.99C242.887 497.914 242.506 497.577 242.455 497.197C236.198 498.002 218.846 498.992 216.874 499.124C207.981 499.711 199.08 500.154 190.181 500.434C172.06 501.019 153.945 500.952 135.85 500.3C134.414 500.254 134.301 498.314 135.747 498.36C159.183 499.208 182.657 499.058 206.094 497.817C217.672 497.208 229.201 496.256 240.736 495.228C242.042 495.108 245.516 494.559 245.662 496.555C245.745 497.739 244.436 498.185 243.305 497.99ZM134.857 481.91C143.808 481.839 152.749 481.767 161.7 481.686C163.153 481.674 163.255 483.615 161.802 483.626C152.851 483.698 143.911 483.779 134.96 483.851C133.507 483.862 133.404 481.922 134.857 481.91ZM245.126 480.309C222.964 481.968 200.736 481.82 178.635 479.883C177.205 479.749 177.71 477.857 179.14 477.98C201.028 479.899 223.062 480.018 245.024 478.369C246.472 478.261 246.564 480.202 245.126 480.309ZM200.051 452.069C203.735 449.182 209.463 449.072 212.904 451.907C214.048 451.393 215.523 451.6 215.818 452.976C217.106 459.019 217.995 466.652 210.834 470.424C205.609 473.174 199.73 470.637 197.25 466.299C194.636 461.737 195.533 455.6 200.051 452.069ZM248.962 463.682C246.77 470.159 238.93 472.909 232.342 468.987C226.786 465.668 224.671 458.697 228.597 453.709C231.917 449.487 238.229 447.816 243.674 449.215C243.796 449.219 243.917 449.223 244.039 449.245C251.344 450.507 250.549 458.959 248.962 463.682ZM180.191 377.158C201.903 377.484 223.568 375.762 244.88 371.949C246.29 371.7 246.993 373.535 245.573 373.794C224.061 377.636 202.218 379.424 180.293 379.088C178.848 379.071 178.746 377.131 180.191 377.158ZM213.468 390.579C203.02 392.121 192.572 393.654 182.134 395.196C180.701 395.408 180.609 393.467 182.032 393.265C192.47 391.723 202.918 390.181 213.366 388.639C214.798 388.427 214.88 390.368 213.468 390.579ZM180.848 407.925C189.466 407.103 197.944 405.712 206.319 403.722C207.714 403.388 208.408 405.233 207.011 405.558C198.447 407.595 189.77 409.024 180.951 409.866C179.504 410.002 179.412 408.061 180.848 407.925ZM178.685 413.031C183.212 420.366 187.729 427.712 192.256 435.048C195.437 430.296 198.733 425.607 202.153 420.969C202.501 420.502 203.393 420.181 203.914 420.683C206.907 423.627 209.9 426.579 212.902 429.522C218.981 421.528 224.727 413.358 230.132 405.022C227.075 403.912 224.08 402.637 221.157 401.195C219.912 400.574 220.952 398.847 222.206 399.468C225.14 400.919 228.145 402.194 231.233 403.312C233.844 399.239 236.383 395.122 238.839 390.971C234.338 393.869 229.476 396.247 224.213 398.088C222.974 398.521 222.256 396.974 223.253 396.361L242.96 384.153C243.919 383.561 245.042 384.562 244.571 385.408C244.34 385.812 244.099 386.217 243.869 386.63C243.893 386.706 243.908 386.791 243.913 386.896C243.689 393.739 243.476 400.592 243.262 407.434C243.244 408.039 242.638 408.605 241.882 408.439C238.582 407.705 235.365 406.814 232.22 405.756C226.638 414.359 220.703 422.787 214.425 431.03C214.798 431.396 215.16 431.753 215.533 432.118C217.269 433.837 219.015 435.546 220.752 437.265C222.189 438.681 223.75 441.079 225.637 442.025C229.765 444.099 235.754 436.32 238.667 432.789C236.236 430.739 234.106 428.445 232.265 425.888C231.872 425.341 232.169 424.656 232.864 424.431C238.751 422.541 244.733 421.116 250.899 420.113C251.939 419.939 252.316 421.147 251.782 421.729C251.237 422.31 250.692 422.892 250.148 423.483C250.448 428.213 249.771 432.768 248.042 437.306C247.829 437.863 247.086 438.32 246.411 437.969C244.2 436.809 242.152 435.507 240.248 434.065L238.013 436.462C235.576 439.069 232.104 444.812 227.529 444.78C225.631 444.766 224.561 443.82 223.301 442.711C220.855 440.547 218.647 438.122 216.336 435.855C215.271 434.804 214.196 433.753 213.131 432.702C208.909 438.202 204.521 443.615 199.977 448.939C199.568 449.418 198.524 449.344 198.204 448.822L192.175 439.047C186.773 447.239 181.703 455.597 176.973 464.102C176.642 464.712 175.417 464.847 175.03 464.195C172.04 459.019 169.041 453.843 166.042 448.668L159.874 465.492C159.52 466.438 158.159 466.474 157.699 465.595C155.383 461.115 153.056 456.627 150.739 452.147C148.796 457.97 146.995 463.824 145.337 469.701C145.081 470.585 143.893 470.642 143.296 470.038C140.767 467.465 138.306 464.842 135.934 462.176C135.452 464.518 135.001 466.868 134.59 469.216C134.373 470.453 132.17 470.031 132.388 468.804C132.9 465.885 133.472 462.964 134.087 460.069C131.195 456.738 128.43 453.324 125.782 449.828C124.99 448.793 126.882 447.725 127.674 448.761C129.91 451.721 132.243 454.609 134.675 457.454C136.47 449.386 138.682 441.385 141.302 433.469C141.624 432.495 143.028 432.505 143.467 433.366L150.302 446.552C152.106 441.33 154.032 436.13 156.07 430.954C156.346 430.261 157.634 429.797 158.112 430.627C160.601 434.926 163.089 439.225 165.578 443.525C169.266 433.469 172.954 423.413 176.643 413.358C176.908 412.636 178.188 412.23 178.685 413.031ZM122.785 379.777L122.886 379.772C123.145 379.127 124.26 379.026 124.802 379.537C132.956 378.535 141.122 377.543 149.287 376.55C149.209 375.461 149.151 374.372 149.083 373.273C148.382 373.191 147.775 372.588 148.244 371.914C148.44 371.042 148.636 370.161 148.832 369.289C148.755 368.018 150.873 367.975 151.088 369.181L151.091 369.248C151.091 369.248 151.179 369.177 151.227 369.137C154.393 367.146 157.364 369.505 157.956 372.295C158.171 373.3 158.217 374.371 158.194 375.455C160.35 375.19 162.497 374.934 164.653 374.668C167.512 374.321 170.951 373.295 171.501 376.441C171.944 378.892 171.257 381.943 171.126 384.441C170.965 387.496 170.803 390.551 170.641 393.597C170.328 399.706 170.005 405.807 169.691 411.907C169.52 415.154 169.968 418.678 166.23 420.524C162.047 422.572 155.861 422.608 151.249 423.211C144.312 424.136 137.356 424.898 130.384 425.556C129.741 425.616 129.272 425.14 129.205 424.635C127.156 410.32 125.107 396.015 123.048 381.7C122.998 381.703 122.948 381.705 122.887 381.708C121.453 381.882 121.36 379.941 122.785 379.767L122.785 379.777Z" fill="#FFFEFC"/>
<path d="M243.787 453.416C235.736 449.89 227.211 458.02 233.147 464.32C234.549 465.816 236.525 466.91 238.836 466.895C242.176 466.871 243.904 464.987 244.725 462.379C245.357 460.394 246.564 455.335 244.321 453.592C244.148 453.552 243.973 453.503 243.787 453.416Z" fill="#DBE192"/>
<path d="M152.45 370.758C151.981 371.058 151.502 370.976 151.176 370.723C151.294 372.576 151.402 374.421 151.52 376.274C152.904 376.103 154.288 375.931 155.673 375.769C155.514 372.768 154.863 369.234 152.45 370.758Z" fill="#A4AE4D"/>
<path d="M152.048 384.877C151.654 386.592 152.221 386.804 153.758 385.514C155.467 385.193 156.064 384.264 155.559 382.736C155.631 381.611 155.622 380.49 155.654 379.377C155.658 379.252 155.694 378.609 155.707 377.707C155.236 377.768 154.764 377.819 154.293 377.88L151.625 378.208C151.66 380.2 151.245 383.238 152.048 384.877Z" fill="#A4AE4D"/>
<path d="M210.462 465.576C212.739 463.004 212.551 459.64 211.993 456.543C211.465 456.472 210.966 456.199 210.605 455.67C208.326 452.281 203.483 453.68 201.528 456.601C199.843 459.115 199.826 462.422 201.483 464.92C203.566 468.051 207.718 468.667 210.462 465.576Z" fill="#5D6716"/>
<path d="M259.201 519.808C210.418 520.723 161.634 521.629 112.85 522.534C111.167 529.073 126.213 528.385 130.365 528.427C134.304 528.46 138.252 528.473 142.199 528.467C145.086 528.473 147.973 528.46 150.859 528.438C164.523 528.333 178.187 528.047 191.854 527.626C197.236 527.465 202.617 527.276 207.998 527.077L208.008 527.076C208.703 526.277 210.159 526.322 211.111 526.957C218.647 526.675 226.182 526.355 233.726 526.024C238.671 525.808 243.606 525.582 248.541 525.357C250.133 525.29 251.734 525.214 253.325 525.138C256.88 524.969 260.447 524.847 264.009 524.629C265.359 524.565 266.983 524.555 268.264 524.149C269.466 523.766 272.868 521.285 270.386 520.56C269.771 520.378 269.35 520.044 269.096 519.644C268.783 519.63 268.469 519.626 268.177 519.63L259.201 519.799L259.201 519.808Z" fill="#5D6716"/>
<path d="M236.047 505.987C222.974 506.465 209.891 506.944 196.804 507.388C183.428 507.87 170.043 508.353 156.668 508.834C150.127 509.074 143.585 509.313 137.044 509.553C134.078 509.651 131.103 509.751 128.137 509.849C127.839 509.887 127.537 509.891 127.234 509.894C125.756 509.943 121 508.779 118.004 509.254C115.091 510.317 116.67 523.018 116.674 521.466C116.939 522.966 117.2 524.431 117.461 525.896C170.111 524.794 222.756 523.657 275.396 522.556C275.211 509.877 269.233 506.154 263.82 505.249C260.267 504.638 256.951 505.245 255.676 505.303C249.135 505.543 242.588 505.747 236.047 505.987Z" fill="#DBE192"/>
<path d="M194 355.856C193.707 350.878 193.424 345.908 193.141 340.938C190.614 340.886 188.097 340.824 185.581 340.781C184.157 340.763 178.44 339.952 177.399 340.692C175.55 341.997 176.818 347.446 176.99 349.182C177.277 351.929 177.743 354.647 178.361 357.349C180.992 357.089 183.613 356.83 186.245 356.58C188.826 356.333 191.408 356.085 194 355.856Z" fill="#A45314"/>
<path d="M185.868 531.867C187.594 543.495 189.309 555.133 191.025 566.772C191.921 572.843 192.818 578.914 193.714 584.985C194.106 587.63 194.027 590.902 195.028 593.413C195.786 595.351 199.908 598.077 202.827 596.951C205.775 595.804 204.274 589.944 204.247 587.713C204.21 584.926 204.204 582.137 204.229 579.357C204.263 573.52 204.42 567.695 204.697 561.866C205.182 551.56 206.051 541.256 207.254 530.983C200.111 531.247 192.965 531.482 185.828 531.678C185.842 531.744 185.855 531.801 185.868 531.867Z" fill="#A45314"/>
<path d="M236.623 530.846C241.925 548.829 247.885 566.666 254.173 584.402C259.667 599.894 265.398 615.318 271.15 630.731C272.538 634.45 273.661 638.699 276.453 641.853C278.9 644.611 284.696 647.306 287.967 643.672C292.476 638.637 286.029 628.412 284.076 623.551C271.536 592.4 258.997 561.25 246.457 530.109C246.353 529.846 246.309 529.589 246.316 529.349C242.842 529.505 239.377 529.66 235.902 529.816C236.238 530.059 236.489 530.411 236.623 530.846Z" fill="#A45314"/>
<path d="M116.24 633.862C115.151 638.082 114.134 643.094 117.151 646.889C119.909 650.361 125.139 651.319 128.352 647.755C130.88 644.961 131.617 641.14 132.601 637.787C133.689 634.132 134.747 630.46 135.795 626.797C144.75 595.476 152.572 563.94 159.316 532.235C154.362 532.298 149.407 532.333 144.451 532.349C139.446 550.344 134.44 568.32 129.445 586.306C125.033 602.145 120.306 617.952 116.24 633.862Z" fill="#A45314"/>
<path d="M271.392 516.777C268.654 515.978 267.684 519.78 270.391 520.571C272.862 521.297 269.47 523.778 268.269 524.161C266.988 524.567 265.363 524.567 264.014 524.651C260.451 524.859 256.885 524.99 253.329 525.15C246.794 525.461 240.267 525.753 233.73 526.036C219.78 526.643 205.818 527.202 191.858 527.637C178.201 528.058 164.537 528.345 150.863 528.45C144.031 528.497 137.197 528.497 130.369 528.439C126.026 528.406 109.772 529.152 113.179 521.611C114.228 519.299 110.246 517.505 109.188 519.836C107.67 523.195 108.559 526.641 111.686 529.089C115.573 532.143 121.128 532.195 126.119 532.264C140.97 532.457 155.824 532.344 170.679 532.048C200.692 531.462 230.674 530.091 260.654 528.692C265.377 528.467 272.327 528.74 274.832 524.375C276.606 521.272 275.104 517.875 271.392 516.786L271.392 516.777Z" fill="#210B03"/>
<path d="M262.426 355.917C237.171 352.357 211.582 354.141 186.24 356.585C159.734 359.141 133.243 361.811 106.74 364.435C105.585 364.547 104.458 365.386 104.597 366.482C110.508 414.9 116.419 463.318 122.321 511.746C122.623 514.214 127.126 514.019 126.822 511.532C120.983 463.714 115.154 415.896 109.315 368.078C134.462 365.586 159.598 363.076 184.748 360.633C209.627 358.211 234.802 356.246 259.626 359.49C258.064 409.194 257.734 458.906 258.655 508.597C258.696 511.096 263.198 510.882 263.157 508.383C262.229 458.175 262.561 407.935 264.176 357.712C264.204 356.905 263.342 356.055 262.426 355.926L262.426 355.917Z" fill="#210B03"/>
<path d="M242.954 384.151C236.385 388.221 229.816 392.29 223.247 396.359C222.249 396.972 222.967 398.519 224.206 398.086C229.47 396.245 234.331 393.867 238.832 390.969C236.376 395.121 233.848 399.237 231.226 403.31C228.138 402.192 225.133 400.917 222.199 399.466C220.945 398.845 219.906 400.572 221.15 401.193C224.073 402.635 227.068 403.911 230.125 405.02C220.828 419.349 210.535 433.188 199.294 446.468C192.426 435.325 185.547 424.172 178.678 413.019C178.181 412.219 176.9 412.625 176.636 413.347C170.618 429.751 164.61 446.156 158.592 462.551L143.47 433.354C143.02 432.494 141.617 432.484 141.305 433.457C137.467 445.072 134.496 456.857 132.391 468.792C132.173 470.019 134.366 470.442 134.583 469.205C136.524 458.178 139.219 447.279 142.648 436.527C147.663 446.216 152.688 455.904 157.702 465.593C158.163 466.472 159.524 466.445 159.867 465.49C165.911 449.007 171.956 432.534 177.99 416.051C184.725 426.971 191.461 437.901 198.197 448.82C198.517 449.332 199.561 449.417 199.97 448.937C211.757 435.113 222.524 420.696 232.213 405.755C235.348 406.813 238.566 407.704 241.875 408.437C242.631 408.603 243.227 408.038 243.246 407.433L243.896 386.895C243.891 386.799 243.887 386.713 243.852 386.629C244.083 386.225 244.324 385.811 244.555 385.407C245.025 384.57 243.902 383.56 242.944 384.152L242.954 384.151ZM241.541 390.649C241.381 395.84 241.211 401.033 241.052 406.225C238.424 405.602 235.842 404.873 233.324 404.034C236.159 399.616 238.902 395.154 241.541 390.649Z" fill="#210B03"/>
<path d="M250.895 420.113C244.729 421.116 238.747 422.542 232.861 424.441C232.167 424.666 231.87 425.351 232.262 425.898C234.103 428.455 236.234 430.749 238.664 432.799C235.751 436.33 229.772 444.118 225.634 442.035C223.747 441.09 222.197 438.691 220.759 437.274C219.012 435.556 217.276 433.847 215.53 432.128C211.654 428.317 207.788 424.505 203.911 420.694C203.4 420.181 202.498 420.502 202.16 420.978C192.533 434.048 183.808 447.563 175.973 461.477C170.018 451.191 164.063 440.914 158.119 430.627C157.641 429.797 156.353 430.261 156.076 430.955C151.35 442.957 147.228 455.113 143.697 467.393C137.951 461.438 132.606 455.244 127.68 448.761C126.889 447.725 124.996 448.783 125.788 449.828C131.138 456.876 136.976 463.612 143.302 470.028C143.9 470.642 145.097 470.575 145.344 469.701C148.77 457.55 152.789 445.543 157.381 433.671C163.269 443.846 169.157 454.011 175.046 464.185C175.424 464.838 176.648 464.703 176.989 464.092C184.834 449.977 193.63 436.276 203.318 423.022C207.663 427.3 212.008 431.577 216.352 435.846C218.663 438.122 220.871 440.546 223.317 442.701C224.577 443.81 225.647 444.756 227.536 444.771C232.11 444.802 235.583 439.06 238.019 436.452L240.265 434.055C242.158 435.498 244.216 436.799 246.427 437.959C247.102 438.31 247.835 437.853 248.048 437.297C249.777 432.759 250.454 428.194 250.154 423.464C250.698 422.883 251.243 422.291 251.787 421.71C252.322 421.138 251.945 419.92 250.904 420.094L250.895 420.113ZM240.025 431.23C238.132 429.605 236.451 427.806 234.945 425.856C239.186 424.543 243.481 423.466 247.858 422.625C247.842 422.703 247.836 422.779 247.85 422.865C245.242 425.653 242.633 428.442 240.025 431.239L240.025 431.23ZM246.292 435.589C244.648 434.661 243.1 433.652 241.659 432.551C243.751 430.305 245.854 428.058 247.946 425.822C247.92 429.138 247.374 432.375 246.292 435.589Z" fill="#210B03"/>
<path d="M161.711 481.684C152.76 481.756 143.81 481.837 134.869 481.909C133.416 481.92 133.529 483.86 134.972 483.849C143.922 483.777 152.873 483.696 161.814 483.625C163.267 483.613 163.154 481.673 161.711 481.684Z" fill="#210B03"/>
<path d="M245.018 478.37C223.057 480.02 201.022 479.9 179.135 477.982C177.705 477.858 177.199 479.751 178.639 479.874C200.73 481.812 222.958 481.97 245.13 480.3C246.568 480.194 246.476 478.253 245.028 478.36L245.018 478.37Z" fill="#210B03"/>
<path d="M240.743 495.228C229.208 496.257 217.679 497.208 206.101 497.817C182.664 499.049 159.181 499.209 135.745 498.361C134.298 498.305 134.411 500.245 135.847 500.301C153.942 500.953 172.067 501.019 190.178 500.435C199.087 500.145 207.988 499.711 216.872 499.125C218.843 498.993 236.196 498.013 242.453 497.207C242.503 497.578 242.885 497.924 243.303 498C244.433 498.195 245.743 497.75 245.66 496.565C245.514 494.57 242.04 495.118 240.734 495.238L240.743 495.228Z" fill="#210B03"/>
<path d="M157.954 372.293C157.363 369.504 154.391 367.144 151.236 369.134C151.187 369.165 151.138 369.206 151.1 369.237C151.099 369.217 151.098 369.198 151.096 369.17C150.891 367.962 148.773 368.006 148.85 369.277L148.252 371.902C147.783 372.576 148.39 373.17 149.091 373.261C149.217 375.258 149.333 377.265 149.459 379.262C149.58 381.163 149.69 383.065 149.811 384.966C149.849 385.683 149.648 387.427 150.036 388.079C151.596 390.659 155.743 388.708 156.871 386.929C158.054 385.052 157.815 382.649 157.879 380.605C157.96 377.937 158.517 374.911 157.964 372.283L157.954 372.293ZM155.664 379.378C155.632 380.491 155.631 381.613 155.558 382.728C156.073 384.256 155.466 385.185 153.757 385.506C152.22 386.796 151.653 386.584 152.047 384.869C151.176 383.099 151.733 379.68 151.609 377.731C151.465 375.391 151.321 373.05 151.177 370.709C151.504 370.961 151.983 371.044 152.451 370.744C156.32 368.298 155.674 378.812 155.663 379.369L155.664 379.378Z" fill="#210B03"/>
<path d="M244.878 371.956C223.566 375.759 201.901 377.491 180.189 377.155C178.744 377.137 178.846 379.068 180.291 379.095C202.216 379.431 224.058 377.633 245.571 373.791C246.991 373.542 246.278 371.697 244.878 371.956Z" fill="#210B03"/>
<path d="M213.361 388.64C202.913 390.182 192.465 391.724 182.027 393.256C180.614 393.467 180.697 395.409 182.129 395.197C192.577 393.654 203.025 392.112 213.464 390.58C214.876 390.369 214.794 388.428 213.361 388.64Z" fill="#210B03"/>
<path d="M206.315 403.719C197.94 405.709 189.463 407.109 180.844 407.922C179.407 408.057 179.5 409.998 180.946 409.862C189.766 409.021 198.443 407.592 207.008 405.564C208.403 405.229 207.711 403.394 206.315 403.728L206.315 403.719Z" fill="#210B03"/>
<path d="M215.816 452.973C215.522 451.607 214.057 451.399 212.903 451.904C209.462 449.069 203.734 449.179 200.05 452.066C195.542 455.597 194.635 461.734 197.249 466.296C199.729 470.634 205.608 473.171 210.833 470.421C217.993 466.649 217.105 459.016 215.816 452.963L215.816 452.973ZM210.476 465.57C207.732 468.671 203.581 468.055 201.496 464.915C199.84 462.416 199.857 459.119 201.541 456.595C203.496 453.665 208.339 452.275 210.618 455.664C210.979 456.193 211.478 456.467 212.007 456.537C212.565 459.635 212.742 462.999 210.476 465.57Z" fill="#210B03"/>
<path d="M244.036 449.245C243.914 449.222 243.793 449.219 243.671 449.215C238.227 447.826 231.915 449.497 228.594 453.709C224.669 458.706 226.773 465.668 232.34 468.987C238.928 472.919 246.767 470.159 248.949 463.692C250.547 458.968 251.332 450.517 244.036 449.245ZM244.731 462.379C243.909 464.986 242.182 466.87 238.831 466.896C236.52 466.91 234.554 465.815 233.143 464.32C227.217 458.019 235.731 449.88 243.782 453.416C243.958 453.494 244.142 453.543 244.316 453.583C246.559 455.335 245.352 460.385 244.72 462.37L244.731 462.379Z" fill="#210B03"/>
<g clip-path="url(#clip0_772_14672)">
<path d="M553.599 454.736C555.679 450.687 557.277 446.489 558.379 442.129C556.734 441.825 554.648 441.319 553.327 441.995C551.846 442.756 551.811 444.773 551.413 446.252C550.681 448.984 549.936 451.721 549.198 454.453C550.009 454.563 550.813 454.673 551.623 454.789C552.262 454.878 552.908 454.967 553.546 455.055C553.525 454.96 553.54 454.855 553.599 454.736Z" fill="#DBE192"/>
<path d="M558.578 469.602C558.644 469.724 558.651 469.878 558.565 470.04C554.749 477.478 551.368 485.111 548.503 492.91C547.122 496.669 545.847 500.469 544.694 504.298C544.393 505.29 543.69 506.783 543.664 507.857C543.631 509.029 544.442 508.987 545.613 509.329C547.945 510.02 550.323 510.59 552.716 511.055C554.76 511.456 557.101 512.042 559.202 512.044C561.31 512.048 562.057 511.572 562.674 509.888C562.989 509.051 563.285 508.204 563.579 507.364C564.982 503.448 566.353 499.514 567.69 495.576C570.402 487.618 572.98 479.623 575.443 471.593C569.924 470.156 564.281 469.494 558.578 469.602Z" fill="#5D6716"/>
<path d="M543.014 453.59C544.352 449.545 545.574 445.472 546.648 441.361C547.137 439.495 547.598 437.626 548.032 435.753C548.376 434.268 548.244 433.273 546.443 432.83C545.651 432.636 544.652 432.621 543.839 432.524C543.33 432.459 541.741 432.003 541.242 432.219C540.287 432.628 540.069 434.363 539.762 435.188C539.129 436.889 538.502 438.591 537.868 440.292L533.445 452.207C533.445 452.207 533.434 452.238 533.425 452.25C534.818 452.455 536.214 452.64 537.609 452.832C539.408 453.082 541.215 453.333 543.014 453.59Z" fill="#FFD697"/>
<path d="M515.024 498.351C519.182 501.436 524.88 500.083 527.285 495.969C529.266 492.572 528.657 488.225 525.314 486.062C525.094 486.134 524.84 486.095 524.655 485.872C524.559 485.76 524.462 485.648 524.364 485.549C523.963 485.364 523.531 485.203 523.065 485.077C522.633 484.962 522.596 484.584 522.788 484.316C519.268 482.37 514.568 484.243 512.7 487.681C510.821 491.144 511.628 495.829 515.024 498.351Z" fill="#A4AE4D"/>
<path d="M573.32 445.456C573.599 444.128 575.004 440.744 573.256 439.929C572.599 439.625 571.147 439.838 570.366 439.812L567.066 439.669C566.069 443.192 565.065 446.707 564.062 450.223C563.536 452.051 563.151 453.976 562.486 455.753C562.409 455.949 562.349 456.121 562.279 456.272C564.772 456.624 567.266 456.969 569.759 457.315C571.267 453.452 572.48 449.497 573.32 445.456Z" fill="#A4AE4D"/>
<path d="M536.618 432.845C536.751 431.911 536.863 430.975 536.989 430.04C536.423 430.918 535.883 431.807 535.35 432.703C532.287 438.688 529.549 444.801 527.145 451.029C528.832 451.484 530.551 451.811 532.284 452.085C532.256 451.982 532.258 451.876 532.303 451.755L539.061 433.55L537.818 433.131C537.604 433.702 536.53 433.519 536.618 432.845Z" fill="#FFFEFC"/>
<path d="M581.648 504.955C580.576 508.608 579.476 512.257 578.351 515.897C577.733 517.879 577.168 519.888 576.477 521.841C576.105 522.884 575.663 523.825 574.628 524.457C572.344 525.841 569.363 524.781 566.957 524.214C563.059 523.297 559.099 522.624 555.117 522.102C547.086 521.042 538.992 520.572 530.924 519.866C523.085 519.183 515.229 518.265 507.617 516.327C503.899 515.38 500.256 514.196 496.765 512.685C496.012 512.363 495.129 512.018 494.249 511.606C494.875 517.856 506.651 517.899 511.604 518.539L532.485 521.209C545.266 522.857 558.056 524.492 570.845 526.134C572.662 526.367 575.295 527.162 576.251 525.21C576.764 524.165 577.022 522.988 577.373 521.896C578.226 519.192 579.065 516.487 579.885 513.772C581.625 508.024 583.286 502.245 584.872 496.451C587.968 485.097 590.759 473.678 593.25 462.195C594.436 456.701 595.567 451.201 596.602 445.681C597.013 443.48 597.383 441.266 597.57 439.056C594.863 453.245 591.712 467.357 588.125 481.374C586.108 489.268 583.949 497.131 581.648 504.955Z" fill="#FFD697"/>
<path d="M541.561 518.472C548.715 519.055 555.884 519.719 562.93 521.059C564.97 521.446 566.982 521.929 569.001 522.407C570.242 522.698 572.218 523.337 573.357 522.518C574.332 521.818 574.681 519.409 574.999 518.4C575.534 516.699 576.063 514.998 576.592 513.297C585.07 485.737 591.798 457.726 596.828 429.439C596.824 429.418 596.819 429.404 596.815 429.384C596.793 429.294 596.777 429.206 596.775 429.126C573.382 424.359 550.004 419.595 526.618 414.829C525.222 417.064 523.91 419.35 522.698 421.675C521.224 424.505 519.042 427.89 518.549 431.019C518.148 433.594 521.379 434.373 523.231 435.587C524.666 436.528 525.437 437.618 525.445 439.234C525.453 439.874 524.658 440.238 524.055 440.194C514.315 439.474 509.767 448.766 507.227 455.709C505.709 459.843 504.112 463.988 502.769 468.171C502.105 470.227 501.882 471.901 504.035 473.214C505.608 474.173 507.607 474.502 509.427 474.761C510.374 474.895 510.808 475.888 510.248 476.575C508.573 478.654 506.05 479.449 503.585 480.537C499.296 482.422 498.574 486.027 497.434 489.917C496.333 493.679 495.224 497.44 494.116 501.202C493.612 502.926 491.821 506.367 492.966 508.07C493.245 508.478 493.724 508.851 494.301 509.178C495.628 509.946 497.467 510.514 498.525 510.955C512.011 516.569 527.068 517.291 541.561 518.472ZM543.255 489.359L533.282 489.002C532.487 488.973 532.653 487.857 533.44 487.885L543.414 488.243C544.216 488.265 544.043 489.387 543.255 489.359ZM576.782 471.432C573.39 482.501 569.781 493.516 565.925 504.453C565.432 505.853 564.931 507.258 564.431 508.657C564.014 509.82 563.74 511.308 562.951 512.324C562.095 513.418 560.853 513.339 559.519 513.209C553.707 512.652 547.976 511.327 542.473 509.533C542.238 509.456 542.036 509.158 542.095 508.933C545.822 495.406 550.932 482.256 557.402 469.638C557.183 469.65 556.959 469.648 556.74 469.66C555.943 469.698 555.766 468.578 556.563 468.54C563.306 468.212 569.949 468.935 576.446 470.69C576.804 470.783 576.861 471.169 576.782 471.432ZM549.898 471.824C540.56 471.428 531.297 470.31 522.153 468.456C521.377 468.297 521.528 467.179 522.311 467.339C532.034 469.314 541.902 470.462 551.839 470.782C552.543 470.806 552.534 471.855 551.848 471.9C551.361 471.924 550.874 471.955 550.386 471.986C550.181 472 550.014 471.938 549.898 471.824ZM523.867 449.957C524.478 450.195 525.092 450.413 525.709 450.605C527.906 444.303 530.716 438.226 534.134 432.406C534.655 431.396 535.177 430.385 535.711 429.383C534.224 429.944 532.806 430.654 531.472 431.514C530.825 431.93 530.087 431.058 530.718 430.613C532.346 429.458 534.11 428.527 536.004 427.818C535.986 427.796 535.96 427.779 535.942 427.757C535.396 427.215 536.389 426.537 536.921 427.078C536.92 427.084 536.941 427.087 536.948 427.088C537.259 426.576 538.094 426.809 538.14 427.273C538.388 427.358 538.567 427.574 538.527 427.855C538.305 429.569 538.075 431.288 537.853 433.002C537.846 433.047 537.833 433.092 537.821 433.13L539.064 433.549L539.883 431.333C539.964 431.104 540.278 430.971 540.533 430.997C542.269 431.206 543.998 431.407 545.735 431.609C546.746 431.738 548.122 431.668 548.963 432.308C550.341 433.362 549.367 435.485 549.058 436.775C547.713 442.501 546.097 448.159 544.244 453.76L547.975 454.277C549.03 450.296 549.826 446.122 551.237 442.247C552.391 439.103 556.46 440.734 559.214 441.125C559.523 441.165 559.824 441.463 559.754 441.76C558.625 446.409 556.96 450.884 554.746 455.182C554.737 455.195 554.735 455.208 554.72 455.219C556.656 455.493 558.594 455.761 560.538 456.029C560.788 455.849 561.179 455.806 561.448 456.086C560.831 455.448 562.251 452.106 562.471 451.343C562.834 450.066 563.197 448.796 563.56 447.519L565.986 439.013C566.074 438.691 566.309 438.515 566.678 438.529C568.286 438.602 569.888 438.667 571.49 438.732C572.36 438.77 573.598 438.636 574.413 439.013C575.945 439.721 575.316 441.389 575.112 442.626C574.28 447.7 572.882 452.661 571.007 457.488C573.101 457.782 575.196 458.077 577.298 458.365C576.899 457.576 576.602 456.76 576.841 456.113C576.907 455.942 577.126 455.777 577.33 455.776C577.73 455.768 577.925 455.826 578.185 456.118C578.366 456.321 578.333 456.603 578.186 456.803C578.159 456.84 578.134 456.87 578.116 456.901C578.081 456.949 578.041 456.984 578.009 457.013C578.376 457.286 578.707 457.967 578.968 458.599C579.36 458.649 579.752 458.699 580.142 458.762C580.932 458.877 580.773 459.993 579.984 459.879C579.798 459.855 579.613 459.825 579.427 459.801C579.481 460.014 579.401 460.237 579.205 460.378C577.759 461.436 576.313 462.495 574.859 463.559C574.242 464.012 573.487 463.111 574.104 462.658C575.426 461.69 576.747 460.722 578.06 459.759C578.032 459.709 578.005 459.653 577.971 459.602C572.331 458.814 566.699 458.027 561.06 457.24C557.543 456.75 554.019 456.26 550.502 455.77L543.454 454.789C540.81 454.418 538.165 454.053 535.52 453.682C532.553 453.269 529.599 452.858 526.744 452.094C526.18 453.551 525.643 455.018 525.125 456.495C524.914 457.093 523.765 456.8 523.942 456.191C524.374 454.677 524.84 453.174 525.345 451.689C524.688 451.479 524.034 451.249 523.391 450.994C522.655 450.7 523.132 449.664 523.867 449.957ZM519.164 476.438C519.777 476.51 520.382 476.587 520.996 476.659C521.175 476.682 521.304 476.758 521.388 476.855C530.197 478.507 539.1 479.546 548.072 479.948C548.873 479.984 548.707 481.1 547.914 481.065C538.189 480.633 528.535 479.458 519.005 477.555C518.229 477.396 518.359 476.335 519.164 476.438ZM512.341 486.012C515.251 482.095 521.446 481.039 525.1 484.611C529.999 486.913 530.848 492.873 528.025 497.067C525.106 501.401 518.757 502.551 514.275 499.238C509.99 496.064 509.346 490.037 512.341 486.012Z" fill="#FFFEFC"/>
<path d="M598.448 427.171C574.934 422.376 551.425 417.588 527.911 412.792C528.01 412.639 528.102 412.484 528.206 412.338C529.018 411.112 527.06 409.705 526.241 410.936C522.397 416.748 518.34 423.171 516.326 429.763C515.712 431.772 516.077 433.64 517.829 435.068C518.821 435.873 521.466 436.736 522.529 437.93C512.053 438.252 507.252 448.337 504.391 456.309C503.383 459.119 502.381 461.93 501.372 464.747C500.615 466.871 499.327 469.286 499.856 471.581C500.537 474.534 503.666 475.878 506.707 476.566C504.971 477.694 502.763 478.243 500.931 479.259C498.148 480.804 496.886 483.23 496.022 486.012C494.888 489.657 493.869 493.33 492.79 496.988C492.235 498.872 491.682 500.75 491.134 502.635C490.66 504.243 489.714 506.177 490.143 507.887C490.793 510.464 494.429 511.693 496.746 512.694C500.237 514.205 503.881 515.382 507.599 516.33C515.219 518.268 523.067 519.185 530.913 519.876C538.98 520.582 547.074 521.051 555.106 522.112C559.087 522.634 563.048 523.307 566.945 524.224C569.352 524.791 572.325 525.849 574.617 524.46C575.652 523.835 576.094 522.887 576.459 521.85C577.15 519.89 577.721 517.889 578.332 515.906C579.465 512.267 580.564 508.618 581.636 504.965C583.93 497.139 586.09 489.277 588.114 481.384C592.594 463.878 596.39 446.217 599.512 428.458C599.624 427.82 599.08 427.312 598.439 427.183L598.448 427.171ZM576.579 513.301C576.057 515.003 575.522 516.703 574.986 518.403C574.668 519.413 574.319 521.822 573.344 522.522C572.205 523.341 570.229 522.702 568.989 522.411C566.969 521.933 564.964 521.451 562.925 521.063C555.879 519.724 548.709 519.06 541.555 518.477C527.054 517.301 512.006 516.574 498.519 510.96C496.998 510.326 493.868 509.427 492.961 508.075C491.815 506.372 493.607 502.931 494.109 501.213L497.427 489.928C498.568 486.038 499.289 482.433 503.579 480.541C506.045 479.454 508.566 478.666 510.248 476.587C510.808 475.901 510.368 474.907 509.427 474.773C507.607 474.514 505.609 474.185 504.036 473.226C501.876 471.906 502.099 470.239 502.762 468.183C504.112 464 505.709 459.856 507.22 455.72C509.761 448.778 514.309 439.485 524.055 440.206C524.659 440.25 525.446 439.885 525.445 439.247C525.437 437.63 524.667 436.541 523.224 435.598C521.372 434.384 518.141 433.605 518.542 431.03C519.028 427.9 521.217 424.517 522.691 421.686C523.904 419.355 525.215 417.076 526.612 414.834C550.032 419.604 573.458 424.381 596.878 429.151C591.841 457.538 585.092 485.645 576.586 513.302L576.579 513.301Z" fill="#210B03"/>
<path d="M599.267 429.096C598.868 427.709 596.406 427.979 596.809 429.387C598.365 434.806 597.611 440.268 596.598 445.677C595.563 451.197 594.431 456.704 593.245 462.197C590.761 473.682 587.963 485.1 584.867 496.453C583.288 502.249 581.628 508.021 579.887 513.776C579.068 516.49 578.228 519.196 577.368 521.898C577.024 522.991 576.766 524.168 576.253 525.213C575.29 527.165 572.663 526.377 570.841 526.137C558.051 524.501 545.268 522.86 532.479 521.218L511.598 518.548C506.405 517.878 493.701 517.856 494.228 510.636C494.335 509.193 491.873 508.872 491.765 510.321C491.42 515.071 495.707 518.086 500.362 519.193C507.009 520.781 514.199 521.148 520.99 522.017C535.397 523.859 549.802 525.714 564.209 527.556C567.332 527.956 570.475 528.517 573.621 528.76C575.971 528.934 577.598 528.078 578.536 526.11C579.732 523.604 580.308 520.732 581.122 518.103C582.12 514.873 583.091 511.632 584.042 508.389C587.727 495.802 591.033 483.119 593.957 470.36C595.616 463.112 597.16 455.836 598.573 448.543C599.819 442.133 601.122 435.57 599.265 429.109L599.267 429.096Z" fill="#210B03"/>
<path d="M536.923 427.11C535.96 428.862 535.029 430.631 534.126 432.404C529.71 439.931 526.297 447.886 523.935 456.188C523.765 456.798 524.914 457.091 525.125 456.493C527.974 448.36 531.398 440.426 535.351 432.707C536.115 431.421 536.9 430.139 537.723 428.881C537.866 428.66 537.83 428.422 537.707 428.247C537.831 428.017 537.947 427.792 538.078 427.563C538.436 426.917 537.287 426.471 536.936 427.118L536.923 427.11Z" fill="#210B03"/>
<path d="M580.139 458.765C570.632 457.436 561.132 456.115 551.626 454.787C546.955 454.136 542.284 453.486 537.613 452.835C532.956 452.186 528.234 451.696 523.871 449.961C523.135 449.667 522.659 450.703 523.388 450.996C527.26 452.535 531.383 453.102 535.517 453.684C540.51 454.383 545.505 455.074 550.498 455.773C560.328 457.143 570.151 458.512 579.98 459.882C580.771 459.989 580.929 458.873 580.139 458.765Z" fill="#210B03"/>
<path d="M579.394 459.716C579.163 459.221 578.652 457.494 577.998 457.018C578.037 456.989 578.071 456.947 578.105 456.905C578.13 456.875 578.149 456.844 578.175 456.807C578.323 456.6 578.355 456.325 578.175 456.116C577.915 455.823 577.727 455.766 577.32 455.774C577.122 455.782 576.897 455.939 576.838 456.111C576.45 457.165 577.481 458.687 578.057 459.758C576.736 460.726 575.416 461.688 574.101 462.657C573.484 463.11 574.238 464.011 574.856 463.558C576.302 462.499 577.749 461.434 579.202 460.377C579.414 460.217 579.501 459.949 579.395 459.71L579.394 459.716Z" fill="#210B03"/>
<path d="M538.528 427.859C538.591 427.415 538.106 427.127 537.667 427.257C537.587 427.28 537.506 427.31 537.426 427.333C537.255 427.251 537.085 427.163 536.916 427.075C536.383 426.535 535.397 427.213 535.937 427.754C535.961 427.777 535.98 427.793 536.005 427.816C534.111 428.525 532.339 429.462 530.719 430.611C530.088 431.056 530.826 431.928 531.474 431.512C533.231 430.38 535.12 429.511 537.143 428.879C536.97 430.2 536.796 431.521 536.623 432.842C536.528 433.561 537.759 433.719 537.854 432.999C538.083 431.287 538.305 429.573 538.535 427.854L538.528 427.859Z" fill="#210B03"/>
<path d="M551.833 470.78C541.897 470.46 532.029 469.311 522.306 467.337C521.523 467.177 521.371 468.294 522.147 468.453C531.291 470.314 540.554 471.432 549.892 471.822C550.01 471.93 550.175 471.997 550.38 471.984C550.868 471.953 551.355 471.929 551.836 471.897C552.521 471.859 552.53 470.803 551.826 470.779L551.833 470.78Z" fill="#210B03"/>
<path d="M548.07 479.947C539.097 479.544 530.195 478.506 521.386 476.854C521.302 476.75 521.173 476.674 520.993 476.657C520.381 476.579 519.774 476.508 519.161 476.436C518.363 476.334 518.226 477.401 519.003 477.553C528.532 479.457 538.187 480.631 547.91 481.07C548.704 481.105 548.869 479.989 548.069 479.953L548.07 479.947Z" fill="#210B03"/>
<path d="M543.414 488.242C540.089 488.123 536.764 488.01 533.439 487.891C532.652 487.863 532.48 488.978 533.281 489.007C536.605 489.127 539.931 489.239 543.255 489.359C544.043 489.386 544.215 488.271 543.414 488.242Z" fill="#210B03"/>
</g>
<path d="M342.821 416.76C342.821 416.76 272.373 312.029 239.635 353.119C229.912 365.326 222.958 374.206 216.958 378.446C212.188 381.816 210.753 388.039 213.681 392.952C218.22 400.569 229.733 401.875 242.234 400.588C262.783 398.47 298.96 405.183 307.274 411.151C315.587 417.119 329.109 425.354 335.534 424.797C341.958 424.239 342.821 416.76 342.821 416.76Z" fill="#A4AE4D"/>
<path d="M342.836 416.763L319.057 326.001C318.485 323.816 320.288 321.723 322.653 321.827C329.736 322.135 343.43 323.408 354.152 328.515C369.292 335.723 358.626 334.018 365.848 343.307C373.071 352.597 374.827 356.89 373.693 363.449C372.974 367.613 363.838 396.707 355.834 411.009C351.767 418.27 342.836 416.766 342.836 416.766L342.836 416.763Z" fill="#5D6716"/>
<path d="M379.996 410.669C332.531 410.055 287.474 424.866 265.406 458.775C243.341 492.681 244.174 542.359 269.12 574.562C294.518 607.351 317.933 625.576 385.941 623.765C407.279 623.197 438.813 615.266 454.884 603.211C464.38 596.09 482.822 577.074 487.21 566.97C499.831 537.906 495.549 491.034 480.076 463.121C464.396 434.838 432.744 418.536 379.993 410.669" fill="#F2973E"/>
<path d="M335.922 500.898C340.641 502.605 349.541 506.658 347.384 509.218C345.226 511.778 340.641 515.832 338.619 517.538" stroke="#A45314" stroke-width="6.74231" stroke-linecap="round" stroke-linejoin="round"/>
<path d="M408.297 511.161C411.801 511.078 415.079 508.074 414.828 504.644C414.573 501.203 411.716 498.356 407.962 498.445C404.458 498.528 401.18 501.532 401.431 504.962C401.685 508.403 404.542 511.25 408.297 511.161Z" fill="#A45314"/>
<path d="M363.5 531.154C365.88 537.932 373.28 541.68 380.531 541.802C384.406 541.867 388.213 540.711 391.142 538.282C393.777 536.099 395.504 532.773 396.105 529.534C396.482 527.508 395.534 525.421 393.301 524.837C391.36 524.329 388.732 525.458 388.352 527.498C387.969 529.55 387.295 531.178 385.936 532.458C384.672 533.65 382.614 534.199 380.532 534.167C379.29 534.149 378.489 534.015 377.245 533.678C376 533.34 375.625 533.185 374.577 532.607C373.529 532.03 373.279 531.803 372.348 530.912C372.036 530.559 371.979 530.502 372.173 530.743C372.009 530.525 371.854 530.298 371.709 530.067C371.566 529.835 371.432 529.597 371.31 529.354C371.438 529.642 371.42 529.566 371.251 529.128C370.564 527.174 368.481 525.892 366.306 526.458C364.296 526.982 362.805 529.186 363.494 531.151L363.5 531.154Z" fill="#A45314"/>
<path d="M341.629 614.969C340.727 634.437 338.39 674.897 336.258 680.992" stroke="#F2973E" stroke-width="5.35039" stroke-linecap="round"/>
<path d="M403.156 614.969C402.254 634.437 399.917 674.897 397.785 680.992" stroke="#F2973E" stroke-width="5.35039" stroke-linecap="round"/>
<path d="M253.329 515.928C230.144 515.928 185.914 518.467 194.475 528.624" stroke="#F2973E" stroke-width="5.35039" stroke-linecap="round"/>
<g clip-path="url(#clip1_772_14672)">
<path d="M260.304 615.75C259.462 616.188 255.002 611.918 250.153 606.855C243.58 599.973 236.261 591.639 236.261 591.639C236.261 591.639 250.951 581.087 264.47 583.772C264.47 583.772 263.696 594.811 262.644 603.928C261.935 610.065 261.11 615.33 260.304 615.75Z" fill="#A4AE4D"/>
<path d="M259.57 613.902C258.492 613.1 256.16 611.056 251.222 605.898C246.185 600.63 239.906 593.465 237.663 590.942C241.281 588.66 253.012 581.789 263.137 583.156C262.904 586.307 262.001 596.569 261.172 603.763C260.461 609.955 259.912 612.697 259.584 613.906L259.57 613.902Z" fill="#FFFEFC"/>
<path d="M223.162 459.941C223.162 459.941 220.817 453.056 220.117 451.408C219.406 449.743 217.217 447.906 211.869 448.199C206.521 448.492 196.868 450.57 195.232 452.731C193.595 454.891 194.043 458.175 194.708 460.512C195.374 462.85 196.673 467.054 196.673 467.054L223.162 459.941Z" fill="#FFB697"/>
<path d="M227.631 473.214C227.631 473.214 256.113 558.349 259.051 567.09C261.988 575.83 264.455 583.756 264.455 583.756C264.455 583.756 255.811 588.252 246.376 589.957C236.941 591.662 236.228 591.632 236.228 591.632C236.228 591.632 209.335 510.475 207.107 504.168C204.866 497.857 199.499 479.3 199.499 479.3L227.617 473.21L227.631 473.214Z" fill="#A4AE4D"/>
<path d="M227.795 474.085C227.795 474.085 228.744 473.061 228.631 471.702C228.519 470.343 228.127 469.368 226.836 468.968C226.836 468.968 227.55 467.893 227.067 466.11C226.567 464.336 224.612 464.227 224.612 464.227C224.612 464.227 226.356 462.628 225.505 461.231C224.653 459.835 223.111 459.533 223.111 459.533C223.111 459.533 215.585 461.544 210.327 462.882C205.057 464.218 197.037 465.63 196.003 466.07C194.969 466.511 194.629 467.856 194.722 468.609C194.904 470.169 195.357 470.085 196.798 470.526C196.798 470.526 195.617 472.352 196.085 473.656C196.539 474.956 198.248 475.29 198.248 475.29C198.248 475.29 197.255 477.084 197.641 478.365C198.028 479.647 199.111 480.003 199.807 480.182C200.503 480.361 201.372 480.504 201.372 480.504L227.795 474.085Z" fill="#56574E"/>
<path d="M226.681 468.397C219.305 470.351 211.881 472.222 204.38 473.722C202.356 474.125 200.31 474.551 198.245 474.705C197.46 474.767 197.443 475.923 198.224 475.874C202.386 475.56 206.54 474.502 210.58 473.581C215.111 472.544 219.621 471.431 224.116 470.272C225.073 470.034 226.02 469.78 226.981 469.529C227.734 469.332 227.448 468.204 226.681 468.397Z" fill="#210B03"/>
<path d="M224.472 463.672C217.045 465.458 209.594 467.223 202.125 468.858C200.307 469.263 198.489 469.668 196.64 469.98C195.862 470.114 196.166 471.233 196.94 471.112C200.824 470.455 204.665 469.506 208.5 468.626C212.965 467.612 217.415 466.553 221.861 465.506C222.831 465.272 223.798 465.051 224.755 464.813C225.517 464.632 225.217 463.501 224.455 463.681L224.472 463.672Z" fill="#210B03"/>
<path d="M259.91 614.312C259.884 614.397 259.858 614.475 259.834 614.544C259.774 614.507 259.708 614.464 259.637 614.415C259.081 614.035 258.333 613.42 257.429 612.606C255.941 611.265 254.104 609.451 252.144 607.433C255.22 606.718 258.675 605.904 261.325 605.28C261.363 605.271 261.4 605.262 261.437 605.253C261.132 607.764 260.81 610.051 260.482 611.824C260.286 612.878 260.094 613.721 259.91 614.312ZM259.638 614.997C259.631 615.006 259.628 615.011 259.628 615.01C259.628 615.01 259.631 615.005 259.638 614.997Z" fill="#210B03" stroke="#210B03" stroke-width="2.05474"/>
<path d="M205.178 482.669C206.215 485.809 207.252 488.948 208.289 492.087C210.837 499.798 213.384 507.508 215.928 515.231C219.101 524.834 222.264 534.42 225.437 544.023C228.376 552.904 231.314 561.785 234.266 570.67C236.106 576.227 237.946 581.783 239.822 587.322C239.928 587.645 240.045 587.985 240.151 588.308C240.39 589.017 241.578 588.746 241.344 588.023C239.653 583.081 238.025 578.128 236.37 573.168C233.494 564.514 230.632 555.864 227.769 547.214C224.581 537.565 221.393 527.916 218.205 518.266C215.545 510.204 212.881 502.154 210.221 494.091C208.955 490.259 207.925 486.283 206.412 482.536C206.383 482.486 206.371 482.427 206.36 482.368C206.122 481.659 204.933 481.93 205.168 482.653L205.178 482.669Z" fill="#210B03"/>
</g>
<g clip-path="url(#clip2_772_14672)">
<path d="M622.467 571.161L620.136 570.902L615.952 563.074C615.952 563.074 464.254 641.987 459.578 647.887C454.903 653.787 452.245 667.024 455.843 670.142C459.442 673.26 494.705 672.341 523.766 672.613C552.813 672.872 580.525 673.609 581.261 673.661C581.997 673.713 603.875 620.729 605.592 616.666C607.31 612.603 623.203 573.567 623.203 573.567L622.481 571.174L622.467 571.161Z" fill="#A4AE4D"/>
<path d="M616.325 566.238C616.325 566.238 607.11 587.341 604.057 594.108C601.003 600.862 579.29 653.303 579.29 653.303C579.29 653.303 569.489 653.445 563.219 653.367C556.949 653.29 466.889 652.06 463.959 652.306C461.028 652.552 460.415 652.94 458.52 655.192C456.625 657.443 455.93 663.783 457.402 666.086C458.861 668.389 462.637 668.881 467.748 668.894C472.86 668.894 521.863 668.842 537.266 669.101C557.835 669.437 580.162 669.877 580.162 669.877C580.162 669.877 581.375 666.759 581.907 665.258C582.438 663.757 606.619 606.762 609.564 599.581C612.508 592.4 619.814 573.678 619.814 573.678L616.338 566.264L616.325 566.238Z" fill="#FFFEFC"/>
<path d="M616.704 560.287C616.296 559.847 599.243 559.291 599.243 559.291L471.195 630.234C471.195 630.234 456.337 651.647 457.441 651.505C458.546 651.363 500.038 652.398 510.097 652.695C520.157 652.993 580.024 653.329 580.024 653.329C580.024 653.329 599.107 607.824 602.242 599.686C605.391 591.547 617.822 563.276 617.822 563.276C617.822 563.276 617.1 560.74 616.691 560.3L616.704 560.287Z" fill="#A4AE4D"/>
<path d="M600.224 560.664L599.243 554.285L599.665 553.418L599.692 550.351C599.692 550.351 584.426 548.372 566.283 547.634C548.168 546.884 520.674 546.56 520.006 546.716C519.339 546.871 501.714 570.613 494.939 579.787C488.165 588.96 466.001 614.333 464.733 616.882C463.452 619.431 462.92 623.882 463.411 626.327C463.902 628.773 465.006 629.342 468.468 630.08C471.917 630.817 525.868 630.519 537.904 630.765C549.94 631.011 570.591 632.124 570.591 632.124C570.591 632.124 591.868 586.166 595.821 576.656C599.774 567.159 602.023 563.096 602.023 563.096C601.778 562.126 601.205 561.013 600.21 560.677L600.224 560.664Z" fill="#5D6716"/>
<path d="M572.622 559.017C572.622 559.017 564.648 574.66 563.244 577.61C561.826 580.56 559.959 584.053 559.959 584.053C559.959 584.053 532.874 582.643 524.559 582.63C516.245 582.617 508.598 582.423 508.598 582.423C508.598 582.423 516.654 570.507 520.375 564.257C524.096 558.008 525.418 557.49 525.418 557.49C525.418 557.49 566.065 558.862 572.635 559.017H572.622Z" fill="#FFFEFC"/>
<path d="M598.494 555.775C598.494 555.775 596.844 560.692 596.585 561.21C594.936 564.548 590.71 572.195 587.521 579.79C583.84 588.562 567.715 625.541 567.715 625.541C567.715 625.541 541.926 624.117 532.275 624.182C522.624 624.247 505.545 623.393 490.033 623.044C487.279 622.979 467.119 621.116 465.334 623.833C463.766 626.214 466.288 628.478 468.278 628.426C470.186 628.387 512.101 628.659 521.057 628.931C530.026 629.202 569.569 630.6 569.855 629.681C570.141 628.762 582.791 601.41 587.003 591.37C591.215 581.316 599.789 562.167 599.789 562.167L598.48 555.775H598.494Z" fill="#FFFEFC"/>
<path d="M615.272 560.648C610.201 572.759 605.117 584.869 600.019 596.967C594.375 610.385 588.732 623.789 583.116 637.219C581.235 641.722 579.354 646.212 577.473 650.714C577.664 650.572 577.855 650.443 578.046 650.3C565.901 650.029 553.742 649.783 541.597 649.563C522.923 649.226 504.235 649.175 485.547 648.748C479.972 648.618 474.397 648.463 468.822 648.372C467.309 648.347 465.809 648.308 464.296 648.347C462.81 648.385 461.038 648.476 459.648 649.006C458.953 649.278 459.253 650.365 459.962 650.093C462.333 649.175 465.428 649.446 467.949 649.472C472.611 649.537 477.273 649.666 481.921 649.783C492.335 650.029 502.762 650.145 513.176 650.249C530.16 650.417 547.145 650.779 564.129 651.128C568.763 651.219 573.398 651.322 578.046 651.426C578.332 651.426 578.523 651.245 578.618 651.012C583.294 639.846 587.969 628.693 592.644 617.54C598.369 603.902 604.122 590.278 609.847 576.653C612.041 571.426 614.236 566.186 616.43 560.959C616.716 560.286 615.571 560.001 615.285 560.661L615.272 560.648Z" fill="#210B03"/>
<path d="M601.444 562.93C597.396 572.491 592.98 581.911 588.659 591.369C583.588 602.47 578.49 613.559 573.378 624.634C572.274 627.028 571.17 629.434 570.052 631.828C570.216 631.737 570.393 631.647 570.557 631.556C567.831 631.492 565.118 631.44 562.392 631.375C555.604 631.233 548.816 631.078 542.027 630.935C533.372 630.754 524.716 630.573 516.074 630.405C507.664 630.237 499.254 630.081 490.83 629.939C484.764 629.835 478.698 629.732 472.633 629.693C472.156 629.693 471.678 629.693 471.201 629.693C470.438 629.693 470.438 630.806 471.201 630.819C476.79 630.845 482.379 630.935 487.954 631.026C496.228 631.155 504.502 631.31 512.762 631.479C521.499 631.647 530.237 631.828 538.974 632.009C546.089 632.151 553.205 632.307 560.32 632.462C562.61 632.514 564.9 632.565 567.19 632.617C568.226 632.643 569.384 632.798 570.42 632.682C570.461 632.682 570.516 632.682 570.557 632.682C570.748 632.682 570.993 632.578 571.061 632.41C574.169 625.695 577.263 618.98 580.344 612.252C585.823 600.322 591.303 588.393 596.701 576.438C598.677 572.051 600.681 567.678 602.548 563.24C602.835 562.567 601.69 562.283 601.403 562.942L601.444 562.93Z" fill="#210B03"/>
<path d="M537.696 561.795C529.599 561.419 524.787 561.238 524.787 561.238L524.133 562.545C524.133 562.545 554.093 563.477 556.07 563.477C558.046 563.477 564.603 563.658 564.603 563.658L564.821 562.907C564.821 562.907 545.792 562.157 537.696 561.795Z" fill="#210B03"/>
<path d="M561.749 568.688L521.292 567.381L521.074 568.869L561.749 570.176V568.688Z" fill="#210B03"/>
<path d="M519.75 574.277L518.441 575.765L558.462 577.072V575.946L519.75 574.277Z" fill="#210B03"/>
</g>
<path d="M491.43 508.314C503.022 518.472 528.882 541.326 526.207 546.405" stroke="#F2973E" stroke-width="5.35039" stroke-linecap="round"/>
<g clip-path="url(#clip3_772_14672)">
<path d="M237.037 311.934C236.099 312.428 235.143 312.881 234.16 313.289C235.686 315.742 237.217 318.192 238.735 320.645C238.172 317.739 237.604 314.837 237.037 311.934Z" fill="#9B8B65"/>
<path d="M233.643 312.459C234.037 312.294 234.427 312.124 234.818 311.948C236.003 311.408 237.153 310.809 238.272 310.147C239.305 309.531 240.671 308.816 241.151 307.703C241.278 307.401 241.365 307.003 241.27 306.698C241.075 306.088 240.661 306.263 240.223 306.528C240.066 306.621 239.912 306.712 239.754 306.805C239.411 307.009 239.065 307.21 238.719 307.403C237.613 308.026 236.487 308.612 235.339 309.16C233.311 310.126 231.218 310.961 229.085 311.672C228.813 311.767 228.537 311.858 228.258 311.946C228.271 311.983 228.284 312.027 228.289 312.078C228.355 312.689 228.525 313.639 229.217 313.818C229.83 313.974 230.63 313.572 231.244 313.363C231.749 313.192 232.247 313.013 232.742 312.817C232.784 312.395 233.371 312.051 233.643 312.459Z" fill="#A4AE4D"/>
<path d="M232.708 298.909C233.377 298.529 234.035 298.138 234.686 297.731C235.042 297.51 236.037 297.084 236.135 296.683C236.252 296.211 235.591 295.393 235.366 294.973C235.276 294.795 235.174 294.435 235.017 294.301C234.579 293.932 233.895 294.166 233.417 294.335C232.278 294.739 231.227 295.397 230.177 295.98C227.913 297.23 225.648 298.481 223.379 299.735C223.491 300.349 223.661 300.94 223.931 301.507C224.065 301.785 224.212 302.176 224.444 302.398C224.763 302.71 224.966 302.626 225.367 302.468C226.637 301.98 227.877 301.399 229.096 300.811C230.322 300.215 231.527 299.583 232.708 298.909Z" fill="#A4AE4D"/>
<path d="M234.572 306.653C234.401 306.641 234.441 306.394 234.608 306.409C235.755 306.494 236.906 306.583 238.053 306.668C238.151 306.618 238.246 306.565 238.34 306.512C238.45 306.452 238.568 306.378 238.691 306.293C238.587 306.1 238.646 305.926 238.768 305.801C238.644 305.762 238.551 305.649 238.5 305.459C238.426 305.35 238.355 305.245 238.281 305.137C238.062 304.814 237.847 304.496 237.632 304.171C237.458 303.92 237.289 303.665 237.12 303.411C236.186 303.329 235.252 303.24 234.319 303.158C234.152 303.143 234.188 302.898 234.359 302.91C235.22 302.992 236.082 303.067 236.94 303.145C236.809 302.954 236.674 302.759 236.548 302.565C236.304 302.202 236.061 301.838 235.817 301.475C235.828 301.548 235.767 301.636 235.668 301.631C234.564 301.584 233.457 301.534 232.353 301.487C232.186 301.479 232.222 301.235 232.393 301.239C233.497 301.286 234.6 301.34 235.707 301.39C235.738 301.392 235.757 301.396 235.771 301.412C235.263 300.655 234.751 299.895 234.243 299.139C233.809 299.4 233.364 299.658 232.919 299.907C232.864 299.941 232.809 299.967 232.751 299.997C233.42 300.098 234.09 300.2 234.763 300.305C234.93 300.328 234.89 300.576 234.727 300.55C233.948 300.432 233.168 300.314 232.393 300.193C230.906 301.026 229.377 301.784 227.821 302.482C227.716 302.532 227.591 302.591 227.465 302.657C228.007 305.319 228.6 307.966 229.255 310.594C232.154 309.591 234.964 308.356 237.652 306.887C236.623 306.812 235.597 306.732 234.572 306.653ZM235.157 304.933C236.141 305.075 237.125 305.218 238.109 305.353C238.272 305.379 238.236 305.623 238.069 305.6C237.089 305.462 236.105 305.32 235.117 305.181C234.954 305.155 234.99 304.911 235.157 304.933Z" fill="#DBE192"/>
<path d="M261.219 306.908C260.591 307.645 259.96 308.385 259.333 309.115C259.199 309.271 258.943 309.07 259.077 308.914C259.618 308.285 260.16 307.649 260.702 307.013C260.621 307.027 260.544 307.045 260.463 307.059C259.819 307.183 259.18 307.297 258.53 307.399C258.725 308.52 258.919 309.641 259.111 310.758C259.116 310.733 259.128 310.716 259.152 310.695C260.149 309.759 261.149 308.827 262.149 307.894C262.298 307.753 262.554 307.954 262.401 308.099C261.401 309.031 260.401 309.963 259.404 310.899C259.312 310.985 259.173 310.939 259.124 310.857C259.221 311.401 259.313 311.941 259.406 312.482C259.455 312.77 259.505 313.051 259.554 313.34C260.297 312.579 261.041 311.812 261.784 311.052C261.925 310.903 262.181 311.104 262.036 311.256C261.232 312.082 260.428 312.908 259.621 313.73C259.688 314.106 259.755 314.49 259.818 314.87C259.899 315.344 259.984 315.823 260.065 316.297C260.095 316.458 260.12 316.615 260.15 316.776C260.267 316.999 260.285 317.177 260.197 317.314C260.425 317.332 260.632 317.451 260.709 317.715C260.897 317.692 261.074 317.672 261.232 317.639C261.367 317.613 261.509 317.588 261.641 317.558C262.645 316.554 263.653 315.553 264.657 314.548C264.806 314.4 265.062 314.601 264.913 314.749C264.014 315.65 263.111 316.547 262.211 317.448C266.056 316.669 269.812 315.575 273.441 314.195C271.712 311.193 269.909 308.219 268.055 305.275C267.873 305.321 267.707 305.36 267.563 305.4C265.476 305.989 263.362 306.491 261.219 306.908ZM263.084 313.802C262.283 314.722 261.477 315.646 260.676 316.566C260.542 316.722 260.286 316.522 260.42 316.365C261.225 315.441 262.027 314.521 262.828 313.601C262.97 313.445 263.218 313.645 263.084 313.802Z" fill="#FFD697"/>
<path d="M264.863 304.853C266.012 304.565 267.165 304.259 268.301 303.92C268.824 303.768 269.344 303.598 269.861 303.424C270.378 303.25 270.642 303.162 270.668 302.616C270.685 302.223 270.479 301.738 270.354 301.363C270.105 300.612 269.738 299.921 269.298 299.251C266.044 299.889 262.79 300.526 259.54 301.168C258.033 301.46 256.453 301.683 255.024 302.218C254.421 302.446 253.564 302.773 253.48 303.472C253.448 303.72 253.681 304.14 253.747 304.386C253.919 304.956 254.016 306.264 254.55 306.612C255.003 306.913 256.321 306.514 256.852 306.438C257.101 306.404 257.355 306.365 257.605 306.323C258.328 306.214 259.045 306.089 259.769 305.958C261.479 305.643 263.181 305.274 264.863 304.853Z" fill="#F2973E"/>
<path d="M261.658 318.792C261.146 318.887 260.63 318.977 260.11 319.064C259.894 319.104 259.679 319.137 259.46 319.174C258.817 319.276 258.266 319.445 258.624 320.172C258.806 320.539 259.243 320.847 259.63 321.025C261.078 321.693 263.004 321.269 264.528 321.018C266.168 320.743 267.789 320.388 269.384 319.944C269.907 319.8 270.43 319.648 270.943 319.485C270.834 318.882 271.704 318.729 272.115 319.1C272.76 318.886 273.39 318.656 274.018 318.408C274.782 318.112 275.898 317.851 276.329 317.213C276.823 316.488 276.139 315.455 275.654 314.823C275.614 314.782 275.591 314.726 275.574 314.678C275.239 314.814 274.903 314.95 274.568 315.078C271.915 316.118 269.189 317.013 266.411 317.732C264.84 318.14 263.257 318.49 261.658 318.792Z" fill="#F2973E"/>
<path d="M273.444 331.303C272.701 327.766 271.95 324.228 271.2 320.697C269.908 321.094 268.608 321.436 267.284 321.723C269.339 324.915 271.389 328.111 273.444 331.303Z" fill="#9B8B65"/>
<path d="M232.705 293.571C231.063 294.233 229.529 295.23 227.988 296.081C226.195 297.073 224.402 298.064 222.605 299.059C222.4 299.172 222.314 299.356 222.308 299.533C222.285 299.601 222.278 299.669 222.292 299.753C222.475 300.892 222.942 302.971 224.135 303.54C225.139 304.023 226.898 302.896 227.805 302.484C229.544 301.704 231.243 300.842 232.903 299.909C233.654 299.486 234.399 299.048 235.129 298.595C235.737 298.219 236.624 297.832 237.033 297.247C237.363 296.778 237.237 296.363 237.041 295.904C236.722 295.165 236.328 294.276 235.84 293.633C235.125 292.697 233.719 293.157 232.701 293.567L232.705 293.571ZM235.356 294.978C235.573 295.398 236.242 296.216 236.125 296.689C236.027 297.089 235.027 297.518 234.672 297.74C234.021 298.146 233.362 298.538 232.693 298.918C231.513 299.591 230.307 300.224 229.085 300.816C227.863 301.408 226.623 301.988 225.356 302.481C224.955 302.638 224.748 302.719 224.43 302.406C224.201 302.182 224.051 301.794 223.917 301.516C223.647 300.949 223.476 300.358 223.365 299.744C225.63 298.493 227.898 297.239 230.163 295.988C231.213 295.406 232.263 294.748 233.402 294.351C233.881 294.182 234.569 293.944 235.006 294.313C235.163 294.448 235.262 294.804 235.355 294.986L235.356 294.978Z" fill="#210B03"/>
<path d="M226.341 302.554C226.93 305.465 227.586 308.361 228.303 311.245C228.454 311.846 229.5 311.68 229.35 311.072C228.636 308.191 227.981 305.295 227.388 302.381C227.264 301.77 226.214 301.94 226.341 302.554Z" fill="#210B03"/>
<path d="M234.149 299.025C234.943 300.205 235.737 301.384 236.532 302.563C236.895 303.099 237.252 303.634 237.615 304.169L238.265 305.135C238.339 305.244 238.41 305.349 238.484 305.457C238.535 305.648 238.628 305.761 238.755 305.796C238.627 305.92 238.575 306.095 238.679 306.289C238.877 306.657 239.36 306.814 239.737 306.471C240.315 305.949 239.614 305.234 239.335 304.811L235 298.379C234.651 297.859 233.803 298.502 234.157 299.019L234.149 299.025Z" fill="#210B03"/>
<path d="M237.007 311.761C237.587 314.722 238.162 317.686 238.742 320.647C237.047 317.925 235.353 315.196 233.658 312.474C233.328 311.944 232.481 312.586 232.815 313.113C235.007 316.642 237.204 320.167 239.393 323.691C239.649 324.106 240.428 323.742 240.342 323.285C239.581 319.385 238.823 315.488 238.062 311.588C237.942 310.974 236.892 311.144 237.015 311.762L237.007 311.761Z" fill="#210B03"/>
<path d="M238.678 306.716C237.318 306.613 235.955 306.507 234.595 306.404C234.424 306.392 234.388 306.637 234.559 306.649C235.919 306.751 237.282 306.858 238.642 306.96C238.813 306.972 238.849 306.728 238.678 306.716Z" fill="#210B03"/>
<path d="M238.088 305.353C237.104 305.21 236.12 305.076 235.136 304.933C234.969 304.911 234.933 305.155 235.1 305.178C236.084 305.32 237.068 305.455 238.052 305.597C238.219 305.62 238.255 305.375 238.088 305.353Z" fill="#210B03"/>
<path d="M237.169 303.162C236.227 303.08 235.29 302.995 234.348 302.913C234.181 302.897 234.141 303.145 234.312 303.157C235.254 303.239 236.191 303.325 237.133 303.407C237.3 303.422 237.34 303.174 237.169 303.162Z" fill="#210B03"/>
<path d="M235.694 301.382C234.586 301.332 233.483 301.285 232.376 301.235C232.208 301.227 232.168 301.475 232.34 301.479C233.447 301.53 234.55 301.576 235.658 301.627C235.825 301.635 235.865 301.387 235.694 301.382Z" fill="#210B03"/>
<path d="M234.745 300.302C233.864 300.169 232.99 300.036 232.108 299.902C231.942 299.879 231.906 300.124 232.072 300.146C232.954 300.28 233.828 300.413 234.709 300.547C234.876 300.569 234.912 300.325 234.745 300.302Z" fill="#210B03"/>
<path d="M252.09 303.511C252.199 304.512 252.625 305.662 252.978 306.614C253.198 307.204 253.457 307.698 254.176 307.874C255.083 308.096 256.265 307.752 257.173 307.615C258.268 307.455 259.358 307.266 260.445 307.065C262.841 306.617 265.213 306.06 267.549 305.403C268.773 305.057 271.427 304.712 271.946 303.449C272.565 301.947 271.15 299.619 270.309 298.398C270.249 298.312 270.176 298.25 270.098 298.206C269.939 298.039 269.693 297.94 269.392 297.998C266.817 298.502 264.238 299.01 261.662 299.514C259.45 299.949 257.111 300.237 254.979 300.933C253.655 301.364 251.92 302.058 252.078 303.514L252.09 303.511ZM253.473 303.47C253.556 302.772 254.413 302.444 255.017 302.216C256.445 301.682 258.025 301.458 259.532 301.166C262.786 300.529 266.036 299.887 269.29 299.25C269.73 299.919 270.097 300.61 270.347 301.361C270.472 301.729 270.678 302.221 270.66 302.615C270.638 303.164 270.37 303.249 269.853 303.423C268.225 303.977 266.534 304.426 264.856 304.851C263.174 305.272 261.472 305.642 259.757 305.96C258.786 306.137 257.82 306.296 256.844 306.437C256.313 306.512 254.991 306.915 254.538 306.614C254.008 306.262 253.907 304.957 253.74 304.384C253.669 304.142 253.44 303.718 253.473 303.47Z" fill="#210B03"/>
<path d="M268.992 304.296C271.03 307.516 272.993 310.773 274.882 314.065C275.276 314.754 274.14 315.438 273.743 314.745C271.854 311.452 269.887 308.199 267.853 304.975C267.425 304.295 268.564 303.616 268.992 304.296Z" fill="#210B03"/>
<path d="M258.483 307.234C258.785 308.987 259.087 310.732 259.389 312.485C259.529 313.281 259.661 314.077 259.801 314.873C259.886 315.351 259.967 315.826 260.047 316.308C260.077 316.468 260.103 316.625 260.132 316.786C260.254 317.006 260.267 317.187 260.183 317.328C260.411 317.346 260.618 317.465 260.695 317.73C260.839 318.233 260.524 318.771 259.862 318.753C258.852 318.722 258.873 317.492 258.766 316.868L257.125 307.324C256.991 306.55 258.36 306.479 258.494 307.246L258.483 307.234Z" fill="#210B03"/>
<path d="M267.148 321.532C269.241 324.788 271.338 328.047 273.431 331.303C272.599 327.374 271.771 323.441 270.939 319.512C270.778 318.748 272.147 318.677 272.308 319.434C273.383 324.519 274.458 329.604 275.528 334.693C275.652 335.289 274.592 335.57 274.276 335.07C271.522 330.782 268.76 326.495 266.006 322.207C265.573 321.531 266.712 320.852 267.145 321.528L267.148 321.532Z" fill="#210B03"/>
<path d="M261.072 318.12C262.262 316.929 263.455 315.742 264.645 314.551C264.794 314.402 265.047 314.607 264.901 314.752C263.712 315.943 262.518 317.13 261.329 318.321C261.179 318.469 260.927 318.265 261.072 318.12Z" fill="#210B03"/>
<path d="M260.408 316.367C261.209 315.447 262.014 314.523 262.815 313.603C262.95 313.446 263.206 313.647 263.072 313.804C262.27 314.724 261.465 315.648 260.664 316.568C260.529 316.724 260.273 316.524 260.408 316.367Z" fill="#210B03"/>
<path d="M259.329 313.558C260.141 312.725 260.953 311.893 261.761 311.056C261.902 310.907 262.159 311.108 262.017 311.257C261.205 312.09 260.393 312.922 259.585 313.759C259.444 313.908 259.188 313.707 259.329 313.558Z" fill="#210B03"/>
<path d="M259.137 310.697C260.137 309.765 261.133 308.828 262.134 307.896C262.286 307.752 262.543 307.952 262.39 308.097C261.39 309.029 260.393 309.965 259.393 310.898C259.24 311.042 258.984 310.841 259.137 310.697Z" fill="#210B03"/>
<path d="M259.061 308.919C259.774 308.088 260.479 307.257 261.191 306.427C261.326 306.27 261.582 306.471 261.447 306.627C260.735 307.458 260.03 308.289 259.318 309.119C259.183 309.276 258.927 309.075 259.061 308.919Z" fill="#210B03"/>
</g>
<defs>
<clipPath id="clip0_772_14672">
<rect width="99.5258" height="111.639" fill="white" transform="matrix(0.991924 0.126837 -0.140509 0.990079 504.109 407.52)"/>
</clipPath>
<clipPath id="clip1_772_14672">
<rect width="110.69" height="149.52" fill="white" transform="matrix(0.963672 0.26709 -0.294011 0.955802 197.805 443.426)"/>
</clipPath>
<clipPath id="clip2_772_14672">
<rect width="169.023" height="126.967" fill="white" transform="translate(454.141 546.672)"/>
</clipPath>
<clipPath id="clip3_772_14672">
<rect width="41.7436" height="61.8234" fill="white" transform="matrix(0.759562 -0.650435 0.688903 0.724853 217.555 303.373)"/>
</clipPath>
</defs>
</svg>
