<svg width="32" height="32" viewBox="0 0 32 32" fill="none" xmlns="http://www.w3.org/2000/svg">
<rect width="32" height="32" rx="5" fill="#FDF1D6"/>
<path d="M15.2465 11.3038C15.2465 11.3038 9.87805 2.41382 7.19592 5.78213C6.39926 6.7827 5.82927 7.51089 5.34455 7.85323C4.9592 8.12538 4.8324 8.64248 5.05436 9.05872C5.39844 9.70411 6.3088 9.8361 7.30295 9.7533C8.93705 9.6171 11.7922 10.2496 12.4391 10.7648C13.0859 11.2799 14.1411 11.9947 14.6518 11.9608C15.1625 11.927 15.2465 11.3038 15.2465 11.3038Z" fill="#A4AE4D"/>
<path d="M15.2462 11.3038L13.5498 3.67339C13.509 3.48973 13.6563 3.31844 13.8437 3.33179C14.4048 3.37158 15.4882 3.50506 16.3278 3.95295C17.5136 4.58523 16.6712 4.4216 17.2246 5.21207C17.778 6.00255 17.9083 6.36467 17.8047 6.91044C17.739 7.25698 16.9537 9.66969 16.289 10.8487C15.9514 11.4474 15.2462 11.304 15.2462 11.304V11.3038Z" fill="#5D6716"/>
<path d="M18.2059 10.8682C14.4429 10.7229 10.8385 11.871 9.01755 14.6604C7.19683 17.4496 7.15926 21.6019 9.07045 24.3419C11.0162 27.1318 12.8352 28.7009 18.2326 28.6843C19.926 28.6791 22.4436 28.079 23.7432 27.1036C24.5112 26.5275 26.0136 24.9752 26.3826 24.1397C27.4442 21.7364 27.2025 17.8117 26.0336 15.4489C24.8491 13.0547 22.3729 11.63 18.2057 10.8682" fill="#F2973E"/>
<path d="M14.9851 19.3981C15.2632 19.3981 15.5295 19.1535 15.5167 18.8665C15.5037 18.5785 15.2831 18.3349 14.9851 18.3349C14.7071 18.3349 14.4408 18.5794 14.4536 18.8665C14.4663 19.1535 14.6872 19.3981 14.9851 19.3981Z" fill="#A45314"/>
<path d="M20.2586 19.1837C20.5367 19.1837 20.8029 18.9392 20.7902 18.6522C20.7772 18.3642 20.5565 18.1206 20.2586 18.1206C19.9805 18.1206 19.7142 18.3651 19.727 18.6522C19.74 18.9402 19.9607 19.1837 20.2586 19.1837Z" fill="#A45314"/>
<path d="M16.6586 20.7984C16.8479 21.3647 17.4352 21.6775 18.0105 21.6872C18.3178 21.6924 18.6198 21.5955 18.852 21.3923C19.0609 21.2097 19.1977 20.9316 19.2452 20.6609C19.2749 20.4915 19.1996 20.3171 19.0224 20.2684C18.8683 20.2261 18.66 20.3206 18.6299 20.4912C18.5997 20.6627 18.5463 20.7988 18.4386 20.9059C18.3384 21.0056 18.1752 21.0516 18.01 21.049C17.9115 21.0476 17.8479 21.0365 17.7492 21.0084C17.6504 20.9803 17.6207 20.9673 17.5375 20.9191C17.4543 20.8709 17.4345 20.852 17.3605 20.7776C17.3357 20.748 17.3312 20.7433 17.3466 20.7634C17.3336 20.7452 17.3213 20.7263 17.3097 20.7069C17.2984 20.6876 17.2878 20.6677 17.2781 20.6474C17.2882 20.6715 17.2868 20.6651 17.2734 20.6285C17.2188 20.4652 17.0534 20.3582 16.8809 20.4057C16.7215 20.4496 16.6033 20.6339 16.6581 20.7981L16.6586 20.7984Z" fill="#A45314"/>
</svg>
