<svg width="202" height="230" viewBox="0 0 202 230" fill="none" xmlns="http://www.w3.org/2000/svg">
<path d="M86.5567 45.7862C86.5567 45.7862 55.5969 -2.70282 41.2096 16.3215C36.9363 21.9728 33.8805 26.0842 31.2435 28.0471C29.1472 29.6075 28.5165 32.4887 29.8033 34.7631C31.798 38.2896 36.8577 38.8946 42.3517 38.2985C51.3823 37.3181 67.2813 40.426 70.9348 43.1892C74.5884 45.9523 80.5308 49.765 83.3542 49.5068C86.1775 49.2487 86.5567 45.7862 86.5567 45.7862Z" fill="#A4AE4D"/>
<path d="M86.5587 45.7864L76.1086 3.76496C75.8574 2.75356 76.6495 1.78457 77.6889 1.83256C80.8017 1.97532 86.8198 2.5646 91.5317 4.92877C98.1855 8.26622 93.4979 7.4766 96.6721 11.7776C99.8463 16.0786 100.618 18.0659 100.12 21.1026C99.8036 23.0308 95.7886 36.5008 92.2709 43.1221C90.4839 46.4841 86.5587 45.7878 86.5587 45.7878L86.5587 45.7864Z" fill="#5D6716"/>
<path d="M102.892 42.9637C82.0322 42.6795 62.2306 49.5364 52.5323 65.2357C42.8353 80.9336 43.2017 103.934 54.1647 118.843C65.3262 134.024 75.6166 142.462 105.504 141.623C114.882 141.36 128.74 137.688 135.803 132.107C139.976 128.81 148.081 120.006 150.009 115.328C155.556 101.872 153.674 80.1711 146.874 67.2481C139.983 54.1534 126.073 46.606 102.89 42.9637" fill="#F2973E"/>
<path d="M83.5273 84.7422C85.6015 85.5323 89.5127 87.4089 88.5645 88.5942C87.6164 89.7794 85.6015 91.656 84.7126 92.4461" stroke="#A45314" stroke-width="2.96306" stroke-linecap="round" stroke-linejoin="round"/>
<path d="M115.332 89.4937C116.872 89.4552 118.312 88.0642 118.202 86.4764C118.09 84.8833 116.834 83.5649 115.185 83.6061C113.645 83.6446 112.204 85.0355 112.314 86.6234C112.426 88.2165 113.682 89.5349 115.332 89.4937Z" fill="#A45314"/>
<path d="M95.6459 98.7491C96.6917 101.887 99.9439 103.622 103.131 103.679C104.833 103.709 106.506 103.174 107.794 102.049C108.952 101.038 109.711 99.4986 109.975 97.999C110.141 97.0607 109.724 96.0945 108.743 95.8241C107.889 95.5891 106.735 96.1117 106.568 97.0565C106.399 98.0066 106.103 98.7602 105.506 99.3526C104.95 99.9044 104.046 100.159 103.131 100.144C102.585 100.135 102.233 100.074 101.686 99.9175C101.139 99.7613 100.974 99.6892 100.514 99.4218C100.054 99.1544 99.9437 99.0496 99.5343 98.6371C99.3971 98.4733 99.3722 98.4472 99.4572 98.5585C99.3853 98.4576 99.3173 98.3529 99.2533 98.2455C99.1905 98.1381 99.1317 98.0281 99.0782 97.9156C99.1343 98.0491 99.1265 98.0137 99.0521 97.8108C98.7505 96.9062 97.8348 96.3126 96.8792 96.5749C95.9956 96.8176 95.3404 97.8379 95.6433 98.7478L95.6459 98.7491Z" fill="#A45314"/>
<path d="M86.0285 137.553C85.6321 146.566 84.6049 165.298 83.668 168.12" stroke="#F2973E" stroke-width="2.35135" stroke-linecap="round"/>
<path d="M113.071 137.553C112.675 146.566 111.648 165.298 110.711 168.12" stroke="#F2973E" stroke-width="2.35135" stroke-linecap="round"/>
<path d="M47.228 91.7031C37.0389 91.7031 17.6011 92.8788 21.3632 97.5815" stroke="#F2973E" stroke-width="2.35135" stroke-linecap="round"/>
<g clip-path="url(#clip0_421_9598)">
<path d="M51.8146 143.442C51.405 143.667 49.2344 141.478 46.8743 138.882C43.6756 135.353 40.1136 131.08 40.1136 131.08C40.1136 131.08 47.2627 125.67 53.8422 127.047C53.8422 127.047 53.4655 132.707 52.9535 137.381C52.6083 140.528 52.2071 143.227 51.8146 143.442Z" fill="#A4AE4D"/>
<path d="M51.4576 142.496C50.9326 142.085 49.7979 141.037 47.3946 138.392C44.9435 135.691 41.8874 132.018 40.7957 130.724C42.5566 129.554 48.2657 126.031 53.1934 126.732C53.0801 128.347 52.6404 133.609 52.2372 137.298C51.8908 140.472 51.6237 141.878 51.4642 142.498L51.4576 142.496Z" fill="#FFFEFC"/>
<path d="M33.739 63.5574C33.739 63.5574 32.5979 60.0273 32.2569 59.1823C31.9112 58.3288 30.8458 57.3869 28.243 57.5372C25.6402 57.6876 20.9424 58.753 20.1458 59.8608C19.3493 60.9686 19.5673 62.6522 19.8912 63.8506C20.2151 65.049 20.8472 67.2047 20.8472 67.2047L33.739 63.5574Z" fill="#FFB697"/>
<path d="M35.913 70.3633C35.913 70.3633 49.7749 114.013 51.2044 118.495C52.634 122.976 53.8344 127.04 53.8344 127.04C53.8344 127.04 49.6275 129.345 45.0357 130.219C40.444 131.093 40.0972 131.078 40.0972 131.078C40.0972 131.078 27.0089 89.4676 25.9247 86.2337C24.8338 82.9979 22.2217 73.4833 22.2217 73.4833L35.9064 70.3614L35.913 70.3633Z" fill="#A4AE4D"/>
<path d="M35.991 70.8094C35.991 70.8094 36.4525 70.2847 36.3979 69.5878C36.3433 68.8909 36.1525 68.3908 35.5242 68.1858C35.5242 68.1858 35.8714 67.6349 35.6367 66.7206C35.3934 65.8109 34.4419 65.7553 34.4419 65.7553C34.4419 65.7553 35.2907 64.9351 34.8761 64.2192C34.4616 63.5032 33.7111 63.3486 33.7111 63.3486C33.7111 63.3486 30.0484 64.3793 27.4898 65.0658C24.9245 65.7503 21.0217 66.4744 20.5185 66.7002C20.0153 66.926 19.8497 67.6159 19.8947 68.0018C19.9837 68.8019 20.2041 68.7587 20.9051 68.9849C20.9051 68.9849 20.3307 69.921 20.5584 70.5896C20.7794 71.2563 21.6111 71.4274 21.6111 71.4274C21.6111 71.4274 21.1275 72.3471 21.3156 73.0041C21.5037 73.6611 22.0309 73.8437 22.3697 73.9355C22.7085 74.0272 23.1315 74.1005 23.1315 74.1005L35.991 70.8094Z" fill="#AFAFA7"/>
<path d="M35.4538 67.8924C31.864 68.8943 28.2509 69.8535 24.6002 70.6225C23.6151 70.8294 22.6196 71.0477 21.6144 71.1269C21.2324 71.1587 21.2243 71.7513 21.6043 71.7261C23.6297 71.5648 25.6517 71.0227 27.6174 70.5502C29.8227 70.0185 32.0177 69.4481 34.2054 68.854C34.6711 68.7319 35.1321 68.6013 35.5997 68.4727C35.9661 68.3718 35.8267 67.7935 35.4538 67.8924Z" fill="#210B03"/>
<path d="M34.3755 65.4697C30.7608 66.3854 27.1348 67.2907 23.4997 68.1288C22.6148 68.3363 21.7299 68.5438 20.8301 68.704C20.4517 68.7727 20.5996 69.3463 20.9761 69.2842C22.8664 68.9473 24.7359 68.461 26.6023 68.0097C28.7753 67.4901 30.9409 66.9469 33.1046 66.4103C33.5769 66.2902 34.0473 66.1767 34.513 66.0546C34.884 65.9623 34.738 65.382 34.367 65.4744L34.3755 65.4697Z" fill="#210B03"/>
<path d="M51.6244 142.706C51.6088 142.759 51.5938 142.806 51.5796 142.848C51.5517 142.829 51.5211 142.808 51.488 142.784C51.2181 142.59 50.8542 142.275 50.4145 141.858C49.6815 141.162 48.7748 140.218 47.8076 139.168C49.3171 138.798 51.0212 138.375 52.3255 138.052C52.3407 138.048 52.3557 138.044 52.3708 138.04C52.2217 139.333 52.0643 140.512 51.9037 141.425C51.8086 141.966 51.7147 142.401 51.6244 142.706ZM51.4851 143.071C51.4826 143.075 51.4813 143.076 51.4813 143.076C51.4813 143.076 51.4825 143.074 51.4851 143.071Z" fill="#210B03" stroke="#210B03"/>
<path d="M24.9891 75.2089C25.4939 76.8185 25.9988 78.4281 26.5036 80.0378C27.7434 83.9909 28.9832 87.944 30.2211 91.9037C31.7653 96.8273 33.3048 101.742 34.849 106.666C36.2791 111.219 37.7092 115.773 39.1459 120.328C40.0414 123.177 40.937 126.026 41.8496 128.866C41.9016 129.032 41.9582 129.206 42.0102 129.372C42.1262 129.735 42.7045 129.596 42.5904 129.226C41.7677 126.692 40.9753 124.152 40.1696 121.609C38.77 117.172 37.3771 112.737 35.9841 108.302C34.4325 103.355 32.8809 98.4074 31.3292 93.4601C30.0347 89.3262 28.7383 85.1988 27.4437 81.0649C26.8275 79.1002 26.3261 77.0615 25.5897 75.1405C25.5756 75.1149 25.5701 75.0846 25.5646 75.0543C25.4486 74.6907 24.8703 74.8301 24.9844 75.2003L24.9891 75.2089Z" fill="#210B03"/>
</g>
<g clip-path="url(#clip1_421_9598)">
<path d="M201.149 126.554L200.124 126.434L198.285 122.81C198.285 122.81 131.618 159.345 129.563 162.077C127.509 164.808 126.341 170.936 127.922 172.38C129.504 173.824 145.001 173.398 157.772 173.524C170.538 173.644 182.716 173.985 183.04 174.009C183.363 174.033 192.978 149.503 193.732 147.622C194.487 145.741 201.472 127.668 201.472 127.668L201.155 126.56L201.149 126.554Z" fill="#A4AE4D"/>
<path d="M198.448 124.277C198.448 124.277 194.399 134.048 193.057 137.181C191.715 140.308 182.172 164.587 182.172 164.587C182.172 164.587 177.865 164.653 175.11 164.617C172.354 164.581 132.776 164.012 131.488 164.125C130.2 164.239 129.93 164.419 129.098 165.461C128.265 166.504 127.959 169.439 128.606 170.505C129.247 171.571 130.907 171.799 133.153 171.805C135.399 171.805 156.935 171.781 163.704 171.901C172.743 172.057 182.556 172.26 182.556 172.26C182.556 172.26 183.089 170.817 183.322 170.122C183.556 169.427 194.183 143.039 195.477 139.715C196.771 136.39 199.982 127.722 199.982 127.722L198.454 124.289L198.448 124.277Z" fill="#FFFEFC"/>
<path d="M198.615 121.521C198.435 121.317 190.941 121.06 190.941 121.06L134.668 153.905C134.668 153.905 128.138 163.819 128.623 163.753C129.109 163.687 147.343 164.166 151.764 164.304C156.185 164.442 182.495 164.598 182.495 164.598C182.495 164.598 190.881 143.53 192.259 139.762C193.643 135.994 199.106 122.905 199.106 122.905C199.106 122.905 198.789 121.73 198.609 121.527L198.615 121.521Z" fill="#A4AE4D"/>
<path d="M191.373 121.695L190.942 118.742L191.127 118.34L191.139 116.921C191.139 116.921 184.43 116.004 176.457 115.663C168.496 115.315 156.413 115.165 156.119 115.237C155.826 115.309 148.08 126.302 145.103 130.549C142.126 134.796 132.386 146.543 131.828 147.723C131.265 148.903 131.032 150.964 131.247 152.096C131.463 153.228 131.948 153.492 133.47 153.833C134.985 154.175 158.695 154.037 163.985 154.151C169.274 154.265 178.35 154.78 178.35 154.78C178.35 154.78 187.701 133.502 189.438 129.099C191.175 124.702 192.164 122.821 192.164 122.821C192.056 122.372 191.804 121.857 191.367 121.701L191.373 121.695Z" fill="#5D6716"/>
<path d="M179.242 120.933C179.242 120.933 175.738 128.176 175.121 129.542C174.498 130.907 173.677 132.525 173.677 132.525C173.677 132.525 161.774 131.872 158.12 131.866C154.466 131.86 151.105 131.77 151.105 131.77C151.105 131.77 154.646 126.253 156.281 123.36C157.917 120.466 158.498 120.227 158.498 120.227C158.498 120.227 176.361 120.862 179.248 120.933H179.242Z" fill="#FFFEFC"/>
<path d="M190.614 119.432C190.614 119.432 189.889 121.708 189.776 121.948C189.051 123.493 187.194 127.033 185.792 130.55C184.175 134.611 177.088 151.732 177.088 151.732C177.088 151.732 165.754 151.073 161.513 151.103C157.272 151.133 149.766 150.737 142.949 150.576C141.739 150.546 132.879 149.683 132.094 150.941C131.405 152.043 132.514 153.092 133.388 153.068C134.227 153.05 152.647 153.175 156.583 153.301C160.525 153.427 177.903 154.074 178.029 153.649C178.154 153.223 183.713 140.56 185.564 135.911C187.415 131.257 191.183 122.391 191.183 122.391L190.608 119.432H190.614Z" fill="#FFFEFC"/>
<path d="M197.987 121.689C195.759 127.296 193.524 132.903 191.284 138.504C188.804 144.716 186.324 150.922 183.856 157.14C183.029 159.224 182.203 161.303 181.376 163.388C181.46 163.322 181.544 163.262 181.628 163.196C176.29 163.07 170.947 162.956 165.609 162.855C157.402 162.699 149.19 162.675 140.977 162.477C138.527 162.417 136.077 162.345 133.627 162.304C132.962 162.292 132.303 162.274 131.638 162.292C130.985 162.31 130.206 162.351 129.595 162.597C129.29 162.723 129.421 163.226 129.733 163.1C130.775 162.675 132.135 162.801 133.243 162.813C135.292 162.843 137.341 162.903 139.383 162.956C143.96 163.07 148.543 163.124 153.119 163.172C160.583 163.25 168.047 163.418 175.511 163.579C177.548 163.621 179.585 163.669 181.628 163.717C181.753 163.717 181.837 163.633 181.879 163.526C183.934 158.356 185.989 153.192 188.043 148.028C190.559 141.715 193.087 135.407 195.603 129.099C196.568 126.679 197.532 124.253 198.496 121.832C198.622 121.521 198.119 121.389 197.993 121.695L197.987 121.689Z" fill="#210B03"/>
<path d="M191.908 122.744C190.129 127.171 188.188 131.532 186.289 135.911C184.06 141.051 181.82 146.185 179.573 151.313C179.088 152.421 178.603 153.535 178.112 154.643C178.184 154.601 178.262 154.559 178.333 154.517C177.135 154.487 175.943 154.463 174.745 154.434C171.762 154.368 168.779 154.296 165.796 154.23C161.992 154.146 158.188 154.062 154.39 153.984C150.694 153.906 146.998 153.834 143.296 153.769C140.63 153.721 137.964 153.673 135.299 153.655C135.089 153.655 134.879 153.655 134.67 153.655C134.334 153.655 134.334 154.17 134.67 154.176C137.126 154.188 139.582 154.23 142.032 154.272C145.668 154.332 149.304 154.404 152.934 154.481C156.774 154.559 160.614 154.643 164.454 154.727C167.581 154.793 170.708 154.865 173.835 154.937C174.841 154.961 175.847 154.985 176.854 155.009C177.309 155.021 177.818 155.092 178.274 155.039C178.292 155.039 178.315 155.039 178.333 155.039C178.417 155.039 178.525 154.991 178.555 154.913C179.921 151.804 181.281 148.695 182.635 145.58C185.043 140.057 187.451 134.533 189.823 128.998C190.692 126.968 191.572 124.943 192.393 122.888C192.519 122.577 192.016 122.445 191.89 122.75L191.908 122.744Z" fill="#210B03"/>
<path d="M163.894 122.218C160.336 122.044 158.221 121.96 158.221 121.96L157.934 122.565C157.934 122.565 171.1 122.996 171.969 122.996C172.838 122.996 175.719 123.08 175.719 123.08L175.815 122.733C175.815 122.733 167.452 122.385 163.894 122.218Z" fill="#210B03"/>
<path d="M174.465 125.409L156.686 124.804L156.59 125.493L174.465 126.098V125.409Z" fill="#210B03"/>
<path d="M156.005 127.997L155.43 128.686L173.017 129.291V128.77L156.005 127.997Z" fill="#210B03"/>
</g>
<path d="M151.867 88.1758C156.962 92.8785 168.327 103.46 167.151 105.811" stroke="#F2973E" stroke-width="2.35135" stroke-linecap="round"/>
<path d="M44.5396 206V196.2H46.0376L52.1836 203.746H51.4416V196.2H53.2476V206H51.7496L45.6036 198.454H46.3456V206H44.5396ZM59.0656 206.098C58.3003 206.098 57.619 205.935 57.0216 205.608C56.4243 205.272 55.953 204.815 55.6076 204.236C55.2623 203.657 55.0896 202.999 55.0896 202.262C55.0896 201.515 55.2623 200.857 55.6076 200.288C55.953 199.709 56.4243 199.257 57.0216 198.93C57.619 198.603 58.3003 198.44 59.0656 198.44C59.8403 198.44 60.5263 198.603 61.1236 198.93C61.7303 199.257 62.2016 199.705 62.5376 200.274C62.883 200.843 63.0556 201.506 63.0556 202.262C63.0556 202.999 62.883 203.657 62.5376 204.236C62.2016 204.815 61.7303 205.272 61.1236 205.608C60.5263 205.935 59.8403 206.098 59.0656 206.098ZM59.0656 204.6C59.495 204.6 59.8776 204.507 60.2136 204.32C60.5496 204.133 60.811 203.863 60.9976 203.508C61.1936 203.153 61.2916 202.738 61.2916 202.262C61.2916 201.777 61.1936 201.361 60.9976 201.016C60.811 200.661 60.5496 200.391 60.2136 200.204C59.8776 200.017 59.4996 199.924 59.0796 199.924C58.6503 199.924 58.2676 200.017 57.9316 200.204C57.605 200.391 57.3436 200.661 57.1476 201.016C56.9516 201.361 56.8536 201.777 56.8536 202.262C56.8536 202.738 56.9516 203.153 57.1476 203.508C57.3436 203.863 57.605 204.133 57.9316 204.32C58.2676 204.507 58.6456 204.6 59.0656 204.6ZM72.8402 198.44C73.4375 198.44 73.9695 198.557 74.4362 198.79C74.9122 199.023 75.2855 199.383 75.5562 199.868C75.8269 200.344 75.9622 200.96 75.9622 201.716V206H74.2122V201.94C74.2122 201.277 74.0535 200.783 73.7362 200.456C73.4282 200.129 72.9942 199.966 72.4342 199.966C72.0235 199.966 71.6595 200.05 71.3422 200.218C71.0249 200.386 70.7775 200.638 70.6002 200.974C70.4322 201.301 70.3482 201.716 70.3482 202.22V206H68.5982V198.524H70.2642V200.54L69.9702 199.924C70.2315 199.448 70.6095 199.084 71.1042 198.832C71.6082 198.571 72.1869 198.44 72.8402 198.44ZM81.5559 206.098C80.7905 206.098 80.1092 205.935 79.5119 205.608C78.9145 205.272 78.4432 204.815 78.0979 204.236C77.7525 203.657 77.5799 202.999 77.5799 202.262C77.5799 201.515 77.7525 200.857 78.0979 200.288C78.4432 199.709 78.9145 199.257 79.5119 198.93C80.1092 198.603 80.7905 198.44 81.5559 198.44C82.3305 198.44 83.0165 198.603 83.6139 198.93C84.2205 199.257 84.6919 199.705 85.0279 200.274C85.3732 200.843 85.5459 201.506 85.5459 202.262C85.5459 202.999 85.3732 203.657 85.0279 204.236C84.6919 204.815 84.2205 205.272 83.6139 205.608C83.0165 205.935 82.3305 206.098 81.5559 206.098ZM81.5559 204.6C81.9852 204.6 82.3679 204.507 82.7039 204.32C83.0399 204.133 83.3012 203.863 83.4879 203.508C83.6839 203.153 83.7819 202.738 83.7819 202.262C83.7819 201.777 83.6839 201.361 83.4879 201.016C83.3012 200.661 83.0399 200.391 82.7039 200.204C82.3679 200.017 81.9899 199.924 81.5699 199.924C81.1405 199.924 80.7579 200.017 80.4219 200.204C80.0952 200.391 79.8339 200.661 79.6379 201.016C79.4419 201.361 79.3439 201.777 79.3439 202.262C79.3439 202.738 79.4419 203.153 79.6379 203.508C79.8339 203.863 80.0952 204.133 80.4219 204.32C80.7579 204.507 81.1359 204.6 81.5559 204.6ZM90.0333 206.098C89.212 206.098 88.5773 205.888 88.1293 205.468C87.6813 205.039 87.4573 204.409 87.4573 203.578V196.872H89.2073V203.536C89.2073 203.891 89.296 204.166 89.4733 204.362C89.66 204.558 89.9166 204.656 90.2433 204.656C90.6353 204.656 90.962 204.553 91.2233 204.348L91.7133 205.594C91.508 205.762 91.256 205.888 90.9573 205.972C90.6586 206.056 90.3506 206.098 90.0333 206.098ZM86.2253 199.98V198.58H91.2093V199.98H86.2253ZM96.4208 206.098C95.5901 206.098 94.8621 205.935 94.2368 205.608C93.6208 205.272 93.1401 204.815 92.7948 204.236C92.4588 203.657 92.2908 202.999 92.2908 202.262C92.2908 201.515 92.4541 200.857 92.7808 200.288C93.1168 199.709 93.5741 199.257 94.1528 198.93C94.7408 198.603 95.4081 198.44 96.1548 198.44C96.8828 198.44 97.5315 198.599 98.1008 198.916C98.6701 199.233 99.1181 199.681 99.4448 200.26C99.7715 200.839 99.9348 201.52 99.9348 202.304C99.9348 202.379 99.9301 202.463 99.9208 202.556C99.9208 202.649 99.9161 202.738 99.9068 202.822H93.6768V201.66H98.9828L98.2968 202.024C98.3061 201.595 98.2175 201.217 98.0308 200.89C97.8441 200.563 97.5875 200.307 97.2608 200.12C96.9435 199.933 96.5748 199.84 96.1548 199.84C95.7255 199.84 95.3475 199.933 95.0208 200.12C94.7035 200.307 94.4515 200.568 94.2648 200.904C94.0875 201.231 93.9988 201.618 93.9988 202.066V202.346C93.9988 202.794 94.1015 203.191 94.3068 203.536C94.5121 203.881 94.8015 204.147 95.1748 204.334C95.5481 204.521 95.9775 204.614 96.4628 204.614C96.8828 204.614 97.2608 204.549 97.5968 204.418C97.9328 204.287 98.2315 204.082 98.4928 203.802L99.4308 204.88C99.0948 205.272 98.6701 205.575 98.1568 205.79C97.6528 205.995 97.0741 206.098 96.4208 206.098ZM108.915 206.098C108.131 206.098 107.431 205.935 106.815 205.608C106.208 205.272 105.732 204.815 105.387 204.236C105.042 203.657 104.869 202.999 104.869 202.262C104.869 201.515 105.042 200.857 105.387 200.288C105.732 199.709 106.208 199.257 106.815 198.93C107.431 198.603 108.131 198.44 108.915 198.44C109.643 198.44 110.282 198.589 110.833 198.888C111.393 199.177 111.818 199.607 112.107 200.176L110.763 200.96C110.539 200.605 110.264 200.344 109.937 200.176C109.62 200.008 109.274 199.924 108.901 199.924C108.472 199.924 108.084 200.017 107.739 200.204C107.394 200.391 107.123 200.661 106.927 201.016C106.731 201.361 106.633 201.777 106.633 202.262C106.633 202.747 106.731 203.167 106.927 203.522C107.123 203.867 107.394 204.133 107.739 204.32C108.084 204.507 108.472 204.6 108.901 204.6C109.274 204.6 109.62 204.516 109.937 204.348C110.264 204.18 110.539 203.919 110.763 203.564L112.107 204.348C111.818 204.908 111.393 205.342 110.833 205.65C110.282 205.949 109.643 206.098 108.915 206.098ZM113.62 206V198.524H115.286V200.582L115.09 199.98C115.314 199.476 115.664 199.093 116.14 198.832C116.625 198.571 117.227 198.44 117.946 198.44V200.106C117.871 200.087 117.801 200.078 117.736 200.078C117.67 200.069 117.605 200.064 117.54 200.064C116.877 200.064 116.35 200.26 115.958 200.652C115.566 201.035 115.37 201.609 115.37 202.374V206H113.62ZM122.876 206.098C122.045 206.098 121.317 205.935 120.692 205.608C120.076 205.272 119.595 204.815 119.25 204.236C118.914 203.657 118.746 202.999 118.746 202.262C118.746 201.515 118.909 200.857 119.236 200.288C119.572 199.709 120.029 199.257 120.608 198.93C121.196 198.603 121.863 198.44 122.61 198.44C123.338 198.44 123.987 198.599 124.556 198.916C125.125 199.233 125.573 199.681 125.9 200.26C126.227 200.839 126.39 201.52 126.39 202.304C126.39 202.379 126.385 202.463 126.376 202.556C126.376 202.649 126.371 202.738 126.362 202.822H120.132V201.66H125.438L124.752 202.024C124.761 201.595 124.673 201.217 124.486 200.89C124.299 200.563 124.043 200.307 123.716 200.12C123.399 199.933 123.03 199.84 122.61 199.84C122.181 199.84 121.803 199.933 121.476 200.12C121.159 200.307 120.907 200.568 120.72 200.904C120.543 201.231 120.454 201.618 120.454 202.066V202.346C120.454 202.794 120.557 203.191 120.762 203.536C120.967 203.881 121.257 204.147 121.63 204.334C122.003 204.521 122.433 204.614 122.918 204.614C123.338 204.614 123.716 204.549 124.052 204.418C124.388 204.287 124.687 204.082 124.948 203.802L125.886 204.88C125.55 205.272 125.125 205.575 124.612 205.79C124.108 205.995 123.529 206.098 122.876 206.098ZM132.472 206V204.488L132.374 204.166V201.52C132.374 201.007 132.22 200.61 131.912 200.33C131.604 200.041 131.137 199.896 130.512 199.896C130.092 199.896 129.676 199.961 129.266 200.092C128.864 200.223 128.524 200.405 128.244 200.638L127.558 199.364C127.959 199.056 128.435 198.827 128.986 198.678C129.546 198.519 130.124 198.44 130.722 198.44C131.804 198.44 132.64 198.701 133.228 199.224C133.825 199.737 134.124 200.535 134.124 201.618V206H132.472ZM130.12 206.098C129.56 206.098 129.07 206.005 128.65 205.818C128.23 205.622 127.903 205.356 127.67 205.02C127.446 204.675 127.334 204.287 127.334 203.858C127.334 203.438 127.432 203.06 127.628 202.724C127.833 202.388 128.164 202.122 128.622 201.926C129.079 201.73 129.686 201.632 130.442 201.632H132.612V202.794H130.568C129.97 202.794 129.569 202.892 129.364 203.088C129.158 203.275 129.056 203.508 129.056 203.788C129.056 204.105 129.182 204.357 129.434 204.544C129.686 204.731 130.036 204.824 130.484 204.824C130.913 204.824 131.296 204.726 131.632 204.53C131.977 204.334 132.224 204.045 132.374 203.662L132.668 204.712C132.5 205.151 132.196 205.491 131.758 205.734C131.328 205.977 130.782 206.098 130.12 206.098ZM139.184 206.098C138.362 206.098 137.728 205.888 137.28 205.468C136.832 205.039 136.608 204.409 136.608 203.578V196.872H138.358V203.536C138.358 203.891 138.446 204.166 138.624 204.362C138.81 204.558 139.067 204.656 139.394 204.656C139.786 204.656 140.112 204.553 140.374 204.348L140.864 205.594C140.658 205.762 140.406 205.888 140.108 205.972C139.809 206.056 139.501 206.098 139.184 206.098ZM135.376 199.98V198.58H140.36V199.98H135.376ZM145.571 206.098C144.741 206.098 144.013 205.935 143.387 205.608C142.771 205.272 142.291 204.815 141.945 204.236C141.609 203.657 141.441 202.999 141.441 202.262C141.441 201.515 141.605 200.857 141.931 200.288C142.267 199.709 142.725 199.257 143.303 198.93C143.891 198.603 144.559 198.44 145.305 198.44C146.033 198.44 146.682 198.599 147.251 198.916C147.821 199.233 148.269 199.681 148.595 200.26C148.922 200.839 149.085 201.52 149.085 202.304C149.085 202.379 149.081 202.463 149.071 202.556C149.071 202.649 149.067 202.738 149.057 202.822H142.827V201.66H148.133L147.447 202.024C147.457 201.595 147.368 201.217 147.181 200.89C146.995 200.563 146.738 200.307 146.411 200.12C146.094 199.933 145.725 199.84 145.305 199.84C144.876 199.84 144.498 199.933 144.171 200.12C143.854 200.307 143.602 200.568 143.415 200.904C143.238 201.231 143.149 201.618 143.149 202.066V202.346C143.149 202.794 143.252 203.191 143.457 203.536C143.663 203.881 143.952 204.147 144.325 204.334C144.699 204.521 145.128 204.614 145.613 204.614C146.033 204.614 146.411 204.549 146.747 204.418C147.083 204.287 147.382 204.082 147.643 203.802L148.581 204.88C148.245 205.272 147.821 205.575 147.307 205.79C146.803 205.995 146.225 206.098 145.571 206.098ZM153.93 206.098C153.211 206.098 152.563 205.939 151.984 205.622C151.415 205.295 150.967 204.847 150.64 204.278C150.313 203.709 150.15 203.037 150.15 202.262C150.15 201.487 150.313 200.815 150.64 200.246C150.967 199.677 151.415 199.233 151.984 198.916C152.563 198.599 153.211 198.44 153.93 198.44C154.555 198.44 155.115 198.58 155.61 198.86C156.105 199.131 156.497 199.546 156.786 200.106C157.075 200.666 157.22 201.385 157.22 202.262C157.22 203.13 157.08 203.849 156.8 204.418C156.52 204.978 156.133 205.398 155.638 205.678C155.143 205.958 154.574 206.098 153.93 206.098ZM154.14 204.6C154.56 204.6 154.933 204.507 155.26 204.32C155.596 204.133 155.862 203.863 156.058 203.508C156.263 203.153 156.366 202.738 156.366 202.262C156.366 201.777 156.263 201.361 156.058 201.016C155.862 200.661 155.596 200.391 155.26 200.204C154.933 200.017 154.56 199.924 154.14 199.924C153.72 199.924 153.342 200.017 153.006 200.204C152.679 200.391 152.413 200.661 152.208 201.016C152.012 201.361 151.914 201.777 151.914 202.262C151.914 202.738 152.012 203.153 152.208 203.508C152.413 203.863 152.679 204.133 153.006 204.32C153.342 204.507 153.72 204.6 154.14 204.6ZM156.408 206V204.236L156.478 202.248L156.338 200.26V195.612H158.074V206H156.408Z" fill="#210B03"/>
<path d="M40.3363 226.06C39.8096 226.06 39.3229 225.973 38.8763 225.8C38.4296 225.62 38.0429 225.37 37.7163 225.05C37.3896 224.73 37.1329 224.353 36.9463 223.92C36.7663 223.487 36.6763 223.013 36.6763 222.5C36.6763 221.987 36.7663 221.513 36.9463 221.08C37.1329 220.647 37.3896 220.27 37.7163 219.95C38.0496 219.63 38.4396 219.383 38.8863 219.21C39.3329 219.03 39.8196 218.94 40.3463 218.94C40.8529 218.94 41.3296 219.027 41.7763 219.2C42.2229 219.367 42.5996 219.62 42.9063 219.96L42.4363 220.43C42.1496 220.137 41.8329 219.927 41.4863 219.8C41.1396 219.667 40.7663 219.6 40.3663 219.6C39.9463 219.6 39.5563 219.673 39.1963 219.82C38.8363 219.96 38.5229 220.163 38.2563 220.43C37.9896 220.69 37.7796 220.997 37.6262 221.35C37.4796 221.697 37.4062 222.08 37.4062 222.5C37.4062 222.92 37.4796 223.307 37.6262 223.66C37.7796 224.007 37.9896 224.313 38.2563 224.58C38.5229 224.84 38.8363 225.043 39.1963 225.19C39.5563 225.33 39.9463 225.4 40.3663 225.4C40.7663 225.4 41.1396 225.333 41.4863 225.2C41.8329 225.067 42.1496 224.853 42.4363 224.56L42.9063 225.03C42.5996 225.37 42.2229 225.627 41.7763 225.8C41.3296 225.973 40.8496 226.06 40.3363 226.06ZM44.3338 226V220.75H45.0138V222.18L44.9438 221.93C45.0904 221.53 45.3371 221.227 45.6838 221.02C46.0304 220.807 46.4604 220.7 46.9738 220.7V221.39C46.9471 221.39 46.9204 221.39 46.8938 221.39C46.8671 221.383 46.8404 221.38 46.8138 221.38C46.2604 221.38 45.8271 221.55 45.5138 221.89C45.2004 222.223 45.0438 222.7 45.0438 223.32V226H44.3338ZM50.4505 226.05C49.9038 226.05 49.4238 225.937 49.0105 225.71C48.5971 225.477 48.2738 225.16 48.0405 224.76C47.8071 224.353 47.6905 223.89 47.6905 223.37C47.6905 222.85 47.8005 222.39 48.0205 221.99C48.2471 221.59 48.5538 221.277 48.9405 221.05C49.3338 220.817 49.7738 220.7 50.2605 220.7C50.7538 220.7 51.1905 220.813 51.5705 221.04C51.9571 221.26 52.2605 221.573 52.4805 221.98C52.7005 222.38 52.8105 222.843 52.8105 223.37C52.8105 223.403 52.8071 223.44 52.8005 223.48C52.8005 223.513 52.8005 223.55 52.8005 223.59H48.2305V223.06H52.4205L52.1405 223.27C52.1405 222.89 52.0571 222.553 51.8905 222.26C51.7305 221.96 51.5105 221.727 51.2305 221.56C50.9505 221.393 50.6271 221.31 50.2605 221.31C49.9005 221.31 49.5771 221.393 49.2905 221.56C49.0038 221.727 48.7805 221.96 48.6205 222.26C48.4605 222.56 48.3805 222.903 48.3805 223.29V223.4C48.3805 223.8 48.4671 224.153 48.6405 224.46C48.8205 224.76 49.0671 224.997 49.3805 225.17C49.7005 225.337 50.0638 225.42 50.4705 225.42C50.7905 225.42 51.0871 225.363 51.3605 225.25C51.6405 225.137 51.8805 224.963 52.0805 224.73L52.4805 225.19C52.2471 225.47 51.9538 225.683 51.6005 225.83C51.2538 225.977 50.8705 226.05 50.4505 226.05ZM57.3991 226V224.84L57.3691 224.65V222.71C57.3691 222.263 57.2425 221.92 56.9891 221.68C56.7425 221.44 56.3725 221.32 55.8791 221.32C55.5391 221.32 55.2158 221.377 54.9091 221.49C54.6025 221.603 54.3425 221.753 54.1291 221.94L53.8091 221.41C54.0758 221.183 54.3958 221.01 54.7691 220.89C55.1425 220.763 55.5358 220.7 55.9491 220.7C56.6291 220.7 57.1525 220.87 57.5191 221.21C57.8925 221.543 58.0791 222.053 58.0791 222.74V226H57.3991ZM55.5891 226.05C55.1958 226.05 54.8525 225.987 54.5591 225.86C54.2725 225.727 54.0525 225.547 53.8991 225.32C53.7458 225.087 53.6691 224.82 53.6691 224.52C53.6691 224.247 53.7325 224 53.8591 223.78C53.9925 223.553 54.2058 223.373 54.4991 223.24C54.7991 223.1 55.1991 223.03 55.6991 223.03H57.5091V223.56H55.7191C55.2125 223.56 54.8591 223.65 54.6591 223.83C54.4658 224.01 54.3691 224.233 54.3691 224.5C54.3691 224.8 54.4858 225.04 54.7191 225.22C54.9525 225.4 55.2791 225.49 55.6991 225.49C56.0991 225.49 56.4425 225.4 56.7291 225.22C57.0225 225.033 57.2358 224.767 57.3691 224.42L57.5291 224.91C57.3958 225.257 57.1625 225.533 56.8291 225.74C56.5025 225.947 56.0891 226.05 55.5891 226.05ZM61.6676 226.05C61.1742 226.05 60.7942 225.917 60.5276 225.65C60.2609 225.383 60.1276 225.007 60.1276 224.52V219.59H60.8376V224.48C60.8376 224.787 60.9142 225.023 61.0676 225.19C61.2276 225.357 61.4542 225.44 61.7476 225.44C62.0609 225.44 62.3209 225.35 62.5276 225.17L62.7776 225.68C62.6376 225.807 62.4676 225.9 62.2676 225.96C62.0742 226.02 61.8742 226.05 61.6676 226.05ZM59.1876 221.34V220.75H62.4376V221.34H59.1876ZM66.1145 226.05C65.5679 226.05 65.0879 225.937 64.6745 225.71C64.2612 225.477 63.9379 225.16 63.7045 224.76C63.4712 224.353 63.3545 223.89 63.3545 223.37C63.3545 222.85 63.4645 222.39 63.6845 221.99C63.9112 221.59 64.2179 221.277 64.6045 221.05C64.9979 220.817 65.4379 220.7 65.9245 220.7C66.4179 220.7 66.8545 220.813 67.2345 221.04C67.6212 221.26 67.9245 221.573 68.1445 221.98C68.3645 222.38 68.4745 222.843 68.4745 223.37C68.4745 223.403 68.4712 223.44 68.4645 223.48C68.4645 223.513 68.4645 223.55 68.4645 223.59H63.8945V223.06H68.0845L67.8045 223.27C67.8045 222.89 67.7212 222.553 67.5545 222.26C67.3945 221.96 67.1745 221.727 66.8945 221.56C66.6145 221.393 66.2912 221.31 65.9245 221.31C65.5645 221.31 65.2412 221.393 64.9545 221.56C64.6679 221.727 64.4445 221.96 64.2845 222.26C64.1245 222.56 64.0445 222.903 64.0445 223.29V223.4C64.0445 223.8 64.1312 224.153 64.3045 224.46C64.4845 224.76 64.7312 224.997 65.0445 225.17C65.3645 225.337 65.7279 225.42 66.1345 225.42C66.4545 225.42 66.7512 225.363 67.0245 225.25C67.3045 225.137 67.5445 224.963 67.7445 224.73L68.1445 225.19C67.9112 225.47 67.6179 225.683 67.2645 225.83C66.9179 225.977 66.5345 226.05 66.1145 226.05ZM72.5769 227.99C72.3302 227.99 72.0935 227.95 71.8669 227.87C71.6469 227.79 71.4569 227.67 71.2969 227.51L71.6269 226.98C71.7602 227.107 71.9035 227.203 72.0569 227.27C72.2169 227.343 72.3935 227.38 72.5869 227.38C72.8202 227.38 73.0202 227.313 73.1869 227.18C73.3602 227.053 73.5235 226.827 73.6769 226.5L74.0169 225.73L74.0969 225.62L76.2569 220.75H76.9569L74.3269 226.63C74.1802 226.97 74.0169 227.24 73.8369 227.44C73.6635 227.64 73.4735 227.78 73.2669 227.86C73.0602 227.947 72.8302 227.99 72.5769 227.99ZM73.9769 226.15L71.5569 220.75H72.2969L74.4369 225.57L73.9769 226.15ZM79.9503 226.05C79.4436 226.05 78.987 225.937 78.5803 225.71C78.1803 225.477 77.8636 225.16 77.6303 224.76C77.397 224.353 77.2803 223.89 77.2803 223.37C77.2803 222.843 77.397 222.38 77.6303 221.98C77.8636 221.58 78.1803 221.267 78.5803 221.04C78.9803 220.813 79.437 220.7 79.9503 220.7C80.4703 220.7 80.9303 220.813 81.3303 221.04C81.737 221.267 82.0536 221.58 82.2803 221.98C82.5136 222.38 82.6303 222.843 82.6303 223.37C82.6303 223.89 82.5136 224.353 82.2803 224.76C82.0536 225.16 81.737 225.477 81.3303 225.71C80.9236 225.937 80.4636 226.05 79.9503 226.05ZM79.9503 225.42C80.3303 225.42 80.667 225.337 80.9603 225.17C81.2536 224.997 81.4836 224.757 81.6503 224.45C81.8236 224.137 81.9103 223.777 81.9103 223.37C81.9103 222.957 81.8236 222.597 81.6503 222.29C81.4836 221.983 81.2536 221.747 80.9603 221.58C80.667 221.407 80.3336 221.32 79.9603 221.32C79.587 221.32 79.2536 221.407 78.9603 221.58C78.667 221.747 78.4336 221.983 78.2603 222.29C78.087 222.597 78.0003 222.957 78.0003 223.37C78.0003 223.777 78.087 224.137 78.2603 224.45C78.4336 224.757 78.667 224.997 78.9603 225.17C79.2536 225.337 79.5836 225.42 79.9503 225.42ZM86.2498 226.05C85.8032 226.05 85.4132 225.967 85.0798 225.8C84.7465 225.633 84.4865 225.383 84.2998 225.05C84.1198 224.717 84.0298 224.3 84.0298 223.8V220.75H84.7398V223.72C84.7398 224.28 84.8765 224.703 85.1498 224.99C85.4298 225.27 85.8198 225.41 86.3198 225.41C86.6865 225.41 87.0032 225.337 87.2698 225.19C87.5432 225.037 87.7498 224.817 87.8898 224.53C88.0365 224.243 88.1098 223.9 88.1098 223.5V220.75H88.8198V226H88.1398V224.56L88.2498 224.82C88.0832 225.207 87.8232 225.51 87.4698 225.73C87.1232 225.943 86.7165 226.05 86.2498 226.05ZM90.7986 226V220.75H91.4786V222.18L91.4086 221.93C91.5553 221.53 91.8019 221.227 92.1486 221.02C92.4953 220.807 92.9253 220.7 93.4386 220.7V221.39C93.4119 221.39 93.3853 221.39 93.3586 221.39C93.3319 221.383 93.3053 221.38 93.2786 221.38C92.7253 221.38 92.2919 221.55 91.9786 221.89C91.6653 222.223 91.5086 222.7 91.5086 223.32V226H90.7986ZM97.5495 226V220.09C97.5495 219.623 97.6861 219.247 97.9595 218.96C98.2328 218.673 98.6261 218.53 99.1395 218.53C99.3395 218.53 99.5328 218.557 99.7195 218.61C99.9061 218.663 100.063 218.747 100.189 218.86L99.9495 219.39C99.8495 219.303 99.7328 219.24 99.5995 219.2C99.4661 219.153 99.3228 219.13 99.1695 219.13C98.8695 219.13 98.6395 219.213 98.4795 219.38C98.3195 219.547 98.2395 219.793 98.2395 220.12V220.92L98.2595 221.25V226H97.5495ZM96.6095 221.34V220.75H99.8595V221.34H96.6095ZM100.818 226V220.75H101.528V226H100.818ZM101.178 219.59C101.031 219.59 100.908 219.54 100.808 219.44C100.708 219.34 100.658 219.22 100.658 219.08C100.658 218.94 100.708 218.823 100.808 218.73C100.908 218.63 101.031 218.58 101.178 218.58C101.325 218.58 101.448 218.627 101.548 218.72C101.648 218.813 101.698 218.93 101.698 219.07C101.698 219.217 101.648 219.34 101.548 219.44C101.455 219.54 101.331 219.59 101.178 219.59ZM103.504 226V220.75H104.184V222.18L104.114 221.93C104.26 221.53 104.507 221.227 104.854 221.02C105.2 220.807 105.63 220.7 106.144 220.7V221.39C106.117 221.39 106.09 221.39 106.064 221.39C106.037 221.383 106.01 221.38 105.984 221.38C105.43 221.38 104.997 221.55 104.684 221.89C104.37 222.223 104.214 222.7 104.214 223.32V226H103.504ZM108.908 226.05C108.474 226.05 108.064 225.99 107.678 225.87C107.291 225.743 106.988 225.587 106.768 225.4L107.088 224.84C107.301 225 107.574 225.14 107.908 225.26C108.241 225.373 108.591 225.43 108.958 225.43C109.458 225.43 109.818 225.353 110.038 225.2C110.258 225.04 110.368 224.83 110.368 224.57C110.368 224.377 110.304 224.227 110.178 224.12C110.058 224.007 109.898 223.923 109.698 223.87C109.498 223.81 109.274 223.76 109.028 223.72C108.781 223.68 108.534 223.633 108.288 223.58C108.048 223.527 107.828 223.45 107.628 223.35C107.428 223.243 107.264 223.1 107.138 222.92C107.018 222.74 106.958 222.5 106.958 222.2C106.958 221.913 107.038 221.657 107.198 221.43C107.358 221.203 107.591 221.027 107.898 220.9C108.211 220.767 108.591 220.7 109.038 220.7C109.378 220.7 109.718 220.747 110.058 220.84C110.398 220.927 110.678 221.043 110.898 221.19L110.588 221.76C110.354 221.6 110.104 221.487 109.838 221.42C109.571 221.347 109.304 221.31 109.038 221.31C108.564 221.31 108.214 221.393 107.988 221.56C107.768 221.72 107.658 221.927 107.658 222.18C107.658 222.38 107.718 222.537 107.838 222.65C107.964 222.763 108.128 222.853 108.328 222.92C108.534 222.98 108.758 223.03 108.998 223.07C109.244 223.11 109.488 223.16 109.728 223.22C109.974 223.273 110.198 223.35 110.398 223.45C110.604 223.543 110.768 223.68 110.888 223.86C111.014 224.033 111.078 224.263 111.078 224.55C111.078 224.857 110.991 225.123 110.818 225.35C110.651 225.57 110.404 225.743 110.078 225.87C109.758 225.99 109.368 226.05 108.908 226.05ZM114.041 226.05C113.547 226.05 113.167 225.917 112.901 225.65C112.634 225.383 112.501 225.007 112.501 224.52V219.59H113.211V224.48C113.211 224.787 113.287 225.023 113.441 225.19C113.601 225.357 113.827 225.44 114.121 225.44C114.434 225.44 114.694 225.35 114.901 225.17L115.151 225.68C115.011 225.807 114.841 225.9 114.641 225.96C114.447 226.02 114.247 226.05 114.041 226.05ZM111.561 221.34V220.75H114.811V221.34H111.561ZM121.74 220.7C122.167 220.7 122.54 220.783 122.86 220.95C123.187 221.11 123.44 221.357 123.62 221.69C123.807 222.023 123.9 222.443 123.9 222.95V226H123.19V223.02C123.19 222.467 123.05 222.05 122.77 221.77C122.497 221.483 122.11 221.34 121.61 221.34C121.237 221.34 120.91 221.417 120.63 221.57C120.357 221.717 120.144 221.933 119.99 222.22C119.844 222.5 119.77 222.84 119.77 223.24V226H119.06V220.75H119.74V222.19L119.63 221.92C119.797 221.54 120.064 221.243 120.43 221.03C120.797 220.81 121.234 220.7 121.74 220.7ZM127.958 226.05C127.451 226.05 126.995 225.937 126.588 225.71C126.188 225.477 125.871 225.16 125.638 224.76C125.405 224.353 125.288 223.89 125.288 223.37C125.288 222.843 125.405 222.38 125.638 221.98C125.871 221.58 126.188 221.267 126.588 221.04C126.988 220.813 127.445 220.7 127.958 220.7C128.478 220.7 128.938 220.813 129.338 221.04C129.745 221.267 130.061 221.58 130.288 221.98C130.521 222.38 130.638 222.843 130.638 223.37C130.638 223.89 130.521 224.353 130.288 224.76C130.061 225.16 129.745 225.477 129.338 225.71C128.931 225.937 128.471 226.05 127.958 226.05ZM127.958 225.42C128.338 225.42 128.675 225.337 128.968 225.17C129.261 224.997 129.491 224.757 129.658 224.45C129.831 224.137 129.918 223.777 129.918 223.37C129.918 222.957 129.831 222.597 129.658 222.29C129.491 221.983 129.261 221.747 128.968 221.58C128.675 221.407 128.341 221.32 127.968 221.32C127.595 221.32 127.261 221.407 126.968 221.58C126.675 221.747 126.441 221.983 126.268 222.29C126.095 222.597 126.008 222.957 126.008 223.37C126.008 223.777 126.095 224.137 126.268 224.45C126.441 224.757 126.675 224.997 126.968 225.17C127.261 225.337 127.591 225.42 127.958 225.42ZM133.748 226.05C133.254 226.05 132.874 225.917 132.608 225.65C132.341 225.383 132.208 225.007 132.208 224.52V219.59H132.918V224.48C132.918 224.787 132.994 225.023 133.148 225.19C133.308 225.357 133.534 225.44 133.828 225.44C134.141 225.44 134.401 225.35 134.608 225.17L134.858 225.68C134.718 225.807 134.548 225.9 134.348 225.96C134.154 226.02 133.954 226.05 133.748 226.05ZM131.268 221.34V220.75H134.518V221.34H131.268ZM138.195 226.05C137.648 226.05 137.168 225.937 136.755 225.71C136.341 225.477 136.018 225.16 135.785 224.76C135.551 224.353 135.435 223.89 135.435 223.37C135.435 222.85 135.545 222.39 135.765 221.99C135.991 221.59 136.298 221.277 136.685 221.05C137.078 220.817 137.518 220.7 138.005 220.7C138.498 220.7 138.935 220.813 139.315 221.04C139.701 221.26 140.005 221.573 140.225 221.98C140.445 222.38 140.555 222.843 140.555 223.37C140.555 223.403 140.551 223.44 140.545 223.48C140.545 223.513 140.545 223.55 140.545 223.59H135.975V223.06H140.165L139.885 223.27C139.885 222.89 139.801 222.553 139.635 222.26C139.475 221.96 139.255 221.727 138.975 221.56C138.695 221.393 138.371 221.31 138.005 221.31C137.645 221.31 137.321 221.393 137.035 221.56C136.748 221.727 136.525 221.96 136.365 222.26C136.205 222.56 136.125 222.903 136.125 223.29V223.4C136.125 223.8 136.211 224.153 136.385 224.46C136.565 224.76 136.811 224.997 137.125 225.17C137.445 225.337 137.808 225.42 138.215 225.42C138.535 225.42 138.831 225.363 139.105 225.25C139.385 225.137 139.625 224.963 139.825 224.73L140.225 225.19C139.991 225.47 139.698 225.683 139.345 225.83C138.998 225.977 138.615 226.05 138.195 226.05ZM147.297 220.7C147.724 220.7 148.097 220.783 148.417 220.95C148.744 221.11 148.997 221.357 149.177 221.69C149.364 222.023 149.457 222.443 149.457 222.95V226H148.747V223.02C148.747 222.467 148.607 222.05 148.327 221.77C148.054 221.483 147.667 221.34 147.167 221.34C146.794 221.34 146.467 221.417 146.187 221.57C145.914 221.717 145.7 221.933 145.547 222.22C145.4 222.5 145.327 222.84 145.327 223.24V226H144.617V220.75H145.297V222.19L145.187 221.92C145.354 221.54 145.62 221.243 145.987 221.03C146.354 220.81 146.79 220.7 147.297 220.7ZM153.515 226.05C153.008 226.05 152.551 225.937 152.145 225.71C151.745 225.477 151.428 225.16 151.195 224.76C150.961 224.353 150.845 223.89 150.845 223.37C150.845 222.843 150.961 222.38 151.195 221.98C151.428 221.58 151.745 221.267 152.145 221.04C152.545 220.813 153.001 220.7 153.515 220.7C154.035 220.7 154.495 220.813 154.895 221.04C155.301 221.267 155.618 221.58 155.845 221.98C156.078 222.38 156.195 222.843 156.195 223.37C156.195 223.89 156.078 224.353 155.845 224.76C155.618 225.16 155.301 225.477 154.895 225.71C154.488 225.937 154.028 226.05 153.515 226.05ZM153.515 225.42C153.895 225.42 154.231 225.337 154.525 225.17C154.818 224.997 155.048 224.757 155.215 224.45C155.388 224.137 155.475 223.777 155.475 223.37C155.475 222.957 155.388 222.597 155.215 222.29C155.048 221.983 154.818 221.747 154.525 221.58C154.231 221.407 153.898 221.32 153.525 221.32C153.151 221.32 152.818 221.407 152.525 221.58C152.231 221.747 151.998 221.983 151.825 222.29C151.651 222.597 151.565 222.957 151.565 223.37C151.565 223.777 151.651 224.137 151.825 224.45C151.998 224.757 152.231 224.997 152.525 225.17C152.818 225.337 153.148 225.42 153.515 225.42ZM158.568 226L156.588 220.75H157.268L159.068 225.62H158.758L160.608 220.75H161.218L163.048 225.62H162.738L164.568 220.75H165.218L163.228 226H162.558L160.798 221.42H161.008L159.238 226H158.568Z" fill="#210B03" fill-opacity="0.7"/>
<defs>
<clipPath id="clip0_421_9598">
<rect width="54.0809" height="76.3326" fill="white" transform="translate(21.3945 55.0859) rotate(16.277)"/>
</clipPath>
<clipPath id="clip1_421_9598">
<rect width="74.2808" height="58.7836" fill="white" transform="translate(127.176 115.217)"/>
</clipPath>
</defs>
</svg>
