<svg width="39" height="32" viewBox="0 0 39 32" fill="none" xmlns="http://www.w3.org/2000/svg">
<path d="M6.64078 10.3961C6.85084 9.81252 7.74909 9.44211 9.05686 9.42516C9.59086 9.41846 10.2299 9.46693 10.9846 9.60879C14.0029 10.1762 33.1193 14.289 34.0137 14.5723C34.9081 14.8557 36.8153 15.2899 37.3104 17.2354C37.8051 19.1809 38.6439 30.817 34.0798 31.2422C31.9159 31.4439 14.1645 28.2682 7.65998 25.7061C6.35716 25.1926 5.43239 24.4888 5.18413 23.8252C4.60628 22.2785 3.81978 18.2292 6.64078 10.3961Z" fill="#5D6716"/>
<path d="M5.06088 8.83709C5.19208 8.22551 6.03197 7.71244 7.32347 7.48271C7.85075 7.38892 8.48943 7.33297 9.25436 7.35031C12.3148 7.41966 31.7654 8.3717 32.6874 8.50608C33.6093 8.64045 35.5533 8.75906 36.298 10.6029C37.0432 12.4467 39.4005 23.8207 34.9415 24.9856C32.8274 25.5377 14.85 25.2906 8.07921 23.816C6.72299 23.5209 5.71547 22.9751 5.38304 22.3588C4.60821 20.9228 3.29868 17.0453 5.06088 8.83669V8.83709Z" fill="#F2973E"/>
<path d="M3.77409 9.97287C3.74933 9.34435 4.43045 8.59445 5.6155 7.97775C6.09928 7.72595 6.69941 7.47651 7.43923 7.25899C10.3989 6.38812 29.3353 1.34576 30.2548 1.19247C31.1742 1.03918 33.0726 0.558034 34.2438 2.10274C35.4151 3.64745 40.4874 13.861 36.4877 16.3468C34.5915 17.5254 17.2454 22.7939 10.3716 23.45C8.9949 23.5817 7.89154 23.3653 7.42013 22.8751C6.32102 21.732 4.1051 18.4049 3.77444 9.97287H3.77409Z" fill="#FFFEFC" stroke="#210B03" stroke-width="1.65462" stroke-miterlimit="10"/>
<path d="M9.83807 15.8297C13.7479 14.6464 17.6613 13.4772 21.5779 12.3218C22.6898 11.994 23.8016 11.6673 24.9138 11.3414C25.1631 11.2685 25.3148 10.9615 25.2473 10.6869C25.178 10.4063 24.9103 10.242 24.6599 10.3153C20.737 11.464 16.8172 12.6264 12.901 13.8031C11.7951 14.1353 10.6896 14.4687 9.58416 14.8032C9.33519 14.8785 9.18242 15.1811 9.25067 15.4577C9.31928 15.7363 9.5884 15.905 9.83807 15.8293V15.8297Z" fill="#210B03"/>
<path d="M10.7763 19.809C13.2437 18.8645 15.7411 18.0196 18.2629 17.276C18.5122 17.2023 18.6643 16.8965 18.5964 16.6215C18.5285 16.3464 18.2594 16.1762 18.009 16.2499C15.4872 16.9935 12.9894 17.8383 10.5224 18.7829C10.2787 18.8763 10.1175 19.1478 10.1889 19.4374C10.254 19.7018 10.5312 19.9028 10.7763 19.809Z" fill="#210B03"/>
<path d="M8.90078 12.5029C11.4191 11.5714 13.9589 10.7119 16.5172 9.9258C17.2538 9.69922 17.9918 9.47933 18.7313 9.26457C18.981 9.19206 19.1323 8.8843 19.0648 8.61004C18.9973 8.33578 18.7278 8.16594 18.4774 8.23844C15.9047 8.98479 13.3485 9.80285 10.8133 10.695C10.0894 10.9496 9.36759 11.2104 8.64722 11.4768C8.4025 11.5674 8.24301 11.8441 8.31374 12.1313C8.37952 12.3977 8.65536 12.594 8.90114 12.5029H8.90078Z" fill="#210B03"/>
<path d="M4.54805 14.1494C3.4744 14.0977 2.44601 14.5044 1.92686 15.4911C1.40736 16.4782 1.39675 17.9473 1.94207 18.9171C2.49728 19.9042 3.01608 20.4594 4.55583 20.4535C5.03891 20.4515 5.48131 20.2494 5.85193 19.9042C6.07083 19.7005 6.41033 19.0916 6.51571 18.7961C6.81843 17.9457 7.11478 16.6063 6.7813 15.7705C6.44322 14.9233 5.737 14.4193 4.54805 14.1498" fill="#5D6716"/>
<path d="M4.41058 15.4981C3.79665 15.4685 3.20855 15.701 2.91149 16.2657C2.61443 16.83 2.60842 17.6705 2.91998 18.225C3.23755 18.7897 3.53425 19.1073 4.41482 19.1037C4.69101 19.1025 4.94422 18.9867 5.15605 18.7897C5.28124 18.673 5.47539 18.3251 5.53551 18.156C5.70879 17.6697 5.87819 16.9037 5.68722 16.4257C5.49378 15.941 5.08992 15.653 4.40987 15.4985" fill="#FFFEFC"/>
<path d="M4.4129 15.1435C3.55355 15.1132 2.74796 15.5608 2.47176 16.5109C2.22704 17.3526 2.43958 18.2798 2.98879 18.9095C3.49273 19.4872 4.43978 19.637 5.07704 19.2744C5.77266 18.8792 6.06547 17.8302 6.09129 17.0177C6.10614 16.5503 5.96857 16.1058 5.66833 15.774C5.36809 15.4422 4.92109 15.2562 4.49742 15.1565C4.09781 15.0628 3.927 15.746 4.32803 15.8406C4.79413 15.9502 5.38082 16.1712 5.44907 16.7793C5.48656 17.1134 5.41017 17.4634 5.3207 17.7798C5.24891 18.0332 5.14777 18.3047 4.97024 18.5001C4.73366 18.761 4.39876 18.774 4.08755 18.7334C3.88173 18.7066 3.66601 18.625 3.54047 18.5143C3.155 18.1738 2.95307 17.578 3.01814 17.0157C3.05775 16.6744 3.19107 16.3344 3.44463 16.1263C3.7233 15.8982 4.07553 15.8414 4.41255 15.8532C4.82242 15.8678 4.82171 15.1585 4.41255 15.1439L4.4129 15.1435Z" fill="#210B03"/>
<path d="M4.00533 17.0634C3.20716 16.9743 2.33013 16.8025 1.54151 17.0425C1.11431 17.1725 0.74935 17.4409 0.493314 17.8452C0.25991 18.214 0.135075 18.6897 0.0632854 19.1298C-0.0845368 20.0338 -0.00319917 21.0406 0.629112 21.7062C1.25223 22.3623 2.16781 22.5491 2.99038 22.6393C4.01771 22.752 5.07616 22.6027 6.04938 22.2216C6.29268 22.1262 6.45465 21.8579 6.38286 21.5671C6.31814 21.3042 6.03983 21.0997 5.79546 21.1955C5.06696 21.4804 4.31158 21.6246 3.53923 21.61C3.17109 21.6029 2.80613 21.5631 2.44506 21.4816C2.13138 21.4106 1.81806 21.3153 1.57298 21.1636C1.42799 21.0741 1.37282 21.0327 1.26602 20.9122C1.20272 20.8404 1.19954 20.8393 1.15639 20.7656C1.13234 20.7246 1.10971 20.6824 1.08885 20.6391C1.08283 20.6265 1.02837 20.4897 1.05065 20.5532C0.933597 20.2194 0.93289 19.9506 0.961889 19.5739C0.969315 19.4766 1.0022 19.2938 1.0358 19.1436C1.0694 18.9935 1.13199 18.7602 1.1769 18.651C1.30457 18.3417 1.47043 18.1809 1.71797 18.0923C2.04721 17.9748 2.35877 17.9851 2.73611 18.006C3.16013 18.0296 3.58237 18.0785 4.00462 18.1258C4.26172 18.1545 4.48204 17.8606 4.48204 17.5938C4.48204 17.2825 4.26243 17.0906 4.00462 17.0618L4.00533 17.0634Z" fill="#210B03"/>
</svg>
