<svg width="161" height="142" viewBox="0 0 161 142" fill="none" xmlns="http://www.w3.org/2000/svg">
<g filter="url(#filter0_d_381_8989)">
<path d="M63.7548 17.7773C52.6438 22.1078 48.4398 29.7429 51.0691 36.207C52.1781 38.9336 51.0133 43.7295 48.3261 44.9308C36.2468 50.3309 33.9449 63.3446 40.7304 69.0734C47.0414 74.4016 72.8137 62.1249 74.666 73.5952C77.5916 91.7124 104.466 92.533 118.84 77.6049C132.307 63.6185 123.625 54.7648 118.581 45.4537C111.912 33.1435 123.373 37.7368 122.705 20.7383C122.037 3.73982 96.7539 -6.04977 86.9491 10.9423C83.7193 16.5397 76.8017 12.6922 63.7548 17.7773Z" fill="#FFFEFC"/>
<path d="M84.2548 31.4858C84.2548 31.4858 78.5725 22.5863 75.9319 26.0779C75.1476 27.1152 74.5867 27.8698 74.1027 28.23C73.718 28.5164 73.6022 29.0452 73.8384 29.4627C74.2045 30.1099 75.1331 30.221 76.1415 30.1115C77.799 29.9316 80.717 30.502 81.3876 31.0092C82.0581 31.5163 83.1488 32.2161 83.667 32.1687C84.1852 32.1213 84.2548 31.4858 84.2548 31.4858Z" fill="#A4AE4D"/>
<path d="M84.2578 31.4863L82.3399 23.7738C82.2937 23.5882 82.4391 23.4103 82.6299 23.4191C83.2012 23.4453 84.3058 23.5535 85.1706 23.9874C86.3918 24.6 85.5314 24.455 86.114 25.2444C86.6966 26.0338 86.8382 26.3986 86.7468 26.9559C86.6888 27.3098 85.9519 29.7821 85.3062 30.9973C84.9783 31.6144 84.2578 31.4866 84.2578 31.4866L84.2578 31.4863Z" fill="#5D6716"/>
<path d="M89.7355 30.5875C82.9835 30.3268 76.5161 32.3869 73.2488 37.3919C69.9819 42.3965 69.9144 49.8471 73.3437 54.7635C76.835 59.7694 80.0988 62.5848 89.7834 62.5551C92.8219 62.5458 97.3391 61.4689 99.6711 59.7188C101.049 58.685 103.745 55.8997 104.407 54.4007C106.312 50.0884 105.878 43.0463 103.781 38.8067C101.655 34.5109 97.2123 31.9545 89.7351 30.5875" fill="#F2973E"/>
<path d="M83.9624 45.8927C84.4614 45.8927 84.9391 45.454 84.9162 44.9389C84.8929 44.4222 84.497 43.9851 83.9624 43.9851C83.4635 43.9851 82.9857 44.4239 83.0086 44.9389C83.0315 45.454 83.4279 45.8927 83.9624 45.8927Z" fill="#A45314"/>
<path d="M93.4273 45.5082C93.9262 45.5082 94.404 45.0695 94.3811 44.5544C94.3578 44.0376 93.9618 43.6006 93.4273 43.6006C92.9283 43.6006 92.4506 44.0393 92.4734 44.5544C92.4968 45.0712 92.8927 45.5082 93.4273 45.5082Z" fill="#A45314"/>
<path d="M91.5988 48.973C91.2338 47.9657 90.1662 47.4311 89.1338 47.4397C88.5822 47.4443 88.045 47.6316 87.6376 48.0066C87.2712 48.3436 87.0384 48.8486 86.9654 49.3364C86.9197 49.6416 87.0627 49.9509 87.3828 50.0302C87.661 50.0991 88.0305 49.9202 88.0766 49.6129C88.1231 49.3038 88.2128 49.0573 88.4012 48.8605C88.5764 48.6771 88.8671 48.5871 89.1635 48.5843C89.3402 48.5824 89.4547 48.5995 89.6331 48.6455C89.8116 48.6914 89.8655 48.7134 90.0169 48.7961C90.1682 48.8788 90.2047 48.9118 90.3407 49.042C90.3865 49.0938 90.3948 49.1021 90.3663 49.0668C90.3905 49.0988 90.4134 49.1322 90.435 49.1664C90.4562 49.2006 90.4762 49.2357 90.4945 49.2717C90.4752 49.229 90.478 49.2404 90.5038 49.3054C90.6091 49.5958 90.9105 49.7803 91.2178 49.6874C91.5018 49.6013 91.7054 49.2655 91.5997 48.9734L91.5988 48.973Z" fill="#A45314"/>
<path d="M73.567 45.0431C72.5208 42.1637 75.5026 38.3641 78.3272 37.1547C83.4468 34.9627 76.2475 39.5384 75.3276 42.9488C74.4626 46.1561 74.2772 46.9977 73.567 45.0431Z" fill="#FFFBF5"/>
</g>
<path d="M24.5504 118V108.2H26.0484L32.1944 115.746H31.4524V108.2H33.2584V118H31.7604L25.6144 110.454H26.3564V118H24.5504ZM39.0764 118.098C38.311 118.098 37.6297 117.935 37.0324 117.608C36.435 117.272 35.9637 116.815 35.6184 116.236C35.273 115.657 35.1004 114.999 35.1004 114.262C35.1004 113.515 35.273 112.857 35.6184 112.288C35.9637 111.709 36.435 111.257 37.0324 110.93C37.6297 110.603 38.311 110.44 39.0764 110.44C39.851 110.44 40.537 110.603 41.1344 110.93C41.741 111.257 42.2124 111.705 42.5484 112.274C42.8937 112.843 43.0664 113.506 43.0664 114.262C43.0664 114.999 42.8937 115.657 42.5484 116.236C42.2124 116.815 41.741 117.272 41.1344 117.608C40.537 117.935 39.851 118.098 39.0764 118.098ZM39.0764 116.6C39.5057 116.6 39.8884 116.507 40.2244 116.32C40.5604 116.133 40.8217 115.863 41.0084 115.508C41.2044 115.153 41.3024 114.738 41.3024 114.262C41.3024 113.777 41.2044 113.361 41.0084 113.016C40.8217 112.661 40.5604 112.391 40.2244 112.204C39.8884 112.017 39.5104 111.924 39.0904 111.924C38.661 111.924 38.2784 112.017 37.9424 112.204C37.6157 112.391 37.3544 112.661 37.1584 113.016C36.9624 113.361 36.8644 113.777 36.8644 114.262C36.8644 114.738 36.9624 115.153 37.1584 115.508C37.3544 115.863 37.6157 116.133 37.9424 116.32C38.2784 116.507 38.6564 116.6 39.0764 116.6ZM51.4229 118.098C50.6016 118.098 49.9669 117.888 49.5189 117.468C49.0709 117.039 48.8469 116.409 48.8469 115.578V108.872H50.5969V115.536C50.5969 115.891 50.6856 116.166 50.8629 116.362C51.0496 116.558 51.3063 116.656 51.6329 116.656C52.0249 116.656 52.3516 116.553 52.6129 116.348L53.1029 117.594C52.8976 117.762 52.6456 117.888 52.3469 117.972C52.0483 118.056 51.7403 118.098 51.4229 118.098ZM47.6149 111.98V110.58H52.5989V111.98H47.6149ZM59.1485 118V116.488L59.0505 116.166V113.52C59.0505 113.007 58.8965 112.61 58.5885 112.33C58.2805 112.041 57.8139 111.896 57.1885 111.896C56.7685 111.896 56.3532 111.961 55.9425 112.092C55.5412 112.223 55.2005 112.405 54.9205 112.638L54.2345 111.364C54.6359 111.056 55.1119 110.827 55.6625 110.678C56.2225 110.519 56.8012 110.44 57.3985 110.44C58.4812 110.44 59.3165 110.701 59.9045 111.224C60.5019 111.737 60.8005 112.535 60.8005 113.618V118H59.1485ZM56.7965 118.098C56.2365 118.098 55.7465 118.005 55.3265 117.818C54.9065 117.622 54.5799 117.356 54.3465 117.02C54.1225 116.675 54.0105 116.287 54.0105 115.858C54.0105 115.438 54.1085 115.06 54.3045 114.724C54.5099 114.388 54.8412 114.122 55.2985 113.926C55.7559 113.73 56.3625 113.632 57.1185 113.632H59.2885V114.794H57.2445C56.6472 114.794 56.2459 114.892 56.0405 115.088C55.8352 115.275 55.7325 115.508 55.7325 115.788C55.7325 116.105 55.8585 116.357 56.1105 116.544C56.3625 116.731 56.7125 116.824 57.1605 116.824C57.5899 116.824 57.9725 116.726 58.3085 116.53C58.6539 116.334 58.9012 116.045 59.0505 115.662L59.3445 116.712C59.1765 117.151 58.8732 117.491 58.4345 117.734C58.0052 117.977 57.4592 118.098 56.7965 118.098ZM65.3564 118.098C64.7311 118.098 64.1291 118.019 63.5504 117.86C62.9811 117.692 62.5284 117.491 62.1924 117.258L62.8644 115.928C63.2004 116.143 63.6018 116.32 64.0684 116.46C64.5351 116.6 65.0018 116.67 65.4684 116.67C66.0191 116.67 66.4158 116.595 66.6584 116.446C66.9104 116.297 67.0364 116.096 67.0364 115.844C67.0364 115.639 66.9524 115.485 66.7844 115.382C66.6164 115.27 66.3971 115.186 66.1264 115.13C65.8558 115.074 65.5524 115.023 65.2164 114.976C64.8898 114.929 64.5584 114.869 64.2224 114.794C63.8958 114.71 63.5971 114.593 63.3264 114.444C63.0558 114.285 62.8364 114.075 62.6684 113.814C62.5004 113.553 62.4164 113.207 62.4164 112.778C62.4164 112.302 62.5518 111.891 62.8224 111.546C63.0931 111.191 63.4711 110.921 63.9564 110.734C64.4511 110.538 65.0344 110.44 65.7064 110.44C66.2104 110.44 66.7191 110.496 67.2324 110.608C67.7458 110.72 68.1704 110.879 68.5064 111.084L67.8344 112.414C67.4798 112.199 67.1204 112.055 66.7564 111.98C66.4018 111.896 66.0471 111.854 65.6924 111.854C65.1604 111.854 64.7638 111.933 64.5024 112.092C64.2504 112.251 64.1244 112.451 64.1244 112.694C64.1244 112.918 64.2084 113.086 64.3764 113.198C64.5444 113.31 64.7638 113.399 65.0344 113.464C65.3051 113.529 65.6038 113.585 65.9304 113.632C66.2664 113.669 66.5978 113.73 66.9244 113.814C67.2511 113.898 67.5498 114.015 67.8204 114.164C68.1004 114.304 68.3244 114.505 68.4924 114.766C68.6604 115.027 68.7444 115.368 68.7444 115.788C68.7444 116.255 68.6044 116.661 68.3244 117.006C68.0538 117.351 67.6664 117.622 67.1624 117.818C66.6584 118.005 66.0564 118.098 65.3564 118.098ZM71.6795 116.334L71.7215 114.136L75.6275 110.524H77.7275L74.4095 113.856L73.4855 114.626L71.6795 116.334ZM70.2515 118V107.612H72.0015V118H70.2515ZM75.8935 118L73.1635 114.626L74.2695 113.226L78.0215 118H75.8935ZM86.451 118.098C85.667 118.098 84.967 117.935 84.351 117.608C83.7444 117.272 83.2684 116.815 82.923 116.236C82.5777 115.657 82.405 114.999 82.405 114.262C82.405 113.515 82.5777 112.857 82.923 112.288C83.2684 111.709 83.7444 111.257 84.351 110.93C84.967 110.603 85.667 110.44 86.451 110.44C87.179 110.44 87.8184 110.589 88.369 110.888C88.929 111.177 89.3537 111.607 89.643 112.176L88.299 112.96C88.075 112.605 87.7997 112.344 87.473 112.176C87.1557 112.008 86.8104 111.924 86.437 111.924C86.0077 111.924 85.6204 112.017 85.275 112.204C84.9297 112.391 84.659 112.661 84.463 113.016C84.267 113.361 84.169 113.777 84.169 114.262C84.169 114.747 84.267 115.167 84.463 115.522C84.659 115.867 84.9297 116.133 85.275 116.32C85.6204 116.507 86.0077 116.6 86.437 116.6C86.8104 116.6 87.1557 116.516 87.473 116.348C87.7997 116.18 88.075 115.919 88.299 115.564L89.643 116.348C89.3537 116.908 88.929 117.342 88.369 117.65C87.8184 117.949 87.179 118.098 86.451 118.098ZM91.1558 118V110.524H92.8218V112.582L92.6258 111.98C92.8498 111.476 93.1998 111.093 93.6758 110.832C94.1611 110.571 94.7631 110.44 95.4818 110.44V112.106C95.4071 112.087 95.3371 112.078 95.2718 112.078C95.2065 112.069 95.1411 112.064 95.0758 112.064C94.4131 112.064 93.8858 112.26 93.4938 112.652C93.1018 113.035 92.9058 113.609 92.9058 114.374V118H91.1558ZM100.412 118.098C99.5813 118.098 98.8533 117.935 98.228 117.608C97.612 117.272 97.1313 116.815 96.786 116.236C96.45 115.657 96.282 114.999 96.282 114.262C96.282 113.515 96.4453 112.857 96.772 112.288C97.108 111.709 97.5653 111.257 98.144 110.93C98.732 110.603 99.3993 110.44 100.146 110.44C100.874 110.44 101.523 110.599 102.092 110.916C102.661 111.233 103.109 111.681 103.436 112.26C103.763 112.839 103.926 113.52 103.926 114.304C103.926 114.379 103.921 114.463 103.912 114.556C103.912 114.649 103.907 114.738 103.898 114.822H97.668V113.66H102.974L102.288 114.024C102.297 113.595 102.209 113.217 102.022 112.89C101.835 112.563 101.579 112.307 101.252 112.12C100.935 111.933 100.566 111.84 100.146 111.84C99.7167 111.84 99.3387 111.933 99.012 112.12C98.6947 112.307 98.4427 112.568 98.256 112.904C98.0787 113.231 97.99 113.618 97.99 114.066V114.346C97.99 114.794 98.0927 115.191 98.298 115.536C98.5033 115.881 98.7927 116.147 99.166 116.334C99.5393 116.521 99.9687 116.614 100.454 116.614C100.874 116.614 101.252 116.549 101.588 116.418C101.924 116.287 102.223 116.082 102.484 115.802L103.422 116.88C103.086 117.272 102.661 117.575 102.148 117.79C101.644 117.995 101.065 118.098 100.412 118.098ZM110.008 118V116.488L109.91 116.166V113.52C109.91 113.007 109.756 112.61 109.448 112.33C109.14 112.041 108.673 111.896 108.048 111.896C107.628 111.896 107.213 111.961 106.802 112.092C106.401 112.223 106.06 112.405 105.78 112.638L105.094 111.364C105.495 111.056 105.971 110.827 106.522 110.678C107.082 110.519 107.661 110.44 108.258 110.44C109.341 110.44 110.176 110.701 110.764 111.224C111.361 111.737 111.66 112.535 111.66 113.618V118H110.008ZM107.656 118.098C107.096 118.098 106.606 118.005 106.186 117.818C105.766 117.622 105.439 117.356 105.206 117.02C104.982 116.675 104.87 116.287 104.87 115.858C104.87 115.438 104.968 115.06 105.164 114.724C105.369 114.388 105.701 114.122 106.158 113.926C106.615 113.73 107.222 113.632 107.978 113.632H110.148V114.794H108.104C107.507 114.794 107.105 114.892 106.9 115.088C106.695 115.275 106.592 115.508 106.592 115.788C106.592 116.105 106.718 116.357 106.97 116.544C107.222 116.731 107.572 116.824 108.02 116.824C108.449 116.824 108.832 116.726 109.168 116.53C109.513 116.334 109.761 116.045 109.91 115.662L110.204 116.712C110.036 117.151 109.733 117.491 109.294 117.734C108.865 117.977 108.319 118.098 107.656 118.098ZM116.72 118.098C115.898 118.098 115.264 117.888 114.816 117.468C114.368 117.039 114.144 116.409 114.144 115.578V108.872H115.894V115.536C115.894 115.891 115.982 116.166 116.16 116.362C116.346 116.558 116.603 116.656 116.93 116.656C117.322 116.656 117.648 116.553 117.91 116.348L118.4 117.594C118.194 117.762 117.942 117.888 117.644 117.972C117.345 118.056 117.037 118.098 116.72 118.098ZM112.912 111.98V110.58H117.896V111.98H112.912ZM123.107 118.098C122.277 118.098 121.549 117.935 120.923 117.608C120.307 117.272 119.827 116.815 119.481 116.236C119.145 115.657 118.977 114.999 118.977 114.262C118.977 113.515 119.141 112.857 119.467 112.288C119.803 111.709 120.261 111.257 120.839 110.93C121.427 110.603 122.095 110.44 122.841 110.44C123.569 110.44 124.218 110.599 124.787 110.916C125.357 111.233 125.805 111.681 126.131 112.26C126.458 112.839 126.621 113.52 126.621 114.304C126.621 114.379 126.617 114.463 126.607 114.556C126.607 114.649 126.603 114.738 126.593 114.822H120.363V113.66H125.669L124.983 114.024C124.993 113.595 124.904 113.217 124.717 112.89C124.531 112.563 124.274 112.307 123.947 112.12C123.63 111.933 123.261 111.84 122.841 111.84C122.412 111.84 122.034 111.933 121.707 112.12C121.39 112.307 121.138 112.568 120.951 112.904C120.774 113.231 120.685 113.618 120.685 114.066V114.346C120.685 114.794 120.788 115.191 120.993 115.536C121.199 115.881 121.488 116.147 121.861 116.334C122.235 116.521 122.664 116.614 123.149 116.614C123.569 116.614 123.947 116.549 124.283 116.418C124.619 116.287 124.918 116.082 125.179 115.802L126.117 116.88C125.781 117.272 125.357 117.575 124.843 117.79C124.339 117.995 123.761 118.098 123.107 118.098ZM131.466 118.098C130.748 118.098 130.099 117.939 129.52 117.622C128.951 117.295 128.503 116.847 128.176 116.278C127.85 115.709 127.686 115.037 127.686 114.262C127.686 113.487 127.85 112.815 128.176 112.246C128.503 111.677 128.951 111.233 129.52 110.916C130.099 110.599 130.748 110.44 131.466 110.44C132.092 110.44 132.652 110.58 133.146 110.86C133.641 111.131 134.033 111.546 134.322 112.106C134.612 112.666 134.756 113.385 134.756 114.262C134.756 115.13 134.616 115.849 134.336 116.418C134.056 116.978 133.669 117.398 133.174 117.678C132.68 117.958 132.11 118.098 131.466 118.098ZM131.676 116.6C132.096 116.6 132.47 116.507 132.796 116.32C133.132 116.133 133.398 115.863 133.594 115.508C133.8 115.153 133.902 114.738 133.902 114.262C133.902 113.777 133.8 113.361 133.594 113.016C133.398 112.661 133.132 112.391 132.796 112.204C132.47 112.017 132.096 111.924 131.676 111.924C131.256 111.924 130.878 112.017 130.542 112.204C130.216 112.391 129.95 112.661 129.744 113.016C129.548 113.361 129.45 113.777 129.45 114.262C129.45 114.738 129.548 115.153 129.744 115.508C129.95 115.863 130.216 116.133 130.542 116.32C130.878 116.507 131.256 116.6 131.676 116.6ZM133.944 118V116.236L134.014 114.248L133.874 112.26V107.612H135.61V118H133.944Z" fill="#210B03"/>
<path d="M4.6807 138.06C4.14737 138.06 3.65404 137.973 3.2007 137.8C2.75404 137.62 2.36404 137.37 2.0307 137.05C1.70404 136.73 1.44737 136.353 1.2607 135.92C1.0807 135.487 0.990703 135.013 0.990703 134.5C0.990703 133.987 1.0807 133.513 1.2607 133.08C1.44737 132.647 1.70737 132.27 2.0407 131.95C2.37404 131.63 2.76404 131.383 3.2107 131.21C3.66404 131.03 4.15737 130.94 4.6907 130.94C5.22404 130.94 5.7107 131.023 6.1507 131.19C6.59737 131.357 6.97737 131.61 7.2907 131.95L6.8307 132.42C6.53737 132.127 6.21404 131.917 5.8607 131.79C5.50737 131.663 5.12737 131.6 4.7207 131.6C4.28737 131.6 3.88737 131.673 3.5207 131.82C3.1607 131.96 2.84404 132.163 2.5707 132.43C2.30404 132.69 2.09404 132.997 1.9407 133.35C1.79404 133.697 1.7207 134.08 1.7207 134.5C1.7207 134.913 1.79404 135.297 1.9407 135.65C2.09404 136.003 2.30404 136.313 2.5707 136.58C2.84404 136.84 3.1607 137.043 3.5207 137.19C3.88737 137.33 4.28404 137.4 4.7107 137.4C5.1107 137.4 5.48737 137.34 5.8407 137.22C6.2007 137.1 6.5307 136.897 6.8307 136.61L7.2507 137.17C6.91737 137.463 6.52737 137.687 6.0807 137.84C5.63404 137.987 5.16737 138.06 4.6807 138.06ZM6.5407 137.08V134.5H7.2507V137.17L6.5407 137.08ZM11.4251 138.05C10.8784 138.05 10.3984 137.937 9.98508 137.71C9.57174 137.477 9.24841 137.16 9.01508 136.76C8.78174 136.353 8.66508 135.89 8.66508 135.37C8.66508 134.85 8.77508 134.39 8.99508 133.99C9.22174 133.59 9.52841 133.277 9.91508 133.05C10.3084 132.817 10.7484 132.7 11.2351 132.7C11.7284 132.7 12.1651 132.813 12.5451 133.04C12.9317 133.26 13.2351 133.573 13.4551 133.98C13.6751 134.38 13.7851 134.843 13.7851 135.37C13.7851 135.403 13.7817 135.44 13.7751 135.48C13.7751 135.513 13.7751 135.55 13.7751 135.59H9.20508V135.06H13.3951L13.1151 135.27C13.1151 134.89 13.0317 134.553 12.8651 134.26C12.7051 133.96 12.4851 133.727 12.2051 133.56C11.9251 133.393 11.6017 133.31 11.2351 133.31C10.8751 133.31 10.5517 133.393 10.2651 133.56C9.97841 133.727 9.75508 133.96 9.59508 134.26C9.43508 134.56 9.35508 134.903 9.35508 135.29V135.4C9.35508 135.8 9.44174 136.153 9.61508 136.46C9.79508 136.76 10.0417 136.997 10.3551 137.17C10.6751 137.337 11.0384 137.42 11.4451 137.42C11.7651 137.42 12.0617 137.363 12.3351 137.25C12.6151 137.137 12.8551 136.963 13.0551 136.73L13.4551 137.19C13.2217 137.47 12.9284 137.683 12.5751 137.83C12.2284 137.977 11.8451 138.05 11.4251 138.05ZM16.8902 138.05C16.3969 138.05 16.0169 137.917 15.7502 137.65C15.4836 137.383 15.3502 137.007 15.3502 136.52V131.59H16.0602V136.48C16.0602 136.787 16.1369 137.023 16.2902 137.19C16.4502 137.357 16.6769 137.44 16.9702 137.44C17.2836 137.44 17.5436 137.35 17.7502 137.17L18.0002 137.68C17.8602 137.807 17.6902 137.9 17.4902 137.96C17.2969 138.02 17.0969 138.05 16.8902 138.05ZM14.4102 133.34V132.75H17.6602V133.34H14.4102ZM23.3199 138.05C22.8866 138.05 22.4766 137.99 22.0899 137.87C21.7033 137.743 21.3999 137.587 21.1799 137.4L21.4999 136.84C21.7133 137 21.9866 137.14 22.3199 137.26C22.6533 137.373 23.0033 137.43 23.3699 137.43C23.8699 137.43 24.2299 137.353 24.4499 137.2C24.6699 137.04 24.7799 136.83 24.7799 136.57C24.7799 136.377 24.7166 136.227 24.5899 136.12C24.4699 136.007 24.3099 135.923 24.1099 135.87C23.9099 135.81 23.6866 135.76 23.4399 135.72C23.1933 135.68 22.9466 135.633 22.6999 135.58C22.4599 135.527 22.2399 135.45 22.0399 135.35C21.8399 135.243 21.6766 135.1 21.5499 134.92C21.4299 134.74 21.3699 134.5 21.3699 134.2C21.3699 133.913 21.4499 133.657 21.6099 133.43C21.7699 133.203 22.0033 133.027 22.3099 132.9C22.6233 132.767 23.0033 132.7 23.4499 132.7C23.7899 132.7 24.1299 132.747 24.4699 132.84C24.8099 132.927 25.0899 133.043 25.3099 133.19L24.9999 133.76C24.7666 133.6 24.5166 133.487 24.2499 133.42C23.9833 133.347 23.7166 133.31 23.4499 133.31C22.9766 133.31 22.6266 133.393 22.3999 133.56C22.1799 133.72 22.0699 133.927 22.0699 134.18C22.0699 134.38 22.1299 134.537 22.2499 134.65C22.3766 134.763 22.5399 134.853 22.7399 134.92C22.9466 134.98 23.1699 135.03 23.4099 135.07C23.6566 135.11 23.8999 135.16 24.1399 135.22C24.3866 135.273 24.6099 135.35 24.8099 135.45C25.0166 135.543 25.1799 135.68 25.2999 135.86C25.4266 136.033 25.4899 136.263 25.4899 136.55C25.4899 136.857 25.4033 137.123 25.2299 137.35C25.0633 137.57 24.8166 137.743 24.4899 137.87C24.1699 137.99 23.7799 138.05 23.3199 138.05ZM28.4527 138.05C27.9594 138.05 27.5794 137.917 27.3127 137.65C27.0461 137.383 26.9127 137.007 26.9127 136.52V131.59H27.6227V136.48C27.6227 136.787 27.6994 137.023 27.8527 137.19C28.0127 137.357 28.2394 137.44 28.5327 137.44C28.8461 137.44 29.1061 137.35 29.3127 137.17L29.5627 137.68C29.4227 137.807 29.2527 137.9 29.0527 137.96C28.8594 138.02 28.6594 138.05 28.4527 138.05ZM25.9727 133.34V132.75H29.2227V133.34H25.9727ZM34.1452 138V136.84L34.1152 136.65V134.71C34.1152 134.263 33.9886 133.92 33.7352 133.68C33.4886 133.44 33.1186 133.32 32.6252 133.32C32.2852 133.32 31.9619 133.377 31.6552 133.49C31.3486 133.603 31.0886 133.753 30.8752 133.94L30.5552 133.41C30.8219 133.183 31.1419 133.01 31.5152 132.89C31.8886 132.763 32.2819 132.7 32.6952 132.7C33.3752 132.7 33.8986 132.87 34.2652 133.21C34.6386 133.543 34.8252 134.053 34.8252 134.74V138H34.1452ZM32.3352 138.05C31.9419 138.05 31.5986 137.987 31.3052 137.86C31.0186 137.727 30.7986 137.547 30.6452 137.32C30.4919 137.087 30.4152 136.82 30.4152 136.52C30.4152 136.247 30.4786 136 30.6052 135.78C30.7386 135.553 30.9519 135.373 31.2452 135.24C31.5452 135.1 31.9452 135.03 32.4452 135.03H34.2552V135.56H32.4652C31.9586 135.56 31.6052 135.65 31.4052 135.83C31.2119 136.01 31.1152 136.233 31.1152 136.5C31.1152 136.8 31.2319 137.04 31.4652 137.22C31.6986 137.4 32.0252 137.49 32.4452 137.49C32.8452 137.49 33.1886 137.4 33.4752 137.22C33.7686 137.033 33.9819 136.767 34.1152 136.42L34.2752 136.91C34.1419 137.257 33.9086 137.533 33.5752 137.74C33.2486 137.947 32.8352 138.05 32.3352 138.05ZM36.7537 138V132.75H37.4337V134.18L37.3637 133.93C37.5103 133.53 37.757 133.227 38.1037 133.02C38.4503 132.807 38.8803 132.7 39.3937 132.7V133.39C39.367 133.39 39.3403 133.39 39.3137 133.39C39.287 133.383 39.2603 133.38 39.2337 133.38C38.6803 133.38 38.247 133.55 37.9337 133.89C37.6203 134.223 37.4637 134.7 37.4637 135.32V138H36.7537ZM42.5738 138.05C42.0805 138.05 41.7005 137.917 41.4338 137.65C41.1672 137.383 41.0338 137.007 41.0338 136.52V131.59H41.7438V136.48C41.7438 136.787 41.8205 137.023 41.9738 137.19C42.1338 137.357 42.3605 137.44 42.6538 137.44C42.9672 137.44 43.2272 137.35 43.4338 137.17L43.6838 137.68C43.5438 137.807 43.3738 137.9 43.1738 137.96C42.9805 138.02 42.7805 138.05 42.5738 138.05ZM40.0938 133.34V132.75H43.3438V133.34H40.0938ZM47.0208 138.05C46.4741 138.05 45.9941 137.937 45.5808 137.71C45.1674 137.477 44.8441 137.16 44.6108 136.76C44.3774 136.353 44.2608 135.89 44.2608 135.37C44.2608 134.85 44.3708 134.39 44.5908 133.99C44.8174 133.59 45.1241 133.277 45.5108 133.05C45.9041 132.817 46.3441 132.7 46.8308 132.7C47.3241 132.7 47.7608 132.813 48.1408 133.04C48.5274 133.26 48.8308 133.573 49.0508 133.98C49.2708 134.38 49.3808 134.843 49.3808 135.37C49.3808 135.403 49.3774 135.44 49.3708 135.48C49.3708 135.513 49.3708 135.55 49.3708 135.59H44.8008V135.06H48.9908L48.7108 135.27C48.7108 134.89 48.6274 134.553 48.4608 134.26C48.3008 133.96 48.0808 133.727 47.8008 133.56C47.5208 133.393 47.1974 133.31 46.8308 133.31C46.4708 133.31 46.1474 133.393 45.8608 133.56C45.5741 133.727 45.3508 133.96 45.1908 134.26C45.0308 134.56 44.9508 134.903 44.9508 135.29V135.4C44.9508 135.8 45.0374 136.153 45.2108 136.46C45.3908 136.76 45.6374 136.997 45.9508 137.17C46.2708 137.337 46.6341 137.42 47.0408 137.42C47.3608 137.42 47.6574 137.363 47.9308 137.25C48.2108 137.137 48.4508 136.963 48.6508 136.73L49.0508 137.19C48.8174 137.47 48.5241 137.683 48.1708 137.83C47.8241 137.977 47.4408 138.05 47.0208 138.05ZM52.9159 138.05C52.4159 138.05 51.9659 137.937 51.5659 137.71C51.1726 137.483 50.8626 137.17 50.6359 136.77C50.4093 136.363 50.2959 135.897 50.2959 135.37C50.2959 134.837 50.4093 134.37 50.6359 133.97C50.8626 133.57 51.1726 133.26 51.5659 133.04C51.9659 132.813 52.4159 132.7 52.9159 132.7C53.3759 132.7 53.7859 132.803 54.1459 133.01C54.5126 133.217 54.8026 133.52 55.0159 133.92C55.2359 134.313 55.3459 134.797 55.3459 135.37C55.3459 135.937 55.2393 136.42 55.0259 136.82C54.8126 137.22 54.5226 137.527 54.1559 137.74C53.7959 137.947 53.3826 138.05 52.9159 138.05ZM52.9659 137.42C53.3393 137.42 53.6726 137.337 53.9659 137.17C54.2659 136.997 54.4993 136.757 54.6659 136.45C54.8393 136.137 54.9259 135.777 54.9259 135.37C54.9259 134.957 54.8393 134.597 54.6659 134.29C54.4993 133.983 54.2659 133.747 53.9659 133.58C53.6726 133.407 53.3393 133.32 52.9659 133.32C52.5993 133.32 52.2693 133.407 51.9759 133.58C51.6826 133.747 51.4493 133.983 51.2759 134.29C51.1026 134.597 51.0159 134.957 51.0159 135.37C51.0159 135.777 51.1026 136.137 51.2759 136.45C51.4493 136.757 51.6826 136.997 51.9759 137.17C52.2693 137.337 52.5993 137.42 52.9659 137.42ZM54.9459 138V136.42L55.0159 135.36L54.9159 134.3V130.58H55.6259V138H54.9459ZM61.2905 138L59.3105 132.75H59.9905L61.7905 137.62H61.4805L63.3305 132.75H63.9405L65.7705 137.62H65.4605L67.2905 132.75H67.9405L65.9505 138H65.2805L63.5205 133.42H63.7305L61.9605 138H61.2905ZM69.0095 138V132.75H69.7195V138H69.0095ZM69.3695 131.59C69.2229 131.59 69.0995 131.54 68.9995 131.44C68.8995 131.34 68.8495 131.22 68.8495 131.08C68.8495 130.94 68.8995 130.823 68.9995 130.73C69.0995 130.63 69.2229 130.58 69.3695 130.58C69.5162 130.58 69.6395 130.627 69.7395 130.72C69.8395 130.813 69.8895 130.93 69.8895 131.07C69.8895 131.217 69.8395 131.34 69.7395 131.44C69.6462 131.54 69.5229 131.59 69.3695 131.59ZM73.3551 138.05C72.8617 138.05 72.4817 137.917 72.2151 137.65C71.9484 137.383 71.8151 137.007 71.8151 136.52V131.59H72.5251V136.48C72.5251 136.787 72.6017 137.023 72.7551 137.19C72.9151 137.357 73.1417 137.44 73.4351 137.44C73.7484 137.44 74.0084 137.35 74.2151 137.17L74.4651 137.68C74.3251 137.807 74.1551 137.9 73.9551 137.96C73.7617 138.02 73.5617 138.05 73.3551 138.05ZM70.8751 133.34V132.75H74.1251V133.34H70.8751ZM78.4376 132.7C78.8642 132.7 79.2376 132.783 79.5576 132.95C79.8842 133.11 80.1376 133.357 80.3176 133.69C80.5042 134.023 80.5976 134.443 80.5976 134.95V138H79.8876V135.02C79.8876 134.467 79.7476 134.05 79.4676 133.77C79.1942 133.483 78.8076 133.34 78.3076 133.34C77.9342 133.34 77.6076 133.417 77.3276 133.57C77.0542 133.717 76.8409 133.933 76.6876 134.22C76.5409 134.5 76.4676 134.84 76.4676 135.24V138H75.7576V130.58H76.4676V134.19L76.3276 133.92C76.4942 133.54 76.7609 133.243 77.1276 133.03C77.4942 132.81 77.9309 132.7 78.4376 132.7ZM86.7926 138.05C86.2992 138.05 85.9192 137.917 85.6526 137.65C85.3859 137.383 85.2526 137.007 85.2526 136.52V131.59H85.9626V136.48C85.9626 136.787 86.0392 137.023 86.1926 137.19C86.3526 137.357 86.5792 137.44 86.8726 137.44C87.1859 137.44 87.4459 137.35 87.6526 137.17L87.9026 137.68C87.7626 137.807 87.5926 137.9 87.3926 137.96C87.1992 138.02 86.9992 138.05 86.7926 138.05ZM84.3126 133.34V132.75H87.5626V133.34H84.3126ZM91.1495 138.05C90.6429 138.05 90.1862 137.937 89.7795 137.71C89.3795 137.477 89.0629 137.16 88.8295 136.76C88.5962 136.353 88.4795 135.89 88.4795 135.37C88.4795 134.843 88.5962 134.38 88.8295 133.98C89.0629 133.58 89.3795 133.267 89.7795 133.04C90.1795 132.813 90.6362 132.7 91.1495 132.7C91.6695 132.7 92.1295 132.813 92.5295 133.04C92.9362 133.267 93.2529 133.58 93.4795 133.98C93.7129 134.38 93.8295 134.843 93.8295 135.37C93.8295 135.89 93.7129 136.353 93.4795 136.76C93.2529 137.16 92.9362 137.477 92.5295 137.71C92.1229 137.937 91.6629 138.05 91.1495 138.05ZM91.1495 137.42C91.5295 137.42 91.8662 137.337 92.1595 137.17C92.4529 136.997 92.6829 136.757 92.8495 136.45C93.0229 136.137 93.1095 135.777 93.1095 135.37C93.1095 134.957 93.0229 134.597 92.8495 134.29C92.6829 133.983 92.4529 133.747 92.1595 133.58C91.8662 133.407 91.5329 133.32 91.1595 133.32C90.7862 133.32 90.4529 133.407 90.1595 133.58C89.8662 133.747 89.6329 133.983 89.4595 134.29C89.2862 134.597 89.1995 134.957 89.1995 135.37C89.1995 135.777 89.2862 136.137 89.4595 136.45C89.6329 136.757 89.8662 136.997 90.1595 137.17C90.4529 137.337 90.7829 137.42 91.1495 137.42ZM97.3691 138.05C96.8691 138.05 96.4191 137.937 96.0191 137.71C95.6257 137.483 95.3157 137.17 95.0891 136.77C94.8624 136.363 94.7491 135.897 94.7491 135.37C94.7491 134.837 94.8624 134.37 95.0891 133.97C95.3157 133.57 95.6257 133.26 96.0191 133.04C96.4191 132.813 96.8691 132.7 97.3691 132.7C97.8291 132.7 98.2391 132.803 98.5991 133.01C98.9657 133.217 99.2557 133.52 99.4691 133.92C99.6891 134.313 99.7991 134.797 99.7991 135.37C99.7991 135.937 99.6924 136.42 99.4791 136.82C99.2657 137.22 98.9757 137.527 98.6091 137.74C98.2491 137.947 97.8357 138.05 97.3691 138.05ZM97.4191 137.42C97.7924 137.42 98.1257 137.337 98.4191 137.17C98.7191 136.997 98.9524 136.757 99.1191 136.45C99.2924 136.137 99.3791 135.777 99.3791 135.37C99.3791 134.957 99.2924 134.597 99.1191 134.29C98.9524 133.983 98.7191 133.747 98.4191 133.58C98.1257 133.407 97.7924 133.32 97.4191 133.32C97.0524 133.32 96.7224 133.407 96.4291 133.58C96.1357 133.747 95.9024 133.983 95.7291 134.29C95.5557 134.597 95.4691 134.957 95.4691 135.37C95.4691 135.777 95.5557 136.137 95.7291 136.45C95.9024 136.757 96.1357 136.997 96.4291 137.17C96.7224 137.337 97.0524 137.42 97.4191 137.42ZM99.3991 138V136.42L99.4691 135.36L99.3691 134.3V130.58H100.079V138H99.3991ZM105.346 138V136.84L105.316 136.65V134.71C105.316 134.263 105.19 133.92 104.936 133.68C104.69 133.44 104.32 133.32 103.826 133.32C103.486 133.32 103.163 133.377 102.856 133.49C102.55 133.603 102.29 133.753 102.076 133.94L101.756 133.41C102.023 133.183 102.343 133.01 102.716 132.89C103.09 132.763 103.483 132.7 103.896 132.7C104.576 132.7 105.1 132.87 105.466 133.21C105.84 133.543 106.026 134.053 106.026 134.74V138H105.346ZM103.536 138.05C103.143 138.05 102.8 137.987 102.506 137.86C102.22 137.727 102 137.547 101.846 137.32C101.693 137.087 101.616 136.82 101.616 136.52C101.616 136.247 101.68 136 101.806 135.78C101.94 135.553 102.153 135.373 102.446 135.24C102.746 135.1 103.146 135.03 103.646 135.03H105.456V135.56H103.666C103.16 135.56 102.806 135.65 102.606 135.83C102.413 136.01 102.316 136.233 102.316 136.5C102.316 136.8 102.433 137.04 102.666 137.22C102.9 137.4 103.226 137.49 103.646 137.49C104.046 137.49 104.39 137.4 104.676 137.22C104.97 137.033 105.183 136.767 105.316 136.42L105.476 136.91C105.343 137.257 105.11 137.533 104.776 137.74C104.45 137.947 104.036 138.05 103.536 138.05ZM107.897 139.99C107.651 139.99 107.414 139.95 107.187 139.87C106.967 139.79 106.777 139.67 106.617 139.51L106.947 138.98C107.081 139.107 107.224 139.203 107.377 139.27C107.537 139.343 107.714 139.38 107.907 139.38C108.141 139.38 108.341 139.313 108.507 139.18C108.681 139.053 108.844 138.827 108.997 138.5L109.337 137.73L109.417 137.62L111.577 132.75H112.277L109.647 138.63C109.501 138.97 109.337 139.24 109.157 139.44C108.984 139.64 108.794 139.78 108.587 139.86C108.381 139.947 108.151 139.99 107.897 139.99ZM109.297 138.15L106.877 132.75H107.617L109.757 137.57L109.297 138.15ZM113.023 133.02L113.463 131.18L113.543 131.6C113.39 131.6 113.26 131.553 113.153 131.46C113.053 131.36 113.003 131.23 113.003 131.07C113.003 130.91 113.053 130.78 113.153 130.68C113.26 130.58 113.386 130.53 113.533 130.53C113.686 130.53 113.81 130.583 113.903 130.69C114.003 130.79 114.053 130.917 114.053 131.07C114.053 131.123 114.05 131.177 114.043 131.23C114.036 131.283 114.023 131.343 114.003 131.41C113.99 131.47 113.966 131.547 113.933 131.64L113.503 133.02H113.023ZM116.826 138.05C116.392 138.05 115.982 137.99 115.596 137.87C115.209 137.743 114.906 137.587 114.686 137.4L115.006 136.84C115.219 137 115.492 137.14 115.826 137.26C116.159 137.373 116.509 137.43 116.876 137.43C117.376 137.43 117.736 137.353 117.956 137.2C118.176 137.04 118.286 136.83 118.286 136.57C118.286 136.377 118.222 136.227 118.096 136.12C117.976 136.007 117.816 135.923 117.616 135.87C117.416 135.81 117.192 135.76 116.946 135.72C116.699 135.68 116.452 135.633 116.206 135.58C115.966 135.527 115.746 135.45 115.546 135.35C115.346 135.243 115.182 135.1 115.056 134.92C114.936 134.74 114.876 134.5 114.876 134.2C114.876 133.913 114.956 133.657 115.116 133.43C115.276 133.203 115.509 133.027 115.816 132.9C116.129 132.767 116.509 132.7 116.956 132.7C117.296 132.7 117.636 132.747 117.976 132.84C118.316 132.927 118.596 133.043 118.816 133.19L118.506 133.76C118.272 133.6 118.022 133.487 117.756 133.42C117.489 133.347 117.222 133.31 116.956 133.31C116.482 133.31 116.132 133.393 115.906 133.56C115.686 133.72 115.576 133.927 115.576 134.18C115.576 134.38 115.636 134.537 115.756 134.65C115.882 134.763 116.046 134.853 116.246 134.92C116.452 134.98 116.676 135.03 116.916 135.07C117.162 135.11 117.406 135.16 117.646 135.22C117.892 135.273 118.116 135.35 118.316 135.45C118.522 135.543 118.686 135.68 118.806 135.86C118.932 136.033 118.996 136.263 118.996 136.55C118.996 136.857 118.909 137.123 118.736 137.35C118.569 137.57 118.322 137.743 117.996 137.87C117.676 137.99 117.286 138.05 116.826 138.05ZM122.916 138V130.58H123.626V138H122.916ZM125.601 138V132.75H126.311V138H125.601ZM125.961 131.59C125.815 131.59 125.691 131.54 125.591 131.44C125.491 131.34 125.441 131.22 125.441 131.08C125.441 130.94 125.491 130.823 125.591 130.73C125.691 130.63 125.815 130.58 125.961 130.58C126.108 130.58 126.231 130.627 126.331 130.72C126.431 130.813 126.481 130.93 126.481 131.07C126.481 131.217 126.431 131.34 126.331 131.44C126.238 131.54 126.115 131.59 125.961 131.59ZM129.697 138.05C129.264 138.05 128.854 137.99 128.467 137.87C128.08 137.743 127.777 137.587 127.557 137.4L127.877 136.84C128.09 137 128.364 137.14 128.697 137.26C129.03 137.373 129.38 137.43 129.747 137.43C130.247 137.43 130.607 137.353 130.827 137.2C131.047 137.04 131.157 136.83 131.157 136.57C131.157 136.377 131.094 136.227 130.967 136.12C130.847 136.007 130.687 135.923 130.487 135.87C130.287 135.81 130.064 135.76 129.817 135.72C129.57 135.68 129.324 135.633 129.077 135.58C128.837 135.527 128.617 135.45 128.417 135.35C128.217 135.243 128.054 135.1 127.927 134.92C127.807 134.74 127.747 134.5 127.747 134.2C127.747 133.913 127.827 133.657 127.987 133.43C128.147 133.203 128.38 133.027 128.687 132.9C129 132.767 129.38 132.7 129.827 132.7C130.167 132.7 130.507 132.747 130.847 132.84C131.187 132.927 131.467 133.043 131.687 133.19L131.377 133.76C131.144 133.6 130.894 133.487 130.627 133.42C130.36 133.347 130.094 133.31 129.827 133.31C129.354 133.31 129.004 133.393 128.777 133.56C128.557 133.72 128.447 133.927 128.447 134.18C128.447 134.38 128.507 134.537 128.627 134.65C128.754 134.763 128.917 134.853 129.117 134.92C129.324 134.98 129.547 135.03 129.787 135.07C130.034 135.11 130.277 135.16 130.517 135.22C130.764 135.273 130.987 135.35 131.187 135.45C131.394 135.543 131.557 135.68 131.677 135.86C131.804 136.033 131.867 136.263 131.867 136.55C131.867 136.857 131.78 137.123 131.607 137.35C131.44 137.57 131.194 137.743 130.867 137.87C130.547 137.99 130.157 138.05 129.697 138.05ZM134.83 138.05C134.336 138.05 133.956 137.917 133.69 137.65C133.423 137.383 133.29 137.007 133.29 136.52V131.59H134V136.48C134 136.787 134.076 137.023 134.23 137.19C134.39 137.357 134.616 137.44 134.91 137.44C135.223 137.44 135.483 137.35 135.69 137.17L135.94 137.68C135.8 137.807 135.63 137.9 135.43 137.96C135.236 138.02 135.036 138.05 134.83 138.05ZM132.35 133.34V132.75H135.6V133.34H132.35ZM142.529 132.7C142.956 132.7 143.329 132.783 143.649 132.95C143.976 133.11 144.229 133.357 144.409 133.69C144.596 134.023 144.689 134.443 144.689 134.95V138H143.979V135.02C143.979 134.467 143.839 134.05 143.559 133.77C143.286 133.483 142.899 133.34 142.399 133.34C142.026 133.34 141.699 133.417 141.419 133.57C141.146 133.717 140.933 133.933 140.779 134.22C140.633 134.5 140.559 134.84 140.559 135.24V138H139.849V132.75H140.529V134.19L140.419 133.92C140.586 133.54 140.853 133.243 141.219 133.03C141.586 132.81 142.023 132.7 142.529 132.7ZM148.747 138.05C148.241 138.05 147.784 137.937 147.377 137.71C146.977 137.477 146.661 137.16 146.427 136.76C146.194 136.353 146.077 135.89 146.077 135.37C146.077 134.843 146.194 134.38 146.427 133.98C146.661 133.58 146.977 133.267 147.377 133.04C147.777 132.813 148.234 132.7 148.747 132.7C149.267 132.7 149.727 132.813 150.127 133.04C150.534 133.267 150.851 133.58 151.077 133.98C151.311 134.38 151.427 134.843 151.427 135.37C151.427 135.89 151.311 136.353 151.077 136.76C150.851 137.16 150.534 137.477 150.127 137.71C149.721 137.937 149.261 138.05 148.747 138.05ZM148.747 137.42C149.127 137.42 149.464 137.337 149.757 137.17C150.051 136.997 150.281 136.757 150.447 136.45C150.621 136.137 150.707 135.777 150.707 135.37C150.707 134.957 150.621 134.597 150.447 134.29C150.281 133.983 150.051 133.747 149.757 133.58C149.464 133.407 149.131 133.32 148.757 133.32C148.384 133.32 148.051 133.407 147.757 133.58C147.464 133.747 147.231 133.983 147.057 134.29C146.884 134.597 146.797 134.957 146.797 135.37C146.797 135.777 146.884 136.137 147.057 136.45C147.231 136.757 147.464 136.997 147.757 137.17C148.051 137.337 148.381 137.42 148.747 137.42ZM153.8 138L151.82 132.75H152.5L154.3 137.62H153.99L155.84 132.75H156.45L158.28 137.62H157.97L159.8 132.75H160.45L158.46 138H157.79L156.03 133.42H156.24L154.47 138H153.8Z" fill="#210B03" fill-opacity="0.7"/>
<defs>
<filter id="filter0_d_381_8989" x="36.9648" y="2.08813" width="89.0547" height="90.6516" filterUnits="userSpaceOnUse" color-interpolation-filters="sRGB">
<feFlood flood-opacity="0" result="BackgroundImageFix"/>
<feColorMatrix in="SourceAlpha" type="matrix" values="0 0 0 0 0 0 0 0 0 0 0 0 0 0 0 0 0 0 127 0" result="hardAlpha"/>
<feOffset dy="4.68142"/>
<feComposite in2="hardAlpha" operator="out"/>
<feColorMatrix type="matrix" values="0 0 0 0 0.845833 0 0 0 0 0.740646 0 0 0 0 0.503976 0 0 0 1 0"/>
<feBlend mode="normal" in2="BackgroundImageFix" result="effect1_dropShadow_381_8989"/>
<feBlend mode="normal" in="SourceGraphic" in2="effect1_dropShadow_381_8989" result="shape"/>
</filter>
</defs>
</svg>
