<svg width="226" height="227" viewBox="0 0 226 227" fill="none" xmlns="http://www.w3.org/2000/svg">
<path d="M195.743 71.6686C194.588 70.3805 193.428 69.0966 192.273 67.8086C190.648 69.7661 189.072 71.7583 187.545 73.7724L189.863 78.1066C191.879 75.9968 193.842 73.8523 195.743 71.6686Z" fill="#FFFEFC"/>
<path d="M168.667 78.062L171.366 84.1506C172.403 81.7809 173.439 79.4111 174.476 77.0414C173.519 75.1261 172.562 73.2107 171.605 71.2953C170.578 73.5332 169.596 75.7887 168.667 78.062Z" fill="#FFFEFC"/>
<path d="M161.637 82.2154C162.595 83.4583 163.589 84.6804 164.619 85.8859C165.55 83.2594 166.544 80.6508 167.605 78.0601C166.734 76.0948 165.862 74.1252 164.991 72.1599C163.709 75.4712 162.588 78.8231 161.637 82.2154Z" fill="#FFFEFC"/>
<path d="M186.403 73.6882C184.681 70.4687 182.955 67.2491 181.233 64.0296C179.337 68.3628 177.442 72.6917 175.546 77.0249C176.733 79.3945 177.919 81.7641 179.101 84.1294C181.398 80.5762 183.834 77.093 186.403 73.6882Z" fill="#FFFEFC"/>
<path d="M155.89 104.309C157.1 104.402 158.108 104.513 158.56 104.528C164.659 104.762 170.758 104.997 176.857 105.232C187.729 105.649 198.6 106.063 209.476 106.48C211.139 106.545 212.86 106.525 214.554 106.616C215.494 84.7595 216.975 62.9271 218.995 41.1318C208.066 39.0194 196.84 39.21 185.733 39.6108C184.5 39.654 183.267 39.7013 182.034 39.7445C172.039 40.109 162.044 40.4991 152.049 40.8764C153.329 62.0221 154.614 83.1635 155.89 104.309ZM208 102.162C207.817 102.117 207.657 101.957 207.645 101.787C204.846 101.975 197.118 101.944 196.24 101.949C192.277 101.969 188.315 101.924 184.357 101.808C176.3 101.577 168.262 101.056 160.249 100.277C159.613 100.217 159.615 99.3533 160.256 99.413C170.634 100.424 181.056 100.993 191.491 101.077C196.645 101.12 201.788 101.01 206.935 100.866C207.518 100.848 209.075 100.699 209.085 101.589C209.09 102.117 208.497 102.279 208 102.162ZM160.306 92.0885C164.281 92.299 168.251 92.5095 172.225 92.7158C172.87 92.7499 172.863 93.6139 172.218 93.5797C168.244 93.3692 164.274 93.163 160.299 92.9524C159.654 92.9183 159.661 92.0543 160.306 92.0885ZM209.288 94.3641C199.407 94.5003 189.546 93.8324 179.79 92.3741C179.159 92.2763 179.435 91.45 180.066 91.5436C189.728 92.9878 199.503 93.6376 209.295 93.5001C209.94 93.4917 209.929 94.3556 209.288 94.3641ZM190.048 80.6103C191.761 79.4286 194.306 79.535 195.757 80.8866C196.278 80.6892 196.927 80.8213 197.021 81.4398C197.429 84.1565 197.616 87.5683 194.336 89.0483C191.943 90.1273 189.403 88.842 188.419 86.8497C187.383 84.7545 187.947 82.055 190.048 80.6103ZM211.44 87.0889C210.292 89.9041 206.738 90.9122 203.921 88.9933C201.545 87.3697 200.795 84.2185 202.672 82.1111C204.26 80.3276 207.107 79.757 209.485 80.5251C209.539 80.53 209.593 80.535 209.647 80.5485C212.854 81.3064 212.273 85.0357 211.44 87.0889ZM183.263 46.8264C192.89 47.5594 202.551 47.3819 212.113 46.2667C212.745 46.1943 213.008 47.0278 212.37 47.1044C202.719 48.2269 192.977 48.4288 183.256 47.6861C182.615 47.6393 182.622 46.7753 183.263 46.8264ZM197.668 53.6842C192.989 54.0857 188.31 54.4829 183.636 54.8844C182.995 54.9397 183.006 54.0758 183.643 54.0247C188.317 53.6232 192.996 53.2217 197.675 52.8202C198.316 52.765 198.3 53.6288 197.668 53.6842ZM182.721 60.4991C186.568 60.3675 190.368 59.9798 194.139 59.3236C194.767 59.2128 195.025 60.0505 194.397 60.157C190.541 60.8291 186.651 61.2283 182.714 61.3631C182.068 61.3842 182.08 60.5203 182.721 60.4991ZM181.623 62.7063C183.433 66.0844 185.239 69.4668 187.049 72.845C188.59 70.8225 190.18 68.8305 191.823 66.8647C191.99 66.6669 192.395 66.5489 192.612 66.7859C193.861 68.1731 195.109 69.5645 196.362 70.9518C199.276 67.5686 202.048 64.0984 204.672 60.5453C203.345 59.97 202.051 59.3228 200.792 58.6037C200.257 58.2943 200.765 57.5563 201.305 57.8657C202.568 58.5891 203.867 59.2364 205.207 59.8161C206.476 58.0794 207.714 56.3211 208.917 54.5452C206.841 55.7093 204.619 56.633 202.233 57.3077C201.671 57.4662 201.395 56.7602 201.854 56.5152L210.931 51.6309C211.372 51.3942 211.843 51.8687 211.612 52.2317C211.498 52.4047 211.38 52.5776 211.267 52.7548C211.275 52.789 211.279 52.8274 211.279 52.8742C210.994 55.9052 210.714 58.9405 210.434 61.9715C210.41 62.2393 210.125 62.4739 209.794 62.3801C208.35 61.965 206.946 61.4823 205.579 60.9277C202.869 64.5946 200.006 68.1743 196.997 71.6626C197.153 71.8349 197.304 72.0029 197.459 72.1753C198.183 72.9851 198.912 73.7908 199.636 74.6007C200.236 75.2684 200.863 76.3749 201.675 76.8454C203.451 77.8779 206.32 74.5877 207.708 73.0995C206.685 72.1239 205.801 71.048 205.054 69.8633C204.894 69.6101 205.045 69.3141 205.359 69.2332C208.023 68.5537 210.716 68.0831 213.48 67.8051C213.946 67.756 214.081 68.3026 213.828 68.5461C213.57 68.7895 213.313 69.0329 213.055 69.2806C213.061 71.3876 212.636 73.3909 211.746 75.3582C211.637 75.5994 211.295 75.7821 211.005 75.608C210.054 75.0334 209.181 74.4004 208.375 73.7086L207.318 74.7117C206.166 75.803 204.47 78.2576 202.44 78.1198C201.598 78.0617 201.149 77.6131 200.62 77.0867C199.593 76.06 198.678 74.9241 197.714 73.8557C197.27 73.3603 196.821 72.8648 196.377 72.3694C194.355 74.6961 192.261 76.9794 190.1 79.2192C189.905 79.4209 189.444 79.3594 189.316 79.1193L186.905 74.618C184.286 78.1073 181.809 81.6793 179.48 85.3257C179.316 85.5874 178.769 85.6142 178.615 85.3142C177.428 82.9361 176.237 80.5579 175.046 78.1797L171.854 85.4793C171.671 85.8897 171.066 85.8689 170.886 85.4664C169.979 83.4155 169.068 81.3602 168.161 79.3093C167.141 81.841 166.183 84.3906 165.288 86.9537C165.15 87.3392 164.622 87.3321 164.373 87.0479C163.32 85.8378 162.299 84.6069 161.319 83.3594C161.042 84.3858 160.778 85.4165 160.532 86.4475C160.402 86.9906 159.435 86.7436 159.565 86.2048C159.872 84.9235 160.205 83.6425 160.556 82.3745C159.363 80.8178 158.228 79.2278 157.147 77.6045C156.824 77.1234 157.693 76.7009 158.016 77.1819C158.928 78.5561 159.886 79.9012 160.888 81.2298C161.903 77.6978 163.101 74.2065 164.478 70.7645C164.648 70.3411 165.27 70.3835 165.442 70.7774L168.118 76.8146C169.06 74.5457 170.056 72.2904 171.101 70.0485C171.242 69.7481 171.826 69.5772 172.016 69.9585C173.004 71.9339 173.992 73.9093 174.98 75.8846C176.889 71.5218 178.798 67.159 180.708 62.7962C180.845 62.4831 181.424 62.3376 181.623 62.7063ZM157.715 46.4343L157.76 46.4349C157.892 46.1557 158.389 46.1411 158.616 46.3824C162.262 46.1587 165.913 45.9393 169.564 45.7199C169.559 45.2346 169.563 44.7494 169.562 44.2599C169.253 44.2047 169 43.9204 169.226 43.634C169.337 43.2524 169.448 42.8666 169.559 42.485C169.559 41.9189 170.5 41.957 170.563 42.4984L170.562 42.5282C170.562 42.5282 170.603 42.4989 170.625 42.4822C172.084 41.6845 173.339 42.8121 173.526 44.066C173.594 44.5181 173.586 44.9947 173.546 45.4751C174.51 45.4156 175.47 45.3604 176.434 45.3009C177.713 45.2243 179.267 44.862 179.425 46.2729C179.555 47.3728 179.168 48.7084 179.042 49.8134C178.888 51.1648 178.734 52.5163 178.579 53.8635C178.275 56.5665 177.966 59.2651 177.662 61.9639C177.498 63.4003 177.601 64.9765 175.892 65.6943C173.98 66.4903 171.234 66.3387 169.171 66.4814C166.067 66.7039 162.959 66.8539 159.847 66.9571C159.56 66.966 159.365 66.7421 159.349 66.5163C158.827 60.1078 158.306 53.7035 157.779 47.2949C157.757 47.2946 157.735 47.2943 157.708 47.2939C157.066 47.3322 157.078 46.4683 157.715 46.43L157.715 46.4343Z" fill="#FFFEFC"/>
<path d="M209.421 82.3927C205.944 80.6097 201.94 83.9869 204.404 86.9439C204.986 87.6455 205.833 88.1846 206.859 88.2408C208.342 88.3202 209.16 87.5309 209.595 86.396C209.929 85.5322 210.602 83.3194 209.654 82.4852C209.578 82.4629 209.502 82.4364 209.421 82.3927Z" fill="#DBE192"/>
<path d="M171.122 43.2353C170.906 43.3559 170.696 43.3062 170.558 43.1852C170.56 44.011 170.558 44.8324 170.56 45.6582C171.179 45.6196 171.798 45.5811 172.417 45.5468C172.428 44.2104 172.234 42.6245 171.122 43.2353Z" fill="#A4AE4D"/>
<path d="M170.562 49.4907C170.341 50.2412 170.587 50.3509 171.304 49.8199C172.071 49.7237 172.361 49.3275 172.179 48.6355C172.241 48.1384 172.267 47.6407 172.312 47.1476C172.317 47.0923 172.35 46.8076 172.381 46.4079C172.17 46.4221 171.959 46.432 171.748 46.4463L170.555 46.5197C170.517 47.4045 170.25 48.7417 170.562 49.4907Z" fill="#A4AE4D"/>
<path d="M194.3 86.8867C195.38 85.8073 195.388 84.3091 195.224 82.9194C194.992 82.8737 194.778 82.7389 194.632 82.4944C193.712 80.9285 191.525 81.4186 190.578 82.6616C189.762 83.7318 189.665 85.1989 190.333 86.3528C191.173 87.7984 192.999 88.1846 194.3 86.8867Z" fill="#5D6716"/>
<path d="M214.464 112.275C192.788 111.36 171.113 110.441 149.438 109.522C148.514 112.378 155.21 112.48 157.052 112.611C158.799 112.732 160.551 112.845 162.303 112.949C163.584 113.03 164.865 113.103 166.147 113.171C172.214 113.495 178.286 113.737 184.363 113.921C186.756 113.995 189.149 114.057 191.542 114.115L191.547 114.115C191.877 113.778 192.522 113.838 192.927 114.146C196.28 114.225 199.632 114.286 202.989 114.344C205.19 114.382 207.386 114.415 209.582 114.449C210.29 114.463 211.003 114.472 211.711 114.482C213.293 114.503 214.88 114.545 216.467 114.545C217.067 114.553 217.789 114.593 218.368 114.447C218.912 114.31 220.489 113.301 219.407 112.912C219.139 112.814 218.961 112.655 218.859 112.47C218.721 112.456 218.582 112.445 218.452 112.439L214.464 112.271L214.464 112.275Z" fill="#5D6716"/>
<path d="M204.562 105.515C198.747 105.373 192.928 105.231 187.107 105.074C181.158 104.926 175.205 104.777 169.256 104.629C166.346 104.558 163.437 104.487 160.527 104.416C159.208 104.38 157.885 104.343 156.566 104.306C156.433 104.316 156.299 104.309 156.164 104.302C155.507 104.284 153.428 103.638 152.085 103.768C150.763 104.161 151.12 109.841 151.164 109.152C151.241 109.825 151.317 110.482 151.394 111.139C174.79 112.076 198.184 112.997 221.576 113.934C221.838 108.302 219.285 106.488 216.907 105.939C215.347 105.572 213.859 105.752 213.292 105.743C210.382 105.672 207.471 105.586 204.562 105.515Z" fill="#DBE192"/>
<path d="M189.968 37.7473C189.973 35.5298 189.982 33.3166 189.991 31.1034C188.871 31.0118 187.755 30.9161 186.64 30.8288C186.008 30.7821 183.493 30.2675 183.011 30.5676C182.155 31.0967 182.57 33.5496 182.599 34.3247C182.652 35.5512 182.786 36.7703 182.987 37.9861C184.161 37.9421 185.332 37.8982 186.506 37.8585C187.659 37.8186 188.811 37.7786 189.968 37.7473Z" fill="#A45314"/>
<path d="M181.591 115.642C182.042 120.849 182.488 126.061 182.934 131.272C183.168 133.991 183.401 136.71 183.634 139.428C183.737 140.613 183.613 142.063 183.989 143.204C184.273 144.085 186.029 145.406 187.355 144.986C188.694 144.557 188.186 141.915 188.235 140.924C188.294 139.686 188.367 138.449 188.453 137.215C188.627 134.626 188.854 132.045 189.135 129.465C189.629 124.905 190.294 120.355 191.106 115.829C187.928 115.752 184.751 115.663 181.578 115.557C181.582 115.586 181.587 115.612 181.591 115.642Z" fill="#A45314"/>
<path d="M204.144 116.562C206.009 124.687 208.172 132.765 210.482 140.806C212.5 147.83 214.627 154.831 216.762 161.827C217.277 163.515 217.66 165.431 218.814 166.907C219.825 168.197 222.325 169.55 223.875 168.025C226.012 165.913 223.428 161.201 222.693 158.99C217.971 144.826 213.25 130.662 208.528 116.502C208.489 116.382 208.476 116.267 208.486 116.161C206.94 116.136 205.398 116.111 203.852 116.086C203.994 116.203 204.096 116.366 204.144 116.562Z" fill="#A45314"/>
<path d="M147.928 159.021C147.33 160.864 146.743 163.061 147.979 164.827C149.109 166.443 151.404 167.01 152.927 165.515C154.124 164.343 154.555 162.668 155.082 161.206C155.665 159.614 156.233 158.012 156.798 156.415C161.62 142.757 165.946 128.973 169.797 115.085C167.597 114.979 165.397 114.86 163.197 114.733C160.489 122.584 157.78 130.426 155.076 138.273C152.689 145.183 150.163 152.07 147.928 159.021Z" fill="#A45314"/>
<path d="M219.955 111.261C218.762 110.832 218.228 112.493 219.408 112.918C220.485 113.307 218.913 114.316 218.369 114.453C217.79 114.599 217.068 114.555 216.468 114.555C214.881 114.551 213.294 114.513 211.712 114.488C208.803 114.449 205.899 114.401 202.99 114.35C196.782 114.241 190.571 114.112 184.364 113.927C178.291 113.743 172.219 113.501 166.148 113.177C163.114 113.013 160.081 112.828 157.053 112.617C155.126 112.485 147.892 112.376 149.608 109.121C150.137 108.124 148.418 107.22 147.885 108.226C147.121 109.675 147.422 111.229 148.744 112.4C150.386 113.86 152.85 114.034 155.063 114.199C161.648 114.687 168.244 115.039 174.845 115.311C188.181 115.863 201.524 116.067 214.867 116.258C216.969 116.286 220.046 116.595 221.276 114.726C222.148 113.397 221.573 111.848 219.955 111.265L219.955 111.261Z" fill="#210B03"/>
<path d="M220.332 39.6269C209.22 37.3631 197.815 37.462 186.502 37.86C174.669 38.2767 162.84 38.7444 151.007 39.1908C150.491 39.2095 149.968 39.5515 150 40.0414C151.313 61.6898 152.625 83.3381 153.933 104.991C154 106.094 156.003 106.129 155.936 105.017C154.64 83.6374 153.348 62.2575 152.051 40.8775C163.279 40.4528 174.503 40.0195 185.73 39.6161C196.837 39.2153 208.063 39.0247 218.993 41.1371C216.953 63.1535 215.461 85.207 214.524 107.285C214.474 108.395 216.478 108.422 216.527 107.312C217.475 85.0041 218.983 62.7167 221.06 40.4709C221.094 40.1138 220.735 39.7132 220.332 39.6312L220.332 39.6269Z" fill="#210B03"/>
<path d="M210.925 51.6304C207.899 53.2585 204.873 54.8866 201.848 56.5147C201.389 56.7597 201.665 57.4657 202.227 57.3072C204.613 56.6325 206.835 55.7087 208.911 54.5446C207.708 56.3205 206.475 58.0789 205.201 59.8155C203.861 59.2358 202.562 58.5885 201.299 57.8651C200.759 57.5557 200.251 58.2938 200.786 58.6031C202.045 59.3222 203.339 59.9695 204.666 60.5448C200.152 66.6519 195.209 72.5151 189.861 78.1046C187.114 72.9731 184.363 67.8372 181.617 62.7015C181.418 62.3328 180.839 62.4782 180.702 62.7914C177.587 69.909 174.476 77.0267 171.361 84.14L165.441 70.7726C165.264 70.3787 164.642 70.3363 164.477 70.7597C162.459 75.8106 160.821 80.9602 159.564 86.2C159.434 86.7389 160.396 86.9858 160.526 86.4427C161.686 81.6017 163.177 76.8375 164.99 72.1584C166.953 76.5942 168.921 81.0301 170.884 85.4659C171.065 85.8684 171.67 85.8935 171.848 85.4787C174.976 78.3273 178.105 71.1801 181.229 64.0285C183.923 69.0572 186.616 74.0901 189.31 79.1188C189.438 79.3546 189.899 79.4203 190.094 79.2186C195.699 73.4027 200.868 67.2957 205.573 60.9272C206.936 61.4817 208.339 61.9643 209.788 62.3795C210.119 62.4733 210.399 62.2387 210.424 61.9709L211.269 52.8736C211.269 52.831 211.269 52.7927 211.256 52.7542C211.37 52.5812 211.488 52.404 211.601 52.231C211.833 51.8723 211.361 51.3936 210.92 51.6303L210.925 51.6304ZM210.121 54.4757C209.91 56.7755 209.694 59.0753 209.483 61.3752C208.333 61.0279 207.207 60.634 206.112 60.1938C207.49 58.3096 208.828 56.4036 210.121 54.4757Z" fill="#210B03"/>
<path d="M213.476 67.8061C210.712 68.0841 208.019 68.5547 205.355 69.2385C205.04 69.3194 204.89 69.6153 205.049 69.8686C205.797 71.0533 206.681 72.1292 207.704 73.1048C206.315 74.593 203.451 77.8875 201.671 76.8507C200.859 76.3802 200.236 75.2737 199.636 74.606C198.908 73.7961 198.183 72.9905 197.455 72.1805C195.838 70.384 194.225 68.5876 192.608 66.7911C192.395 66.5499 191.986 66.6679 191.823 66.87C187.197 72.4096 182.959 78.1715 179.104 84.1342C176.74 79.4079 174.376 74.6858 172.016 69.9596C171.826 69.5782 171.242 69.7492 171.101 70.0495C168.678 75.2482 166.52 80.5313 164.62 85.886C162.231 83.0875 160.027 80.1935 158.016 77.183C157.693 76.702 156.825 77.1203 157.148 77.6055C159.331 80.878 161.74 84.0258 164.373 87.0447C164.622 87.3332 165.155 87.3361 165.288 86.9548C167.138 81.6548 169.247 76.4348 171.606 71.2906C173.944 75.9655 176.282 80.6361 178.62 85.311C178.77 85.611 179.317 85.5842 179.485 85.3226C183.349 79.2706 187.623 73.4283 192.282 67.8083C194.094 69.8245 195.907 71.8406 197.719 73.8525C198.683 74.9253 199.597 76.0611 200.625 77.0836C201.154 77.6099 201.603 78.0586 202.441 78.1166C204.47 78.2544 206.167 75.7998 207.319 74.7085L208.38 73.7055C209.181 74.3972 210.059 75.0303 211.009 75.6048C211.299 75.779 211.637 75.5962 211.747 75.355C212.637 73.3877 213.061 71.3801 213.056 69.2732C213.313 69.0297 213.571 68.782 213.828 68.5386C214.081 68.2994 213.947 67.7485 213.48 67.7976L213.476 67.8061ZM208.35 72.4452C207.554 71.6727 206.857 70.8291 206.241 69.9228C208.159 69.4547 210.094 69.0932 212.06 68.8385C212.05 68.8724 212.046 68.9064 212.05 68.9448C210.817 70.1116 209.583 71.2784 208.35 72.4494L208.35 72.4452ZM211.014 74.5493C210.309 74.093 209.65 73.6032 209.04 73.0758C210.029 72.1356 211.023 71.1954 212.012 70.2595C211.911 71.7308 211.581 73.1523 211.014 74.5493Z" fill="#210B03"/>
<path d="M172.229 92.7154C168.255 92.5048 164.28 92.2985 160.311 92.0881C159.665 92.0539 159.663 92.9179 160.303 92.952C164.278 93.1625 168.252 93.3688 172.222 93.5793C172.867 93.6135 172.87 92.7495 172.229 92.7154Z" fill="#210B03"/>
<path d="M209.291 93.5014C199.499 93.6388 189.724 92.989 180.062 91.5448C179.431 91.4512 179.155 92.2775 179.791 92.3711C189.542 93.8293 199.403 94.5015 209.288 94.3611C209.929 94.3526 209.941 93.4887 209.295 93.4972L209.291 93.5014Z" fill="#210B03"/>
<path d="M206.936 100.867C201.789 101.011 196.647 101.121 191.492 101.077C181.057 100.989 170.63 100.424 160.252 99.4132C159.612 99.3494 159.609 100.213 160.245 100.277C168.259 101.057 176.301 101.577 184.354 101.808C188.316 101.92 192.278 101.969 196.236 101.949C197.115 101.944 204.843 101.979 207.641 101.791C207.654 101.957 207.814 102.121 207.997 102.166C208.494 102.283 209.087 102.121 209.082 101.593C209.071 100.703 207.515 100.853 206.932 100.871L206.936 100.867Z" fill="#210B03"/>
<path d="M173.524 44.0652C173.337 42.8114 172.082 41.6837 170.627 42.4815C170.605 42.494 170.582 42.5107 170.564 42.5232C170.564 42.5147 170.565 42.5062 170.565 42.4934C170.506 41.9521 169.565 41.914 169.565 42.4801L169.229 43.6291C169.002 43.9155 169.255 44.1955 169.564 44.255C169.566 45.1446 169.563 46.0384 169.565 46.928C169.567 47.775 169.564 48.622 169.567 49.469C169.564 49.7882 169.428 50.5568 169.582 50.8568C170.205 52.0441 172.098 51.2905 172.646 50.5317C173.222 49.7307 173.182 48.6575 173.265 47.752C173.373 46.5702 173.703 45.2424 173.528 44.061L173.524 44.0652ZM172.315 47.1477C172.271 47.6409 172.24 48.1384 172.178 48.6313C172.365 49.3234 172.07 49.7195 171.303 49.8157C170.586 50.3467 170.34 50.237 170.562 49.4866C170.223 48.6776 170.562 47.1754 170.561 46.3071C170.56 45.2642 170.56 44.2214 170.559 43.1786C170.697 43.2996 170.907 43.3493 171.123 43.2287C172.907 42.248 172.335 46.8969 172.315 47.1435L172.315 47.1477Z" fill="#210B03"/>
<path d="M212.112 46.2697C202.551 47.3806 192.889 47.5623 183.262 46.8251C182.621 46.7783 182.614 47.638 183.255 47.6891C192.976 48.4318 202.719 48.2256 212.37 47.1031C213.007 47.0307 212.741 46.1929 212.112 46.2697Z" fill="#210B03"/>
<path d="M197.673 52.8209C192.995 53.2224 188.316 53.6239 183.642 54.0212C183.009 54.0766 182.993 54.9404 183.635 54.8851C188.313 54.4837 192.992 54.0822 197.666 53.6849C198.299 53.6295 198.315 52.7657 197.673 52.8209Z" fill="#210B03"/>
<path d="M194.135 59.3224C190.365 59.9786 186.565 60.3705 182.718 60.4979C182.076 60.5192 182.065 61.3831 182.711 61.3619C186.647 61.2272 190.537 60.8279 194.393 60.1601C195.022 60.0493 194.764 59.2159 194.135 59.3267L194.135 59.3224Z" fill="#210B03"/>
<path d="M197.019 81.4389C196.925 80.8248 196.281 80.6927 195.755 80.8858C194.304 79.5342 191.759 79.4278 190.046 80.6095C187.95 82.0542 187.381 84.7537 188.418 86.8489C189.401 88.8412 191.941 90.1265 194.335 89.0475C197.615 87.5675 197.427 84.1557 197.019 81.4347L197.019 81.4389ZM194.307 86.8849C193.006 88.187 191.18 87.8008 190.34 86.351C189.673 85.1971 189.77 83.7342 190.585 82.6597C191.532 81.4125 193.719 80.9267 194.639 82.4925C194.785 82.7371 194.999 82.8719 195.232 82.9176C195.395 84.3073 195.383 85.8054 194.307 86.8849Z" fill="#210B03"/>
<path d="M209.643 80.5491C209.589 80.5356 209.535 80.5306 209.481 80.5257C207.103 79.7618 204.256 80.3325 202.668 82.1117C200.791 84.2233 201.536 87.3702 203.917 88.9939C206.734 90.917 210.288 89.9047 211.432 87.0937C212.269 85.0406 212.846 81.3112 209.643 80.5491ZM209.595 86.3967C209.16 87.5316 208.342 88.3209 206.855 88.2414C205.829 88.1851 204.986 87.6461 204.4 86.9445C201.94 83.9875 205.94 80.6061 209.417 82.3933C209.493 82.4327 209.573 82.4593 209.649 82.4816C210.597 83.32 209.925 85.5285 209.591 86.3924L209.595 86.3967Z" fill="#210B03"/>
<path d="M86.5567 45.7862C86.5567 45.7862 55.5969 -2.70282 41.2096 16.3215C36.9363 21.9728 33.8805 26.0842 31.2435 28.0471C29.1472 29.6075 28.5165 32.4887 29.8033 34.7631C31.798 38.2896 36.8577 38.8946 42.3517 38.2985C51.3823 37.3181 67.2813 40.426 70.9348 43.1892C74.5884 45.9523 80.5308 49.765 83.3542 49.5068C86.1775 49.2487 86.5567 45.7862 86.5567 45.7862Z" fill="#A4AE4D"/>
<path d="M86.5587 45.7864L76.1086 3.76496C75.8574 2.75356 76.6495 1.78457 77.6889 1.83256C80.8017 1.97532 86.8198 2.5646 91.5317 4.92877C98.1855 8.26622 93.4979 7.4766 96.6721 11.7776C99.8463 16.0786 100.618 18.0659 100.12 21.1026C99.8036 23.0308 95.7886 36.5008 92.2709 43.1221C90.4839 46.4841 86.5587 45.7878 86.5587 45.7878L86.5587 45.7864Z" fill="#5D6716"/>
<path d="M102.892 42.9637C82.0322 42.6795 62.2306 49.5364 52.5323 65.2357C42.8353 80.9336 43.2017 103.934 54.1647 118.843C65.3262 134.024 75.6166 142.462 105.504 141.623C114.882 141.36 128.74 137.688 135.803 132.107C139.976 128.81 148.081 120.006 150.009 115.328C155.556 101.872 153.674 80.1711 146.874 67.2481C139.983 54.1534 126.073 46.606 102.89 42.9637" fill="#F2973E"/>
<path d="M83.5273 84.7422C85.6015 85.5323 89.5127 87.4089 88.5645 88.5942C87.6164 89.7794 85.6015 91.656 84.7126 92.4461" stroke="#A45314" stroke-width="2.96306" stroke-linecap="round" stroke-linejoin="round"/>
<path d="M115.332 89.4937C116.872 89.4552 118.312 88.0642 118.202 86.4764C118.09 84.8833 116.834 83.5649 115.185 83.6061C113.645 83.6446 112.204 85.0355 112.314 86.6234C112.426 88.2165 113.682 89.5349 115.332 89.4937Z" fill="#A45314"/>
<path d="M95.6459 98.7491C96.6917 101.887 99.9439 103.622 103.131 103.679C104.833 103.709 106.506 103.174 107.794 102.049C108.952 101.038 109.711 99.4986 109.975 97.999C110.141 97.0607 109.724 96.0945 108.743 95.8241C107.889 95.5891 106.735 96.1117 106.568 97.0565C106.399 98.0066 106.103 98.7602 105.506 99.3526C104.95 99.9044 104.046 100.159 103.131 100.144C102.585 100.135 102.233 100.074 101.686 99.9175C101.139 99.7613 100.974 99.6892 100.514 99.4218C100.054 99.1544 99.9437 99.0496 99.5343 98.6371C99.3971 98.4733 99.3722 98.4472 99.4572 98.5585C99.3853 98.4576 99.3173 98.3529 99.2533 98.2455C99.1905 98.1381 99.1317 98.0281 99.0782 97.9156C99.1343 98.0491 99.1265 98.0137 99.0521 97.8108C98.7505 96.9062 97.8348 96.3126 96.8792 96.5749C95.9956 96.8176 95.3404 97.8379 95.6433 98.7478L95.6459 98.7491Z" fill="#A45314"/>
<path d="M86.0285 137.553C85.6321 146.566 84.6049 165.298 83.668 168.12" stroke="#F2973E" stroke-width="2.35135" stroke-linecap="round"/>
<path d="M113.071 137.553C112.675 146.566 111.648 165.298 110.711 168.12" stroke="#F2973E" stroke-width="2.35135" stroke-linecap="round"/>
<path d="M62.228 90.7021C52.0389 90.7021 32.6011 91.8778 36.3632 96.5805" stroke="#F2973E" stroke-width="2.35135" stroke-linecap="round"/>
<g clip-path="url(#clip0_1037_49653)">
<path d="M51.8146 143.442C51.405 143.667 49.2344 141.478 46.8743 138.882C43.6756 135.353 40.1136 131.08 40.1136 131.08C40.1136 131.08 47.2627 125.67 53.8422 127.047C53.8422 127.047 53.4655 132.707 52.9535 137.381C52.6083 140.528 52.2071 143.227 51.8146 143.442Z" fill="#A4AE4D"/>
<path d="M51.4576 142.496C50.9326 142.085 49.7979 141.037 47.3946 138.392C44.9435 135.691 41.8874 132.018 40.7957 130.724C42.5566 129.554 48.2657 126.031 53.1934 126.732C53.0801 128.347 52.6404 133.609 52.2372 137.298C51.8908 140.472 51.6237 141.878 51.4642 142.498L51.4576 142.496Z" fill="#FFFEFC"/>
<path d="M33.739 63.5574C33.739 63.5574 32.5979 60.0273 32.2569 59.1823C31.9112 58.3288 30.8458 57.3869 28.243 57.5372C25.6402 57.6876 20.9424 58.753 20.1458 59.8608C19.3493 60.9686 19.5673 62.6522 19.8912 63.8506C20.2151 65.049 20.8472 67.2047 20.8472 67.2047L33.739 63.5574Z" fill="#FFB697"/>
<path d="M35.913 70.3633C35.913 70.3633 49.7749 114.013 51.2044 118.495C52.634 122.976 53.8344 127.04 53.8344 127.04C53.8344 127.04 49.6275 129.345 45.0357 130.219C40.444 131.093 40.0972 131.078 40.0972 131.078C40.0972 131.078 27.0089 89.4676 25.9247 86.2337C24.8338 82.9979 22.2217 73.4833 22.2217 73.4833L35.9064 70.3614L35.913 70.3633Z" fill="#A4AE4D"/>
<path d="M35.991 70.8094C35.991 70.8094 36.4525 70.2847 36.3979 69.5878C36.3433 68.8909 36.1525 68.3908 35.5242 68.1858C35.5242 68.1858 35.8714 67.6349 35.6367 66.7206C35.3934 65.8109 34.4419 65.7553 34.4419 65.7553C34.4419 65.7553 35.2907 64.9351 34.8761 64.2192C34.4616 63.5032 33.7111 63.3486 33.7111 63.3486C33.7111 63.3486 30.0484 64.3793 27.4898 65.0658C24.9245 65.7503 21.0217 66.4744 20.5185 66.7002C20.0153 66.926 19.8497 67.6159 19.8947 68.0018C19.9837 68.8019 20.2041 68.7587 20.9051 68.9849C20.9051 68.9849 20.3307 69.921 20.5584 70.5896C20.7794 71.2563 21.6111 71.4274 21.6111 71.4274C21.6111 71.4274 21.1275 72.3471 21.3156 73.0041C21.5037 73.6611 22.0309 73.8437 22.3697 73.9355C22.7085 74.0272 23.1315 74.1005 23.1315 74.1005L35.991 70.8094Z" fill="#56574E"/>
<path d="M35.4538 67.8924C31.864 68.8943 28.2509 69.8535 24.6002 70.6225C23.6151 70.8294 22.6196 71.0477 21.6144 71.1269C21.2324 71.1587 21.2243 71.7513 21.6043 71.7261C23.6297 71.5648 25.6517 71.0227 27.6174 70.5502C29.8227 70.0185 32.0177 69.4481 34.2054 68.854C34.6711 68.7319 35.1321 68.6013 35.5997 68.4727C35.9661 68.3718 35.8267 67.7935 35.4538 67.8924Z" fill="#210B03"/>
<path d="M34.3755 65.4697C30.7608 66.3854 27.1348 67.2907 23.4997 68.1288C22.6148 68.3363 21.7299 68.5438 20.8301 68.704C20.4517 68.7727 20.5996 69.3463 20.9761 69.2842C22.8664 68.9473 24.7359 68.461 26.6023 68.0097C28.7753 67.4901 30.9409 66.9469 33.1046 66.4103C33.5769 66.2902 34.0473 66.1767 34.513 66.0546C34.884 65.9623 34.738 65.382 34.367 65.4744L34.3755 65.4697Z" fill="#210B03"/>
<path d="M51.6244 142.706C51.6088 142.759 51.5938 142.806 51.5796 142.848C51.5517 142.829 51.5211 142.808 51.488 142.784C51.2181 142.59 50.8542 142.275 50.4145 141.858C49.6815 141.162 48.7748 140.218 47.8076 139.168C49.3171 138.798 51.0212 138.375 52.3255 138.052C52.3407 138.048 52.3557 138.044 52.3708 138.04C52.2217 139.333 52.0643 140.512 51.9037 141.425C51.8086 141.966 51.7147 142.401 51.6244 142.706ZM51.4851 143.071C51.4826 143.075 51.4813 143.076 51.4813 143.076C51.4813 143.076 51.4825 143.074 51.4851 143.071Z" fill="#210B03" stroke="#210B03"/>
<path d="M24.9891 75.2089C25.4939 76.8185 25.9988 78.4281 26.5036 80.0378C27.7434 83.9909 28.9832 87.944 30.2211 91.9037C31.7653 96.8273 33.3048 101.742 34.849 106.666C36.2791 111.219 37.7092 115.773 39.1459 120.328C40.0414 123.177 40.937 126.026 41.8496 128.866C41.9016 129.032 41.9582 129.206 42.0102 129.372C42.1262 129.735 42.7045 129.596 42.5904 129.226C41.7677 126.692 40.9753 124.152 40.1696 121.609C38.77 117.172 37.3771 112.737 35.9841 108.302C34.4325 103.355 32.8809 98.4074 31.3292 93.4601C30.0347 89.3262 28.7383 85.1988 27.4437 81.0649C26.8275 79.1002 26.3261 77.0615 25.5897 75.1405C25.5756 75.1149 25.5701 75.0846 25.5646 75.0543C25.4486 74.6907 24.8703 74.8301 24.9844 75.2003L24.9891 75.2089Z" fill="#210B03"/>
</g>
<path d="M151 95.6348C156.095 90.9321 167.459 80.351 166.284 77.9997" stroke="#F2973E" stroke-width="2.35135" stroke-linecap="round"/>
<path d="M31.0826 202.131V192.331H32.5806L38.7266 199.877H37.9846V192.331H39.7906V202.131H38.2926L32.1466 194.585H32.8886V202.131H31.0826ZM45.6086 202.229C44.8433 202.229 44.1619 202.066 43.5646 201.739C42.9673 201.403 42.4959 200.946 42.1506 200.367C41.8053 199.788 41.6326 199.13 41.6326 198.393C41.6326 197.646 41.8053 196.988 42.1506 196.419C42.4959 195.84 42.9673 195.388 43.5646 195.061C44.1619 194.734 44.8433 194.571 45.6086 194.571C46.3833 194.571 47.0693 194.734 47.6666 195.061C48.2733 195.388 48.7446 195.836 49.0806 196.405C49.4259 196.974 49.5986 197.637 49.5986 198.393C49.5986 199.13 49.4259 199.788 49.0806 200.367C48.7446 200.946 48.2733 201.403 47.6666 201.739C47.0693 202.066 46.3833 202.229 45.6086 202.229ZM45.6086 200.731C46.0379 200.731 46.4206 200.638 46.7566 200.451C47.0926 200.264 47.3539 199.994 47.5406 199.639C47.7366 199.284 47.8346 198.869 47.8346 198.393C47.8346 197.908 47.7366 197.492 47.5406 197.147C47.3539 196.792 47.0926 196.522 46.7566 196.335C46.4206 196.148 46.0426 196.055 45.6226 196.055C45.1933 196.055 44.8106 196.148 44.4746 196.335C44.1479 196.522 43.8866 196.792 43.6906 197.147C43.4946 197.492 43.3966 197.908 43.3966 198.393C43.3966 198.869 43.4946 199.284 43.6906 199.639C43.8866 199.994 44.1479 200.264 44.4746 200.451C44.8106 200.638 45.1886 200.731 45.6086 200.731ZM56.7932 202.131L54.0492 194.655H55.7012L58.0532 201.249H57.2692L59.7332 194.655H61.2032L63.5972 201.249H62.8272L65.2492 194.655H66.8032L64.0452 202.131H62.3652L60.1812 196.293H60.6992L58.4732 202.131H56.7932ZM72.2484 194.571C72.8457 194.571 73.3777 194.688 73.8444 194.921C74.3204 195.154 74.6937 195.514 74.9644 195.999C75.2351 196.475 75.3704 197.091 75.3704 197.847V202.131H73.6204V198.071C73.6204 197.408 73.4617 196.914 73.1444 196.587C72.8364 196.26 72.4024 196.097 71.8424 196.097C71.4317 196.097 71.0677 196.181 70.7504 196.349C70.4331 196.517 70.1857 196.769 70.0084 197.105C69.8404 197.432 69.7564 197.847 69.7564 198.351V202.131H68.0064V191.743H69.7564V196.671L69.3784 196.055C69.6397 195.579 70.0177 195.215 70.5124 194.963C71.0164 194.702 71.5951 194.571 72.2484 194.571ZM77.5904 202.131V194.655H79.3404V202.131H77.5904ZM78.4724 193.423C78.1457 193.423 77.875 193.32 77.6604 193.115C77.455 192.91 77.3524 192.662 77.3524 192.373C77.3524 192.074 77.455 191.827 77.6604 191.631C77.875 191.426 78.1457 191.323 78.4724 191.323C78.799 191.323 79.065 191.421 79.2704 191.617C79.485 191.804 79.5924 192.042 79.5924 192.331C79.5924 192.639 79.4897 192.9 79.2844 193.115C79.079 193.32 78.8084 193.423 78.4724 193.423ZM84.4513 202.229C83.6299 202.229 82.9953 202.019 82.5473 201.599C82.0993 201.17 81.8753 200.54 81.8753 199.709V193.003H83.6253V199.667C83.6253 200.022 83.7139 200.297 83.8913 200.493C84.0779 200.689 84.3346 200.787 84.6613 200.787C85.0533 200.787 85.3799 200.684 85.6413 200.479L86.1313 201.725C85.9259 201.893 85.6739 202.019 85.3753 202.103C85.0766 202.187 84.7686 202.229 84.4513 202.229ZM80.6433 196.111V194.711H85.6273V196.111H80.6433ZM90.8388 202.229C90.0081 202.229 89.2801 202.066 88.6548 201.739C88.0388 201.403 87.5581 200.946 87.2128 200.367C86.8768 199.788 86.7088 199.13 86.7088 198.393C86.7088 197.646 86.8721 196.988 87.1988 196.419C87.5348 195.84 87.9921 195.388 88.5708 195.061C89.1588 194.734 89.8261 194.571 90.5728 194.571C91.3008 194.571 91.9494 194.73 92.5188 195.047C93.0881 195.364 93.5361 195.812 93.8628 196.391C94.1894 196.97 94.3528 197.651 94.3528 198.435C94.3528 198.51 94.3481 198.594 94.3388 198.687C94.3388 198.78 94.3341 198.869 94.3248 198.953H88.0948V197.791H93.4008L92.7148 198.155C92.7241 197.726 92.6354 197.348 92.4488 197.021C92.2621 196.694 92.0054 196.438 91.6788 196.251C91.3614 196.064 90.9928 195.971 90.5728 195.971C90.1434 195.971 89.7654 196.064 89.4388 196.251C89.1214 196.438 88.8694 196.699 88.6828 197.035C88.5054 197.362 88.4168 197.749 88.4168 198.197V198.477C88.4168 198.925 88.5194 199.322 88.7248 199.667C88.9301 200.012 89.2194 200.278 89.5928 200.465C89.9661 200.652 90.3954 200.745 90.8808 200.745C91.3008 200.745 91.6788 200.68 92.0148 200.549C92.3508 200.418 92.6494 200.213 92.9108 199.933L93.8488 201.011C93.5128 201.403 93.0881 201.706 92.5748 201.921C92.0708 202.126 91.4921 202.229 90.8388 202.229ZM100.178 202.229C99.5431 202.229 98.9784 202.089 98.4837 201.809C97.9891 201.529 97.5971 201.109 97.3077 200.549C97.0277 199.98 96.8877 199.261 96.8877 198.393C96.8877 197.516 97.0324 196.797 97.3217 196.237C97.6204 195.677 98.0171 195.262 98.5117 194.991C99.0157 194.711 99.5711 194.571 100.178 194.571C100.915 194.571 101.564 194.73 102.124 195.047C102.693 195.364 103.141 195.808 103.468 196.377C103.804 196.946 103.972 197.618 103.972 198.393C103.972 199.168 103.804 199.84 103.468 200.409C103.141 200.978 102.693 201.426 102.124 201.753C101.564 202.07 100.915 202.229 100.178 202.229ZM96.0337 202.131V191.743H97.7837V196.391L97.6437 198.379L97.6997 200.367V202.131H96.0337ZM99.9817 200.731C100.402 200.731 100.775 200.638 101.102 200.451C101.438 200.264 101.704 199.994 101.9 199.639C102.096 199.284 102.194 198.869 102.194 198.393C102.194 197.908 102.096 197.492 101.9 197.147C101.704 196.792 101.438 196.522 101.102 196.335C100.775 196.148 100.402 196.055 99.9817 196.055C99.5617 196.055 99.1837 196.148 98.8477 196.335C98.5117 196.522 98.2457 196.792 98.0497 197.147C97.8537 197.492 97.7557 197.908 97.7557 198.393C97.7557 198.869 97.8537 199.284 98.0497 199.639C98.2457 199.994 98.5117 200.264 98.8477 200.451C99.1837 200.638 99.5617 200.731 99.9817 200.731ZM108.991 202.229C108.226 202.229 107.545 202.066 106.947 201.739C106.35 201.403 105.879 200.946 105.533 200.367C105.188 199.788 105.015 199.13 105.015 198.393C105.015 197.646 105.188 196.988 105.533 196.419C105.879 195.84 106.35 195.388 106.947 195.061C107.545 194.734 108.226 194.571 108.991 194.571C109.766 194.571 110.452 194.734 111.049 195.061C111.656 195.388 112.127 195.836 112.463 196.405C112.809 196.974 112.981 197.637 112.981 198.393C112.981 199.13 112.809 199.788 112.463 200.367C112.127 200.946 111.656 201.403 111.049 201.739C110.452 202.066 109.766 202.229 108.991 202.229ZM108.991 200.731C109.421 200.731 109.803 200.638 110.139 200.451C110.475 200.264 110.737 199.994 110.923 199.639C111.119 199.284 111.217 198.869 111.217 198.393C111.217 197.908 111.119 197.492 110.923 197.147C110.737 196.792 110.475 196.522 110.139 196.335C109.803 196.148 109.425 196.055 109.005 196.055C108.576 196.055 108.193 196.148 107.857 196.335C107.531 196.522 107.269 196.792 107.073 197.147C106.877 197.492 106.779 197.908 106.779 198.393C106.779 198.869 106.877 199.284 107.073 199.639C107.269 199.994 107.531 200.264 107.857 200.451C108.193 200.638 108.571 200.731 108.991 200.731ZM119.165 202.131V200.619L119.067 200.297V197.651C119.067 197.138 118.913 196.741 118.605 196.461C118.297 196.172 117.83 196.027 117.205 196.027C116.785 196.027 116.37 196.092 115.959 196.223C115.558 196.354 115.217 196.536 114.937 196.769L114.251 195.495C114.652 195.187 115.128 194.958 115.679 194.809C116.239 194.65 116.818 194.571 117.415 194.571C118.498 194.571 119.333 194.832 119.921 195.355C120.518 195.868 120.817 196.666 120.817 197.749V202.131H119.165ZM116.813 202.229C116.253 202.229 115.763 202.136 115.343 201.949C114.923 201.753 114.596 201.487 114.363 201.151C114.139 200.806 114.027 200.418 114.027 199.989C114.027 199.569 114.125 199.191 114.321 198.855C114.526 198.519 114.858 198.253 115.315 198.057C115.772 197.861 116.379 197.763 117.135 197.763H119.305V198.925H117.261C116.664 198.925 116.262 199.023 116.057 199.219C115.852 199.406 115.749 199.639 115.749 199.919C115.749 200.236 115.875 200.488 116.127 200.675C116.379 200.862 116.729 200.955 117.177 200.955C117.606 200.955 117.989 200.857 118.325 200.661C118.67 200.465 118.918 200.176 119.067 199.793L119.361 200.843C119.193 201.282 118.89 201.622 118.451 201.865C118.022 202.108 117.476 202.229 116.813 202.229ZM123.063 202.131V194.655H124.729V196.713L124.533 196.111C124.757 195.607 125.107 195.224 125.583 194.963C126.068 194.702 126.67 194.571 127.389 194.571V196.237C127.314 196.218 127.244 196.209 127.179 196.209C127.114 196.2 127.048 196.195 126.983 196.195C126.32 196.195 125.793 196.391 125.401 196.783C125.009 197.166 124.813 197.74 124.813 198.505V202.131H123.063ZM131.969 202.229C131.251 202.229 130.602 202.07 130.023 201.753C129.454 201.426 129.006 200.978 128.679 200.409C128.353 199.84 128.189 199.168 128.189 198.393C128.189 197.618 128.353 196.946 128.679 196.377C129.006 195.808 129.454 195.364 130.023 195.047C130.602 194.73 131.251 194.571 131.969 194.571C132.595 194.571 133.155 194.711 133.649 194.991C134.144 195.262 134.536 195.677 134.825 196.237C135.115 196.797 135.259 197.516 135.259 198.393C135.259 199.261 135.119 199.98 134.839 200.549C134.559 201.109 134.172 201.529 133.677 201.809C133.183 202.089 132.613 202.229 131.969 202.229ZM132.179 200.731C132.599 200.731 132.973 200.638 133.299 200.451C133.635 200.264 133.901 199.994 134.097 199.639C134.303 199.284 134.405 198.869 134.405 198.393C134.405 197.908 134.303 197.492 134.097 197.147C133.901 196.792 133.635 196.522 133.299 196.335C132.973 196.148 132.599 196.055 132.179 196.055C131.759 196.055 131.381 196.148 131.045 196.335C130.719 196.522 130.453 196.792 130.247 197.147C130.051 197.492 129.953 197.908 129.953 198.393C129.953 198.869 130.051 199.284 130.247 199.639C130.453 199.994 130.719 200.264 131.045 200.451C131.381 200.638 131.759 200.731 132.179 200.731ZM134.447 202.131V200.367L134.517 198.379L134.377 196.391V191.743H136.113V202.131H134.447ZM145.716 202.229C144.932 202.229 144.232 202.066 143.616 201.739C143.009 201.403 142.533 200.946 142.188 200.367C141.842 199.788 141.67 199.13 141.67 198.393C141.67 197.646 141.842 196.988 142.188 196.419C142.533 195.84 143.009 195.388 143.616 195.061C144.232 194.734 144.932 194.571 145.716 194.571C146.444 194.571 147.083 194.72 147.634 195.019C148.194 195.308 148.618 195.738 148.908 196.307L147.564 197.091C147.34 196.736 147.064 196.475 146.738 196.307C146.42 196.139 146.075 196.055 145.702 196.055C145.272 196.055 144.885 196.148 144.54 196.335C144.194 196.522 143.924 196.792 143.728 197.147C143.532 197.492 143.434 197.908 143.434 198.393C143.434 198.878 143.532 199.298 143.728 199.653C143.924 199.998 144.194 200.264 144.54 200.451C144.885 200.638 145.272 200.731 145.702 200.731C146.075 200.731 146.42 200.647 146.738 200.479C147.064 200.311 147.34 200.05 147.564 199.695L148.908 200.479C148.618 201.039 148.194 201.473 147.634 201.781C147.083 202.08 146.444 202.229 145.716 202.229ZM150.42 202.131V194.655H152.086V196.713L151.89 196.111C152.114 195.607 152.464 195.224 152.94 194.963C153.426 194.702 154.028 194.571 154.746 194.571V196.237C154.672 196.218 154.602 196.209 154.536 196.209C154.471 196.2 154.406 196.195 154.34 196.195C153.678 196.195 153.15 196.391 152.758 196.783C152.366 197.166 152.17 197.74 152.17 198.505V202.131H150.42ZM159.677 202.229C158.846 202.229 158.118 202.066 157.493 201.739C156.877 201.403 156.396 200.946 156.051 200.367C155.715 199.788 155.547 199.13 155.547 198.393C155.547 197.646 155.71 196.988 156.037 196.419C156.373 195.84 156.83 195.388 157.409 195.061C157.997 194.734 158.664 194.571 159.411 194.571C160.139 194.571 160.787 194.73 161.357 195.047C161.926 195.364 162.374 195.812 162.701 196.391C163.027 196.97 163.191 197.651 163.191 198.435C163.191 198.51 163.186 198.594 163.177 198.687C163.177 198.78 163.172 198.869 163.163 198.953H156.933V197.791H162.239L161.553 198.155C161.562 197.726 161.473 197.348 161.287 197.021C161.1 196.694 160.843 196.438 160.517 196.251C160.199 196.064 159.831 195.971 159.411 195.971C158.981 195.971 158.603 196.064 158.277 196.251C157.959 196.438 157.707 196.699 157.521 197.035C157.343 197.362 157.255 197.749 157.255 198.197V198.477C157.255 198.925 157.357 199.322 157.563 199.667C157.768 200.012 158.057 200.278 158.431 200.465C158.804 200.652 159.233 200.745 159.719 200.745C160.139 200.745 160.517 200.68 160.853 200.549C161.189 200.418 161.487 200.213 161.749 199.933L162.687 201.011C162.351 201.403 161.926 201.706 161.413 201.921C160.909 202.126 160.33 202.229 159.677 202.229ZM169.273 202.131V200.619L169.175 200.297V197.651C169.175 197.138 169.021 196.741 168.713 196.461C168.405 196.172 167.938 196.027 167.313 196.027C166.893 196.027 166.477 196.092 166.067 196.223C165.665 196.354 165.325 196.536 165.045 196.769L164.359 195.495C164.76 195.187 165.236 194.958 165.787 194.809C166.347 194.65 166.925 194.571 167.523 194.571C168.605 194.571 169.441 194.832 170.029 195.355C170.626 195.868 170.925 196.666 170.925 197.749V202.131H169.273ZM166.921 202.229C166.361 202.229 165.871 202.136 165.451 201.949C165.031 201.753 164.704 201.487 164.471 201.151C164.247 200.806 164.135 200.418 164.135 199.989C164.135 199.569 164.233 199.191 164.429 198.855C164.634 198.519 164.965 198.253 165.423 198.057C165.88 197.861 166.487 197.763 167.243 197.763H169.413V198.925H167.369C166.771 198.925 166.37 199.023 166.165 199.219C165.959 199.406 165.857 199.639 165.857 199.919C165.857 200.236 165.983 200.488 166.235 200.675C166.487 200.862 166.837 200.955 167.285 200.955C167.714 200.955 168.097 200.857 168.433 200.661C168.778 200.465 169.025 200.176 169.175 199.793L169.469 200.843C169.301 201.282 168.997 201.622 168.559 201.865C168.129 202.108 167.583 202.229 166.921 202.229ZM175.984 202.229C175.163 202.229 174.528 202.019 174.08 201.599C173.632 201.17 173.408 200.54 173.408 199.709V193.003H175.158V199.667C175.158 200.022 175.247 200.297 175.424 200.493C175.611 200.689 175.868 200.787 176.194 200.787C176.586 200.787 176.913 200.684 177.174 200.479L177.664 201.725C177.459 201.893 177.207 202.019 176.908 202.103C176.61 202.187 176.302 202.229 175.984 202.229ZM172.176 196.111V194.711H177.16V196.111H172.176ZM182.372 202.229C181.541 202.229 180.813 202.066 180.188 201.739C179.572 201.403 179.091 200.946 178.746 200.367C178.41 199.788 178.242 199.13 178.242 198.393C178.242 197.646 178.405 196.988 178.732 196.419C179.068 195.84 179.525 195.388 180.104 195.061C180.692 194.734 181.359 194.571 182.106 194.571C182.834 194.571 183.483 194.73 184.052 195.047C184.621 195.364 185.069 195.812 185.396 196.391C185.723 196.97 185.886 197.651 185.886 198.435C185.886 198.51 185.881 198.594 185.872 198.687C185.872 198.78 185.867 198.869 185.858 198.953H179.628V197.791H184.934L184.248 198.155C184.257 197.726 184.169 197.348 183.982 197.021C183.795 196.694 183.539 196.438 183.212 196.251C182.895 196.064 182.526 195.971 182.106 195.971C181.677 195.971 181.299 196.064 180.972 196.251C180.655 196.438 180.403 196.699 180.216 197.035C180.039 197.362 179.95 197.749 179.95 198.197V198.477C179.95 198.925 180.053 199.322 180.258 199.667C180.463 200.012 180.753 200.278 181.126 200.465C181.499 200.652 181.929 200.745 182.414 200.745C182.834 200.745 183.212 200.68 183.548 200.549C183.884 200.418 184.183 200.213 184.444 199.933L185.382 201.011C185.046 201.403 184.621 201.706 184.108 201.921C183.604 202.126 183.025 202.229 182.372 202.229ZM190.731 202.229C190.012 202.229 189.364 202.07 188.785 201.753C188.216 201.426 187.768 200.978 187.441 200.409C187.114 199.84 186.951 199.168 186.951 198.393C186.951 197.618 187.114 196.946 187.441 196.377C187.768 195.808 188.216 195.364 188.785 195.047C189.364 194.73 190.012 194.571 190.731 194.571C191.356 194.571 191.916 194.711 192.411 194.991C192.906 195.262 193.298 195.677 193.587 196.237C193.876 196.797 194.021 197.516 194.021 198.393C194.021 199.261 193.881 199.98 193.601 200.549C193.321 201.109 192.934 201.529 192.439 201.809C191.944 202.089 191.375 202.229 190.731 202.229ZM190.941 200.731C191.361 200.731 191.734 200.638 192.061 200.451C192.397 200.264 192.663 199.994 192.859 199.639C193.064 199.284 193.167 198.869 193.167 198.393C193.167 197.908 193.064 197.492 192.859 197.147C192.663 196.792 192.397 196.522 192.061 196.335C191.734 196.148 191.361 196.055 190.941 196.055C190.521 196.055 190.143 196.148 189.807 196.335C189.48 196.522 189.214 196.792 189.009 197.147C188.813 197.492 188.715 197.908 188.715 198.393C188.715 198.869 188.813 199.284 189.009 199.639C189.214 199.994 189.48 200.264 189.807 200.451C190.143 200.638 190.521 200.731 190.941 200.731ZM193.209 202.131V200.367L193.279 198.379L193.139 196.391V191.743H194.875V202.131H193.209Z" fill="#210B03"/>
<path d="M34.6155 222.191C34.0889 222.191 33.6022 222.104 33.1555 221.931C32.7089 221.751 32.3222 221.501 31.9955 221.181C31.6689 220.861 31.4122 220.484 31.2255 220.051C31.0455 219.618 30.9555 219.144 30.9555 218.631C30.9555 218.118 31.0455 217.644 31.2255 217.211C31.4122 216.778 31.6689 216.401 31.9955 216.081C32.3289 215.761 32.7189 215.514 33.1655 215.341C33.6122 215.161 34.0989 215.071 34.6255 215.071C35.1322 215.071 35.6089 215.158 36.0555 215.331C36.5022 215.498 36.8789 215.751 37.1855 216.091L36.7155 216.561C36.4289 216.268 36.1122 216.058 35.7655 215.931C35.4189 215.798 35.0455 215.731 34.6455 215.731C34.2255 215.731 33.8355 215.804 33.4755 215.951C33.1155 216.091 32.8022 216.294 32.5355 216.561C32.2689 216.821 32.0589 217.128 31.9055 217.481C31.7589 217.828 31.6855 218.211 31.6855 218.631C31.6855 219.051 31.7589 219.438 31.9055 219.791C32.0589 220.138 32.2689 220.444 32.5355 220.711C32.8022 220.971 33.1155 221.174 33.4755 221.321C33.8355 221.461 34.2255 221.531 34.6455 221.531C35.0455 221.531 35.4189 221.464 35.7655 221.331C36.1122 221.198 36.4289 220.984 36.7155 220.691L37.1855 221.161C36.8789 221.501 36.5022 221.758 36.0555 221.931C35.6089 222.104 35.1289 222.191 34.6155 222.191ZM38.613 222.131V216.881H39.293V218.311L39.223 218.061C39.3697 217.661 39.6164 217.358 39.963 217.151C40.3097 216.938 40.7397 216.831 41.253 216.831V217.521C41.2264 217.521 41.1997 217.521 41.173 217.521C41.1464 217.514 41.1197 217.511 41.093 217.511C40.5397 217.511 40.1064 217.681 39.793 218.021C39.4797 218.354 39.323 218.831 39.323 219.451V222.131H38.613ZM44.7298 222.181C44.1831 222.181 43.7031 222.068 43.2898 221.841C42.8764 221.608 42.5531 221.291 42.3198 220.891C42.0864 220.484 41.9698 220.021 41.9698 219.501C41.9698 218.981 42.0798 218.521 42.2998 218.121C42.5264 217.721 42.8331 217.408 43.2198 217.181C43.6131 216.948 44.0531 216.831 44.5398 216.831C45.0331 216.831 45.4698 216.944 45.8498 217.171C46.2364 217.391 46.5398 217.704 46.7598 218.111C46.9798 218.511 47.0898 218.974 47.0898 219.501C47.0898 219.534 47.0864 219.571 47.0798 219.611C47.0798 219.644 47.0798 219.681 47.0798 219.721H42.5098V219.191H46.6998L46.4198 219.401C46.4198 219.021 46.3364 218.684 46.1698 218.391C46.0098 218.091 45.7898 217.858 45.5098 217.691C45.2298 217.524 44.9064 217.441 44.5398 217.441C44.1798 217.441 43.8564 217.524 43.5698 217.691C43.2831 217.858 43.0598 218.091 42.8998 218.391C42.7398 218.691 42.6598 219.034 42.6598 219.421V219.531C42.6598 219.931 42.7464 220.284 42.9198 220.591C43.0998 220.891 43.3464 221.128 43.6598 221.301C43.9798 221.468 44.3431 221.551 44.7498 221.551C45.0698 221.551 45.3664 221.494 45.6398 221.381C45.9198 221.268 46.1598 221.094 46.3598 220.861L46.7598 221.321C46.5264 221.601 46.2331 221.814 45.8798 221.961C45.5331 222.108 45.1498 222.181 44.7298 222.181ZM51.6784 222.131V220.971L51.6484 220.781V218.841C51.6484 218.394 51.5218 218.051 51.2684 217.811C51.0218 217.571 50.6518 217.451 50.1584 217.451C49.8184 217.451 49.4951 217.508 49.1884 217.621C48.8818 217.734 48.6218 217.884 48.4084 218.071L48.0884 217.541C48.3551 217.314 48.6751 217.141 49.0484 217.021C49.4218 216.894 49.8151 216.831 50.2284 216.831C50.9084 216.831 51.4318 217.001 51.7984 217.341C52.1718 217.674 52.3584 218.184 52.3584 218.871V222.131H51.6784ZM49.8684 222.181C49.4751 222.181 49.1318 222.118 48.8384 221.991C48.5518 221.858 48.3318 221.678 48.1784 221.451C48.0251 221.218 47.9484 220.951 47.9484 220.651C47.9484 220.378 48.0118 220.131 48.1384 219.911C48.2718 219.684 48.4851 219.504 48.7784 219.371C49.0784 219.231 49.4784 219.161 49.9784 219.161H51.7884V219.691H49.9984C49.4918 219.691 49.1384 219.781 48.9384 219.961C48.7451 220.141 48.6484 220.364 48.6484 220.631C48.6484 220.931 48.7651 221.171 48.9984 221.351C49.2318 221.531 49.5584 221.621 49.9784 221.621C50.3784 221.621 50.7218 221.531 51.0084 221.351C51.3018 221.164 51.5151 220.898 51.6484 220.551L51.8084 221.041C51.6751 221.388 51.4418 221.664 51.1084 221.871C50.7818 222.078 50.3684 222.181 49.8684 222.181ZM55.9469 222.181C55.4535 222.181 55.0735 222.048 54.8069 221.781C54.5402 221.514 54.4069 221.138 54.4069 220.651V215.721H55.1169V220.611C55.1169 220.918 55.1935 221.154 55.3469 221.321C55.5069 221.488 55.7335 221.571 56.0269 221.571C56.3402 221.571 56.6002 221.481 56.8069 221.301L57.0569 221.811C56.9169 221.938 56.7469 222.031 56.5469 222.091C56.3535 222.151 56.1535 222.181 55.9469 222.181ZM53.4669 217.471V216.881H56.7169V217.471H53.4669ZM60.3938 222.181C59.8472 222.181 59.3672 222.068 58.9538 221.841C58.5405 221.608 58.2172 221.291 57.9838 220.891C57.7505 220.484 57.6338 220.021 57.6338 219.501C57.6338 218.981 57.7438 218.521 57.9638 218.121C58.1905 217.721 58.4972 217.408 58.8838 217.181C59.2772 216.948 59.7172 216.831 60.2038 216.831C60.6972 216.831 61.1338 216.944 61.5138 217.171C61.9005 217.391 62.2038 217.704 62.4238 218.111C62.6438 218.511 62.7538 218.974 62.7538 219.501C62.7538 219.534 62.7505 219.571 62.7438 219.611C62.7438 219.644 62.7438 219.681 62.7438 219.721H58.1738V219.191H62.3638L62.0838 219.401C62.0838 219.021 62.0005 218.684 61.8338 218.391C61.6738 218.091 61.4538 217.858 61.1738 217.691C60.8938 217.524 60.5705 217.441 60.2038 217.441C59.8438 217.441 59.5205 217.524 59.2338 217.691C58.9472 217.858 58.7238 218.091 58.5638 218.391C58.4038 218.691 58.3238 219.034 58.3238 219.421V219.531C58.3238 219.931 58.4105 220.284 58.5838 220.591C58.7638 220.891 59.0105 221.128 59.3238 221.301C59.6438 221.468 60.0072 221.551 60.4138 221.551C60.7338 221.551 61.0305 221.494 61.3038 221.381C61.5838 221.268 61.8238 221.094 62.0238 220.861L62.4238 221.321C62.1905 221.601 61.8972 221.814 61.5438 221.961C61.1972 222.108 60.8138 222.181 60.3938 222.181ZM66.8562 224.121C66.6095 224.121 66.3728 224.081 66.1462 224.001C65.9262 223.921 65.7362 223.801 65.5762 223.641L65.9062 223.111C66.0395 223.238 66.1828 223.334 66.3362 223.401C66.4962 223.474 66.6728 223.511 66.8662 223.511C67.0995 223.511 67.2995 223.444 67.4662 223.311C67.6395 223.184 67.8028 222.958 67.9562 222.631L68.2962 221.861L68.3762 221.751L70.5362 216.881H71.2362L68.6062 222.761C68.4595 223.101 68.2962 223.371 68.1162 223.571C67.9428 223.771 67.7528 223.911 67.5462 223.991C67.3395 224.078 67.1095 224.121 66.8562 224.121ZM68.2562 222.281L65.8362 216.881H66.5762L68.7162 221.701L68.2562 222.281ZM74.2296 222.181C73.7229 222.181 73.2663 222.068 72.8596 221.841C72.4596 221.608 72.1429 221.291 71.9096 220.891C71.6763 220.484 71.5596 220.021 71.5596 219.501C71.5596 218.974 71.6763 218.511 71.9096 218.111C72.1429 217.711 72.4596 217.398 72.8596 217.171C73.2596 216.944 73.7163 216.831 74.2296 216.831C74.7496 216.831 75.2096 216.944 75.6096 217.171C76.0163 217.398 76.3329 217.711 76.5596 218.111C76.7929 218.511 76.9096 218.974 76.9096 219.501C76.9096 220.021 76.7929 220.484 76.5596 220.891C76.3329 221.291 76.0163 221.608 75.6096 221.841C75.2029 222.068 74.7429 222.181 74.2296 222.181ZM74.2296 221.551C74.6096 221.551 74.9463 221.468 75.2396 221.301C75.5329 221.128 75.7629 220.888 75.9296 220.581C76.1029 220.268 76.1896 219.908 76.1896 219.501C76.1896 219.088 76.1029 218.728 75.9296 218.421C75.7629 218.114 75.5329 217.878 75.2396 217.711C74.9463 217.538 74.6129 217.451 74.2396 217.451C73.8663 217.451 73.5329 217.538 73.2396 217.711C72.9463 217.878 72.7129 218.114 72.5396 218.421C72.3663 218.728 72.2796 219.088 72.2796 219.501C72.2796 219.908 72.3663 220.268 72.5396 220.581C72.7129 220.888 72.9463 221.128 73.2396 221.301C73.5329 221.468 73.8629 221.551 74.2296 221.551ZM80.5291 222.181C80.0825 222.181 79.6925 222.098 79.3591 221.931C79.0258 221.764 78.7658 221.514 78.5791 221.181C78.3991 220.848 78.3091 220.431 78.3091 219.931V216.881H79.0191V219.851C79.0191 220.411 79.1558 220.834 79.4291 221.121C79.7091 221.401 80.0991 221.541 80.5991 221.541C80.9658 221.541 81.2825 221.468 81.5491 221.321C81.8225 221.168 82.0291 220.948 82.1691 220.661C82.3158 220.374 82.3891 220.031 82.3891 219.631V216.881H83.0991V222.131H82.4191V220.691L82.5291 220.951C82.3625 221.338 82.1025 221.641 81.7491 221.861C81.4025 222.074 80.9958 222.181 80.5291 222.181ZM85.0779 222.131V216.881H85.7579V218.311L85.6879 218.061C85.8346 217.661 86.0812 217.358 86.4279 217.151C86.7746 216.938 87.2046 216.831 87.7179 216.831V217.521C87.6912 217.521 87.6646 217.521 87.6379 217.521C87.6112 217.514 87.5846 217.511 87.5579 217.511C87.0046 217.511 86.5712 217.681 86.2579 218.021C85.9446 218.354 85.7879 218.831 85.7879 219.451V222.131H85.0779ZM91.8288 222.131V216.221C91.8288 215.754 91.9654 215.378 92.2388 215.091C92.5121 214.804 92.9054 214.661 93.4188 214.661C93.6188 214.661 93.8121 214.688 93.9988 214.741C94.1854 214.794 94.3421 214.878 94.4688 214.991L94.2288 215.521C94.1288 215.434 94.0121 215.371 93.8788 215.331C93.7454 215.284 93.6021 215.261 93.4488 215.261C93.1488 215.261 92.9188 215.344 92.7588 215.511C92.5988 215.678 92.5188 215.924 92.5188 216.251V217.051L92.5388 217.381V222.131H91.8288ZM90.8888 217.471V216.881H94.1388V217.471H90.8888ZM95.0974 222.131V216.881H95.8074V222.131H95.0974ZM95.4574 215.721C95.3108 215.721 95.1874 215.671 95.0874 215.571C94.9874 215.471 94.9374 215.351 94.9374 215.211C94.9374 215.071 94.9874 214.954 95.0874 214.861C95.1874 214.761 95.3108 214.711 95.4574 214.711C95.6041 214.711 95.7274 214.758 95.8274 214.851C95.9274 214.944 95.9774 215.061 95.9774 215.201C95.9774 215.348 95.9274 215.471 95.8274 215.571C95.7341 215.671 95.6108 215.721 95.4574 215.721ZM97.783 222.131V216.881H98.463V218.311L98.393 218.061C98.5396 217.661 98.7863 217.358 99.133 217.151C99.4796 216.938 99.9096 216.831 100.423 216.831V217.521C100.396 217.521 100.37 217.521 100.343 217.521C100.316 217.514 100.29 217.511 100.263 217.511C99.7096 217.511 99.2763 217.681 98.963 218.021C98.6496 218.354 98.493 218.831 98.493 219.451V222.131H97.783ZM103.187 222.181C102.754 222.181 102.344 222.121 101.957 222.001C101.57 221.874 101.267 221.718 101.047 221.531L101.367 220.971C101.58 221.131 101.854 221.271 102.187 221.391C102.52 221.504 102.87 221.561 103.237 221.561C103.737 221.561 104.097 221.484 104.317 221.331C104.537 221.171 104.647 220.961 104.647 220.701C104.647 220.508 104.584 220.358 104.457 220.251C104.337 220.138 104.177 220.054 103.977 220.001C103.777 219.941 103.554 219.891 103.307 219.851C103.06 219.811 102.814 219.764 102.567 219.711C102.327 219.658 102.107 219.581 101.907 219.481C101.707 219.374 101.544 219.231 101.417 219.051C101.297 218.871 101.237 218.631 101.237 218.331C101.237 218.044 101.317 217.788 101.477 217.561C101.637 217.334 101.87 217.158 102.177 217.031C102.49 216.898 102.87 216.831 103.317 216.831C103.657 216.831 103.997 216.878 104.337 216.971C104.677 217.058 104.957 217.174 105.177 217.321L104.867 217.891C104.634 217.731 104.384 217.618 104.117 217.551C103.85 217.478 103.584 217.441 103.317 217.441C102.844 217.441 102.494 217.524 102.267 217.691C102.047 217.851 101.937 218.058 101.937 218.311C101.937 218.511 101.997 218.668 102.117 218.781C102.244 218.894 102.407 218.984 102.607 219.051C102.814 219.111 103.037 219.161 103.277 219.201C103.524 219.241 103.767 219.291 104.007 219.351C104.254 219.404 104.477 219.481 104.677 219.581C104.884 219.674 105.047 219.811 105.167 219.991C105.294 220.164 105.357 220.394 105.357 220.681C105.357 220.988 105.27 221.254 105.097 221.481C104.93 221.701 104.684 221.874 104.357 222.001C104.037 222.121 103.647 222.181 103.187 222.181ZM108.32 222.181C107.827 222.181 107.447 222.048 107.18 221.781C106.913 221.514 106.78 221.138 106.78 220.651V215.721H107.49V220.611C107.49 220.918 107.567 221.154 107.72 221.321C107.88 221.488 108.107 221.571 108.4 221.571C108.713 221.571 108.973 221.481 109.18 221.301L109.43 221.811C109.29 221.938 109.12 222.031 108.92 222.091C108.727 222.151 108.527 222.181 108.32 222.181ZM105.84 217.471V216.881H109.09V217.471H105.84ZM114.41 222.131L112.43 216.881H113.11L114.91 221.751H114.6L116.45 216.881H117.06L118.89 221.751H118.58L120.41 216.881H121.06L119.07 222.131H118.4L116.64 217.551H116.85L115.08 222.131H114.41ZM124.809 216.831C125.235 216.831 125.609 216.914 125.929 217.081C126.255 217.241 126.509 217.488 126.689 217.821C126.875 218.154 126.969 218.574 126.969 219.081V222.131H126.259V219.151C126.259 218.598 126.119 218.181 125.839 217.901C125.565 217.614 125.179 217.471 124.679 217.471C124.305 217.471 123.979 217.548 123.699 217.701C123.425 217.848 123.212 218.064 123.059 218.351C122.912 218.631 122.839 218.971 122.839 219.371V222.131H122.129V214.711H122.839V218.321L122.699 218.051C122.865 217.671 123.132 217.374 123.499 217.161C123.865 216.941 124.302 216.831 124.809 216.831ZM128.886 222.131V216.881H129.596V222.131H128.886ZM129.246 215.721C129.1 215.721 128.976 215.671 128.876 215.571C128.776 215.471 128.726 215.351 128.726 215.211C128.726 215.071 128.776 214.954 128.876 214.861C128.976 214.761 129.1 214.711 129.246 214.711C129.393 214.711 129.516 214.758 129.616 214.851C129.716 214.944 129.766 215.061 129.766 215.201C129.766 215.348 129.716 215.471 129.616 215.571C129.523 215.671 129.4 215.721 129.246 215.721ZM133.232 222.181C132.739 222.181 132.359 222.048 132.092 221.781C131.825 221.514 131.692 221.138 131.692 220.651V215.721H132.402V220.611C132.402 220.918 132.479 221.154 132.632 221.321C132.792 221.488 133.019 221.571 133.312 221.571C133.625 221.571 133.885 221.481 134.092 221.301L134.342 221.811C134.202 221.938 134.032 222.031 133.832 222.091C133.639 222.151 133.439 222.181 133.232 222.181ZM130.752 217.471V216.881H134.002V217.471H130.752ZM137.679 222.181C137.132 222.181 136.652 222.068 136.239 221.841C135.826 221.608 135.502 221.291 135.269 220.891C135.036 220.484 134.919 220.021 134.919 219.501C134.919 218.981 135.029 218.521 135.249 218.121C135.476 217.721 135.782 217.408 136.169 217.181C136.562 216.948 137.002 216.831 137.489 216.831C137.982 216.831 138.419 216.944 138.799 217.171C139.186 217.391 139.489 217.704 139.709 218.111C139.929 218.511 140.039 218.974 140.039 219.501C140.039 219.534 140.036 219.571 140.029 219.611C140.029 219.644 140.029 219.681 140.029 219.721H135.459V219.191H139.649L139.369 219.401C139.369 219.021 139.286 218.684 139.119 218.391C138.959 218.091 138.739 217.858 138.459 217.691C138.179 217.524 137.856 217.441 137.489 217.441C137.129 217.441 136.806 217.524 136.519 217.691C136.232 217.858 136.009 218.091 135.849 218.391C135.689 218.691 135.609 219.034 135.609 219.421V219.531C135.609 219.931 135.696 220.284 135.869 220.591C136.049 220.891 136.296 221.128 136.609 221.301C136.929 221.468 137.292 221.551 137.699 221.551C138.019 221.551 138.316 221.494 138.589 221.381C138.869 221.268 139.109 221.094 139.309 220.861L139.709 221.321C139.476 221.601 139.182 221.814 138.829 221.961C138.482 222.108 138.099 222.181 137.679 222.181ZM144.194 222.181C143.734 222.181 143.321 222.078 142.954 221.871C142.587 221.658 142.297 221.351 142.084 220.951C141.871 220.551 141.764 220.068 141.764 219.501C141.764 218.928 141.871 218.444 142.084 218.051C142.304 217.651 142.597 217.348 142.964 217.141C143.331 216.934 143.741 216.831 144.194 216.831C144.694 216.831 145.141 216.944 145.534 217.171C145.934 217.391 146.247 217.701 146.474 218.101C146.701 218.501 146.814 218.968 146.814 219.501C146.814 220.028 146.701 220.494 146.474 220.901C146.247 221.301 145.934 221.614 145.534 221.841C145.141 222.068 144.694 222.181 144.194 222.181ZM141.484 222.131V214.711H142.194V218.431L142.094 219.491L142.164 220.551V222.131H141.484ZM144.144 221.551C144.517 221.551 144.851 221.468 145.144 221.301C145.437 221.128 145.671 220.888 145.844 220.581C146.017 220.268 146.104 219.908 146.104 219.501C146.104 219.088 146.017 218.728 145.844 218.421C145.671 218.114 145.437 217.878 145.144 217.711C144.851 217.538 144.517 217.451 144.144 217.451C143.771 217.451 143.434 217.538 143.134 217.711C142.841 217.878 142.607 218.114 142.434 218.421C142.267 218.728 142.184 219.088 142.184 219.501C142.184 219.908 142.267 220.268 142.434 220.581C142.607 220.888 142.841 221.128 143.134 221.301C143.434 221.468 143.771 221.551 144.144 221.551ZM150.401 222.181C149.895 222.181 149.438 222.068 149.031 221.841C148.631 221.608 148.315 221.291 148.081 220.891C147.848 220.484 147.731 220.021 147.731 219.501C147.731 218.974 147.848 218.511 148.081 218.111C148.315 217.711 148.631 217.398 149.031 217.171C149.431 216.944 149.888 216.831 150.401 216.831C150.921 216.831 151.381 216.944 151.781 217.171C152.188 217.398 152.505 217.711 152.731 218.111C152.965 218.511 153.081 218.974 153.081 219.501C153.081 220.021 152.965 220.484 152.731 220.891C152.505 221.291 152.188 221.608 151.781 221.841C151.375 222.068 150.915 222.181 150.401 222.181ZM150.401 221.551C150.781 221.551 151.118 221.468 151.411 221.301C151.705 221.128 151.935 220.888 152.101 220.581C152.275 220.268 152.361 219.908 152.361 219.501C152.361 219.088 152.275 218.728 152.101 218.421C151.935 218.114 151.705 217.878 151.411 217.711C151.118 217.538 150.785 217.451 150.411 217.451C150.038 217.451 149.705 217.538 149.411 217.711C149.118 217.878 148.885 218.114 148.711 218.421C148.538 218.728 148.451 219.088 148.451 219.501C148.451 219.908 148.538 220.268 148.711 220.581C148.885 220.888 149.118 221.128 149.411 221.301C149.705 221.468 150.035 221.551 150.401 221.551ZM157.792 222.131V220.971L157.762 220.781V218.841C157.762 218.394 157.635 218.051 157.382 217.811C157.135 217.571 156.765 217.451 156.272 217.451C155.932 217.451 155.608 217.508 155.302 217.621C154.995 217.734 154.735 217.884 154.522 218.071L154.202 217.541C154.468 217.314 154.788 217.141 155.162 217.021C155.535 216.894 155.928 216.831 156.342 216.831C157.022 216.831 157.545 217.001 157.912 217.341C158.285 217.674 158.472 218.184 158.472 218.871V222.131H157.792ZM155.982 222.181C155.588 222.181 155.245 222.118 154.952 221.991C154.665 221.858 154.445 221.678 154.292 221.451C154.138 221.218 154.062 220.951 154.062 220.651C154.062 220.378 154.125 220.131 154.252 219.911C154.385 219.684 154.598 219.504 154.892 219.371C155.192 219.231 155.592 219.161 156.092 219.161H157.902V219.691H156.112C155.605 219.691 155.252 219.781 155.052 219.961C154.858 220.141 154.762 220.364 154.762 220.631C154.762 220.931 154.878 221.171 155.112 221.351C155.345 221.531 155.672 221.621 156.092 221.621C156.492 221.621 156.835 221.531 157.122 221.351C157.415 221.164 157.628 220.898 157.762 220.551L157.922 221.041C157.788 221.388 157.555 221.664 157.222 221.871C156.895 222.078 156.482 222.181 155.982 222.181ZM160.4 222.131V216.881H161.08V218.311L161.01 218.061C161.157 217.661 161.403 217.358 161.75 217.151C162.097 216.938 162.527 216.831 163.04 216.831V217.521C163.013 217.521 162.987 217.521 162.96 217.521C162.933 217.514 162.907 217.511 162.88 217.511C162.327 217.511 161.893 217.681 161.58 218.021C161.267 218.354 161.11 218.831 161.11 219.451V222.131H160.4ZM166.377 222.181C165.877 222.181 165.427 222.068 165.027 221.841C164.634 221.614 164.324 221.301 164.097 220.901C163.87 220.494 163.757 220.028 163.757 219.501C163.757 218.968 163.87 218.501 164.097 218.101C164.324 217.701 164.634 217.391 165.027 217.171C165.427 216.944 165.877 216.831 166.377 216.831C166.837 216.831 167.247 216.934 167.607 217.141C167.974 217.348 168.264 217.651 168.477 218.051C168.697 218.444 168.807 218.928 168.807 219.501C168.807 220.068 168.7 220.551 168.487 220.951C168.274 221.351 167.984 221.658 167.617 221.871C167.257 222.078 166.844 222.181 166.377 222.181ZM166.427 221.551C166.8 221.551 167.134 221.468 167.427 221.301C167.727 221.128 167.96 220.888 168.127 220.581C168.3 220.268 168.387 219.908 168.387 219.501C168.387 219.088 168.3 218.728 168.127 218.421C167.96 218.114 167.727 217.878 167.427 217.711C167.134 217.538 166.8 217.451 166.427 217.451C166.06 217.451 165.73 217.538 165.437 217.711C165.144 217.878 164.91 218.114 164.737 218.421C164.564 218.728 164.477 219.088 164.477 219.501C164.477 219.908 164.564 220.268 164.737 220.581C164.91 220.888 165.144 221.128 165.437 221.301C165.73 221.468 166.06 221.551 166.427 221.551ZM168.407 222.131V220.551L168.477 219.491L168.377 218.431V214.711H169.087V222.131H168.407ZM176.361 216.831C176.788 216.831 177.161 216.914 177.481 217.081C177.808 217.241 178.061 217.488 178.241 217.821C178.428 218.154 178.521 218.574 178.521 219.081V222.131H177.811V219.151C177.811 218.598 177.671 218.181 177.391 217.901C177.118 217.614 176.731 217.471 176.231 217.471C175.858 217.471 175.531 217.548 175.251 217.701C174.978 217.848 174.765 218.064 174.611 218.351C174.465 218.631 174.391 218.971 174.391 219.371V222.131H173.681V216.881H174.361V218.321L174.251 218.051C174.418 217.671 174.685 217.374 175.051 217.161C175.418 216.941 175.855 216.831 176.361 216.831ZM182.579 222.181C182.073 222.181 181.616 222.068 181.209 221.841C180.809 221.608 180.493 221.291 180.259 220.891C180.026 220.484 179.909 220.021 179.909 219.501C179.909 218.974 180.026 218.511 180.259 218.111C180.493 217.711 180.809 217.398 181.209 217.171C181.609 216.944 182.066 216.831 182.579 216.831C183.099 216.831 183.559 216.944 183.959 217.171C184.366 217.398 184.683 217.711 184.909 218.111C185.143 218.511 185.259 218.974 185.259 219.501C185.259 220.021 185.143 220.484 184.909 220.891C184.683 221.291 184.366 221.608 183.959 221.841C183.553 222.068 183.093 222.181 182.579 222.181ZM182.579 221.551C182.959 221.551 183.296 221.468 183.589 221.301C183.883 221.128 184.113 220.888 184.279 220.581C184.453 220.268 184.539 219.908 184.539 219.501C184.539 219.088 184.453 218.728 184.279 218.421C184.113 218.114 183.883 217.878 183.589 217.711C183.296 217.538 182.963 217.451 182.589 217.451C182.216 217.451 181.883 217.538 181.589 217.711C181.296 217.878 181.063 218.114 180.889 218.421C180.716 218.728 180.629 219.088 180.629 219.501C180.629 219.908 180.716 220.268 180.889 220.581C181.063 220.888 181.296 221.128 181.589 221.301C181.883 221.468 182.213 221.551 182.579 221.551ZM187.632 222.131L185.652 216.881H186.332L188.132 221.751H187.822L189.672 216.881H190.282L192.112 221.751H191.802L193.632 216.881H194.282L192.292 222.131H191.622L189.862 217.551H190.072L188.302 222.131H187.632Z" fill="#210B03" fill-opacity="0.7"/>
<defs>
<clipPath id="clip0_1037_49653">
<rect width="54.0809" height="76.3326" fill="white" transform="translate(21.3945 55.0859) rotate(16.277)"/>
</clipPath>
</defs>
</svg>
