<svg width="232" height="159" viewBox="0 0 232 159" fill="none" xmlns="http://www.w3.org/2000/svg">
<path d="M172.619 139.107L220.577 119.789L154.282 150.821L0.535156 129.233L172.619 139.107Z" fill="#F2973E"/>
<path d="M41.4432 119.359L172.622 139.107L152.875 150.391L4.76953 127.823L41.4432 119.359Z" fill="#F2973E"/>
<path d="M57.0874 8.60183C49.034 43.0697 41.2503 77.6531 34.1987 112.352C33.8712 113.913 36.2602 114.606 36.607 113.027C44.2559 78.4238 51.1726 43.6284 57.8003 8.81376C57.8966 8.35136 57.1838 8.13943 57.0874 8.62109V8.60183Z" fill="#210B03"/>
<path d="M34.0043 112.66C34.1199 115.8 36.4511 118.69 39.5145 119.442C40.6127 119.712 40.998 118.17 39.9769 117.766C37.53 116.822 35.7768 115.011 34.929 112.525C34.7749 112.043 33.985 112.101 34.0043 112.641V112.66Z" fill="#210B03"/>
<path d="M42.3463 120.865C84.8291 125.605 127.254 131.924 169.371 139.226C171.028 139.515 171.741 136.972 170.065 136.702C127.639 129.439 85.1567 123.967 42.3271 119.748C41.5949 119.671 41.6142 120.808 42.3271 120.885L42.3463 120.865Z" fill="#210B03"/>
<path d="M171.623 138.169C174.533 137.822 177.23 136.724 179.831 135.356C181.064 134.701 179.966 132.813 178.733 133.487C176.324 134.816 173.781 135.895 171.354 137.186C170.91 137.417 171.084 138.227 171.623 138.169Z" fill="#210B03"/>
<path d="M182.251 132.835C195.006 94.3214 203.849 54.1314 212.654 14.5579C213.001 12.9973 210.612 12.3422 210.265 13.9028C201.422 53.669 190.42 92.8957 181.462 132.623C181.346 133.143 182.078 133.336 182.251 132.835Z" fill="#210B03"/>
<path d="M211.389 14.0507C211.947 9.34967 208.306 5.43856 203.759 4.8413C202.333 4.64863 202.276 6.99915 203.759 7.13402C207.208 7.46155 209.886 10.6983 210.021 14.07C210.059 14.9755 211.292 14.937 211.389 14.07V14.0507Z" fill="#210B03"/>
<path d="M58.0452 8.94921C59.1626 8.12075 60.4535 7.52348 61.5902 6.67576C62.6691 5.86656 63.6903 5.01883 64.7307 4.1711C65.694 3.38118 64.3068 1.97472 63.3435 2.78391C62.3223 3.65091 61.3012 4.5179 60.3379 5.4427C59.3553 6.36749 58.5846 7.48495 57.6213 8.39048C57.3323 8.66021 57.7176 9.18041 58.0452 8.92994V8.94921Z" fill="#210B03"/>
<path d="M64.9846 3.99529C87.8155 4.66962 110.492 3.62922 133.362 4.93935C155.942 6.23021 178.503 7.40547 201.065 4.97788C202.644 4.80448 202.644 2.3191 201.065 2.4925C155.75 7.34767 110.011 -3.63426 64.8883 3.16683C64.4066 3.24389 64.5415 3.97602 65.0039 3.99529H64.9846Z" fill="#210B03"/>
<path d="M163.634 134.566C172.516 133.391 177.583 126.455 180.782 118.517C186.889 103.355 189.895 86.2459 194.153 70.4859C198.41 54.7258 202.765 39.0043 206.907 23.225C208.834 15.8459 210.568 6.90626 201.647 3.97774C200.183 3.49608 199.566 5.80807 201.011 6.27046C204.268 7.33012 205.481 17.7341 205.135 20.7782C204.865 23.1672 203.824 25.7297 203.208 28.0609C201.917 32.9161 200.626 37.7713 199.355 42.6264C196.638 52.9533 193.941 63.2609 191.224 73.5878C188.681 83.2981 186.138 93.0085 183.575 102.738C180.204 115.608 177.391 128.844 163.557 134.065C163.307 134.162 163.326 134.605 163.615 134.566H163.634Z" fill="#210B03"/>
<path d="M190.698 7.96284C178.425 46.5923 168.58 86.2814 157.926 125.392C157.598 126.568 159.429 127.088 159.756 125.893C170.526 86.8208 182.298 47.6519 191.43 8.15551C191.546 7.67384 190.833 7.48118 190.679 7.94358L190.698 7.96284Z" fill="#210B03"/>
<path d="M186.902 52.3017C182.066 60.6826 179.619 69.8728 179.08 79.5061C179.022 80.5657 180.64 80.5465 180.717 79.5061C181.411 70.1425 183.877 61.3184 187.711 52.7834C187.962 52.2439 187.21 51.7815 186.902 52.3017Z" fill="#210B03"/>
<path d="M179.31 80.9651C180.177 81.0422 181.044 81.1 181.93 81.1385C182.893 81.1771 182.893 79.6165 181.93 79.655C181.063 79.6935 180.177 79.7513 179.31 79.8284C178.558 79.8862 178.558 80.9266 179.31 80.9844V80.9651Z" fill="#210B03"/>
<path d="M183.545 81.4668C186.435 73.1244 189.093 64.6664 191.617 56.2277C191.926 55.1873 190.326 54.7441 189.999 55.7845C187.321 64.1847 184.778 72.6813 182.485 81.1778C182.292 81.8714 183.313 82.1412 183.545 81.4668Z" fill="#210B03"/>
<path d="M187.73 53.6047C188.52 54.2791 189.348 54.9149 190.158 55.5699C191.025 56.2442 191.988 54.9727 191.082 54.3754C190.215 53.7974 189.329 53.2387 188.424 52.6992C187.884 52.3717 187.21 53.1809 187.73 53.6047Z" fill="#210B03"/>
<path d="M69.1188 12.2417C58.7342 44.937 50.7771 78.981 43.9182 112.582C43.7062 113.622 45.2668 114.065 45.5173 113.025C53.3588 79.4241 62.0287 46.0352 69.8317 12.4343C69.9473 11.9719 69.2537 11.7793 69.1188 12.2417Z" fill="#210B03"/>
<path d="M43.1507 114.27C63.095 116.83 83.001 118.689 102.85 121.93C121.033 124.894 139.178 127.638 157.668 127.822C158.797 127.822 158.797 126.146 157.668 126.146C119.1 125.852 81.6994 113.571 43.1315 113.718C42.7487 113.718 42.7679 114.234 43.1315 114.27H43.1507Z" fill="#210B03"/>
<path d="M70.1611 9.10426C109.754 8.796 149.347 10.7227 188.92 12.052C189.98 12.0906 189.98 10.4144 188.92 10.3951C168.556 9.79786 148.172 9.21986 127.807 8.69966C108.675 8.19873 89.2736 6.71521 70.1611 8.4492C69.7372 8.48773 69.718 9.12353 70.1611 9.12353V9.10426Z" fill="#210B03"/>
<path d="M1.32669 127.819C14.2931 126.297 27.1246 123.966 39.9947 121.789C41.0351 121.615 40.6113 119.997 39.5516 120.19C26.7586 122.463 13.9463 124.602 1.28816 127.511C1.11476 127.55 1.15329 127.839 1.32669 127.819Z" fill="#210B03"/>
<path d="M0.670022 127.496C0.592956 128.961 0.573689 130.406 0.535156 131.851C0.535156 132.833 2.09575 132.852 2.07648 131.851C2.05722 130.386 2.01868 128.941 1.94162 127.496C1.90308 126.668 0.708556 126.668 0.670022 127.496Z" fill="#210B03"/>
<path d="M2.14976 135.952C50.9713 141.289 99.5231 148.186 147.709 157.781C148.903 158.012 149.424 156.182 148.21 155.951C99.9277 146.529 51.1832 139.208 2.14976 135.201C1.64883 135.162 1.66809 135.914 2.14976 135.971V135.952Z" fill="#210B03"/>
<path d="M149.03 158.822C177.333 148.553 204.633 133.506 231.241 119.519C232.358 118.941 231.375 117.245 230.258 117.842C203.439 131.984 175.368 143.698 148.626 157.859C148.105 158.129 148.471 159.034 149.03 158.822Z" fill="#210B03"/>
<path d="M217.753 120.77L190.953 117.949L161.332 147.57L217.753 120.77Z" fill="#F2973E"/>
<path d="M202.681 57.7522C207.594 79.0417 216.746 99.3679 227.574 118.268C228.364 119.656 230.521 118.403 229.712 117.016C218.73 98.0578 210.735 78.1362 203.394 57.5595C203.24 57.1164 202.566 57.2898 202.681 57.7522Z" fill="#210B03"/>
<path d="M190.599 117.146C202.409 119.303 214.47 119.901 226.454 120.344C227.899 120.402 227.899 118.147 226.454 118.109C214.528 117.743 202.621 116.741 190.676 116.51C190.31 116.51 190.213 117.088 190.599 117.146Z" fill="#210B03"/>
<path d="M4.79016 130.095C28.8349 135.355 53.5539 137.975 77.9069 141.501C102.337 145.046 126.767 148.745 151.235 152.117C152.68 152.31 153.316 150.113 151.852 149.882C126.786 146.164 101.663 142.792 76.5775 139.247C52.764 135.894 28.8349 131.598 4.82869 129.922C4.73236 129.922 4.71309 130.076 4.80943 130.095H4.79016Z" fill="#210B03"/>
<path d="M150.936 151.789C150.532 153.504 150.147 155.219 149.761 156.953C149.491 158.205 151.341 158.494 151.514 157.184C151.746 155.45 151.977 153.697 152.17 151.963C152.247 151.25 151.11 151.115 150.936 151.789Z" fill="#210B03"/>
<path d="M150.469 151.349C161.258 152.909 173.319 143.758 182.664 139.326C197.364 132.333 212.045 125.281 226.726 118.249C227.979 117.652 226.88 115.763 225.628 116.38C213.818 122.141 201.988 127.863 190.178 133.643C184.552 136.398 178.945 139.153 173.339 141.927C166.326 145.395 158.58 150.617 150.604 150.482C150.122 150.482 149.988 151.291 150.488 151.349H150.469Z" fill="#210B03"/>
<path d="M166.04 133.277C166.348 134.683 166.83 136.032 167.254 137.4C167.581 138.459 169.296 137.958 168.911 136.937C168.371 135.531 167.89 134.105 167.234 132.756C166.888 132.063 165.905 132.564 166.04 133.257V133.277Z" fill="#210B03"/>
<path d="M167.533 132.333C168.092 134.164 168.651 135.994 169.229 137.824C169.479 138.653 170.789 138.267 170.5 137.477C169.845 135.666 169.19 133.875 168.535 132.063C168.304 131.447 167.34 131.697 167.533 132.333Z" fill="#210B03"/>
<path d="M169.602 131.444C170.45 133.197 171.047 135.027 171.394 136.935C171.548 137.821 173.012 137.455 172.762 136.549C172.203 134.584 171.394 132.734 170.334 131C170.045 130.538 169.371 130.943 169.602 131.424V131.444Z" fill="#210B03"/>
<path d="M171.506 130.075C171.872 132.156 172.507 134.468 173.741 136.222C174.357 137.089 175.667 136.356 175.166 135.374C174.203 133.486 173.259 131.809 172.739 129.729C172.527 128.9 171.332 129.266 171.486 130.075H171.506Z" fill="#210B03"/>
<path d="M173.503 127.299C174.273 130.073 175.083 132.829 175.873 135.584C176.162 136.605 177.819 136.123 177.452 135.141C176.451 132.424 175.468 129.727 174.447 127.029C174.235 126.451 173.31 126.663 173.503 127.299Z" fill="#210B03"/>
<path d="M175.706 125.969C176.4 128.416 177.093 130.862 177.767 133.309C178.037 134.234 179.54 133.81 179.212 132.905C178.345 130.516 177.498 128.107 176.631 125.718C176.419 125.14 175.533 125.372 175.706 125.969Z" fill="#210B03"/>
<path d="M177.863 122.371C178.325 125.569 179.327 128.921 180.367 131.985C180.714 132.987 182.178 132.582 181.947 131.542C181.215 128.343 180.271 124.914 178.98 121.889C178.672 121.196 177.766 121.735 177.863 122.371Z" fill="#210B03"/>
<path d="M179.449 117.747C180.297 121.099 181.145 124.452 181.973 127.804C182.205 128.729 183.688 128.324 183.418 127.399C182.436 124.085 181.472 120.772 180.49 117.438C180.297 116.764 179.276 117.053 179.449 117.727V117.747Z" fill="#210B03"/>
<path d="M181.233 113.219C182.042 116.282 182.851 119.345 183.622 122.409C183.872 123.43 185.548 122.967 185.202 121.966C184.161 118.979 183.159 115.954 182.158 112.949C181.965 112.371 181.079 112.602 181.233 113.199V113.219Z" fill="#210B03"/>
<path d="M182.761 109.077C183.589 112.14 184.437 115.184 185.188 118.267C185.4 119.153 186.826 118.749 186.537 117.901C185.516 114.895 184.572 111.871 183.628 108.846C183.454 108.306 182.626 108.518 182.761 109.077Z" fill="#210B03"/>
<path d="M184.388 104.585C185.101 106.877 185.814 109.151 186.508 111.444C186.777 112.291 188.126 111.906 187.837 111.077C187.009 108.823 186.18 106.569 185.352 104.315C185.14 103.718 184.176 103.949 184.369 104.585H184.388Z" fill="#210B03"/>
<path d="M185.671 99.155C186.634 102.315 187.193 105.513 187.848 108.73C188.021 109.597 189.524 109.405 189.408 108.519C188.984 105.224 187.983 101.949 186.884 98.8082C186.615 98.0568 185.439 98.3651 185.671 99.1357V99.155Z" fill="#210B03"/>
<path d="M186.285 94.5491C186.902 97.4968 187.788 100.406 188.578 103.315C188.886 104.452 190.716 103.951 190.35 102.834C189.406 99.963 188.559 97.0537 187.46 94.2408C187.191 93.5279 186.131 93.7977 186.304 94.5683L186.285 94.5491Z" fill="#210B03"/>
<path d="M188.014 90.4828C188.996 92.9103 189.497 95.4343 189.536 98.0545C189.536 99.1912 191.404 99.172 191.289 98.0545C191.019 95.2416 190.229 92.6021 188.919 90.0974C188.669 89.6158 187.802 89.9433 188.014 90.4828Z" fill="#210B03"/>
<path d="M188.941 86.8431C189.615 88.8469 190.27 90.8313 190.848 92.8543C191.176 93.9718 192.852 93.336 192.351 92.2185C191.503 90.3497 190.732 88.4615 189.962 86.5541C189.711 85.9376 188.709 86.1688 188.941 86.8431Z" fill="#210B03"/>
<path d="M190.754 82.7381C191.255 84.8959 191.602 87.0731 192.122 89.2309C192.353 90.2328 193.894 89.8089 193.663 88.8071C193.124 86.6685 192.43 84.5684 191.891 82.4298C191.717 81.717 190.6 82.006 190.773 82.7381H190.754Z" fill="#210B03"/>
<path d="M191.164 75.9343C191.761 78.8628 192.359 81.7721 192.975 84.7006C193.226 85.9337 195.229 85.4135 194.883 84.1804C194.073 81.3097 193.245 78.4582 192.436 75.5875C192.204 74.7783 191.01 75.1251 191.183 75.9343H191.164Z" fill="#210B03"/>
<path d="M192.68 71.6762C192.757 74.2193 193.354 76.7433 194.183 79.1516C194.53 80.1727 195.994 79.5947 195.57 78.5736C194.607 76.3001 194.048 73.9689 193.528 71.5606C193.431 71.0789 192.661 71.1945 192.68 71.6762Z" fill="#210B03"/>
<path d="M194.263 66.6898C194.397 69.6954 194.725 72.778 195.573 75.6487C195.92 76.824 197.731 76.3231 197.403 75.1478C196.613 72.3349 195.9 69.599 195.553 66.6898C195.457 65.8806 194.224 65.8421 194.263 66.6898Z" fill="#210B03"/>
<path d="M194.849 63.1796C195.388 65.954 195.831 68.7669 196.467 71.522C196.756 72.7358 198.625 72.2349 198.355 71.0019C197.719 68.2467 196.891 65.5302 196.14 62.8136C195.908 61.9658 194.675 62.3319 194.849 63.1796Z" fill="#210B03"/>
<path d="M196.135 58.6541C196.713 61.2358 197.195 63.8561 197.811 66.4378C198.081 67.536 199.796 67.0736 199.507 65.9754C198.852 63.4129 198.023 60.889 197.33 58.3458C197.118 57.5752 195.962 57.9027 196.154 58.6734L196.135 58.6541Z" fill="#210B03"/>
<path d="M196.95 53.683C197.663 56.7271 198.376 59.7712 199.069 62.8154C199.358 64.1062 201.439 63.5282 201.034 62.2759C200.11 59.2896 199.165 56.3033 198.241 53.3169C197.99 52.4885 196.738 52.8353 196.95 53.683Z" fill="#210B03"/>
<path d="M198.045 49.0822C198.874 51.8759 199.567 54.6888 199.895 57.5788C200.049 58.9852 202.13 58.677 201.783 57.3283C201.051 54.4383 200.299 51.5483 199.297 48.7354C199.028 47.9455 197.795 48.273 198.045 49.0822Z" fill="#210B03"/>
<path d="M199.299 45.0369C200.089 47.9462 200.821 50.7591 201.399 53.7261C201.591 54.7087 203.306 54.4968 203.171 53.4949C202.786 50.4893 201.861 47.2526 200.416 44.5745C200.089 43.9772 199.145 44.3818 199.318 45.0369H199.299Z" fill="#210B03"/>
<path d="M200.534 40.5069C201.131 43.0886 201.42 45.7667 202.133 48.3099C202.499 49.5814 204.388 49.042 204.099 47.7704C203.559 45.1887 202.576 42.684 201.902 40.1408C201.671 39.2546 200.322 39.6206 200.534 40.5262V40.5069Z" fill="#210B03"/>
<path d="M201.533 36.8436C201.88 38.9822 202.15 41.1593 202.593 43.2979C202.882 44.6658 205.001 44.0878 204.673 42.7199C204.192 40.6199 203.517 38.5391 202.939 36.4583C202.67 35.5335 201.379 35.9381 201.514 36.8436H201.533Z" fill="#210B03"/>
<path d="M203.349 32.7597C203.734 34.7442 204.1 36.7479 204.485 38.7323C204.717 39.8691 206.528 39.3874 206.219 38.2507C205.699 36.3048 205.16 34.3396 204.64 32.3937C204.408 31.5459 203.175 31.912 203.349 32.7597Z" fill="#210B03"/>
<path d="M204.694 27.7498L205.619 33.7803C205.812 35.0519 207.95 34.5317 207.584 33.2408C207.045 31.2949 206.505 29.349 205.966 27.403C205.735 26.5553 204.559 26.9406 204.694 27.7498Z" fill="#210B03"/>
<path d="M205.668 23.474C205.668 25.7475 206.015 27.9631 206.728 30.1017C207.094 31.1999 208.885 30.6605 208.442 29.6201C207.614 27.6356 207.113 25.5934 206.959 23.4548C206.901 22.6263 205.668 22.607 205.668 23.4548V23.474Z" fill="#210B03"/>
<path d="M205.662 19.1018C206.182 20.9321 206.76 22.7817 207.126 24.6698C207.377 25.9221 209.438 25.2671 208.841 23.9377C208.09 22.2615 207.512 20.489 206.914 18.755C206.645 17.965 205.431 18.2926 205.662 19.1018Z" fill="#210B03"/>
<path d="M205.656 11.8144C206.253 14.2806 206.928 16.7274 207.602 19.1743C207.968 20.5422 210.184 19.9064 209.721 18.5963C208.854 16.1879 208.007 13.7989 207.082 11.4291C206.735 10.5621 205.444 10.8896 205.656 11.8144Z" fill="#210B03"/>
<path d="M206.087 8.19781C206.974 10.7795 207.879 13.342 208.708 15.943C209.074 17.099 210.788 16.4439 210.268 15.2879C209.189 12.8411 208.207 10.3749 207.186 7.88955C206.916 7.23449 205.856 7.48495 206.087 8.19781Z" fill="#210B03"/>
<path d="M179.539 75.2806C179.539 76.8412 180.232 78.2284 180.791 79.6734C181.292 80.9642 183.122 80.2128 182.544 78.922C181.909 77.4963 181.446 76.0513 180.348 74.9338C180.059 74.6448 179.52 74.8567 179.52 75.2806H179.539Z" fill="#210B03"/>
<path d="M180.314 71.3704C180.738 73.5668 181.393 75.7439 182.009 77.9018C182.337 79.0771 184.205 78.5376 183.82 77.4009C183.088 75.2237 182.356 73.0081 181.431 70.8888C181.142 70.2144 180.179 70.7154 180.314 71.3704Z" fill="#210B03"/>
<path d="M181.015 67.3226C181.554 69.7694 182.19 72.197 182.614 74.6631C182.806 75.7999 184.752 75.2989 184.348 74.1815C183.5 71.831 182.864 69.4034 182.151 67.0143C181.939 66.2822 180.841 66.5905 181.015 67.3226Z" fill="#210B03"/>
<path d="M181.98 64.5862C182.712 67.1294 183.252 69.8459 184.176 72.3313C184.581 73.4103 186.257 73.0057 185.949 71.8497C185.236 69.2872 184.061 66.7633 183.136 64.2779C182.866 63.565 181.768 63.8348 181.98 64.6054V64.5862Z" fill="#210B03"/>
<path d="M183.355 61.4124C183.837 63.763 184.511 66.1713 184.742 68.5411C184.896 70.0246 187.093 69.4851 186.611 68.2906C185.686 65.9979 185.166 63.474 184.492 61.1042C184.28 60.372 183.201 60.6803 183.355 61.4124Z" fill="#210B03"/>
<path d="M183.983 59.08C184.58 61.2379 185.197 63.415 185.794 65.5729C186.141 66.7867 188.106 66.2087 187.644 65.0527C186.815 62.9526 186.006 60.8333 185.177 58.7332C184.888 58.0011 183.752 58.2708 183.964 59.0608L183.983 59.08Z" fill="#210B03"/>
<path d="M185.258 56.3818C185.605 58.2506 186.048 60.158 186.645 61.9691C186.992 63.0673 188.746 62.6049 188.379 61.4874C187.782 59.6186 187.012 57.769 186.183 55.9965C185.933 55.4377 185.162 55.8616 185.258 56.3818Z" fill="#210B03"/>
<path d="M186.338 54.5105C186.665 56.5528 187.147 58.5565 187.571 60.5795C187.841 61.8318 189.921 61.2731 189.498 60.04C188.823 58.0941 188.207 56.1097 187.436 54.2023C187.166 53.5279 186.222 53.7784 186.338 54.5105Z" fill="#210B03"/>
<path d="M188.004 54.1056C188.158 55.0496 188.351 55.9937 188.544 56.9378C188.794 58.1708 190.817 57.5158 190.22 56.2249C189.815 55.3772 189.43 54.5102 188.987 53.6817C188.679 53.1037 187.908 53.5276 188.004 54.1056Z" fill="#210B03"/>
<path d="M188.931 112.777C189.182 113.702 189.432 114.627 189.702 115.551C189.953 116.418 191.34 115.994 191.031 115.185C190.685 114.28 190.338 113.394 189.991 112.488C189.741 111.852 188.758 112.083 188.951 112.777H188.931Z" fill="#210B03"/>
<path d="M189.795 109.596C190.258 111.407 190.739 113.218 191.202 115.048C191.394 115.819 192.627 115.472 192.377 114.721C191.818 112.929 191.26 111.137 190.701 109.345C190.527 108.767 189.641 108.998 189.795 109.596Z" fill="#210B03"/>
<path d="M191.287 106.821C191.923 109.653 192.828 112.35 193.715 115.105C194.004 116.011 195.352 115.472 194.928 114.605C193.695 112.061 192.905 109.306 192.212 106.57C192.058 105.973 191.152 106.224 191.287 106.821Z" fill="#210B03"/>
<path d="M192.553 102.295C193.536 106.495 194.846 110.618 196.445 114.626C196.849 115.647 198.333 115.05 197.851 114.029C196.021 110.156 194.557 106.187 193.42 102.045C193.266 101.467 192.399 101.717 192.534 102.295H192.553Z" fill="#210B03"/>
<path d="M193.935 99.1142C195.554 104.124 197.056 109.191 198.771 114.161C199.099 115.105 200.601 114.701 200.274 113.738C198.598 108.728 196.69 103.796 194.918 98.8252C194.706 98.2087 193.704 98.4591 193.916 99.0949L193.935 99.1142Z" fill="#210B03"/>
<path d="M195.749 95.9346C198.1 102.62 200.373 109.344 202.801 116.01C203.128 116.916 204.592 116.531 204.265 115.606C201.837 108.94 199.236 102.312 196.732 95.6649C196.5 95.0676 195.537 95.3181 195.749 95.9346Z" fill="#210B03"/>
<path d="M196.517 90.0761C198.906 98.4185 201.603 106.684 204.975 114.679C205.437 115.778 207.248 115.296 206.786 114.179C203.491 106.125 200.293 98.0524 197.538 89.7871C197.326 89.1513 196.324 89.4017 196.517 90.0761Z" fill="#210B03"/>
<path d="M199.326 89.5976C202.061 99.2694 204.701 109.5 208.978 118.613C209.421 119.576 211.001 118.902 210.693 117.881C207.726 108.228 203.641 98.8841 200.578 89.2315C200.327 88.4416 199.094 88.7691 199.326 89.5783V89.5976Z" fill="#210B03"/>
<path d="M198.503 80.0014C202.395 92.0815 206.248 104.2 210.603 116.107C211.123 117.533 213.396 116.935 212.895 115.471C208.849 103.429 204.264 91.5228 199.755 79.6353C199.466 78.8646 198.233 79.1729 198.503 79.9821V80.0014Z" fill="#210B03"/>
<path d="M200.082 77.8064C204.128 90.4645 208.212 103.238 213.626 115.395C214.089 116.417 215.803 115.684 215.437 114.644C211.064 102.14 205.958 89.9058 201.546 77.4211C201.219 76.5155 199.774 76.8816 200.082 77.8256V77.8064Z" fill="#210B03"/>
<path d="M200.867 68.1575C205.549 84.2451 210.693 100.256 215.876 116.189C216.338 117.634 218.631 117.017 218.149 115.553C212.947 99.6005 207.668 83.6286 201.985 67.8493C201.734 67.1557 200.655 67.4254 200.867 68.1575Z" fill="#210B03"/>
<path d="M201.466 64.5693C208.749 80.7147 213.277 98.2472 219.326 114.874C219.866 116.358 222.235 115.741 221.715 114.219C216.012 97.65 211.099 79.289 202.564 63.9143C202.16 63.1821 201.139 63.8179 201.466 64.5501V64.5693Z" fill="#210B03"/>
<path d="M221.014 109.075C221.901 111.888 223.192 114.624 224.27 117.36C224.637 118.265 225.947 117.707 225.504 116.84C224.174 114.2 222.96 111.426 221.438 108.902C221.303 108.69 220.937 108.825 221.014 109.075Z" fill="#210B03"/>
<path d="M1.2935 129.212C1.5247 130.754 2.08343 132.295 2.50729 133.798C2.83482 134.954 4.68442 134.453 4.31835 133.297C3.81742 131.736 3.41282 130.099 2.69996 128.615C2.29536 127.748 1.1779 128.422 1.2935 129.212Z" fill="#210B03"/>
<path d="M3.32422 129.44C3.32422 131.367 3.92148 133.255 5.07748 134.815C5.71327 135.682 6.98487 134.7 6.25274 133.91C5.05821 132.657 4.44168 131.174 4.36461 129.44C4.34535 128.785 3.32422 128.766 3.32422 129.44Z" fill="#210B03"/>
<path d="M5.08741 130.539C5.62688 132.081 6.14707 133.603 6.68654 135.144C7.09114 136.281 8.74806 135.626 8.22786 134.489C7.55353 133.005 6.8792 131.541 6.20487 130.058C5.91587 129.422 4.85621 129.865 5.08741 130.539Z" fill="#210B03"/>
<path d="M7.23133 131.038C7.84786 132.695 8.48366 134.333 9.10019 135.99C9.54332 137.146 11.2388 136.471 10.68 135.315C9.90938 133.716 9.15799 132.137 8.38732 130.537C8.07906 129.902 6.9616 130.345 7.21206 131.038H7.23133Z" fill="#210B03"/>
<path d="M9.76501 130.959C10.1311 132.828 10.8247 134.62 11.788 136.257C12.3275 137.201 13.8303 136.277 13.2137 135.41C12.1733 133.945 11.4027 132.366 10.9017 130.632C10.6898 129.899 9.61088 130.208 9.76501 130.94V130.959Z" fill="#210B03"/>
<path d="M11.9254 131.445C12.4841 133.121 13.0428 134.797 13.5823 136.473C13.9484 137.629 15.7016 136.955 15.1429 135.818C14.3722 134.239 13.6401 132.639 12.908 131.04C12.6575 130.501 11.752 130.886 11.9446 131.445H11.9254Z" fill="#210B03"/>
<path d="M13.9407 132.423C14.615 133.965 15.1352 135.641 15.9059 137.144C16.4068 138.107 17.7555 137.259 17.3316 136.296C16.6765 134.755 15.6939 133.329 14.9233 131.826C14.5765 131.152 13.6324 131.749 13.9214 132.404L13.9407 132.423Z" fill="#210B03"/>
<path d="M15.5944 132.327C16.211 134.1 16.7504 135.988 17.5403 137.683C17.9835 138.628 19.6019 137.953 19.2358 136.971C18.5807 135.198 17.5981 133.522 16.7504 131.826C16.4229 131.191 15.344 131.634 15.5752 132.327H15.5944Z" fill="#210B03"/>
<path d="M17.8379 132.793C18.493 134.411 19.0517 136.126 19.8031 137.706C20.227 138.611 21.8261 137.956 21.4408 137.012C20.7665 135.394 19.8609 133.833 19.0903 132.273C18.7627 131.598 17.5682 132.08 17.8572 132.793H17.8379Z" fill="#210B03"/>
<path d="M21.0524 132.791C21.5919 134.178 22.1699 135.546 22.6515 136.953C23.0754 138.186 24.9443 137.396 24.3085 136.259C23.5763 134.968 22.9405 133.619 22.2855 132.29C21.9579 131.635 20.802 132.097 21.0717 132.791H21.0524Z" fill="#210B03"/>
<path d="M24.0049 134.658C24.5059 135.775 25.0068 136.912 25.4885 138.029C25.9701 139.108 27.7619 138.087 27.0683 137.105C26.3555 136.103 25.6619 135.101 24.949 134.099C24.5251 133.502 23.6967 134.003 23.9857 134.658H24.0049Z" fill="#210B03"/>
<path d="M26.1316 134.583C26.3243 135.72 26.7674 136.78 27.1913 137.84C27.6729 139.034 29.3876 138.321 28.8289 137.146C28.3087 136.067 27.7885 134.988 27.0371 134.044C26.6711 133.562 26.0545 134.102 26.1316 134.564V134.583Z" fill="#210B03"/>
<path d="M28.1019 134.216C28.7377 135.642 29.335 137.087 30.0286 138.493C30.4717 139.399 31.8589 138.589 31.3773 137.703C30.6451 136.335 29.8359 134.987 29.0653 133.657C28.6992 133.021 27.8322 133.58 28.1019 134.216Z" fill="#210B03"/>
<path d="M30.0482 134.39C30.761 135.777 31.4739 137.184 32.1868 138.571C32.707 139.592 34.3446 138.648 33.7281 137.665C32.8996 136.336 32.0712 135.026 31.2427 133.696C30.7803 132.945 29.6628 133.6 30.0482 134.39Z" fill="#210B03"/>
<path d="M32.4377 135.681C33.0157 136.721 33.69 137.954 34.557 138.802C35.3277 139.554 36.5607 138.61 36.0406 137.665C35.4433 136.625 34.4222 135.662 33.5552 134.833C32.9772 134.275 32.0331 134.987 32.4377 135.7V135.681Z" fill="#210B03"/>
<path d="M34.6828 135.255C35.2223 136.507 35.7617 137.759 36.3012 139.011C36.7636 140.11 38.5747 139.146 37.9389 138.048L35.9351 134.522C35.4535 133.694 34.336 134.426 34.6828 135.255Z" fill="#210B03"/>
<path d="M37.3205 135.756C37.8599 136.854 38.4187 137.952 38.9774 139.031C39.5554 140.149 41.3279 139.128 40.6536 138.049C40.0178 137.008 39.3627 135.968 38.6691 134.966C38.0911 134.118 36.8581 134.85 37.3012 135.775L37.3205 135.756Z" fill="#210B03"/>
<path d="M40.1848 135.682C40.7242 136.78 41.2444 137.898 41.7839 138.996C42.3041 140.075 44.0381 139.092 43.4023 138.052L41.5142 134.911C40.994 134.044 39.7609 134.796 40.1848 135.682Z" fill="#210B03"/>
<path d="M42.3825 135.53C42.7293 137.052 43.3844 138.342 44.2514 139.633C45.1184 140.924 46.968 139.364 45.8698 138.381C44.9064 137.514 44.2321 136.358 43.789 135.125C43.4614 134.239 42.1706 134.585 42.3632 135.51L42.3825 135.53Z" fill="#210B03"/>
<path d="M45.5689 136.452C46.0891 137.685 46.6093 138.918 47.1295 140.152C47.6689 141.404 49.5185 140.556 48.8249 139.439C48.1121 138.283 47.3992 137.127 46.6863 135.971C46.3396 135.412 45.2799 135.778 45.5689 136.452Z" fill="#210B03"/>
<path d="M48.8318 138.092C48.7932 139.209 49.3712 140.192 50.1804 140.905C51.0282 141.656 52.0878 140.288 51.1245 139.672C50.4694 139.248 50.1226 138.651 49.8336 137.957C49.6217 137.437 48.8318 137.475 48.8125 138.092H48.8318Z" fill="#210B03"/>
<path d="M51.1894 138.356C51.7096 139.32 52.2106 140.283 52.7308 141.246C53.328 142.344 54.9849 141.246 54.1565 140.148C53.5014 139.3 52.8271 138.453 52.172 137.586C51.7289 137.008 50.8619 137.74 51.1894 138.337V138.356Z" fill="#210B03"/>
<path d="M53.3012 137.997C53.9755 139.23 54.5535 140.636 55.4013 141.735C56.0178 142.563 57.2509 141.87 56.7885 140.925C56.1912 139.654 55.2086 138.498 54.4187 137.342C53.9563 136.648 52.8966 137.246 53.3012 137.997Z" fill="#210B03"/>
<path d="M56.0299 138.263C56.2996 139.535 56.9547 140.787 58.0529 141.538C58.8428 142.078 59.7676 140.864 59.074 140.209C58.3033 139.496 57.6483 138.918 57.263 137.916C56.974 137.146 55.8565 137.435 56.0299 138.263Z" fill="#210B03"/>
<path d="M58.3376 138.436C58.8964 139.38 59.4166 140.343 59.8982 141.307C60.457 142.385 62.1524 141.307 61.3047 140.228C60.6689 139.418 60.0524 138.609 59.4551 137.781C58.9927 137.106 57.8945 137.704 58.3376 138.436Z" fill="#210B03"/>
<path d="M61.6871 139.249C62.2458 140.212 62.7082 141.175 63.1514 142.177C63.6138 143.217 65.3478 142.158 64.4808 141.156C63.7872 140.366 63.1514 139.595 62.5541 138.728C62.188 138.208 61.3403 138.671 61.6871 139.249Z" fill="#210B03"/>
<path d="M64.7092 139.344C65.2101 140.172 65.7303 140.962 66.2698 141.771C67.0019 142.869 68.6203 141.636 67.7148 140.654C67.0597 139.96 66.3854 139.247 65.6918 138.573C65.1909 138.091 64.3239 138.708 64.7092 139.324V139.344Z" fill="#210B03"/>
<path d="M68.9805 140.362C68.9805 141.46 69.9245 142.597 70.464 143.541C71.042 144.543 72.6604 143.541 71.9861 142.655C71.3503 141.826 70.6181 140.439 69.6163 139.996C69.3273 139.881 68.9805 139.996 68.9805 140.362Z" fill="#210B03"/>
<path d="M71.9235 141.002C72.2125 142.254 72.8483 144.008 73.985 144.721C74.6979 145.183 75.5264 144.277 75.1218 143.584C74.8135 143.083 74.3511 142.775 74.0236 142.274C73.6768 141.773 73.4071 141.214 73.2144 140.636C72.9447 139.827 71.7501 140.154 71.9428 140.983L71.9235 141.002Z" fill="#210B03"/>
<path d="M73.7741 140.732C74.487 142.119 75.1613 143.545 75.9513 144.874C76.51 145.819 77.955 144.99 77.4348 144.007C76.7027 142.64 75.8164 141.329 75.0072 140C74.5255 139.21 73.3503 139.904 73.7741 140.713V140.732Z" fill="#210B03"/>
<path d="M76.5011 141.171C77.0405 142.269 77.58 143.367 78.1195 144.485C78.6975 145.66 80.5856 144.581 79.892 143.444C79.2562 142.404 78.6204 141.364 77.9653 140.323C77.3873 139.398 76.0387 140.208 76.5011 141.171Z" fill="#210B03"/>
<path d="M79.1065 141.017C79.6459 142.346 80.2625 143.637 80.879 144.928C81.4185 146.084 83.2681 145.062 82.6323 143.906C81.9772 142.712 81.3221 141.537 80.59 140.4C80.1276 139.668 78.7597 140.13 79.1065 141.017Z" fill="#210B03"/>
<path d="M82.463 140.979C82.8291 142.598 83.5227 144.062 84.4089 145.449C85.1989 146.682 87.0099 145.257 85.9695 144.235C84.9484 143.214 84.197 141.981 83.6768 140.633C83.3878 139.881 82.2511 140.151 82.4437 140.979H82.463Z" fill="#210B03"/>
<path d="M85.0242 141.714C85.7178 143.12 86.3921 144.526 87.105 145.933C87.7022 147.147 89.6867 146.029 88.9353 144.854C88.0876 143.544 87.2398 142.234 86.3921 140.924C85.8334 140.076 84.6003 140.808 85.0434 141.714H85.0242Z" fill="#210B03"/>
<path d="M88.114 142.194C88.2874 143.697 88.8847 145.084 90.0792 146.047C91.0426 146.818 92.4297 145.45 91.4664 144.66C90.5609 143.928 89.9251 143.119 89.6554 141.982C89.4434 141.153 88.0177 141.308 88.114 142.194Z" fill="#210B03"/>
<path d="M90.5498 143.255C91.07 144.507 91.8985 145.644 92.6114 146.781C93.3435 147.937 95.1931 146.781 94.4032 145.74C93.5747 144.661 92.804 143.447 91.8022 142.523C91.3012 142.08 90.2608 142.523 90.5498 143.255Z" fill="#210B03"/>
<path d="M93.4165 143.232C93.6862 144.061 94.1486 144.831 94.5532 145.602C94.977 146.45 95.3817 147.317 95.8826 148.107C96.5184 149.147 98.1368 148.203 97.5202 147.143C97.0386 146.334 96.4606 145.563 95.9404 144.773C95.4394 144.061 94.9963 143.29 94.3991 142.654C94.0137 142.25 93.2623 142.654 93.4357 143.213L93.4165 143.232Z" fill="#210B03"/>
<path d="M96.4352 144.409C97.1673 145.796 97.8995 147.164 98.6316 148.551C99.2481 149.726 101.136 148.628 100.423 147.51C99.5757 146.2 98.7472 144.871 97.8995 143.561C97.3215 142.655 95.9343 143.445 96.4352 144.409Z" fill="#210B03"/>
<path d="M99.4484 144.911C99.853 146.202 100.816 147.589 101.645 148.668C102.454 149.709 104.246 148.765 103.475 147.589C102.685 146.376 101.664 144.969 100.508 144.102C99.9879 143.717 99.275 144.353 99.4484 144.911Z" fill="#210B03"/>
<path d="M102.384 145.105C103 146.666 104.002 148.111 104.85 149.556C105.543 150.731 107.451 149.556 106.661 148.496C105.659 147.147 104.715 145.625 103.501 144.45C103.058 144.007 102.114 144.45 102.384 145.105Z" fill="#210B03"/>
<path d="M106.022 145.741C106.638 147.109 107.235 148.477 107.852 149.845C108.276 150.808 109.836 149.941 109.278 148.997C108.526 147.706 107.775 146.435 107.023 145.144C106.638 144.469 105.694 145.067 106.002 145.741H106.022Z" fill="#210B03"/>
<path d="M109.793 145.51C110.082 146.724 110.833 147.88 111.392 148.997C111.893 150.018 113.55 149.074 112.933 148.091C112.259 147.051 111.662 145.818 110.776 144.951C110.352 144.546 109.677 144.951 109.812 145.51H109.793Z" fill="#210B03"/>
<path d="M112.605 146.092C113.356 147.556 114.107 149.001 114.897 150.446C115.533 151.621 117.421 150.484 116.67 149.405C115.726 148.057 114.743 146.727 113.78 145.398C113.279 144.704 112.2 145.302 112.624 146.072L112.605 146.092Z" fill="#210B03"/>
<path d="M115.673 147.069C116.463 148.514 117.234 149.959 118.043 151.384C118.66 152.483 120.432 151.442 119.719 150.402C118.814 149.034 117.87 147.685 116.945 146.337C116.425 145.566 115.211 146.24 115.673 147.069Z" fill="#210B03"/>
<path d="M118.859 147.529C119.552 149.148 120.458 150.708 121.267 152.269C121.864 153.406 123.714 152.327 123.001 151.267C121.999 149.745 121.036 148.165 119.918 146.74C119.417 146.084 118.608 146.913 118.878 147.549L118.859 147.529Z" fill="#210B03"/>
<path d="M122.802 149.879C123.245 150.65 123.688 151.401 124.132 152.172C124.69 153.116 126.193 152.249 125.615 151.305C125.153 150.554 124.69 149.802 124.228 149.051C123.669 148.165 122.282 148.955 122.822 149.879H122.802Z" fill="#210B03"/>
<path d="M124.61 148.303C125.092 150.018 125.689 151.675 126.248 153.351C126.633 154.487 128.464 153.967 128.04 152.85C127.365 151.135 126.73 149.401 125.978 147.725C125.631 146.935 124.398 147.494 124.61 148.303Z" fill="#210B03"/>
<path d="M127.962 149.338C128.809 150.706 129.329 152.17 129.638 153.75C129.83 154.713 131.275 154.289 131.102 153.345C130.794 151.65 130.042 150.089 129.04 148.702C128.578 148.066 127.518 148.644 127.962 149.338Z" fill="#210B03"/>
<path d="M131.549 150.073C131.876 151.056 132.223 152.038 132.57 153.021C132.878 153.888 133.109 154.832 133.745 155.526C134.208 156.027 135.132 155.641 135.094 154.967C135.055 154.023 134.554 153.175 134.188 152.327C133.764 151.383 133.321 150.439 132.878 149.495C132.531 148.744 131.26 149.283 131.529 150.054L131.549 150.073Z" fill="#210B03"/>
<path d="M134.415 150.479C134.974 152.001 135.205 153.677 135.783 155.18C136.091 155.989 137.594 155.989 137.459 154.948C137.247 153.234 136.361 151.519 135.59 149.978C135.263 149.323 134.145 149.785 134.396 150.479H134.415Z" fill="#210B03"/>
<path d="M136.957 150.555L138.498 155.179C138.922 156.47 140.83 155.719 140.232 154.447C139.539 152.983 138.845 151.519 138.171 150.054C137.843 149.38 136.726 149.862 136.957 150.555Z" fill="#210B03"/>
<path d="M139.747 150.341C139.94 151.979 140.325 153.597 140.653 155.216C140.903 156.507 143.023 155.948 142.618 154.676C142.156 153.174 141.732 151.632 141.154 150.149C140.884 149.455 139.632 149.455 139.728 150.341H139.747Z" fill="#210B03"/>
<path d="M142.316 149.917C142.393 151.574 142.49 153.25 142.567 154.907C142.644 156.391 144.86 156.14 144.609 154.638C144.339 153 144.05 151.362 143.781 149.725C143.646 148.915 142.297 149.089 142.336 149.917H142.316Z" fill="#210B03"/>
<path d="M144.616 150.577C144.905 152.06 144.943 153.602 144.712 155.085C144.443 156.665 146.774 156.993 146.889 155.374C147.005 153.563 146.793 151.848 146.157 150.153C145.81 149.19 144.423 149.556 144.616 150.577Z" fill="#210B03"/>
<path d="M147.83 150.826C147.599 152.618 147.676 154.487 147.618 156.279C147.579 157.435 149.467 157.435 149.429 156.279C149.371 154.487 149.467 152.599 149.217 150.826C149.101 149.94 147.945 149.921 147.83 150.826Z" fill="#210B03"/>
<path d="M152.492 151.288C152.569 152.405 152.434 153.503 151.972 154.524C151.49 155.603 153.108 156.278 153.474 155.16C153.898 153.812 153.956 152.501 153.59 151.134C153.436 150.556 152.453 150.633 152.511 151.288H152.492Z" fill="#210B03"/>
<path d="M154.895 151.152C154.548 152.154 154.356 153.214 154.125 154.254C153.855 155.449 155.704 155.738 155.801 154.486C155.878 153.426 156.013 152.366 155.974 151.307C155.955 150.671 155.088 150.574 154.895 151.152Z" fill="#210B03"/>
<path d="M157.44 149.901C157.44 150.845 157.286 151.77 156.862 152.637C156.168 154.024 158.345 154.949 158.827 153.465C159.232 152.213 159.309 150.98 158.962 149.708C158.731 148.86 157.459 149.053 157.44 149.92V149.901Z" fill="#210B03"/>
<path d="M160.241 148.842C159.837 149.863 159.856 151.096 159.721 152.175C159.586 153.389 161.667 153.447 161.648 152.175C161.629 151.096 161.744 149.883 161.417 148.842C161.224 148.226 160.453 148.303 160.241 148.842Z" fill="#210B03"/>
<path d="M162.707 148.376C162.495 149.243 162.398 150.129 162.264 151.015C162.052 152.557 164.383 152.73 164.306 151.285C164.248 150.302 164.21 149.339 164.055 148.376C163.94 147.682 162.861 147.74 162.707 148.376Z" fill="#210B03"/>
<path d="M166.484 147.185C166.465 147.936 166.426 148.707 166.407 149.458C166.368 150.46 168.006 150.46 167.968 149.458C167.948 148.707 167.91 147.936 167.89 147.185C167.852 146.279 166.523 146.279 166.503 147.185H166.484Z" fill="#210B03"/>
<path d="M170.224 145.2C169.878 146.202 169.685 147.262 169.338 148.283C168.895 149.574 171.188 150.036 171.245 148.533C171.284 147.474 171.496 146.433 171.554 145.374C171.592 144.584 170.475 144.507 170.224 145.2Z" fill="#210B03"/>
<path d="M172.575 143.699C171.765 144.894 171.399 146.242 171.419 147.668C171.438 149.113 173.673 148.901 173.422 147.398C173.249 146.396 173.422 145.375 173.866 144.47C174.27 143.603 173.114 142.909 172.575 143.718V143.699Z" fill="#210B03"/>
<path d="M175.589 142.443C175.319 143.464 175.107 144.524 174.799 145.545C174.356 146.99 176.86 147.414 176.879 145.834C176.879 144.774 177.034 143.714 177.072 142.655C177.111 141.788 175.801 141.634 175.589 142.462V142.443Z" fill="#210B03"/>
<path d="M178.115 140.825C178.038 141.711 177.826 142.674 177.903 143.56C178.038 144.986 179.984 144.986 180.119 143.56C180.196 142.674 179.984 141.711 179.907 140.825C179.791 139.688 178.231 139.669 178.135 140.825H178.115Z" fill="#210B03"/>
<path d="M181.104 139.265C180.892 140.305 180.681 141.365 180.469 142.405C180.218 143.639 182.068 143.928 182.203 142.637L182.53 139.458C182.607 138.649 181.278 138.475 181.104 139.265Z" fill="#210B03"/>
<path d="M183.069 137.958C182.877 138.864 182.684 139.75 182.491 140.656C182.299 141.561 183.647 141.773 183.763 140.829C183.879 139.924 183.994 139.018 184.11 138.093C184.187 137.496 183.185 137.38 183.069 137.958Z" fill="#210B03"/>
<path d="M185.243 137.029C184.935 137.877 184.607 138.705 184.261 139.534C183.798 140.612 185.455 141.229 185.706 140.15C185.937 139.225 186.168 138.3 186.438 137.376C186.669 136.586 185.494 136.297 185.224 137.048L185.243 137.029Z" fill="#210B03"/>
<path d="M187.831 134.699C187.465 135.739 187.138 136.991 187.157 138.089C187.157 139.207 188.737 139.38 189.064 138.34C189.411 137.3 189.469 135.989 189.431 134.91C189.392 133.966 188.12 133.832 187.831 134.699Z" fill="#210B03"/>
<path d="M190.637 133.353C190.31 134.586 189.809 135.877 189.732 137.168C189.674 138.324 191.35 138.458 191.678 137.437C192.063 136.243 192.025 134.817 192.16 133.565C192.256 132.679 190.869 132.544 190.637 133.353Z" fill="#210B03"/>
<path d="M193.872 132.462C193.563 133.329 193.12 134.177 192.87 135.044C192.542 136.238 194.45 136.739 194.7 135.545C194.893 134.639 194.893 133.695 195.028 132.77C195.143 132.019 194.122 131.711 193.872 132.443V132.462Z" fill="#210B03"/>
<path d="M196.868 130.597C196.444 131.619 196.078 132.678 195.712 133.719C195.269 134.971 197.427 135.587 197.716 134.277C197.947 133.198 198.197 132.12 198.39 131.021C198.564 130.019 197.273 129.673 196.887 130.597H196.868Z" fill="#210B03"/>
<path d="M198.673 129.688C198.403 131.017 198.191 132.385 197.825 133.676C197.344 135.294 200.137 135.68 200.099 133.984C200.06 132.636 200.214 131.248 200.291 129.9C200.349 128.994 198.866 128.782 198.692 129.688H198.673Z" fill="#210B03"/>
<path d="M201.113 129.268C200.882 130.193 200.747 131.214 200.362 132.081C199.553 133.892 202.539 134.162 202.366 132.62C202.25 131.58 202.404 130.501 202.481 129.441C202.539 128.651 201.287 128.497 201.113 129.249V129.268Z" fill="#210B03"/>
<path d="M204.166 127.418C203.897 128.497 203.569 129.479 203.723 130.578C203.858 131.618 205.303 131.368 205.573 130.578C205.92 129.634 205.765 128.612 205.746 127.63C205.727 126.744 204.378 126.512 204.166 127.418Z" fill="#210B03"/>
<path d="M206.55 126.086C206.453 126.606 206.338 127.126 206.242 127.646C206.126 128.186 205.875 128.648 205.76 129.168C205.452 130.633 207.667 130.96 207.802 129.438C207.841 128.899 207.725 128.398 207.783 127.839C207.821 127.3 207.879 126.779 207.937 126.24C208.014 125.469 206.723 125.277 206.569 126.047L206.55 126.086Z" fill="#210B03"/>
<path d="M208.621 126.046C208.429 127.048 207.966 128.204 208.14 129.206C208.275 129.918 209.315 129.976 209.643 129.398C210.124 128.57 210.047 127.414 210.182 126.47C210.336 125.468 208.833 125.005 208.621 126.046Z" fill="#210B03"/>
<path d="M211.05 123.798C210.838 125.05 210.53 126.341 210.395 127.612C210.28 128.961 212.399 128.961 212.515 127.612C212.63 126.437 212.553 125.204 212.553 124.01C212.553 123.162 211.185 122.931 211.031 123.798H211.05Z" fill="#210B03"/>
<path d="M214.183 122.615C214.068 123.829 213.894 125.043 213.856 126.256C213.817 127.644 216.052 127.644 215.995 126.256C215.956 125.043 215.783 123.829 215.667 122.615C215.571 121.652 214.261 121.652 214.183 122.615Z" fill="#210B03"/>
<path d="M216.488 121.964C216.334 122.908 215.949 123.948 215.987 124.892C216.026 126.029 217.894 126.433 218.087 125.181C218.241 124.218 218.029 123.177 217.991 122.176C217.952 121.347 216.623 121.077 216.469 121.964H216.488Z" fill="#210B03"/>
<path d="M219.163 120.597C218.913 121.618 218.701 122.697 218.316 123.68C217.738 125.183 220.589 125.741 220.57 123.988C220.57 122.929 220.724 121.869 220.82 120.828C220.917 119.865 219.395 119.692 219.163 120.597Z" fill="#210B03"/>
<path d="M220.97 120.345C220.392 121.231 220.103 122.31 220.277 123.369C220.488 124.718 222.646 124.179 222.357 122.791C222.242 122.175 222.184 121.809 222.511 121.25C223.07 120.248 221.587 119.381 220.97 120.345Z" fill="#210B03"/>
<path d="M222.817 119.001C222.721 119.81 222.605 120.619 222.47 121.428C222.123 123.297 225.033 123.297 224.705 121.428C224.551 120.619 224.455 119.81 224.358 119.001C224.223 118.018 222.971 118.018 222.836 119.001H222.817Z" fill="#210B03"/>
<path d="M224.485 119.92C224.6 119.92 224.716 119.92 224.831 119.959C225.583 120.325 226.527 119.882 226.527 118.976C226.527 118.071 225.583 117.628 224.831 117.994C224.716 118.032 224.6 118.032 224.485 118.032C223.271 118.148 223.271 119.786 224.485 119.92Z" fill="#210B03"/>
<path d="M49.9233 59.6533C49.4031 60.4047 49.2297 61.1946 49.1719 62.0809C49.1719 62.3506 49.3838 62.6589 49.6535 62.7167C51.6573 63.1598 54.0078 61.8304 53.2757 59.4992C52.6013 57.3606 49.1911 58.0927 49.4223 60.3084C49.5572 61.657 51.4839 61.4066 51.2719 60.0579C51.2719 60.0194 51.5609 59.923 51.638 59.9616C51.9655 60.0772 51.927 60.5588 51.8307 60.8093C51.5609 61.4836 50.6361 61.5607 50.0196 61.4451C50.1737 61.657 50.3471 61.869 50.5013 62.0809C50.5013 61.368 50.5976 60.6744 50.7132 59.9808C50.7903 59.5184 50.2315 59.2487 49.9425 59.6533H49.9233Z" fill="#210B03"/>
<path d="M41.0576 118.188C81.7679 125.413 123.114 129.806 164.075 135.412C165.944 135.663 166.329 133.081 164.422 132.83C123.403 127.571 82.3459 121.039 41.1539 117.398C40.7108 117.359 40.6145 118.092 41.0576 118.188Z" fill="#210B03"/>
</svg>
