<svg width="27" height="9" viewBox="0 0 27 9" fill="none" xmlns="http://www.w3.org/2000/svg">
<path d="M23.4922 5.54168C22.2787 5.54168 21.0599 5.58334 19.8516 5.53647C14.3203 5.30209 8.78908 5.04689 3.26303 4.77605C2.64324 4.7448 2.02866 4.63022 1.41928 4.50001C0.966159 4.40626 0.58595 4.16147 0.632825 3.61459C0.6797 3.07293 1.08595 2.8698 1.54949 2.8698C3.49741 2.88022 5.44533 2.88022 7.39324 2.96355C11.8672 3.15626 16.3412 3.39064 20.8568 3.51043C20.6745 3.42709 20.4922 3.33855 20.3047 3.26043C19.2162 2.8073 18.1224 2.35939 17.0339 1.90105C16.8464 1.82293 16.6537 1.71355 16.4974 1.59376C16.1849 1.35939 16.1797 1.16147 16.2162 0.984387C16.2682 0.708345 16.4818 0.651053 16.7891 0.666678C16.9818 0.677095 17.2057 0.666678 17.3985 0.729178C20.0287 1.60939 22.6537 2.4948 25.2735 3.40105C25.6016 3.51564 25.9245 3.69272 26.1953 3.90626C26.8776 4.44272 26.737 5.37501 25.9453 5.71355C23.7005 6.66668 21.4557 7.61459 19.211 8.56251C19.0599 8.62501 18.9922 8.66147 18.7422 8.70313C18.5235 8.73959 18.2578 8.54168 18.1641 8.3698C18.0912 8.23439 18.1745 7.89584 18.3047 7.78647C18.5495 7.58334 18.8724 7.45314 19.1797 7.33855C20.4766 6.84897 21.7787 6.37501 23.0807 5.89584C23.2266 5.84376 23.3672 5.77084 23.513 5.71355C23.6849 5.6198 23.7943 5.57293 23.4922 5.54168Z" fill="black"/>
</svg>
