<svg width="219" height="170" viewBox="0 0 219 170" fill="none" xmlns="http://www.w3.org/2000/svg">
<path d="M48.8555 124.126L158.876 95.916L185.676 104.379L91.1712 138.232L48.8555 124.126Z" fill="#A4AE4D"/>
<path d="M1.2421 14.5161C9.4658 47.7002 16.3785 81.3101 23.0868 114.818C23.3763 116.299 25.6408 115.669 25.3513 114.188C18.5238 80.646 10.3682 47.513 2.04234 14.2948C1.90613 13.784 1.10589 13.9883 1.2421 14.5161Z" fill="#210B03"/>
<path d="M2.29955 14.2461C1.942 11.9305 2.69115 9.7001 4.46189 8.13369C5.22807 7.46966 4.10434 6.32891 3.35518 7.02698C1.26095 8.91689 0.358555 11.8284 1.22689 14.5356C1.44824 15.2336 2.40171 14.9272 2.29955 14.2461Z" fill="#210B03"/>
<path d="M6.94961 6.22556C29.4073 6.54906 51.882 5.30615 74.3396 4.50591C96.7803 3.70568 119.323 3.45028 141.73 2.00305C142.973 1.91792 143.007 0.02801 141.73 0.0450362C119.272 0.232325 96.7803 1.59442 74.3396 2.42871C51.882 3.24597 29.3562 3.63757 6.94961 5.57857C6.54098 5.61262 6.52395 6.22556 6.94961 6.24259V6.22556Z" fill="#210B03"/>
<path d="M142.327 0.795887C146.975 5.85268 146.567 16.8687 147.725 23.4408C149.036 30.8983 150.5 38.3388 151.998 45.7622C155.012 60.6091 158.315 75.4049 161.993 90.0985C162.35 91.5628 164.615 90.9328 164.257 89.4686C160.103 72.6637 156.187 55.8077 152.73 38.8495C151.011 30.3705 149.359 21.8744 147.776 13.3783C146.89 8.61093 146.856 3.46901 143.008 0.131863C142.549 -0.276767 141.919 0.353204 142.327 0.812913V0.795887Z" fill="#210B03"/>
<path d="M23.9025 116.388C25.8775 118.142 28.2101 119.351 30.8151 119.845C31.9218 120.049 32.3986 118.346 31.2919 118.142C28.8741 117.699 26.6437 116.865 24.5495 115.571C24.0557 115.265 23.4768 115.997 23.9195 116.388H23.9025Z" fill="#210B03"/>
<path d="M34.4182 121.358C77.0009 115.092 119.26 103.974 160.753 92.7367C162.217 92.3451 161.604 90.0636 160.123 90.4552C118.409 101.812 76.1496 110.257 34.1287 120.268C33.4136 120.438 33.7371 121.46 34.4352 121.358H34.4182Z" fill="#210B03"/>
<path d="M34.9288 110.411C75.3491 104.656 115.548 94.4575 155.492 86.0466C156.735 85.7912 156.207 83.8672 154.964 84.1396C115.02 92.6187 74.1743 99.1568 34.6904 109.543C34.1115 109.696 34.3839 110.479 34.9288 110.411Z" fill="#210B03"/>
<path d="M11.3438 21.9746C16.8603 51.9748 22.9557 81.941 29.4597 111.737C29.7321 112.963 31.571 112.435 31.3326 111.226C25.2883 81.3621 18.8013 51.4981 11.7694 21.8554C11.7013 21.583 11.3097 21.7021 11.3608 21.9746H11.3438Z" fill="#210B03"/>
<path d="M11.4277 20.2021C10.8999 18.5336 11.3596 16.7458 12.7047 15.6221C13.4708 14.9751 12.3471 13.8514 11.598 14.5154C9.82722 16.0988 9.33346 18.5336 10.338 20.6619C10.6275 21.2748 11.632 20.8491 11.4277 20.2021Z" fill="#210B03"/>
<path d="M16.7104 15.6458C56.1433 14.0113 95.5591 11.4403 134.975 9.2099C136.082 9.1418 136.082 7.42215 134.975 7.49025C95.5591 9.78879 56.0922 11.7468 16.7104 14.6413C16.0634 14.6924 16.0464 15.6969 16.7104 15.6628V15.6458Z" fill="#210B03"/>
<path d="M134.925 9.24036C136.593 9.32549 138.177 10.8579 138.637 12.3902C138.909 13.3267 140.322 12.7988 139.897 11.8624C139.471 10.8919 138.756 10.0747 137.853 9.51278C136.9 8.91687 135.998 8.88281 134.925 8.88281C134.687 8.88281 134.687 9.24036 134.925 9.24036Z" fill="#210B03"/>
<path d="M140.19 12.9171C143.833 35.1704 148.141 57.3215 152.363 79.4897C152.602 80.7667 154.56 80.2218 154.322 78.9449C149.912 56.8618 145.57 34.7618 140.581 12.8149C140.53 12.5595 140.156 12.6787 140.19 12.9171Z" fill="#210B03"/>
<path d="M153.806 85.3665C154.249 83.068 154.504 80.7354 154.81 78.4028C154.964 77.2109 153.023 77.1769 152.921 78.4028C152.716 80.6503 152.461 82.9147 152.376 85.1792C152.342 85.9795 153.636 86.1838 153.789 85.3665H153.806Z" fill="#210B03"/>
<path d="M32.264 121.868C30.1357 125.069 28.9268 129.701 29.676 133.514C29.8292 134.264 30.9019 134.025 30.953 133.344C31.0892 131.318 31.004 129.394 31.4637 127.368C31.8724 125.614 32.5364 123.929 33.2004 122.26C33.4218 121.698 32.5705 121.409 32.264 121.868Z" fill="#210B03"/>
<path d="M29.9561 132.513C55.5466 145.555 82.0395 158.035 108.618 168.966C109.503 169.323 110.133 167.842 109.282 167.416C83.6059 154.545 56.8066 142.78 30.1775 132.019C29.888 131.9 29.6837 132.376 29.9561 132.53V132.513Z" fill="#210B03"/>
<path d="M31.3098 126.843C58.2795 138.813 85.3683 150.442 111.776 163.654C112.832 164.182 113.751 162.581 112.695 162.071C86.1174 149.165 59.284 136.497 31.6163 126.094C31.1906 125.941 30.8842 126.639 31.3098 126.826V126.843Z" fill="#210B03"/>
<path d="M109.861 168.489C109.537 166.838 110.15 164.301 112.159 164.063C113.044 163.96 113.862 164.505 114.304 165.237C114.798 166.038 114.696 166.77 114.407 167.621C114.185 168.251 115.037 168.643 115.479 168.234C117.744 166.14 114.849 162.462 112.329 162.53C109.367 162.615 107.545 166.378 109.043 168.83C109.316 169.273 109.963 168.983 109.861 168.489Z" fill="#210B03"/>
<path d="M107.655 168.25C109.988 169.8 112.984 169.561 115.01 167.603C115.521 167.109 114.772 166.411 114.244 166.837C112.507 168.199 110.073 168.523 108.064 167.552C107.604 167.331 107.212 167.961 107.655 168.25Z" fill="#210B03"/>
<path d="M112.672 163.327C148.359 147.322 183.059 128.781 218.048 111.312C219.154 110.75 218.184 109.081 217.077 109.643C182.122 127.129 146.486 143.747 112.28 162.663C111.838 162.901 112.229 163.514 112.672 163.327Z" fill="#210B03"/>
<path d="M163.541 93.298C181.572 98.525 199.62 103.531 217.395 109.592C218.468 109.967 218.945 108.247 217.872 107.889C200.131 101.828 182.1 96.3968 163.661 92.8893C163.388 92.8383 163.286 93.2299 163.541 93.298Z" fill="#210B03"/>
<path d="M115.318 167.793C149.711 152.657 184.53 137.316 217.067 118.468C217.407 118.281 217.101 117.787 216.76 117.957C182.572 133.791 149.2 151.431 114.892 167.095C114.415 167.316 114.824 167.997 115.301 167.793H115.318Z" fill="#210B03"/>
<path d="M217.26 110.019C217.226 114.65 214.842 118.311 210.773 120.439C210.058 120.814 210.551 121.954 211.318 121.75C216.204 120.405 219.269 114.82 217.89 109.951C217.788 109.61 217.26 109.678 217.26 110.036V110.019Z" fill="#210B03"/>
<path d="M91.3007 141.975C124.213 134.943 155.745 118.428 186.648 105.505C187.669 105.079 187.091 103.649 186.052 104.092C154.809 117.287 123.821 132.1 91.1816 141.55C90.9091 141.635 91.0283 142.043 91.3007 141.975Z" fill="#210B03"/>
<path d="M44.8633 127.064C59.4037 134.368 74.9657 138.54 90.698 142.405C91.4472 142.592 91.7536 141.434 91.0215 141.247C75.3914 137.399 59.7783 133.483 45.1697 126.536C44.8292 126.366 44.5227 126.877 44.8633 127.047V127.064Z" fill="#210B03"/>
<path d="M43.3825 125.48C82.4407 116.899 121.431 107.756 160.285 98.2895C161.272 98.0512 160.847 96.5528 159.859 96.7742C120.886 105.696 81.93 114.975 43.1781 124.782C42.7184 124.902 42.9228 125.583 43.3654 125.48H43.3825Z" fill="#210B03"/>
<path d="M158.891 96.0887C167.353 98.8299 175.798 101.622 184.396 103.904C185.299 104.142 185.673 102.78 184.788 102.508C176.292 99.8685 167.66 97.7062 159.044 95.5268C158.687 95.4417 158.533 95.9695 158.891 96.0887Z" fill="#210B03"/>
<path d="M137.106 130.432C141.243 132.645 145.364 134.978 149.654 136.885C150.404 137.208 151.068 136.152 150.301 135.761C146.096 133.599 141.686 131.862 137.327 130.023C137.055 129.904 136.817 130.278 137.089 130.432H137.106Z" fill="#210B03"/>
<path d="M170.918 116.254C174.358 118.382 177.763 120.612 181.355 122.451C182.122 122.843 182.769 121.736 182.037 121.293C178.58 119.199 174.886 117.479 171.276 115.658C170.884 115.47 170.561 116.015 170.935 116.254H170.918Z" fill="#210B03"/>
<path d="M138.701 130.381C150.62 127.861 162.3 122.48 172.924 116.64C173.827 116.147 173.009 114.768 172.124 115.261C161.312 121.289 150.075 125.426 138.531 129.734C138.122 129.887 138.276 130.483 138.718 130.398L138.701 130.381Z" fill="#210B03"/>
<path d="M150.84 136.735C161.482 133.227 171.663 128.477 181.419 123.029C182.492 122.433 181.521 120.747 180.449 121.377C170.829 126.962 160.869 131.576 150.568 135.798C150.006 136.037 150.21 136.939 150.823 136.735H150.84Z" fill="#210B03"/>
<path d="M31.0927 126.806C31.4672 128.833 31.995 130.859 32.8634 132.732C33.1869 133.413 34.3617 132.936 34.0893 132.221C33.3912 130.331 32.642 128.475 32.0802 126.534C31.8929 125.887 30.9735 126.159 31.0927 126.806Z" fill="#210B03"/>
<path d="M32.6511 127.762C32.9746 130.18 33.911 132.768 34.7283 135.083C35.0518 136.02 36.499 135.645 36.2266 134.675C35.5456 132.274 34.7964 129.567 33.6386 127.354C33.3321 126.758 32.566 127.217 32.6511 127.779V127.762Z" fill="#210B03"/>
<path d="M34.4422 129.057C34.97 131.236 35.8894 133.381 36.6386 135.493C37.0302 136.616 38.852 136.105 38.4264 134.999C37.575 132.836 36.8599 130.538 35.8043 128.478C35.4127 127.712 34.2549 128.256 34.4422 129.057Z" fill="#210B03"/>
<path d="M36.3399 129.377C37.038 131.999 37.8212 134.672 38.9449 137.141C39.3876 138.128 40.7838 137.26 40.3751 136.306C39.3535 133.906 38.2468 131.556 37.3615 129.087C37.1401 128.457 36.1526 128.696 36.3399 129.377Z" fill="#210B03"/>
<path d="M38.4756 130.692C39.4972 133.195 40.5187 135.698 41.6935 138.15C42.2043 139.206 43.8389 138.269 43.277 137.23C42.0341 134.915 40.7571 132.599 39.5993 130.233C39.2928 129.62 38.2372 130.062 38.4926 130.692H38.4756Z" fill="#210B03"/>
<path d="M40.672 131.93C41.1828 133.19 41.6936 134.45 42.2044 135.71C42.6641 136.851 43.0557 138.145 43.7879 139.149C44.3667 139.932 45.6097 139.49 45.3883 138.485C45.1159 137.259 44.4178 136.135 43.856 135.029C43.243 133.82 42.6301 132.594 42.0171 131.385C41.6425 130.653 40.3656 131.181 40.672 131.947V131.93Z" fill="#210B03"/>
<path d="M43.3956 132.186C44.298 134.689 45.0131 137.464 46.3071 139.797C46.8009 140.699 48.2481 140.086 47.9586 139.099C47.2265 136.545 45.7623 134.059 44.6385 131.658C44.315 130.96 43.1232 131.454 43.3956 132.186Z" fill="#210B03"/>
<path d="M46.0736 133.193C47.01 136.207 48.1338 139.153 49.4278 142.047C49.9385 143.205 51.7604 142.2 51.1474 141.043C49.7683 138.369 48.5594 135.628 47.5378 132.802C47.2143 131.899 45.7841 132.257 46.0736 133.21V133.193Z" fill="#210B03"/>
<path d="M48.848 134.794C49.6993 137.144 50.6017 139.476 51.5041 141.809C52.066 143.239 54.1091 142.422 53.4621 140.975C52.4406 138.693 51.402 136.429 50.3463 134.164C49.9547 133.33 48.5245 133.926 48.848 134.794Z" fill="#210B03"/>
<path d="M52.221 136.001C52.9021 138.776 53.8385 141.619 54.8771 144.275C55.2517 145.229 56.767 144.871 56.4606 143.833C55.6093 141.04 54.5536 138.18 53.3618 135.507C53.0723 134.86 52.0678 135.32 52.238 135.984L52.221 136.001Z" fill="#210B03"/>
<path d="M54.7076 138.436C55.7462 140.547 56.6316 142.693 57.3126 144.94C57.6702 146.149 59.6282 145.536 59.1515 144.429C58.181 142.131 57.1594 139.866 55.9846 137.67C55.5249 136.819 54.282 137.568 54.6906 138.419L54.7076 138.436Z" fill="#210B03"/>
<path d="M56.6895 137.997C57.4897 140.533 58.324 143.173 59.5329 145.539C60.0437 146.544 61.8484 145.829 61.4058 144.756C60.4012 142.338 59.2094 140.023 58.2559 137.571C57.8813 136.617 56.383 136.992 56.6895 137.997Z" fill="#210B03"/>
<path d="M59.5119 138.214C60.3803 141.126 61.2997 144.003 62.2191 146.898C62.6448 148.209 64.756 147.596 64.2793 146.336C63.2066 143.493 62.0999 140.649 60.9762 137.823C60.6186 136.938 59.2395 137.261 59.5119 138.232V138.214Z" fill="#210B03"/>
<path d="M62.4481 140.805C62.8908 143.427 63.6399 146.032 64.8147 148.416C65.4277 149.676 67.2325 148.569 66.6706 147.326C65.649 145.045 64.6956 142.78 63.9634 140.38C63.657 139.392 62.2778 139.818 62.4481 140.805Z" fill="#210B03"/>
<path d="M65.0941 142.368C65.4857 144.786 66.32 147.629 67.631 149.723C68.261 150.711 69.9976 150.098 69.589 148.889C69.1974 147.697 68.5674 146.574 68.0737 145.416C67.5629 144.19 67.1032 142.964 66.5583 141.755C66.1497 140.853 64.9408 141.551 65.077 142.385L65.0941 142.368Z" fill="#210B03"/>
<path d="M67.5022 143.343C68.3024 145.574 69.1026 147.787 69.9029 150.017C70.3626 151.277 72.4057 150.664 71.895 149.473C70.9755 147.276 70.0391 145.097 69.1197 142.9C68.711 141.93 67.1276 142.305 67.5022 143.343Z" fill="#210B03"/>
<path d="M70.752 144.19C71.5863 147.17 72.6419 150.03 73.8338 152.873C74.2424 153.861 75.6896 153.265 75.1959 152.295C73.8338 149.604 72.7271 146.778 71.8076 143.901C71.5863 143.237 70.5647 143.509 70.769 144.19H70.752Z" fill="#210B03"/>
<path d="M73.9831 146.475C74.562 148.824 75.3111 151.225 76.2476 153.455C76.7073 154.511 78.2907 153.609 77.814 152.536C76.8605 150.425 75.9241 148.331 75.1068 146.168C74.8514 145.47 73.7958 145.743 73.9831 146.475Z" fill="#210B03"/>
<path d="M75.5253 145.843C76.2404 148.686 77.0747 151.989 78.6751 154.475C79.254 155.378 80.9566 154.816 80.531 153.692C79.4243 150.883 77.943 148.329 77.0406 145.434C76.7341 144.481 75.3039 144.872 75.5423 145.843H75.5253Z" fill="#210B03"/>
<path d="M78.3837 147.426C78.6901 149.112 79.1328 150.712 79.7287 152.313C80.2225 153.641 80.6822 155.241 81.7378 156.212C82.47 156.876 83.4064 156.212 83.2872 155.309C83.0999 153.93 82.1465 152.636 81.6016 151.359C81.0057 149.929 80.4949 148.465 80.0012 146.984C79.6606 145.945 78.1964 146.371 78.3837 147.426Z" fill="#210B03"/>
<path d="M81.381 150.318C81.9769 152.617 82.4026 155.477 83.5944 157.554C84.0541 158.355 85.5695 158.065 85.4503 157.044C85.2119 154.643 83.9009 152.106 83.0325 149.859C82.6409 148.854 81.0915 149.212 81.364 150.318H81.381Z" fill="#210B03"/>
<path d="M83.3445 150.938C83.685 152.453 84.0936 153.968 84.6214 155.432C84.962 156.386 85.2174 157.952 86.3581 158.208C86.8519 158.327 87.2946 158.123 87.567 157.714C87.7883 157.39 87.8054 157.067 87.7032 156.709C87.567 156.25 87.1924 156.028 86.7327 155.977C86.6987 155.977 86.6816 155.977 86.6476 155.977C85.7963 155.875 85.4047 157.101 85.9665 157.629C85.9835 157.646 86.0176 157.663 86.0346 157.697C85.9495 157.373 85.8644 157.05 85.7792 156.726C85.7792 156.76 85.7452 156.812 85.7282 156.846C85.9665 156.607 86.2049 156.369 86.4603 156.113L86.3581 156.148C86.7157 156.233 87.0562 156.335 87.4138 156.42C86.8178 155.892 86.3922 154.326 86.1027 153.594C85.6941 152.572 85.3025 151.55 84.962 150.512C84.6214 149.507 83.1231 149.899 83.3615 150.955L83.3445 150.938Z" fill="#210B03"/>
<path d="M85.4313 151.292C86.0442 154.289 87.0828 157.149 88.479 159.873C89.2281 161.337 91.4416 160.043 90.6924 158.579C89.3814 156.042 88.2066 153.471 87.1509 150.815C86.7253 149.76 85.1929 150.134 85.4313 151.292Z" fill="#210B03"/>
<path d="M89.4643 152.093C90.0092 154.749 90.9967 157.49 92.512 159.755C93.0058 160.487 94.2147 159.789 93.7039 159.057C92.1545 156.775 91.0137 154.562 90.3497 151.838C90.2135 151.259 89.3451 151.514 89.4643 152.076V152.093Z" fill="#210B03"/>
<path d="M92.1341 153.728C92.764 156.435 93.6664 159.057 94.7731 161.611C95.1988 162.599 96.7312 161.747 96.2374 160.76C95.0626 158.393 94.1261 155.941 93.394 153.387C93.1556 152.57 91.9297 152.911 92.117 153.745L92.1341 153.728Z" fill="#210B03"/>
<path d="M94.3738 154.664C94.7654 157.474 95.9232 160.572 97.3704 163.007C97.9153 163.944 99.6179 163.314 99.1752 162.241C98.0345 159.517 96.9278 156.776 95.7529 154.068C95.3784 153.217 94.2717 153.881 94.3738 154.647V154.664Z" fill="#210B03"/>
<path d="M97.3268 156.623C97.6844 158.956 98.4846 161.459 100.034 163.28C100.817 164.2 102.333 163.008 101.703 161.986C100.511 160.08 99.4381 158.411 98.8762 156.198C98.6208 155.159 97.1736 155.619 97.3098 156.623H97.3268Z" fill="#210B03"/>
<path d="M100.518 158.837C100.91 160.863 101.37 162.957 102.187 164.864C102.613 165.834 104.23 165.136 103.907 164.149C103.277 162.242 102.51 160.403 101.983 158.445C101.727 157.492 100.348 157.9 100.518 158.854V158.837Z" fill="#210B03"/>
<path d="M102.669 160.111C103.095 161.558 103.367 163.039 103.793 164.487C103.963 165.049 104.116 165.713 104.661 166.036C105.189 166.342 105.768 166.257 106.108 165.73C106.551 165.083 105.819 164.197 105.104 164.419C105.24 164.419 105.376 164.419 105.512 164.419L106.057 164.844C106.244 165.1 105.989 164.64 105.955 164.538C105.921 164.436 105.853 164.333 105.802 164.231C105.58 163.72 105.41 163.193 105.223 162.665C104.882 161.677 104.576 160.673 104.201 159.685C103.827 158.732 102.345 159.089 102.635 160.111H102.669Z" fill="#210B03"/>
<path d="M104.82 161.709C105.297 163.821 105.705 165.983 106.301 168.06C106.659 169.337 108.6 168.809 108.293 167.515C107.8 165.404 107.101 163.327 106.506 161.25C106.199 160.16 104.565 160.62 104.82 161.709Z" fill="#210B03"/>
<path d="M106.418 161.301C106.673 162.85 107.15 164.349 107.491 165.881C107.78 167.124 109.806 166.409 109.159 165.183C108.478 163.855 108.001 162.408 107.491 161.011C107.235 160.33 106.282 160.603 106.401 161.318L106.418 161.301Z" fill="#210B03"/>
<path d="M108.453 161.986L108.93 164.557C109.134 165.664 110.973 165.187 110.632 164.08C110.377 163.246 110.121 162.412 109.866 161.594C109.577 160.675 108.283 161.067 108.453 161.986Z" fill="#210B03"/>
<path d="M115.822 161.762C115.89 163.278 115.601 164.606 115.056 166.019C114.783 166.717 115.975 167.228 116.282 166.53C116.946 164.98 117.065 163.295 116.673 161.643C116.554 161.166 115.788 161.268 115.822 161.762Z" fill="#210B03"/>
<path d="M117.822 160.704C117.431 162.372 116.75 164.177 116.631 165.88C116.579 166.663 117.737 166.765 117.942 166.05C118.18 165.301 118.18 164.501 118.282 163.735C118.384 162.798 118.52 161.862 118.657 160.925C118.725 160.38 117.942 160.125 117.822 160.687V160.704Z" fill="#210B03"/>
<path d="M118.996 160.351C118.724 161.543 118.315 162.786 118.247 163.994C118.213 164.829 119.422 164.931 119.66 164.182C120.018 163.075 120.052 161.815 120.205 160.674C120.307 159.891 119.166 159.517 118.979 160.334L118.996 160.351Z" fill="#210B03"/>
<path d="M120.502 159.073C120.077 160.418 119.668 161.95 119.668 163.381C119.668 164.504 121.251 164.436 121.371 163.381C121.524 162.052 121.558 160.776 121.881 159.465C122.103 158.562 120.758 158.188 120.485 159.073H120.502Z" fill="#210B03"/>
<path d="M122.43 157.508C121.902 158.836 121.358 160.675 121.528 162.105C121.63 162.956 122.941 163.314 123.162 162.326C123.316 161.628 123.282 160.896 123.367 160.198C123.452 159.415 123.605 158.649 123.724 157.866C123.86 157.014 122.754 156.708 122.43 157.508Z" fill="#210B03"/>
<path d="M124.692 157.356C124.011 158.752 123.619 160.233 123.551 161.799C123.517 162.77 125.067 162.77 125.067 161.799C125.067 160.42 125.288 159.109 125.799 157.815C126.054 157.185 124.982 156.726 124.692 157.356Z" fill="#210B03"/>
<path d="M126.861 156.55C126.35 158.082 125.975 159.649 125.754 161.249C125.584 162.424 127.32 162.645 127.371 161.471C127.423 159.904 127.644 158.389 128.035 156.874C128.223 156.107 127.116 155.818 126.861 156.55Z" fill="#210B03"/>
<path d="M128.688 155.584C128.466 156.418 128.245 157.269 128.041 158.104C127.836 158.887 127.547 159.687 127.547 160.521C127.547 161.305 128.773 161.764 129.13 160.947C129.777 159.466 129.828 157.559 130.084 155.975C130.237 155.073 128.926 154.664 128.688 155.584Z" fill="#210B03"/>
<path d="M130.805 154.051C130.397 155.924 130.022 157.814 129.528 159.67C129.239 160.776 130.993 161.083 131.112 159.891C131.316 158.035 131.64 156.196 131.912 154.358C132.014 153.642 130.959 153.319 130.805 154.051Z" fill="#210B03"/>
<path d="M133.358 153.112C132.796 154.814 132.422 156.534 132.234 158.305C132.149 159.122 133.494 159.156 133.528 158.305C133.613 156.636 133.869 154.985 134.295 153.367C134.465 152.754 133.545 152.516 133.358 153.112Z" fill="#210B03"/>
<path d="M136.105 151.516C135.356 153.355 134.76 155.228 134.351 157.169C134.147 158.122 135.645 158.514 135.815 157.577C136.156 155.619 136.667 153.729 137.348 151.873C137.637 151.09 136.428 150.784 136.122 151.533L136.105 151.516Z" fill="#210B03"/>
<path d="M137.639 150.356C136.72 151.786 135.936 153.744 135.953 155.463C135.953 156.502 137.52 156.74 137.792 155.719C137.997 154.919 138.065 154.101 138.269 153.301C138.473 152.501 138.763 151.735 139.035 150.968C139.342 150.117 138.082 149.675 137.639 150.373V150.356Z" fill="#210B03"/>
<path d="M139.516 150.544C139.09 152.23 138.699 153.932 138.188 155.584C137.864 156.64 139.635 157.082 139.805 156.027C140.095 154.307 140.486 152.604 140.861 150.902C141.048 150.016 139.72 149.642 139.499 150.527L139.516 150.544Z" fill="#210B03"/>
<path d="M141.877 147.969C141.485 149.263 141.11 150.54 140.736 151.834C140.48 152.703 139.885 153.843 140.429 154.695C140.651 155.052 141.059 155.222 141.468 155.12C141.911 155.018 142.098 154.746 142.268 154.337C142.37 154.082 142.268 153.639 142.03 153.469C142.013 153.452 141.979 153.435 141.962 153.418C141.076 152.72 139.902 153.809 140.702 154.678C140.719 154.695 140.736 154.729 140.77 154.746L140.634 153.656C140.634 153.656 140.583 153.724 140.566 153.758C140.821 153.605 141.093 153.452 141.349 153.299C141.315 153.299 141.264 153.299 141.23 153.299C141.502 153.452 141.757 153.605 142.03 153.758C141.996 153.69 141.979 153.622 141.945 153.571L142.047 154.286C142.336 152.311 142.966 150.336 143.409 148.378C143.63 147.39 142.183 146.982 141.894 147.952L141.877 147.969Z" fill="#210B03"/>
<path d="M143.869 147.665C143.63 148.517 143.392 149.368 143.153 150.219C142.915 151.019 142.592 151.786 142.489 152.62C142.353 153.641 143.817 153.624 144.141 152.841C144.447 152.092 144.533 151.241 144.72 150.458C144.924 149.657 145.111 148.874 145.316 148.074C145.554 147.137 144.124 146.729 143.851 147.665H143.869Z" fill="#210B03"/>
<path d="M146.825 146.441C146.416 147.598 146.007 148.756 145.599 149.914C145.292 150.765 144.662 151.821 144.969 152.723C145.054 153.013 145.292 153.302 145.616 153.37C145.99 153.438 146.28 153.438 146.603 153.217C146.842 153.047 147.08 152.774 147.046 152.451C147.046 152.417 147.046 152.366 147.046 152.332C146.91 151.225 145.326 151.174 145.275 152.332C145.275 152.366 145.275 152.417 145.275 152.451C145.428 152.195 145.565 151.94 145.718 151.685C145.667 151.702 145.616 151.736 145.582 151.753C145.82 151.719 146.041 151.685 146.28 151.668L146.126 151.617C146.348 151.838 146.552 152.042 146.773 152.264C146.637 151.804 147.335 150.306 147.489 149.778C147.778 148.807 148.067 147.837 148.34 146.866C148.629 145.913 147.182 145.538 146.859 146.458L146.825 146.441Z" fill="#210B03"/>
<path d="M148.76 145.181C147.993 147.105 147.397 149.114 146.631 151.038C146.172 152.196 148.3 152.74 148.453 151.549C148.726 149.505 149.39 147.496 150.02 145.538C150.292 144.721 149.049 144.415 148.743 145.181H148.76Z" fill="#210B03"/>
<path d="M151.05 143.223C150.301 145.13 149.858 147.207 149.279 149.182C148.905 150.493 150.982 151.055 151.306 149.744C151.799 147.752 152.429 145.725 152.736 143.682C152.906 142.559 151.459 142.15 151.033 143.206L151.05 143.223Z" fill="#210B03"/>
<path d="M153.568 142.985C152.818 144.738 152.086 146.492 151.405 148.28C151.048 149.216 152.58 149.659 152.921 148.705C153.568 146.918 154.164 145.13 154.759 143.325C155.015 142.559 153.874 142.287 153.568 143.002V142.985Z" fill="#210B03"/>
<path d="M155.903 142.913C155.443 144.173 154.983 145.416 154.643 146.71C154.404 147.629 155.681 147.919 156.022 147.085C156.533 145.842 156.907 144.565 157.299 143.288C157.571 142.385 156.209 142.045 155.903 142.896V142.913Z" fill="#210B03"/>
<path d="M158.276 140.038C157.493 142.132 156.71 144.226 155.927 146.32C155.467 147.546 157.493 148.125 157.902 146.865C158.6 144.737 159.298 142.626 159.996 140.497C160.354 139.408 158.685 138.982 158.293 140.02L158.276 140.038Z" fill="#210B03"/>
<path d="M159.945 139.168C158.958 141.143 158.192 143.425 158.107 145.638C158.055 146.779 159.843 147.034 160.116 145.911C160.592 143.867 161.001 141.892 161.682 139.9C162.023 138.896 160.439 138.215 159.945 139.168Z" fill="#210B03"/>
<path d="M162.723 138.995C162.263 139.999 161.804 141.004 161.378 142.008C160.986 142.911 160.51 143.609 160.918 144.562C161.054 144.869 161.463 145.056 161.769 145.056C162.263 145.056 162.536 144.852 162.825 144.46C163.012 144.205 163.012 143.728 162.825 143.472C162.808 143.438 162.791 143.421 162.774 143.387C162.059 142.4 160.475 143.268 161.105 144.358C161.105 144.392 161.14 144.409 161.157 144.443C161.208 144.051 161.259 143.66 161.31 143.268C161.276 143.302 161.259 143.336 161.225 143.37C161.463 143.268 161.684 143.183 161.923 143.081C161.889 143.081 161.838 143.081 161.804 143.081C162.127 143.319 162.434 143.558 162.757 143.813C162.723 144.017 162.757 143.949 162.859 143.575L163.081 142.911C163.183 142.57 163.302 142.247 163.404 141.906C163.642 141.123 163.881 140.34 164.119 139.573C164.357 138.79 163.132 138.245 162.774 139.012L162.723 138.995Z" fill="#210B03"/>
<path d="M165.614 137.192C164.899 139.167 164.133 141.142 163.503 143.152C163.094 144.463 165.137 145.007 165.563 143.713C166.21 141.721 166.704 139.661 167.266 137.652C167.555 136.579 165.989 136.188 165.631 137.192H165.614Z" fill="#210B03"/>
<path d="M167.784 136.004C167.12 137.928 166.507 139.903 165.962 141.861C165.621 143.087 167.562 143.614 167.869 142.388C168.38 140.413 168.839 138.404 169.214 136.395C169.401 135.459 168.09 135.084 167.784 136.004Z" fill="#210B03"/>
<path d="M170.996 133.621C170.298 134.915 169.804 136.311 169.242 137.656C168.799 138.712 167.914 139.938 168.561 141.045C168.782 141.402 169.293 141.675 169.719 141.521C169.77 141.521 169.804 141.487 169.855 141.47C170.161 141.351 170.502 141.113 170.57 140.755C170.57 140.704 170.587 140.653 170.604 140.602C170.689 140.057 170.468 139.529 169.906 139.359C169.872 139.359 169.838 139.342 169.821 139.325C168.765 139.019 167.999 140.687 169.055 141.147C169.089 141.147 169.106 141.181 169.14 141.181C168.986 140.806 168.833 140.415 168.68 140.04C168.68 140.091 168.646 140.142 168.629 140.193L169.344 139.478L169.208 139.512C169.633 139.751 170.059 139.989 170.468 140.227C170.315 139.836 171.217 137.98 171.404 137.452C171.779 136.38 172.204 135.307 172.477 134.2C172.681 133.349 171.472 132.787 171.03 133.587L170.996 133.621Z" fill="#210B03"/>
<path d="M172.019 134.056C171.577 136.151 170.913 138.16 169.993 140.101C169.397 141.361 171.219 142.144 171.764 140.85C172.615 138.79 173.211 136.678 173.552 134.482C173.705 133.495 172.224 133.035 172.019 134.056Z" fill="#210B03"/>
<path d="M174.869 133.194C174.375 134.863 173.864 136.531 173.37 138.2C173.149 138.966 174.375 139.307 174.562 138.523C174.988 136.838 175.414 135.152 175.839 133.467C175.992 132.837 175.056 132.581 174.869 133.194Z" fill="#210B03"/>
<path d="M176.525 133.14C175.98 134.485 175.299 135.847 174.925 137.243C174.703 138.06 175.946 138.656 176.338 137.839C177.002 136.477 177.41 134.945 177.904 133.514C178.211 132.629 176.866 132.306 176.525 133.14Z" fill="#210B03"/>
<path d="M179.574 129.295C178.739 131.339 177.701 133.416 177.105 135.544C176.815 136.583 178.433 137.332 178.893 136.293C179.829 134.199 180.408 131.9 181.106 129.704C181.412 128.716 179.965 128.376 179.591 129.278L179.574 129.295Z" fill="#210B03"/>
<path d="M182.488 127.848C181.313 129.687 179.713 132.326 179.747 134.573C179.747 135.407 180.973 135.833 181.398 135.016C181.892 134.062 182.028 132.973 182.369 131.968C182.76 130.81 183.271 129.721 183.867 128.648C184.361 127.746 183.033 126.979 182.488 127.848Z" fill="#210B03"/>
<path d="M184.801 127.248C183.814 129.104 182.758 131.198 182.52 133.293C182.383 134.45 184.069 134.501 184.426 133.548C185.108 131.658 185.431 129.7 186.197 127.827C186.521 127.027 185.193 126.482 184.801 127.231V127.248Z" fill="#210B03"/>
<path d="M187.111 126.13C186.362 128.309 185.579 130.489 184.881 132.685C184.54 133.758 186.226 134.507 186.737 133.468C186.89 133.162 187.043 132.855 187.197 132.532C187.741 131.425 186.175 130.472 185.528 131.561C185.358 131.851 185.17 132.157 185 132.447C185.613 132.702 186.243 132.974 186.856 133.23C187.571 131.033 188.201 128.82 188.848 126.607C189.189 125.5 187.486 125.057 187.128 126.13H187.111Z" fill="#210B03"/>
<path d="M189.811 125.937C188.942 127.385 188.278 128.934 187.733 130.534C187.359 131.641 189.215 132.152 189.47 131.011C189.828 129.496 190.406 128.1 191.19 126.738C191.7 125.835 190.338 125.052 189.811 125.937Z" fill="#210B03"/>
<path d="M91.9495 142.49C92.8519 141.179 93.1073 139.306 93.2094 137.74C93.2775 136.684 91.5579 136.667 91.5408 137.74C91.5408 139.255 91.0641 140.549 90.7917 141.996C90.6555 142.694 91.5238 143.086 91.9325 142.473L91.9495 142.49Z" fill="#210B03"/>
<path d="M45.5335 125.121C45.0397 125.121 44.7503 125.309 44.4779 125.7C44.7503 125.819 45.0397 125.939 45.3122 126.058C45.4995 125.581 45.6527 125.104 45.8229 124.611C46.0954 123.793 44.7162 123.487 44.5971 124.44C44.529 124.934 44.4608 125.428 44.4268 125.922C44.3927 126.432 45.227 126.552 45.3292 126.041C45.4313 125.905 45.5335 125.785 45.6186 125.649C45.8911 125.53 45.8911 125.104 45.5505 125.104L45.5335 125.121Z" fill="#210B03"/>
<path d="M45.6399 124.866C60.7592 130.127 76.2021 134.452 91.3725 139.56C92.2068 139.849 92.5984 138.487 91.7471 138.232C76.4404 133.515 61.3381 128.169 45.8953 123.964C45.3164 123.81 45.078 124.662 45.6399 124.866Z" fill="#210B03"/>
<path d="M92.6107 138.473C124.569 131.05 155.965 117.667 186.289 105.357C187.226 104.982 186.817 103.433 185.864 103.825C155.131 116.356 123.241 125.703 92.4745 137.996C92.168 138.116 92.2872 138.558 92.6107 138.49V138.473Z" fill="#210B03"/>
<path d="M95.6164 131.711C116.031 125.105 136.088 117.187 156.23 109.815C157.183 109.457 156.775 107.908 155.804 108.283C135.679 115.791 115.265 122.84 95.4462 131.098C95.0716 131.251 95.2078 131.847 95.6164 131.711Z" fill="#210B03"/>
<path d="M80.1536 125.528C83.1332 124.864 86.0958 124.166 89.0243 123.366C89.6883 123.195 89.4159 122.191 88.7349 122.344C85.7723 123.025 82.8267 123.808 79.8982 124.625C79.3193 124.779 79.5577 125.664 80.1536 125.528Z" fill="#210B03"/>
<path d="M29.3227 108.06C30.3783 109.32 31.7404 110.138 33.2898 110.648C34.2433 110.972 34.6689 109.406 33.6985 109.15C32.3704 108.793 31.1615 108.146 30.0889 107.277C29.544 106.835 28.846 107.516 29.3057 108.06H29.3227Z" fill="#210B03"/>
<path d="M25.0977 113.271C29.7459 121.001 38.9401 119.383 46.3465 117.323C47.3 117.051 46.8914 115.569 45.9379 115.842C39.3147 117.732 30.3078 119.826 25.8299 112.828C25.5404 112.368 24.8083 112.777 25.0977 113.254V113.271Z" fill="#210B03"/>
<path d="M77.6254 7.28261C76.8933 6.49941 75.7695 7.12938 75.7695 8.15095C75.7695 9.59818 77.5062 9.97276 78.6129 9.66629C79.7196 9.35982 80.9115 8.64471 80.2645 7.33369C79.5834 5.95457 78.034 6.14186 76.8081 6.61859C76.2633 6.82291 76.5017 7.7253 77.0465 7.50396C77.6084 7.26559 78.3405 6.94209 78.9705 7.04425C79.3621 7.11235 79.4983 7.35072 79.4813 7.7253C79.4642 8.16798 79.4132 8.1169 79.0556 8.28716C78.6129 8.49148 78.0851 8.71282 77.5913 8.64471C77.387 8.62769 76.9273 8.47445 76.8933 8.20203C76.8592 7.99772 77.1997 7.57206 77.4211 7.62314C77.6084 7.65719 77.7616 7.43585 77.6254 7.28261Z" fill="#210B03"/>
<path d="M5.48321 7.04401C1.82256 9.5639 3.18466 13.4629 3.96787 17.3789C6.04508 27.816 8.68415 38.151 10.9657 48.554C15.6649 70.0752 20.3982 91.5963 25.1145 113.118C25.3699 114.326 27.2428 113.816 26.9533 112.607C23.0032 95.4443 19.0532 78.2818 15.1201 61.1023C13.145 52.5211 11.1359 43.9399 9.24602 35.3416C8.03715 29.9443 1.10746 12.0668 5.85779 7.5548C6.11318 7.31643 5.77266 6.8397 5.46618 7.06104L5.48321 7.04401Z" fill="#210B03"/>
<path d="M161.03 92.366C161.95 91.719 162.58 90.8847 162.92 89.812C163.176 89.0118 161.882 88.6542 161.66 89.4715C161.456 90.3058 161.013 90.9528 160.332 91.4976C159.839 91.8892 160.486 92.7576 161.013 92.383L161.03 92.366Z" fill="#210B03"/>
<path d="M192.429 122.396C191.679 124.814 190.845 127.231 190.215 129.683C190.011 130.466 191.186 130.79 191.424 130.024C192.19 127.606 192.769 125.137 193.433 122.685C193.603 122.038 192.633 121.766 192.429 122.413V122.396Z" fill="#210B03"/>
<path d="M194.126 122.109C193.206 124.34 192.474 126.638 191.895 128.988C191.657 129.992 193.257 130.384 193.411 129.413C193.785 127.03 194.347 124.697 195.079 122.381C195.283 121.752 194.347 121.53 194.109 122.109H194.126Z" fill="#210B03"/>
<path d="M195.77 121.494C194.851 123.996 194.153 126.721 193.608 129.326C193.421 130.211 194.749 130.603 194.987 129.7C195.685 127.078 196.298 124.286 196.622 121.596C196.69 121.085 195.94 121.068 195.787 121.477L195.77 121.494Z" fill="#210B03"/>
<path d="M197.252 120.203C196.486 122.689 195.584 125.328 195.294 127.916C195.192 128.835 196.571 128.92 196.844 128.12C197.661 125.719 197.968 122.995 198.342 120.492C198.444 119.794 197.474 119.488 197.252 120.186V120.203Z" fill="#210B03"/>
<path d="M199.699 119.299C198.95 121.87 198.32 124.492 197.673 127.097C197.401 128.187 199.155 128.612 199.308 127.557C199.716 124.85 200.142 122.142 200.466 119.418C200.517 118.959 199.819 118.908 199.699 119.316V119.299Z" fill="#210B03"/>
<path d="M201.659 117.65C201.012 120.153 200.399 122.655 199.821 125.175C199.582 126.214 201.217 126.657 201.421 125.618C201.915 123.081 202.392 120.527 202.834 117.973C202.97 117.224 201.864 116.884 201.659 117.65Z" fill="#210B03"/>
<path d="M203.255 117.339C202.88 120.131 202.08 122.77 201.331 125.477C201.025 126.584 202.659 127.01 203.034 125.954C203.97 123.264 204.26 120.318 204.362 117.492C204.379 116.879 203.34 116.709 203.255 117.339Z" fill="#210B03"/>
<path d="M205.975 116.759C205.294 118.683 204.852 120.692 204.307 122.667C204.051 123.587 205.533 123.961 205.703 123.059C206.078 120.999 206.537 118.938 206.742 116.878C206.793 116.419 206.112 116.384 205.975 116.776V116.759Z" fill="#210B03"/>
<path d="M208.294 114.803C207.613 117.085 206.983 119.384 206.37 121.682C206.097 122.738 207.766 123.18 207.987 122.125C208.498 119.792 209.009 117.477 209.452 115.127C209.605 114.361 208.515 114.054 208.277 114.803H208.294Z" fill="#210B03"/>
<path d="M210.293 114.511C209.969 116.622 209.407 118.648 208.505 120.572C207.994 121.679 209.697 122.377 210.037 121.219C210.684 119.074 211.11 116.878 211.246 114.647C211.28 114.102 210.378 113.966 210.293 114.511Z" fill="#210B03"/>
<path d="M212.838 112.931C212.14 115.298 211.373 117.681 210.863 120.099C210.624 121.223 212.327 121.699 212.582 120.576C213.144 118.158 213.485 115.655 213.859 113.22C213.961 112.556 213.025 112.267 212.838 112.931Z" fill="#210B03"/>
<path d="M214.086 112.212C213.524 114.544 212.69 116.996 212.468 119.397C212.383 120.401 213.848 120.486 214.137 119.618C214.869 117.405 215.039 114.885 215.431 112.586C215.584 111.718 214.29 111.326 214.069 112.212H214.086Z" fill="#210B03"/>
<path d="M215.434 111.635C215.127 113.099 215.008 114.529 214.514 115.96C214.106 117.168 216.166 117.713 216.404 116.487C216.711 114.955 216.932 113.184 216.524 111.635C216.387 111.124 215.553 111.073 215.434 111.635Z" fill="#210B03"/>
<path d="M147.581 97.3511C152.877 95.6655 158.376 94.5759 163.91 94.1672C164.982 94.0821 164.982 92.3965 163.91 92.4816C158.121 93.0094 152.74 94.3205 147.377 96.5679C146.917 96.7552 147.088 97.5044 147.599 97.3511H147.581Z" fill="#210B03"/>
<path d="M47.6554 116.27C48.3365 116.406 48.5919 117.002 48.3876 117.632C48.1151 118.398 49.4432 118.755 49.5964 117.972C49.8348 116.763 48.9835 115.691 47.7576 115.572C47.349 115.538 47.2638 116.202 47.6554 116.287V116.27Z" fill="#210B03"/>
<path d="M48.5426 116.522C83.5146 110.648 118.248 101.249 152.624 92.6C153.714 92.3276 153.254 90.642 152.165 90.9144C117.686 99.717 82.6973 106.664 48.3383 115.773C47.8445 115.909 48.0488 116.607 48.5426 116.539V116.522Z" fill="#210B03"/>
<path d="M152.198 92.0202C152.351 92.2926 152.351 93.1099 151.959 93.2631C150.801 93.6888 151.483 95.3914 152.623 94.8465C153.985 94.1825 154.224 91.9861 152.606 91.5094C152.3 91.4243 152.061 91.7648 152.198 92.0372V92.0202Z" fill="#210B03"/>
<path d="M49.7197 115.737C49.8219 116.163 49.907 116.589 50.0092 117.014C50.1794 117.781 51.4053 117.457 51.201 116.691C51.0818 116.265 50.9626 115.857 50.8605 115.431C50.6562 114.699 49.5665 115.005 49.7367 115.737H49.7197Z" fill="#210B03"/>
<path d="M50.718 115.758C50.6498 115.945 50.5988 116.15 50.5647 116.354C50.3263 117.461 52.1311 117.478 51.8928 116.354C51.8587 116.15 51.8076 115.962 51.7395 115.758C51.5863 115.247 50.8712 115.247 50.718 115.758Z" fill="#210B03"/>
<path d="M52.3301 115.123C52.1258 115.736 52.2109 116.332 52.5174 116.894C53.0112 117.779 54.3733 116.775 53.6411 116.026C53.4198 115.804 53.3517 115.583 53.3687 115.259C53.4028 114.63 52.5004 114.578 52.3301 115.123Z" fill="#210B03"/>
<path d="M54.0913 114.664C53.887 115.039 53.904 115.362 53.9721 115.788C54.1424 116.843 55.9812 116.264 55.4193 115.175C55.2661 114.868 55.0788 114.63 54.7553 114.494C54.5169 114.392 54.2275 114.426 54.0913 114.664Z" fill="#210B03"/>
<path d="M55.8056 114.359C55.4311 115.023 55.4651 115.704 55.8567 116.351C56.5037 117.39 58.0361 116.164 57.1677 115.347C56.9464 115.143 56.8953 114.972 56.9123 114.666C56.9464 114.07 56.0781 113.866 55.8056 114.359Z" fill="#210B03"/>
<path d="M57.8618 114.513C58.0151 114.751 58.0321 114.989 57.9129 115.245C57.4702 116.215 59.0196 116.658 59.1388 115.585C59.2069 114.955 58.9856 114.41 58.5429 113.985C58.1853 113.644 57.6235 114.07 57.8618 114.513Z" fill="#210B03"/>
<path d="M59.846 113.696C59.8801 114.122 59.9311 114.531 59.9822 114.956C60.1184 116.131 61.8381 115.689 61.3443 114.582C61.174 114.19 61.0038 113.816 60.8335 113.424C60.6292 112.947 59.7949 113.186 59.846 113.696Z" fill="#210B03"/>
<path d="M61.9746 113.697C61.9746 113.697 61.9746 113.867 61.9746 113.952C61.4127 114.923 63.1664 115.536 63.3026 114.31C63.3707 113.714 63.0813 113.22 62.5705 112.931C62.0597 112.658 61.6511 113.271 61.9746 113.697Z" fill="#210B03"/>
<path d="M63.7144 112.913C63.6123 113.373 63.5612 113.85 63.5101 114.309C63.3909 115.212 65.0255 115.212 64.9063 114.309C64.8382 113.833 64.7871 113.373 64.702 112.913C64.5998 112.42 63.8166 112.42 63.7144 112.913Z" fill="#210B03"/>
<path d="M65.8416 112.263C65.7225 112.842 65.7054 113.421 65.6544 114.017C65.5862 115.022 67.2718 115.022 67.2037 114.017C67.1697 113.438 67.1356 112.842 67.0165 112.263C66.8973 111.667 65.9438 111.667 65.8246 112.263H65.8416Z" fill="#210B03"/>
<path d="M68.5001 111.344C68.398 111.837 68.2788 112.331 68.2107 112.842C68.0063 114.102 69.9133 114.102 69.709 112.842C69.6238 112.331 69.5217 111.837 69.4195 111.344C69.3174 110.901 68.6193 110.901 68.5171 111.344H68.5001Z" fill="#210B03"/>
<path d="M71.0312 110.194C71.0312 110.807 71.0483 111.437 71.2356 112.033C71.508 112.969 72.8871 112.577 72.6998 111.624C72.5806 111.028 72.2912 110.466 72.0188 109.921C71.7804 109.462 71.0483 109.683 71.0483 110.177L71.0312 110.194Z" fill="#210B03"/>
<path d="M73.5859 109.626C73.4326 109.967 73.3475 110.256 73.2964 110.631C73.1261 111.874 74.948 111.874 74.7777 110.631C74.7266 110.256 74.6415 109.967 74.4882 109.626C74.335 109.286 73.7561 109.286 73.6029 109.626H73.5859Z" fill="#210B03"/>
<path d="M77.3667 110.208C77.3156 110.735 77.2646 111.263 77.2135 111.791C77.1454 112.557 78.4734 112.557 78.4053 111.791C78.3542 111.263 78.3032 110.735 78.2521 110.208C78.201 109.629 77.4178 109.629 77.3667 110.208Z" fill="#210B03"/>
<path d="M80.5832 108.911C80.6343 109.439 80.7705 109.797 80.5662 110.324C80.2086 111.244 81.8602 111.669 82.0134 110.512C82.0985 109.78 81.9283 108.928 81.2642 108.52C80.9918 108.349 80.5662 108.571 80.6002 108.911H80.5832Z" fill="#210B03"/>
<path d="M82.6489 108.791C82.5127 109.251 82.4787 109.728 82.4276 110.205C82.3084 111.209 84.0962 111.209 83.977 110.205C83.9259 109.728 83.8918 109.251 83.7556 108.791C83.6024 108.247 82.8022 108.247 82.6489 108.791Z" fill="#210B03"/>
<path d="M85.2032 107.993C85.1181 108.674 84.9649 109.372 85.1011 110.053C85.2203 110.649 86.1908 110.649 86.3099 110.053C86.4462 109.372 86.2929 108.674 86.2078 107.993C86.1227 107.346 85.2884 107.346 85.2032 107.993Z" fill="#210B03"/>
<path d="M87.3062 107.502C87.153 108.081 87.1359 108.677 87.0848 109.255C86.9997 110.345 88.8726 110.345 88.7875 109.255C88.7364 108.66 88.7194 108.064 88.5661 107.502C88.3959 106.872 87.4594 106.872 87.2892 107.502H87.3062Z" fill="#210B03"/>
<path d="M89.5694 106.411C89.5183 106.939 89.4842 107.467 89.4161 107.995C89.297 108.931 90.9996 108.948 90.8804 107.995C90.8123 107.467 90.7782 106.939 90.7272 106.411C90.6591 105.662 89.6205 105.662 89.5523 106.411H89.5694Z" fill="#210B03"/>
<path d="M92.3881 106.237C92.2008 106.901 92.1838 107.616 92.1327 108.314C92.0306 109.455 94.0056 109.455 93.9035 108.314C93.8354 107.633 93.8354 106.901 93.6481 106.237C93.4608 105.624 92.5754 105.624 92.3881 106.237Z" fill="#210B03"/>
<path d="M94.5063 105.271C94.319 105.832 94.319 106.462 94.2509 107.041C94.1317 108.267 96.26 108.267 96.1408 107.041C96.0898 106.445 96.0727 105.832 95.8854 105.271C95.6641 104.59 94.7106 104.59 94.4893 105.271H94.5063Z" fill="#210B03"/>
<path d="M97.6049 104.67C96.992 105.3 96.8217 106.185 96.8047 107.036C96.8047 108.381 98.95 108.194 98.6776 106.781C98.5754 106.219 98.7116 105.691 98.7287 105.146C98.7627 104.567 97.9795 104.261 97.5879 104.67H97.6049Z" fill="#210B03"/>
<path d="M100.319 104.347C100.234 104.926 100.149 105.505 100.081 106.101C99.9448 107.174 101.903 107.191 101.767 106.101C101.699 105.522 101.613 104.943 101.528 104.347C101.443 103.751 100.422 103.751 100.336 104.347H100.319Z" fill="#210B03"/>
<path d="M102.26 103.416C102.174 103.995 102.089 104.574 102.021 105.153C101.902 106.158 103.724 106.175 103.588 105.153C103.52 104.574 103.434 103.995 103.349 103.416C103.281 102.872 102.311 102.872 102.243 103.416H102.26Z" fill="#210B03"/>
<path d="M124.552 99.4447C124.586 99.7852 124.518 100.075 124.263 100.33C123.735 100.892 124.706 101.641 125.097 100.977C125.404 100.449 125.489 99.9214 125.302 99.3425C125.182 98.9509 124.518 99.002 124.552 99.4447Z" fill="#210B03"/>
<path d="M126.717 98.5447C126.479 99.0555 126.275 99.5833 126.002 100.077C125.577 100.86 126.888 101.388 127.109 100.537C127.262 99.9919 127.467 99.4641 127.654 98.9192C127.841 98.3744 126.956 97.9998 126.717 98.5276V98.5447Z" fill="#210B03"/>
<path d="M128.531 97.7114C128.412 98.0859 128.327 98.4094 128.31 98.8181C128.259 99.8226 129.927 99.8226 129.859 98.8181C129.842 98.4265 129.757 98.103 129.638 97.7114C129.468 97.1665 128.701 97.1665 128.531 97.7114Z" fill="#210B03"/>
<path d="M130.132 97.3987C130.081 97.8073 130.03 98.216 129.911 98.6076C129.553 99.8335 131.749 99.8505 131.392 98.6076C131.273 98.216 131.239 97.8073 131.171 97.3987C131.102 96.8879 130.2 96.8879 130.132 97.3987Z" fill="#210B03"/>
<path d="M131.978 97.0767C131.824 97.5705 131.773 98.0813 131.705 98.5751C131.501 100.022 133.646 100.022 133.425 98.5751C133.357 98.0643 133.306 97.5535 133.152 97.0767C132.965 96.4979 132.165 96.4979 131.978 97.0767Z" fill="#210B03"/>
<path d="M134.28 96.2622C133.94 96.5006 133.803 96.8752 133.991 97.2497C134.127 97.5221 134.587 97.5903 134.774 97.3519C134.774 97.3349 134.808 97.3178 134.825 97.3008C135.421 96.5857 134.127 96.0238 133.957 96.79C133.957 96.807 133.957 96.8411 133.957 96.8581C134.195 96.756 134.45 96.6538 134.689 96.5517C134.74 96.6368 134.774 96.7049 134.825 96.79C134.995 96.4665 134.638 96.0238 134.28 96.2452V96.2622Z" fill="#210B03"/>
<path d="M136.055 95.4091C135.34 95.0856 134.42 95.358 134.25 96.2263C134.08 97.1117 134.863 97.8949 135.731 97.7927C137.008 97.6565 136.753 95.7666 135.493 96.056C135.578 96.2433 135.646 96.4306 135.731 96.6009C136.293 96.5498 136.702 95.6815 136.055 95.392V95.4091Z" fill="#210B03"/>
<path d="M136.985 95.1545C136.832 95.6653 136.662 96.1761 136.509 96.6868C136.151 97.8617 138.092 98.2533 138.245 96.9252C138.314 96.3974 138.365 95.8696 138.433 95.3418C138.535 94.4905 137.224 94.3883 136.985 95.1545Z" fill="#210B03"/>
<path d="M138.87 94.949C138.462 95.5449 138.275 96.1919 138.309 96.907C138.377 98.218 140.386 97.9626 140.079 96.6686C139.994 96.3281 140.011 96.0387 140.164 95.7152C140.573 94.8298 139.432 94.1487 138.853 94.949H138.87Z" fill="#210B03"/>
<path d="M141.512 93.7613C141.188 94.221 140.984 94.7488 140.729 95.2596C140.252 96.2471 141.767 96.8771 142.108 95.8385C142.278 95.2936 142.482 94.7658 142.568 94.204C142.67 93.557 141.886 93.1824 141.495 93.7613H141.512Z" fill="#210B03"/>
<path d="M143.568 94.3033C143.21 94.6949 142.955 95.1376 142.665 95.5803C142.07 96.4997 143.687 97.2999 144.113 96.1932C144.283 95.7506 144.453 95.3249 144.555 94.8822C144.658 94.3544 143.993 93.8436 143.585 94.3204L143.568 94.3033Z" fill="#210B03"/>
<path d="M146.544 92.8776C145.999 93.3884 145.522 93.9673 145.08 94.5632C144.365 95.4996 145.999 96.4872 146.68 95.4996C147.055 94.9548 147.412 94.3589 147.685 93.763C148.008 93.0308 147.191 92.2987 146.544 92.8946V92.8776Z" fill="#210B03"/>
<path d="M148.463 92.65C148.293 93.1778 148.208 93.6886 147.748 94.0632C146.71 94.9315 148.702 96.532 149.281 94.9486C149.553 94.1824 149.808 93.4673 149.587 92.65C149.434 92.0711 148.617 92.1052 148.463 92.65Z" fill="#210B03"/>
<path d="M150.47 92.9106C150.368 93.217 150.334 93.4895 150.282 93.813C150.01 95.4475 152.513 95.4475 152.24 93.813C152.189 93.5065 152.138 93.217 152.053 92.9106C151.815 92.1444 150.742 92.1444 150.487 92.9106H150.47Z" fill="#210B03"/>
</svg>
