<svg width="34" height="40" viewBox="0 0 34 40" fill="none" xmlns="http://www.w3.org/2000/svg">
<mask id="path-1-inside-1_448_14871" fill="white">
<path d="M18.0739 6.06279C11.6344 5.78578 5.46594 7.97298 2.34982 13.2863C-0.76629 18.5995 -0.830378 26.5087 2.44026 31.728C5.77036 37.042 8.88327 40.031 18.1198 39.9997C21.0177 39.9897 25.3258 38.8468 27.55 36.989C28.8642 35.8913 31.4352 32.9343 32.0668 31.3431C33.8834 26.7651 33.47 19.2892 31.4694 14.7884C29.4424 10.2278 25.2048 7.51403 18.0735 6.06279"/>
</mask>
<path d="M18.0739 6.06279C11.6344 5.78578 5.46594 7.97298 2.34982 13.2863C-0.76629 18.5995 -0.830378 26.5087 2.44026 31.728C5.77036 37.042 8.88327 40.031 18.1198 39.9997C21.0177 39.9897 25.3258 38.8468 27.55 36.989C28.8642 35.8913 31.4352 32.9343 32.0668 31.3431C33.8834 26.7651 33.47 19.2892 31.4694 14.7884C29.4424 10.2278 25.2048 7.51403 18.0735 6.06279" fill="#5D6716"/>
<path d="M2.44026 31.728L1.59289 32.259L1.5929 32.259L2.44026 31.728ZM18.1198 39.9997L18.1232 40.9997H18.1233L18.1198 39.9997ZM27.55 36.989L26.909 36.2215L26.909 36.2215L27.55 36.989ZM32.0668 31.3431L32.9963 31.7121L32.9963 31.712L32.0668 31.3431ZM31.4694 14.7884L30.5556 15.1946L30.5556 15.1946L31.4694 14.7884ZM18.1169 5.06371C11.4626 4.77747 4.8579 7.03304 1.48723 12.7804L3.21242 13.7921C6.07398 8.91291 11.8063 6.7941 18.0309 7.06186L18.1169 5.06371ZM1.48723 12.7804C-1.8065 18.3965 -1.88684 26.7061 1.59289 32.259L3.28763 31.197C0.226084 26.3114 0.273925 18.8026 3.21242 13.7921L1.48723 12.7804ZM1.5929 32.259C3.28022 34.9516 4.9937 37.1937 7.55112 38.7262C10.1135 40.2616 13.4033 41.0157 18.1232 40.9997L18.1164 38.9997C13.5998 39.015 10.7148 38.2903 8.57912 37.0106C6.43842 35.7278 4.9304 33.8185 3.28762 31.197L1.5929 32.259ZM18.1233 40.9997C19.6854 40.9943 21.5839 40.6866 23.3769 40.1445C25.1592 39.6056 26.9346 38.806 28.1911 37.7565L26.909 36.2215C25.9413 37.0298 24.4505 37.7305 22.7981 38.2301C21.1565 38.7264 19.4521 38.9951 18.1164 38.9997L18.1233 40.9997ZM28.1911 37.7565C28.914 37.1527 29.9295 36.0874 30.8362 34.987C31.7257 33.9074 32.6176 32.666 32.9963 31.7121L31.1374 30.9742C30.8844 31.6115 30.1751 32.6441 29.2926 33.7152C28.4273 34.7655 27.5003 35.7276 26.909 36.2215L28.1911 37.7565ZM32.9963 31.712C33.9736 29.249 34.3286 26.0833 34.1987 22.9948C34.0686 19.9022 33.4477 16.7771 32.3832 14.3822L30.5556 15.1946C31.4917 17.3006 32.0778 20.1638 32.2004 23.0788C32.3232 25.998 31.9766 28.8592 31.1373 30.9743L32.9963 31.712ZM32.3832 14.3823C30.1694 9.4013 25.558 6.56543 18.2729 5.08287L17.8741 7.0427C24.8515 8.46264 28.7155 11.0543 30.5556 15.1946L32.3832 14.3823Z" fill="#210B03" mask="url(#path-1-inside-1_448_14871)"/>
<path d="M14.8594 6.60514L15.9658 3.79318L18.3229 3.7915L19.7511 6.54975L14.8594 6.60514Z" fill="#FFFEFC" stroke="#210B03" stroke-width="1.04892" stroke-linecap="round" stroke-linejoin="round"/>
<path d="M17.5631 0.379387C16.4253 0.355472 15.3356 0.550991 14.7856 1.02385C14.2355 1.4967 14.2246 2.20032 14.8028 2.66394C15.3914 3.13596 15.9415 3.40155 17.5736 3.39777C18.0855 3.39651 18.8466 3.29414 19.2397 3.12883C19.4717 3.03107 19.9257 2.76758 20.0373 2.62618C20.3579 2.21878 20.2845 1.55376 19.9308 1.15391C19.5724 0.748608 18.8235 0.507775 17.5635 0.379387" fill="#F2973E"/>
<path d="M17.563 0.00151814C16.8988 -0.00939067 16.2137 0.0359229 15.5726 0.221373C15.0364 0.376613 14.4993 0.645138 14.1977 1.13561C13.8704 1.66805 13.964 2.31712 14.3718 2.77529C14.6197 3.05389 14.9806 3.28339 15.3213 3.43234C15.7681 3.62744 16.2431 3.708 16.7272 3.7466C17.3591 3.79694 17.9901 3.781 18.6161 3.67863C19.1414 3.59219 19.6227 3.40926 20.0578 3.09878C20.555 2.74424 20.7173 2.13377 20.5583 1.55141C20.2139 0.288923 18.6484 0.114802 17.563 0.00151814C17.3599 -0.0198799 17.1854 0.190324 17.1854 0.379131C17.1854 0.601083 17.3591 0.735345 17.563 0.756743C18.0501 0.807511 18.5423 0.878838 19.0084 1.0345C19.1591 1.08485 19.2891 1.13939 19.4305 1.22624C19.5291 1.28708 19.6038 1.33575 19.6953 1.46204C19.8858 1.72553 19.9537 2.23111 19.6978 2.43166C19.3621 2.69432 19.0105 2.83487 18.6056 2.91585C18.116 3.01361 17.6205 3.03039 17.1225 3.01319C16.7163 2.99934 16.3093 2.96578 15.9179 2.85123C15.6485 2.77236 15.4501 2.67292 15.1962 2.49208C15.1669 2.4711 15.1379 2.44971 15.109 2.42789C15.122 2.43754 15.1572 2.46691 15.0989 2.41992C15.0167 2.35404 14.9344 2.28482 14.8719 2.19922C14.7658 2.05447 14.7246 1.88371 14.7662 1.70875C14.8702 1.2703 15.388 1.06093 15.774 0.949745C16.3547 0.782757 16.9622 0.746674 17.5634 0.756743C18.0497 0.764715 18.0497 0.00948996 17.5634 0.00151814H17.563Z" fill="#210B03"/>
<path d="M18.1933 9.90563C13.2129 9.69164 8.44192 11.3832 6.0322 15.4924C3.62212 19.6015 3.57263 25.7187 6.10234 29.7556C8.67798 33.8658 11.0856 36.1772 18.2293 36.153C20.4706 36.1455 23.8025 35.2611 25.5229 33.8245C26.539 32.9756 28.5279 30.6888 29.016 29.4579L18.5526 22.6521L18.1937 9.90598L18.1933 9.90563Z" fill="#FFFEFC"/>
<path d="M18.1921 9.42479C16.106 9.33792 13.9772 9.56757 11.9941 10.2405C10.0949 10.8849 8.32216 11.9378 6.96314 13.4257C5.55426 14.9681 4.64492 16.9071 4.16461 18.9291C3.68431 20.9511 3.60171 23.2668 3.97805 25.4113C4.16248 26.4613 4.46725 27.481 4.88596 28.4612C5.24877 29.31 5.72801 30.0908 6.24036 30.8559C7.05393 32.0708 7.96968 33.245 9.12149 34.1586C10.3548 35.137 11.7861 35.7879 13.3157 36.1507C14.2653 36.3757 15.2391 36.5018 16.2114 36.5705C17.245 36.6435 18.2961 36.6798 19.3283 36.5691C20.3811 36.4562 21.4232 36.2383 22.4316 35.9154C23.4064 35.6031 24.3784 35.2011 25.234 34.6325C25.9464 34.1593 26.5492 33.5473 27.1214 32.9164C27.7754 32.195 28.4014 31.4327 28.9322 30.6152C29.1452 30.287 29.3321 29.9487 29.4788 29.5856C29.5599 29.3844 29.4222 29.1498 29.258 29.0426C28.9123 28.8176 28.5666 28.5929 28.2209 28.3679C27.3856 27.8246 26.5499 27.2812 25.7147 26.7379C24.7085 26.0835 23.7026 25.4291 22.6964 24.7747C21.8263 24.2089 20.9565 23.6428 20.0863 23.077C19.6651 22.8029 19.251 22.496 18.8131 22.2489C18.8066 22.2453 18.8006 22.2407 18.7942 22.2368C18.8736 22.3753 18.953 22.5134 19.0324 22.6519C19.0206 22.2296 19.0085 21.8074 18.9968 21.3847C18.9683 20.3704 18.9398 19.356 18.911 18.3416C18.8764 17.1143 18.8419 15.887 18.8074 14.6597C18.7775 13.5984 18.7475 12.5374 18.7176 11.476C18.703 10.9604 18.7034 10.4424 18.6742 9.92753C18.6738 9.92006 18.6738 9.91293 18.6735 9.90546C18.666 9.6459 18.4577 9.42479 18.1928 9.42479C17.9279 9.42479 17.7047 9.64483 17.7122 9.90546C17.7239 10.3242 17.7357 10.7429 17.7474 11.1612L17.8322 14.1648C17.8667 15.3861 17.9009 16.6073 17.9354 17.8282C17.9653 18.8878 17.9952 19.9477 18.0248 21.0073C18.0397 21.5421 18.0404 22.0798 18.07 22.6142C18.0803 22.8036 18.1505 22.9563 18.3125 23.0688C18.3466 23.0927 18.3822 23.1144 18.4171 23.1369C18.6169 23.2668 18.8166 23.3968 19.0164 23.5267C19.7986 24.0355 20.5812 24.5447 21.3634 25.0534C22.3764 25.7125 23.3893 26.3712 24.4026 27.0302C25.3255 27.6305 26.2484 28.2308 27.1712 28.8311C27.6811 29.1629 28.1913 29.4944 28.7012 29.8262C28.725 29.8416 28.7489 29.8572 28.7727 29.8725L28.552 29.3296C28.5207 29.4068 28.5919 29.2473 28.5434 29.3484C28.526 29.3848 28.5096 29.4214 28.4918 29.4574C28.4537 29.535 28.4131 29.6116 28.3708 29.687C28.2721 29.8636 28.1653 30.0352 28.0539 30.2037C27.8018 30.5846 27.5362 30.9375 27.2862 31.2487C26.7358 31.9333 26.148 32.5966 25.5057 33.1969C25.3789 33.3155 25.2493 33.4316 25.114 33.5405C25.0966 33.5544 25.0791 33.5683 25.0617 33.5822C25.0015 33.6295 25.114 33.5434 25.0517 33.5893C25.015 33.6164 24.9783 33.6438 24.941 33.6705C24.8459 33.7385 24.7487 33.8044 24.6501 33.8674C24.2488 34.1244 23.8237 34.3434 23.3882 34.536C23.2188 34.6108 22.987 34.7041 22.7648 34.786C22.5191 34.8764 22.2713 34.9601 22.021 35.0373C21.5297 35.1887 21.0309 35.3154 20.5271 35.418C20.0233 35.5205 19.6466 35.5785 19.1816 35.623C18.7166 35.6675 18.2242 35.6761 17.7431 35.6704C17.2055 35.664 16.6675 35.6433 16.1313 35.6035C15.8881 35.5853 15.6453 35.5636 15.4028 35.5369C15.2861 35.5241 15.1696 35.5102 15.0532 35.4952C15.0286 35.492 15.0041 35.4888 14.9795 35.4856C15.055 35.4956 14.9731 35.4845 14.9614 35.4828C14.8973 35.4735 14.8332 35.4642 14.7694 35.4546C13.9445 35.3286 13.1274 35.1417 12.3401 34.8632C12.1657 34.8016 11.9937 34.7347 11.8224 34.6646C11.7423 34.6318 11.8872 34.6934 11.7769 34.6446C11.7359 34.6265 11.6946 34.6087 11.654 34.5901C11.5732 34.5535 11.4928 34.5161 11.413 34.4773C11.0972 34.3242 10.7903 34.1533 10.494 33.9649C10.347 33.8716 10.2028 33.7741 10.0614 33.6726C9.99843 33.6274 9.93647 33.5811 9.87452 33.5345C9.78587 33.4686 9.91084 33.5644 9.84461 33.5117C9.80759 33.4821 9.7702 33.4526 9.73317 33.423C9.4697 33.2098 9.21762 32.9826 8.97657 32.7444C8.73197 32.5023 8.49876 32.2484 8.27552 31.9864C8.16337 31.8546 8.0537 31.7211 7.94653 31.5855C7.91947 31.5513 7.89242 31.5168 7.86536 31.4822C7.83189 31.4395 7.88031 31.5018 7.8828 31.505C7.86749 31.4851 7.85218 31.4651 7.83687 31.4452C7.78311 31.3747 7.7297 31.3038 7.67701 31.2326C7.21593 30.6096 6.77942 29.9605 6.38385 29.2936C5.86794 28.4231 5.524 27.5906 5.24415 26.6218C4.68409 24.6814 4.55911 22.6131 4.82543 20.6143C5.08392 18.6727 5.71911 16.7522 6.83638 15.1215C7.10484 14.7299 7.35372 14.418 7.69517 14.0498C8.01774 13.702 8.36489 13.3766 8.73197 13.0761C8.77042 13.0444 8.80923 13.0134 8.84804 12.9824C8.87403 12.9618 8.90002 12.9411 8.92637 12.9208C8.91747 12.9276 8.88436 12.9532 8.9278 12.9201C9.02678 12.8446 9.12718 12.7709 9.22865 12.699C9.41843 12.5644 9.61247 12.4359 9.81008 12.3138C10.2153 12.0631 10.6361 11.8377 11.0683 11.6373C12.7742 10.8465 14.7684 10.452 16.6697 10.3815C17.1774 10.3626 17.6855 10.3655 18.1932 10.3868C18.4527 10.3975 18.6738 10.1583 18.6738 9.90617C18.6738 9.63664 18.4535 9.43619 18.1932 9.42551L18.1921 9.42479Z" fill="#210B03"/>
<path d="M9.48345 12.0839C9.87368 12.7515 10.2924 13.4009 10.7396 14.0319C10.8895 14.2433 11.1594 14.3434 11.3972 14.2042C11.6062 14.0817 11.7205 13.7595 11.5695 13.5466C11.1223 12.916 10.7036 12.2662 10.3134 11.5986C10.0015 11.0649 9.17013 11.5481 9.48345 12.0839Z" fill="#210B03"/>
<path d="M5.53819 16.9518C6.1748 17.3904 6.82993 17.8006 7.5025 18.1819C8.04155 18.4874 8.52649 17.6571 7.98779 17.352C7.31522 16.971 6.66009 16.5605 6.02348 16.1218C5.8095 15.9744 5.49013 16.082 5.36587 16.2942C5.2263 16.5327 5.32385 16.804 5.53819 16.9518Z" fill="#210B03"/>
<path d="M4.44551 24.1005C5.21777 24.1322 5.99075 24.13 6.76301 24.0941C7.02221 24.082 7.24367 23.8819 7.24367 23.6134C7.24367 23.3624 7.02363 23.1207 6.76301 23.1328C5.99075 23.1687 5.21777 23.1709 4.44551 23.1392C4.18595 23.1285 3.96484 23.3678 3.96484 23.6198C3.96484 23.889 4.18524 24.0898 4.44551 24.1005Z" fill="#210B03"/>
<path d="M6.37058 30.3977C7.13252 30.1103 7.882 29.7903 8.61581 29.4371C8.84973 29.3245 8.91168 28.9906 8.78814 28.7794C8.64821 28.5405 8.36515 28.4939 8.13052 28.6071C7.47112 28.9244 6.79962 29.2124 6.11494 29.4709C5.87212 29.5624 5.70585 29.7952 5.77919 30.0623C5.84328 30.2951 6.12634 30.4902 6.37058 30.398V30.3977Z" fill="#210B03"/>
<path d="M17.9462 35.9554C17.9761 35.1828 17.9722 34.4098 17.9345 33.6379C17.9216 33.3787 17.7226 33.1572 17.4538 33.1572C17.2035 33.1572 16.9603 33.3773 16.9731 33.6379C17.0109 34.4102 17.0148 35.1831 16.9849 35.9554C16.9749 36.215 17.2131 36.4361 17.4656 36.4361C17.7344 36.4361 17.9362 36.2157 17.9462 35.9554Z" fill="#210B03"/>
<path d="M11.4343 34.8877C11.8452 34.233 12.2268 33.5608 12.5786 32.8722C12.6968 32.6411 12.6391 32.3506 12.4063 32.2145C12.1916 32.0889 11.8672 32.1551 11.7487 32.3869C11.3969 33.0751 11.0152 33.7473 10.6043 34.4025C10.4665 34.6225 10.5577 34.9319 10.7767 35.0601C11.0074 35.195 11.2961 35.1081 11.4343 34.8877Z" fill="#210B03"/>
<path d="M17.5051 22.3213C17.0828 22.3032 16.6787 22.4467 16.4743 22.7949C16.2699 23.1431 16.266 23.6615 16.4804 24.0037C16.6947 24.3458 16.9026 24.5481 17.5083 24.5459C17.6984 24.5452 17.9807 24.4704 18.1264 24.3487C18.2125 24.2768 18.3809 24.0831 18.4226 23.9787C18.5415 23.6786 18.5144 23.1887 18.3834 22.8935C18.2524 22.5984 17.9729 22.4168 17.5054 22.3213" fill="#F2973E"/>
<path d="M17.5052 22.0007C16.8661 21.9833 16.2758 22.2891 16.0721 22.9211C15.8923 23.4794 16.0558 24.1231 16.483 24.5258C16.8836 24.9036 17.5494 24.9555 18.045 24.7554C18.6253 24.5212 18.8682 23.9202 18.8098 23.3266C18.7777 22.9998 18.6877 22.6779 18.4559 22.4347C18.2241 22.1915 17.9044 22.0794 17.5907 22.0121C17.1883 21.9259 17.0167 22.5433 17.4201 22.6302C17.6348 22.6761 17.8858 22.7356 18.0293 22.9175C18.1454 23.0646 18.1757 23.2974 18.1778 23.4876C18.181 23.735 18.1358 23.9023 17.9538 24.0718C17.7936 24.221 17.5301 24.2399 17.3126 24.2178C16.9412 24.1804 16.6753 23.887 16.6439 23.4822C16.6265 23.254 16.6767 22.9898 16.8533 22.8299C17.0299 22.6701 17.2745 22.6355 17.5056 22.6416C17.9182 22.6526 17.9179 22.0117 17.5056 22.0007H17.5052Z" fill="#210B03"/>
</svg>
