<svg width="34" height="40" viewBox="0 0 34 40" fill="none" xmlns="http://www.w3.org/2000/svg">
<path d="M1.82608 36.1471L1.8261 36.1471C2.10282 37.2271 2.89174 38.1035 3.93626 38.4882L3.76347 38.9574L3.93628 38.4882C5.36204 39.0134 7.40876 39.3136 9.73984 39.4353C12.0612 39.5566 14.6264 39.4993 17.0679 39.329C19.5094 39.1588 21.8171 38.8763 23.6223 38.55C24.5255 38.3867 25.2953 38.2139 25.8897 38.041C26.507 37.8615 26.8684 37.6999 27.0138 37.5872C27.3733 37.3085 27.7159 36.7372 28.0042 35.8345C28.2874 34.9478 28.4961 33.8132 28.6398 32.4968C28.9269 29.866 28.9471 26.58 28.8235 23.2521C28.5762 16.5936 27.7571 9.85243 27.3981 8.01726C27.0453 6.21436 26.4761 5.41 25.9851 5.0237C25.5651 4.69322 25.163 4.62269 24.7693 4.55362C24.6928 4.54019 24.6166 4.52682 24.5406 4.51161C24.5422 4.51194 24.5431 4.51211 24.5431 4.51214C24.5431 4.51229 24.526 4.50982 24.4818 4.5068C24.4342 4.50354 24.3698 4.50054 24.2879 4.49799C24.1244 4.49289 23.9034 4.48992 23.6306 4.48905C23.0856 4.48729 22.3455 4.49389 21.4688 4.50719C19.716 4.53377 17.4257 4.58701 15.0758 4.65299C10.3661 4.78521 5.44994 4.96773 4.12885 5.08784L1.82608 36.1471ZM1.82608 36.1471C1.10423 33.3314 -0.209832 25.497 0.977051 8.24612L0.980529 8.19556M1.82608 36.1471L0.980529 8.19556M0.980529 8.19556C1.07274 7.08902 1.69195 6.0914 2.64788 5.54428L0.980529 8.19556ZM2.6479 5.54427C3.04587 5.31652 3.53331 5.14207 4.12879 5.08785L2.6479 5.54427Z" fill="#F2973E" stroke="#210B03"/>
<path d="M22.4648 7.17531L5.51846 8.04564C4.45763 8.10012 3.64182 9.00426 3.6963 10.0651L4.91119 33.7205C4.96568 34.7813 5.86982 35.5971 6.93065 35.5427L23.8769 34.6723C24.9378 34.6179 25.7536 33.7137 25.6991 32.6529L24.4842 8.99747C24.4297 7.93664 23.5256 7.12083 22.4648 7.17531Z" fill="#FFFEFC"/>
<path d="M7.78582 13.0884C11.2372 12.7799 14.6994 12.5958 18.164 12.5361C19.1502 12.5192 20.1365 12.5124 21.1227 12.5154C21.712 12.5171 21.7126 11.6017 21.1227 11.6C17.6527 11.5895 14.182 11.7021 10.7202 11.9404C9.74137 12.0079 8.76325 12.0855 7.78582 12.173C7.53968 12.195 7.32812 12.3676 7.32812 12.6307C7.32812 12.8612 7.53833 13.1104 7.78582 13.0884Z" fill="#210B03"/>
<path d="M8.41082 24.3842C12.0263 24.1584 15.6472 24.018 19.2694 23.9638C20.3058 23.9482 21.3422 23.94 22.3783 23.9383C22.9672 23.9373 22.9682 23.0219 22.3783 23.023C18.753 23.0284 15.1281 23.1189 11.5072 23.2959C10.4745 23.3464 9.4425 23.404 8.41082 23.4684C8.164 23.4837 7.95312 23.6678 7.95312 23.9261C7.95312 24.1621 8.16299 24.3994 8.41082 24.3838V24.3842Z" fill="#210B03"/>
<path d="M8.41082 31.1085C12.0263 30.8827 15.6472 30.7424 19.2694 30.6881C20.3058 30.6725 21.3422 30.6644 22.3783 30.6627C22.9672 30.6617 22.9682 29.7463 22.3783 29.7473C18.753 29.7527 15.1281 29.8433 11.5072 30.0202C10.4745 30.0708 9.4425 30.1284 8.41082 30.1928C8.164 30.2081 7.95312 30.3922 7.95312 30.6505C7.95312 30.8865 8.16299 31.1238 8.41082 31.1082V31.1085Z" fill="#210B03"/>
<path d="M8.46526 7.35513C8.39813 7.23816 7.99502 5.75014 8.0991 5.21718C8.24658 4.46283 8.66054 4.22483 9.40099 4.13295C9.67188 4.09939 10.5734 4.02717 10.9714 4.17465C10.4818 1.51019 14.6967 -1.02782 16.2298 3.4359C16.2298 3.4359 18.6725 3.04059 19.1991 3.49523C19.7256 3.95021 20.4494 7.32123 19.7486 7.43345C18.7536 7.59279 9.36675 8.92655 8.46492 7.35445L8.46526 7.35513Z" fill="#5D6716" stroke="#210B03" stroke-width="0.819049" stroke-linecap="round" stroke-linejoin="round"/>
<path d="M13.9881 3.54202C13.5094 3.52134 13.051 3.68408 12.8191 4.07905C12.5876 4.47403 12.5828 5.06191 12.8259 5.44977C13.0734 5.84474 13.305 6.06681 13.9915 6.06477C14.2068 6.06409 14.4041 5.98307 14.5696 5.84508C14.6672 5.76337 14.8188 5.51995 14.8655 5.40162C15.0005 5.06123 15.1327 4.52556 14.9839 4.19093C14.8333 3.8519 14.518 3.65018 13.9881 3.54236" fill="#FFFEFC"/>
<path d="M13.9905 3.08445C13.2294 3.06207 12.5337 3.43365 12.2808 4.17682C12.0567 4.83488 12.2496 5.56177 12.7175 6.0615C13.1511 6.52462 13.9543 6.65481 14.5259 6.40427C15.1843 6.11609 15.4579 5.3336 15.5053 4.66333C15.5331 4.27107 15.4094 3.8961 15.1392 3.60893C14.869 3.32177 14.4848 3.18006 14.1119 3.10072C13.8705 3.04919 13.6169 3.17226 13.5488 3.42043C13.4861 3.64826 13.6257 3.93169 13.8685 3.98357C13.9902 4.00933 14.1092 4.0412 14.2265 4.0829C14.2363 4.08629 14.3069 4.11952 14.2472 4.09104C14.2672 4.10053 14.2879 4.11003 14.3069 4.12121C14.3258 4.1324 14.3448 4.1419 14.3635 4.15308C14.3614 4.15207 14.4628 4.22021 14.4198 4.18733C14.392 4.16631 14.472 4.23954 14.492 4.25683C14.4967 4.26124 14.5398 4.3104 14.5062 4.26937C14.4703 4.22564 14.5194 4.28938 14.5265 4.30124C14.5388 4.32192 14.5889 4.43041 14.5615 4.35379C14.5706 4.3799 14.5957 4.52263 14.591 4.46127C14.6089 4.69622 14.5676 4.8637 14.4899 5.10339C14.4832 5.12475 14.416 5.29563 14.4601 5.20036C14.4431 5.23697 14.4242 5.27257 14.4045 5.30749C14.3774 5.35496 14.3475 5.40005 14.3177 5.44548C14.276 5.50922 14.355 5.40683 14.3099 5.45836C14.294 5.47667 14.2784 5.49498 14.2604 5.51091C14.1353 5.62042 13.96 5.61907 13.7332 5.59567C13.8102 5.60381 13.6807 5.58482 13.659 5.57974C13.6145 5.56923 13.5715 5.55499 13.5281 5.54109C13.6084 5.56651 13.5301 5.54143 13.4928 5.52007C13.4783 5.51159 13.4644 5.50176 13.4494 5.49362C13.3596 5.44514 13.4908 5.53329 13.4494 5.49532C13.4206 5.46921 13.3921 5.44311 13.3654 5.41463C13.3528 5.40107 13.2782 5.30817 13.3131 5.3553C13.3481 5.40242 13.2731 5.29529 13.2653 5.28342C13.2338 5.23562 13.204 5.18714 13.1775 5.13628C13.1782 5.13764 13.148 5.06678 13.1616 5.10238C13.1779 5.14476 13.1463 5.04949 13.1443 5.04169C13.1284 4.98643 13.1135 4.92879 13.1063 4.87183C13.1131 4.9271 13.1057 4.80877 13.1053 4.7925C13.104 4.72605 13.1053 4.65621 13.1151 4.59044C13.1057 4.65146 13.1223 4.56908 13.124 4.56365C13.1328 4.53178 13.1396 4.49924 13.1491 4.46737C13.1585 4.4355 13.168 4.40397 13.1806 4.37447C13.1582 4.4277 13.1965 4.34735 13.2057 4.33108C13.2175 4.31006 13.2301 4.28938 13.243 4.26903L13.2704 4.22937C13.2531 4.25378 13.2545 4.25412 13.2745 4.23072C13.2908 4.21411 13.3077 4.1975 13.324 4.18088L13.3589 4.14969C13.3335 4.16868 13.3338 4.16902 13.3596 4.15105C13.5545 4.0212 13.7325 3.99238 13.9912 4.00018C14.2499 4.00798 14.4489 3.78455 14.4489 3.54248C14.4489 3.28855 14.2394 3.09191 13.9912 3.08479L13.9905 3.08445Z" fill="#210B03"/>
<path d="M8.21551 18.6897C11.6669 18.3812 15.1291 18.1971 18.5937 18.1374C19.5799 18.1205 20.5662 18.1137 21.5524 18.1167C22.1417 18.1184 22.1423 17.2031 21.5524 17.2014C18.0824 17.1908 14.6117 17.3034 11.1498 17.5417C10.1711 17.6092 9.19294 17.6869 8.21551 17.7743C7.96937 17.7964 7.75781 17.9689 7.75781 18.232C7.75781 18.4626 7.96801 18.7118 8.21551 18.6897Z" fill="#210B03"/>
<path d="M19.7812 34.0033L28.2195 23.97L29.8082 25.8574L31.5671 27.9468L23.712 37.2923L21.7012 35.61L19.7812 34.0033Z" fill="#FFFEFC" stroke="#210B03" stroke-width="0.819049" stroke-linecap="round" stroke-linejoin="round"/>
<path d="M28.3672 23.7858C28.3672 23.7858 29.8515 21.661 31.7145 23.2074C34.52 25.5362 32.342 26.5845 31.7145 27.5945" fill="#F2973E"/>
<path d="M28.3672 23.7858C28.3672 23.7858 29.8515 21.661 31.7145 23.2074C34.52 25.5362 32.342 26.5845 31.7145 27.5945" stroke="#210B03" stroke-width="0.819049" stroke-linecap="round" stroke-linejoin="round"/>
<path d="M21.7031 35.61L29.6416 26.0601" stroke="#210B03" stroke-width="0.819049" stroke-linecap="round" stroke-linejoin="round"/>
<path d="M19.7814 34.0032L18.5352 38.8775L23.7122 37.2921L19.7814 34.0032Z" fill="#FFFEFC" stroke="#210B03" stroke-width="0.819049" stroke-linecap="round" stroke-linejoin="round"/>
<path d="M19.3371 36.4399L18.7188 38.6613L21.2879 37.9388L19.3371 36.4399Z" fill="#5D6716" stroke="#210B03" stroke-width="0.491429" stroke-linecap="round" stroke-linejoin="round"/>
</svg>
