<svg width="42" height="39" viewBox="0 0 42 39" fill="none" xmlns="http://www.w3.org/2000/svg">
<path d="M3.60509 1.58625L3.60523 1.58619C4.19126 1.32771 4.91251 1.13005 5.79191 1.07057C7.65018 0.944888 14.5322 0.767387 21.1088 0.643766C24.3932 0.582029 27.5951 0.533838 30.0461 0.512298C31.2719 0.501525 32.3082 0.497434 33.0725 0.501607C33.455 0.503695 33.767 0.507841 33.9996 0.514154C34.1161 0.517314 34.2102 0.520954 34.2821 0.524976C34.318 0.526985 34.3466 0.528994 34.3686 0.530909C34.3795 0.531859 34.3879 0.532716 34.3942 0.533437C34.4007 0.53418 34.4036 0.534618 34.4035 0.534609C34.5012 0.550078 34.6021 0.564012 34.7057 0.578317C35.261 0.655009 35.8933 0.742326 36.531 1.13426C37.2586 1.58148 38.044 2.47124 38.5252 4.40342L38.5252 4.40346C39.0198 6.38898 40.1427 13.6965 40.4673 20.9136C40.6295 24.5205 40.5908 28.0777 40.1823 30.9221C39.978 32.3449 39.684 33.5686 39.2876 34.5237C38.8884 35.4856 38.4079 36.121 37.8653 36.4452C37.6234 36.5897 37.0743 36.7723 36.2077 36.9651C35.3634 37.153 34.2763 37.3389 33.0076 37.513C30.4715 37.861 27.2347 38.1585 23.8136 38.3334C16.9453 38.6845 9.43227 38.5353 5.34195 37.353C3.78518 36.9031 2.67863 35.9053 2.30251 34.7553C1.30668 31.7103 -0.505491 23.2214 1.20653 4.52878C1.31441 3.35133 2.16665 2.22021 3.60509 1.58625Z" fill="#5D6716" stroke="#210B03"/>
<path d="M21.2176 31.3841L6.90815 32.132C6.0122 32.1786 5.2488 31.477 5.20294 30.5648L4.17795 10.2223C4.13208 9.31007 4.82085 8.53268 5.71679 8.48564L20.0263 7.73779C20.9222 7.69115 21.6856 8.39275 21.7315 9.30502L22.7565 29.6474C22.8023 30.5597 22.1136 31.3371 21.2176 31.3841Z" fill="#FFFEFC" stroke="#210B03" stroke-width="0.908865" stroke-miterlimit="10"/>
<path d="M7.63411 12.9523C10.5482 12.6872 13.4719 12.5286 16.3977 12.4773C17.2302 12.4629 18.0628 12.4571 18.8958 12.4594C19.5714 12.4614 19.5721 11.4119 18.8958 11.4099C15.9654 11.4014 13.035 11.4978 10.1117 11.7026C9.2853 11.7606 8.45932 11.8274 7.63411 11.9024C7.35192 11.9281 7.10938 12.1251 7.10938 12.4272C7.10938 12.6911 7.35037 12.9776 7.63411 12.9519V12.9523Z" fill="#210B03"/>
<path d="M8.15794 22.6666C11.2108 22.4727 14.2682 22.3518 17.3269 22.3051C18.2018 22.2919 19.0772 22.2849 19.9521 22.2834C20.6273 22.2822 20.6285 21.2327 19.9521 21.2339C16.8908 21.2389 13.8298 21.3163 10.7723 21.4687C9.90047 21.5122 9.02901 21.5619 8.15755 21.6171C7.87458 21.635 7.63281 21.8453 7.63281 22.1419C7.63281 22.412 7.87342 22.6845 8.15755 22.6666H8.15794Z" fill="#210B03"/>
<path d="M8.15794 28.4491C11.2108 28.2551 14.2682 28.1342 17.3269 28.0876C18.2018 28.0744 19.0772 28.0674 19.9521 28.0658C20.6273 28.0647 20.6285 27.0152 19.9521 27.0164C16.8908 27.0214 13.8298 27.0988 10.7723 27.2511C9.90047 27.2947 9.02901 27.3444 8.15755 27.3996C7.87458 27.4175 7.63281 27.6278 7.63281 27.9244C7.63281 28.1945 7.87342 28.467 8.15755 28.4491H8.15794Z" fill="#210B03"/>
<path d="M7.99349 17.7702C10.9075 17.5051 13.8313 17.3465 16.757 17.2952C17.5896 17.2808 18.4222 17.275 19.2552 17.2773C19.9307 17.2792 19.9315 16.2298 19.2552 16.2278C16.3248 16.2193 13.3944 16.3157 10.471 16.5205C9.64467 16.5784 8.81869 16.6453 7.99349 16.7203C7.7113 16.746 7.46875 16.943 7.46875 17.245C7.46875 17.509 7.70974 17.7954 7.99349 17.7698V17.7702Z" fill="#210B03"/>
<path d="M12.7416 5.71322C11.9736 5.68018 11.2378 5.941 10.8662 6.57496C10.4946 7.20854 10.4868 8.1519 10.8771 8.7746C11.2743 9.40856 11.6455 9.76499 12.7471 9.76111C13.0926 9.75994 13.409 9.63012 13.6745 9.40817C13.8312 9.27718 14.0741 8.88654 14.1495 8.69647C14.366 8.15035 14.5782 7.29055 14.3396 6.75376C14.0978 6.20998 13.5925 5.88619 12.7416 5.71283" fill="#F2973E"/>
<path d="M12.6472 6.57973C12.2079 6.56069 11.787 6.70995 11.5744 7.0726C11.3617 7.43487 11.3575 7.97477 11.5806 8.33081C11.8076 8.69346 12.0202 8.89714 12.6503 8.8952C12.8481 8.89442 13.0289 8.82018 13.1808 8.69346C13.2706 8.61845 13.4094 8.39495 13.4525 8.2865C13.5765 7.97438 13.6978 7.48229 13.5614 7.17522C13.423 6.86426 13.1342 6.67885 12.6475 6.58012" fill="#FFFEFC"/>
<path d="M12.6454 6.23013C11.9694 6.21303 11.3448 6.53876 11.1349 7.21042C10.9534 7.79036 11.1209 8.44182 11.5516 8.8686C11.948 9.26119 12.6629 9.36536 13.16 9.12126C13.7077 8.85228 13.9374 8.14913 13.9669 7.57969C14.0058 6.82212 13.4154 6.38833 12.7383 6.24296C12.299 6.14851 12.1117 6.82289 12.5521 6.91774C12.7694 6.96438 13.0236 7.02346 13.1717 7.20459C13.2925 7.3523 13.2824 7.56803 13.244 7.75615C13.1977 7.98354 13.1359 8.20899 12.987 8.38934C12.8382 8.5697 12.6092 8.56387 12.4051 8.53432C12.2011 8.50478 12.1093 8.4527 11.9939 8.31821C11.8862 8.19266 11.7813 7.99054 11.765 7.79269C11.7459 7.56725 11.7933 7.31149 11.9554 7.14396C12.1342 6.95972 12.4013 6.92434 12.6454 6.93056C13.0959 6.94222 13.0955 6.24257 12.6454 6.23091V6.23013Z" fill="#210B03"/>
<path d="M33.6065 7.37119L26.2729 7.74782C25.8137 7.77141 25.4605 8.1628 25.4841 8.62202L26.0099 18.8592C26.0335 19.3185 26.4248 19.6716 26.8841 19.648L34.2176 19.2714C34.6769 19.2478 35.03 18.8564 35.0064 18.3972L34.4807 8.15998C34.4571 7.70076 34.0657 7.3476 33.6065 7.37119Z" fill="#FFFEFC" stroke="#210B03" stroke-width="0.454433" stroke-miterlimit="10"/>
<path d="M29.9426 9.90132C31.0955 9.73418 32.2592 9.65527 33.4238 9.65955C33.6488 9.66033 33.6492 9.3105 33.4238 9.30972C32.227 9.30545 31.0337 9.39212 29.8493 9.56393C29.6274 9.59619 29.7218 9.93319 29.9422 9.90132H29.9426Z" fill="#210B03"/>
<path d="M29.7696 12.2669C31.1946 12.1569 32.6195 12.0469 34.0445 11.9369C34.2676 11.9198 34.2696 11.5696 34.0445 11.5871C32.6195 11.6971 31.1946 11.8071 29.7696 11.9171C29.5465 11.9342 29.5446 12.2844 29.7696 12.2669Z" fill="#210B03"/>
<path d="M30.0619 14.7958C31.2898 14.6714 32.5223 14.6069 33.7564 14.603C33.9815 14.6022 33.9819 14.2524 33.7564 14.2532C32.5223 14.2571 31.2898 14.3216 30.0619 14.446C29.8399 14.4685 29.8376 14.8183 30.0619 14.7958Z" fill="#210B03"/>
<path d="M27.9717 16.4825C27.4691 16.4759 27.0695 16.7966 27.0703 17.3198C27.0711 17.7372 27.3548 18.1224 27.7754 18.1827C28.304 18.2585 28.6138 17.9017 28.6993 17.4103C28.7876 16.9046 28.4945 16.5949 28.0183 16.4887C27.7991 16.4398 27.7054 16.7772 27.9254 16.8261C28.2228 16.8922 28.4148 17.0162 28.3573 17.3466C28.3052 17.6447 28.1637 17.8884 27.8244 17.8379C27.5962 17.8037 27.4442 17.6016 27.4225 17.3765C27.3883 17.0224 27.6366 16.8281 27.9721 16.8323C28.1971 16.8355 28.1975 16.4856 27.9721 16.4825H27.9717Z" fill="#210B03"/>
<path d="M27.667 8.87657C27.1644 8.86996 26.7648 9.19063 26.7656 9.71382C26.7664 10.1313 27.0501 10.5165 27.4707 10.5767C27.9993 10.6525 28.3091 10.2957 28.3947 9.80438C28.4829 9.29869 28.1898 8.9889 27.7137 8.88278C27.4944 8.83381 27.4008 9.1712 27.6208 9.22017C27.9181 9.28625 28.1101 9.41025 28.0526 9.74064C28.0005 10.0388 27.859 10.2825 27.5197 10.2319C27.2915 10.1977 27.1396 9.99562 27.1178 9.77057C27.0836 9.41646 27.332 9.22212 27.6674 9.22639C27.8925 9.2295 27.8928 8.87967 27.6674 8.87657H27.667Z" fill="#210B03"/>
<path d="M27.667 11.4093C27.1644 11.4027 26.7648 11.7233 26.7656 12.2465C26.7664 12.664 27.0501 13.0492 27.4707 13.1094C27.9993 13.1852 28.3091 12.8284 28.3947 12.3371C28.4829 11.8314 28.1898 11.5216 27.7137 11.4155C27.4944 11.3665 27.4008 11.7039 27.6208 11.7529C27.9181 11.819 28.1101 11.943 28.0526 12.2734C28.0005 12.5715 27.859 12.8152 27.5197 12.7647C27.2915 12.7305 27.1396 12.5283 27.1178 12.3033C27.0836 11.9492 27.332 11.7548 27.6674 11.7591C27.8925 11.7622 27.8928 11.4124 27.6674 11.4093H27.667Z" fill="#210B03"/>
<path d="M27.7881 13.942C27.2855 13.9354 26.8859 14.2561 26.8867 14.7792C26.8875 15.1967 27.1712 15.5819 27.5918 15.6422C28.1204 15.7179 28.4302 15.3611 28.5157 14.8698C28.604 14.3641 28.3109 14.0543 27.8348 13.9482C27.6155 13.8992 27.5218 14.2366 27.7419 14.2856C28.0392 14.3517 28.2312 14.4757 28.1737 14.8061C28.1216 15.1042 27.9801 15.3479 27.6408 15.2974C27.4126 15.2632 27.2606 15.0611 27.2389 14.836C27.2047 14.4819 27.4531 14.2875 27.7885 14.2918C28.0136 14.2949 28.0139 13.9451 27.7885 13.942H27.7881Z" fill="#210B03"/>
<path d="M27.0051 9.87639L27.3169 10.0381C27.3946 10.0785 27.4906 10.1458 27.5835 10.1423C27.7992 10.1349 27.856 9.85229 27.9275 9.69837C28.1254 9.27119 28.3621 8.86422 28.6314 8.47786C28.7605 8.29284 28.4573 8.11793 28.3294 8.30139C28.1588 8.54627 28.0002 8.79853 27.8575 9.06091C27.7919 9.18179 27.7289 9.30423 27.6694 9.42861C27.6399 9.4908 27.6107 9.55299 27.5827 9.61596C27.566 9.65367 27.5322 9.79399 27.4957 9.81653L27.6305 9.79904C27.4778 9.75395 27.3235 9.64784 27.1824 9.57437C26.983 9.47098 26.8057 9.77261 27.0059 9.87639H27.0051Z" fill="#5D6716"/>
<path d="M26.8098 12.6911L27.1216 12.8528C27.1993 12.8932 27.2953 12.9605 27.3882 12.957C27.6039 12.9496 27.6607 12.667 27.7322 12.5131C27.93 12.0859 28.1668 11.6789 28.4361 11.2926C28.5652 11.1075 28.262 10.9326 28.1341 11.1161C27.9635 11.361 27.8049 11.6132 27.6622 11.8756C27.5965 11.9965 27.5336 12.1189 27.4741 12.2433C27.4446 12.3055 27.4154 12.3677 27.3874 12.4307C27.3707 12.4684 27.3369 12.6087 27.3004 12.6312L27.4352 12.6137C27.2825 12.5686 27.1282 12.4625 26.9871 12.3891C26.7877 12.2857 26.6104 12.5873 26.8106 12.6911H26.8098Z" fill="#5D6716"/>
<path d="M27.0051 15.1264L27.3169 15.2881C27.3946 15.3285 27.4906 15.3958 27.5835 15.3923C27.7992 15.3849 27.856 15.1023 27.9275 14.9484C28.1254 14.5212 28.3621 14.1142 28.6314 13.7279C28.7605 13.5428 28.4573 13.3679 28.3294 13.5514C28.1588 13.7963 28.0002 14.0485 27.8575 14.3109C27.7919 14.4318 27.7289 14.5542 27.6694 14.6786C27.6399 14.7408 27.6107 14.803 27.5827 14.866C27.566 14.9037 27.5322 15.044 27.4957 15.0665L27.6305 15.049C27.4778 15.004 27.3235 14.8978 27.1824 14.8244C26.983 14.721 26.8057 15.0226 27.0059 15.1264H27.0051Z" fill="#5D6716"/>
<path d="M30.0619 17.7064C31.2898 17.5821 32.5223 17.5175 33.7564 17.5136C33.9815 17.5129 33.9819 17.163 33.7564 17.1638C32.5223 17.1677 31.2898 17.2322 30.0619 17.3566C29.8399 17.3792 29.8376 17.729 30.0619 17.7064Z" fill="#210B03"/>
<path d="M29.9015 6.33725C29.5439 6.3217 29.2018 6.44337 29.0288 6.738C28.8559 7.03302 28.8524 7.47186 29.0339 7.76144C29.2189 8.05646 29.3915 8.22243 29.9042 8.22049C30.0651 8.2201 30.2124 8.15946 30.3356 8.05646C30.4087 7.99543 30.5214 7.81352 30.5568 7.72529C30.6575 7.47108 30.7562 7.07111 30.645 6.82118C30.5327 6.56814 30.2972 6.41732 29.9015 6.33686" fill="#F2973E"/>
<path d="M29.8588 6.74026C29.6544 6.73132 29.4585 6.8009 29.3597 6.96959C29.261 7.13829 29.2587 7.38938 29.3625 7.55497C29.4682 7.72366 29.5669 7.81851 29.8604 7.81773C29.9525 7.81773 30.0365 7.78275 30.1072 7.72366C30.1488 7.68868 30.2137 7.5849 30.2335 7.53437C30.2911 7.389 30.3474 7.16005 30.2841 7.0174C30.2207 6.87475 30.085 6.78652 29.8588 6.74026Z" fill="#FFFEFC"/>
<path d="M29.8611 6.56522C29.4437 6.56172 29.1125 6.82798 29.1133 7.26332C29.1137 7.61198 29.3512 7.9311 29.7018 7.98085C30.1216 8.04032 30.3859 7.77173 30.4656 7.37721C30.5522 6.94614 30.3217 6.66628 29.9078 6.57144C29.6886 6.5213 29.5949 6.85869 29.8149 6.90883C30.0349 6.95897 30.1729 7.04059 30.1286 7.28392C30.0893 7.49887 29.991 7.67573 29.7457 7.63647C29.5797 7.61004 29.4744 7.45456 29.4631 7.29169C29.4456 7.03438 29.6252 6.9131 29.8611 6.91505C30.0971 6.91699 30.0866 6.56716 29.8611 6.56522Z" fill="#210B03"/>
<path d="M26.3524 23.423C26.3601 23.3076 26.448 23.2135 26.5626 23.1979C28.8606 22.8862 31.1757 22.7024 33.4935 22.6472C33.5942 22.6448 33.7034 22.6452 33.7846 22.7051C33.888 22.7813 33.909 22.9243 33.9214 23.0522C34.1061 24.9735 34.4839 27.7162 34.426 29.6453C34.4229 29.7549 34.4135 29.8773 34.3319 29.9508C34.2783 29.9994 34.2036 30.0161 34.1325 30.0308C32.0351 30.467 30.1966 30.5381 27.8197 30.5338C27.7074 30.5338 27.2829 30.4891 27.183 30.4382C27.0357 30.3628 26.9587 29.674 26.9428 29.5096C26.7274 27.3006 26.5681 25.6693 26.3527 23.4638C26.3516 23.4506 26.3512 23.437 26.352 23.4234L26.3524 23.423Z" fill="#F2973E"/>
<path d="M26.6896 23.5159C26.7114 23.3877 26.6612 23.5435 26.6554 23.535C26.6589 23.54 26.7747 23.519 26.7899 23.5171C26.9287 23.4988 27.0678 23.4809 27.207 23.4635C27.4725 23.4304 27.7383 23.3985 28.0042 23.369C28.5359 23.3095 29.0684 23.2567 29.6017 23.2108C30.6679 23.1187 31.7364 23.0542 32.8061 23.0168C32.9336 23.0126 33.0607 23.0083 33.1882 23.0048C33.2873 23.0021 33.4801 23.0355 33.5691 22.9955C33.5925 22.985 33.5583 22.9372 33.5579 22.9784C33.5579 23.0005 33.5711 23.0518 33.5746 23.0786C33.5874 23.1793 33.5944 23.2812 33.6049 23.3822C33.6477 23.8005 33.6935 24.2187 33.7386 24.6365C33.837 25.5414 33.9337 26.4467 34.0014 27.3547C34.034 27.7928 34.0601 28.2312 34.0733 28.67C34.0795 28.8749 34.0826 29.0797 34.0818 29.2842C34.0818 29.3771 34.0803 29.47 34.078 29.5629C34.0772 29.5924 34.0597 29.6775 34.0733 29.7001C34.0884 29.7254 34.132 29.6838 34.0927 29.6807C33.9878 29.6733 33.844 29.7323 33.7398 29.7526C33.6302 29.7739 33.5206 29.7942 33.4106 29.8136C33.1836 29.854 32.9562 29.8905 32.728 29.924C32.2888 29.9877 31.8472 30.0351 31.4049 30.0717C30.4588 30.1502 29.5096 30.1751 28.5608 30.1813C28.1873 30.1836 27.8009 30.2124 27.432 30.142C27.4215 30.1401 27.3302 30.1121 27.3236 30.1172C27.3349 30.1086 27.4942 30.2007 27.4332 30.205C27.4254 30.2054 27.397 30.1269 27.4231 30.1902C27.411 30.1611 27.4033 30.13 27.3947 30.0997C27.3539 29.9558 27.329 29.8062 27.3092 29.6581C27.3123 29.6826 27.2983 29.5621 27.2948 29.5279C27.2808 29.395 27.2688 29.2616 27.2559 29.1287C27.2276 28.8383 27.1992 28.5476 27.1708 28.2572C27.1187 27.722 27.0663 27.1868 27.0142 26.6515C26.9621 26.1163 26.9108 25.5916 26.8591 25.0618C26.8315 24.778 26.8039 24.4943 26.7759 24.2105C26.7514 23.9594 26.685 23.6745 26.7024 23.4223C26.7332 22.9729 26.0335 22.9749 26.0028 23.4223C25.9857 23.6753 26.0518 23.9579 26.0763 24.2105C26.1039 24.4943 26.1315 24.778 26.1594 25.0618C26.21 25.5807 26.2605 26.0992 26.3114 26.6181C26.4098 27.6248 26.4875 28.6358 26.608 29.6402C26.6465 29.9601 26.669 30.4122 26.9057 30.6594C27.0177 30.7768 27.1809 30.8079 27.3345 30.8316C27.5207 30.8603 27.7072 30.8821 27.8957 30.8829C28.9577 30.8872 30.0219 30.8712 31.0815 30.7966C32.1411 30.722 33.1455 30.5918 34.1592 30.3811C34.4169 30.3274 34.6381 30.2229 34.7294 29.9555C34.8033 29.7401 34.7815 29.4812 34.7819 29.2558C34.7827 28.7921 34.764 28.3288 34.736 27.8658C34.6746 26.8498 34.5681 25.8368 34.4589 24.8247C34.4091 24.3625 34.3578 23.9003 34.3104 23.4382C34.2886 23.2263 34.2886 22.9978 34.233 22.7918C34.153 22.4944 33.9163 22.323 33.617 22.2985C33.3013 22.2725 32.9702 22.3102 32.6538 22.3222C32.3226 22.3347 31.9918 22.3494 31.661 22.3669C30.9995 22.4019 30.3383 22.4478 29.6783 22.5038C29.0183 22.5597 28.3334 22.6289 27.6629 22.7078C27.3341 22.7467 27.0052 22.7879 26.6768 22.8318C26.3693 22.873 26.0747 22.9803 26.0156 23.329C25.9841 23.5151 26.065 23.7056 26.2601 23.7593C26.428 23.8055 26.6589 23.7021 26.6904 23.5148L26.6896 23.5159Z" fill="#210B03"/>
<path d="M31.0197 28.0541C31.0255 27.9639 31.0912 27.89 31.1771 27.8776C32.8963 27.6335 34.6283 27.4897 36.3627 27.4461C36.4381 27.4442 36.5197 27.4446 36.5804 27.4912C36.6577 27.5507 36.6737 27.663 36.6826 27.7629C36.821 29.2672 37.1036 31.4151 37.06 32.9256C37.0577 33.0115 37.0507 33.1071 36.9897 33.165C36.9492 33.2031 36.8937 33.2159 36.8404 33.2276C35.2712 33.5689 33.8956 33.6248 32.1174 33.6214C32.0334 33.6214 31.7158 33.5864 31.6412 33.5463C31.5308 33.4873 31.4737 32.9481 31.4616 32.8191C31.3003 31.0894 31.1814 29.8121 31.0205 28.0851C31.0193 28.0747 31.0193 28.0642 31.0201 28.0537L31.0197 28.0541Z" fill="#FFFEFC"/>
<path d="M31.3579 28.147C31.335 28.2609 31.2102 28.2038 31.3466 28.2046C31.3937 28.2046 31.4504 28.1902 31.4982 28.1836C31.5938 28.1707 31.6895 28.1579 31.7847 28.1459C31.9872 28.1198 32.1901 28.0953 32.393 28.072C32.7988 28.0258 33.205 27.9849 33.612 27.9496C34.4255 27.8792 35.241 27.831 36.0569 27.805C36.1447 27.8023 36.2796 27.824 36.3628 27.7964C36.4137 27.7797 36.458 27.8372 36.3701 27.7509C36.2823 27.6647 36.3371 27.7105 36.3328 27.7595C36.3208 27.901 36.3624 28.0685 36.3764 28.21C36.4086 28.5338 36.4428 28.8572 36.4763 29.181C36.5462 29.8596 36.6139 30.5383 36.6609 31.2189C36.6838 31.5501 36.7017 31.882 36.7102 32.214C36.7141 32.3593 36.7161 32.5047 36.7153 32.6501C36.7153 32.7239 36.7145 32.7982 36.7122 32.872C36.7118 32.888 36.7036 32.9739 36.7083 32.9785C36.6772 32.9482 36.9174 32.8526 36.7145 32.8981C36.037 33.0489 35.3475 33.1426 34.656 33.197C33.9365 33.2537 33.2147 33.2693 32.4933 33.2716C32.3386 33.272 32.1827 33.2794 32.0284 33.2665C31.9833 33.2627 31.9437 33.2584 31.9017 33.2514C31.8811 33.2479 31.8597 33.2417 31.8391 33.2397C31.7746 33.2339 31.7979 33.2075 31.8181 33.2444C31.7754 33.167 31.9219 33.3256 31.9118 33.3493C31.9141 33.3439 31.8924 33.291 31.8893 33.2802C31.8745 33.2261 31.8624 33.1713 31.8519 33.1161C31.8294 32.9968 31.8263 32.9634 31.8158 32.8639C31.7322 32.0608 31.6657 31.255 31.5907 30.4512C31.5542 30.0594 31.5177 29.6676 31.4811 29.2758C31.4613 29.0644 31.4419 28.8529 31.422 28.6414C31.4045 28.4533 31.3575 28.2423 31.3696 28.0537C31.3991 27.604 30.6991 27.606 30.6699 28.0537C30.6583 28.2322 30.7022 28.4277 30.7189 28.6053C30.7399 28.8288 30.7605 29.0523 30.7815 29.2758C30.8192 29.6785 30.8565 30.0816 30.8942 30.4843C30.9688 31.2865 31.031 32.0915 31.1192 32.8926C31.1472 33.1461 31.1655 33.4485 31.2973 33.6743C31.4485 33.9339 31.7948 33.953 32.0642 33.9689C32.4781 33.993 32.9014 33.9705 33.3162 33.9611C33.7305 33.9518 34.1445 33.9343 34.558 33.904C35.3486 33.8457 36.1641 33.7606 36.9341 33.5655C37.394 33.4488 37.4134 33.0512 37.415 32.6501C37.4165 32.2894 37.4029 31.9287 37.3827 31.5683C37.3376 30.7707 37.2579 29.9751 37.1763 29.1806C37.139 28.8187 37.1009 28.4572 37.0651 28.0953C37.0294 27.7335 37.0457 27.2596 36.6251 27.1275C36.4036 27.0579 36.1323 27.1026 35.9045 27.1108C35.6367 27.1201 35.3692 27.1321 35.1014 27.1461C34.579 27.1737 34.057 27.2107 33.5362 27.2569C33.0277 27.302 32.5197 27.3553 32.0132 27.4178C31.754 27.4497 31.4955 27.4839 31.2366 27.5197C30.9688 27.5566 30.741 27.6728 30.6831 27.9616C30.5949 28.4012 31.2693 28.5894 31.3579 28.1478V28.147Z" fill="#210B03"/>
<path d="M4.35172 29.9649C4.35755 29.8748 4.42323 29.8009 4.50914 29.7885C6.22834 29.5444 7.96037 29.4006 9.69473 29.357C9.77014 29.3551 9.85177 29.3555 9.9124 29.4021C9.98975 29.4616 10.0057 29.5739 10.0146 29.6738C10.153 31.1781 10.4356 33.326 10.3921 34.8365C10.3897 34.9224 10.3827 35.018 10.3217 35.0759C10.2813 35.114 10.2257 35.1268 10.1724 35.1385C8.60327 35.4798 7.22768 35.5357 5.44939 35.5322C5.36543 35.5322 5.04787 35.4973 4.97324 35.4572C4.86285 35.3981 4.80571 34.859 4.79366 34.73C4.63235 33.0003 4.51341 31.723 4.35249 29.996C4.35133 29.9855 4.35133 29.975 4.3521 29.9646L4.35172 29.9649Z" fill="#FFFEFC"/>
<path d="M4.68993 30.0579C4.667 30.1718 4.54223 30.1147 4.67866 30.1154C4.72569 30.1154 4.78245 30.1011 4.83026 30.0945C4.92587 30.0816 5.02149 30.0688 5.11672 30.0568C5.31923 30.0307 5.52213 30.0062 5.72503 29.9829C6.13083 29.9366 6.53702 29.8958 6.94398 29.8605C7.75752 29.7901 8.57301 29.7419 9.38888 29.7159C9.47673 29.7131 9.61161 29.7349 9.69479 29.7073C9.74571 29.6906 9.79002 29.7481 9.70217 29.6618C9.61433 29.5755 9.66913 29.6214 9.66486 29.6704C9.65281 29.8119 9.6944 29.9794 9.70839 30.1209C9.74065 30.4447 9.77486 30.7681 9.80828 31.0918C9.87825 31.7705 9.94588 32.4492 9.99292 33.1298C10.0158 33.461 10.0337 33.7929 10.0423 34.1248C10.0462 34.2702 10.0481 34.4156 10.0473 34.561C10.0473 34.6348 10.0466 34.7091 10.0442 34.7829C10.0438 34.7988 10.0357 34.8847 10.0403 34.8894C10.0092 34.8591 10.2495 34.7635 10.0466 34.809C9.36906 34.9598 8.67951 35.0534 7.98802 35.1079C7.26855 35.1646 6.54674 35.1802 5.82532 35.1825C5.67062 35.1829 5.51475 35.1903 5.36043 35.1774C5.31535 35.1736 5.2757 35.1693 5.23372 35.1623C5.21312 35.1588 5.19174 35.1526 5.17114 35.1506C5.10662 35.1448 5.12994 35.1184 5.15015 35.1553C5.10739 35.0779 5.25393 35.2365 5.24383 35.2602C5.24616 35.2548 5.22439 35.2019 5.22128 35.191C5.20651 35.137 5.19446 35.0822 5.18397 35.027C5.16142 34.9077 5.15831 34.8743 5.14782 34.7747C5.06425 33.9717 4.99778 33.1659 4.92276 32.3621C4.88623 31.9703 4.84969 31.5785 4.81315 31.1867C4.79333 30.9752 4.77389 30.7638 4.75407 30.5523C4.73658 30.3642 4.68955 30.1531 4.7016 29.9646C4.73114 29.5149 4.0311 29.5169 4.00194 29.9646C3.99028 30.143 4.0342 30.3386 4.05092 30.5162C4.07191 30.7397 4.09251 30.9632 4.1135 31.1867C4.1512 31.5894 4.18852 31.9925 4.22622 32.3951C4.30085 33.1974 4.36304 34.0024 4.45128 34.8035C4.47926 35.0569 4.49753 35.3593 4.6293 35.5852C4.7805 35.8448 5.12683 35.8639 5.3962 35.8798C5.81016 35.9039 6.23345 35.8814 6.64819 35.872C7.06254 35.8627 7.4765 35.8452 7.89007 35.8149C8.68068 35.7566 9.49616 35.6715 10.2662 35.4763C10.726 35.3597 10.7454 34.9621 10.747 34.561C10.7485 34.2003 10.7349 33.8395 10.7147 33.4792C10.6696 32.6816 10.59 31.886 10.5083 31.0915C10.471 30.7296 10.4329 30.3681 10.3972 30.0062C10.3614 29.6443 10.3777 29.1705 9.95716 29.0384C9.7356 28.9688 9.46429 29.0135 9.23651 29.0217C8.9687 29.031 8.70128 29.043 8.43347 29.057C7.91106 29.0846 7.38904 29.1215 6.86819 29.1678C6.35977 29.2129 5.85175 29.2661 5.34528 29.3287C5.08602 29.3606 4.82753 29.3948 4.56866 29.4306C4.30085 29.4675 4.07307 29.5837 4.01516 29.8725C3.92692 30.3121 4.60131 30.5003 4.68993 30.0587V30.0579Z" fill="#210B03"/>
<path d="M32.254 4.70009C32.2582 4.63465 32.3059 4.58106 32.3682 4.57204C33.6157 4.39491 34.8726 4.29055 36.1311 4.25896C36.1858 4.25755 36.245 4.25783 36.289 4.29168C36.3451 4.33483 36.3567 4.41635 36.3632 4.48883C36.4636 5.58036 36.6686 7.13897 36.6371 8.23501C36.6354 8.29734 36.6303 8.36672 36.586 8.40875C36.5567 8.43639 36.5163 8.4457 36.4777 8.45416C35.3391 8.7018 34.3409 8.74241 33.0505 8.73987C32.9896 8.73987 32.7592 8.71449 32.705 8.68544C32.6249 8.64257 32.5834 8.25137 32.5747 8.15773C32.4577 6.90261 32.3713 5.97579 32.2546 4.72265C32.2537 4.71503 32.2537 4.70742 32.2543 4.6998L32.254 4.70009Z" fill="#F2973E"/>
<path d="M32.5006 4.76765C32.484 4.8503 32.3935 4.80883 32.4925 4.8094C32.5266 4.8094 32.5678 4.79896 32.6025 4.79417C32.6718 4.78486 32.7412 4.77555 32.8103 4.76681C32.9573 4.74791 33.1045 4.73014 33.2517 4.71322C33.5462 4.67966 33.8409 4.65004 34.1362 4.62437C34.7266 4.57332 35.3183 4.53835 35.9103 4.51945C35.9741 4.51748 36.0719 4.53327 36.1323 4.51325C36.1692 4.50112 36.2014 4.54286 36.1377 4.48025C36.0739 4.41763 36.1137 4.45091 36.1106 4.48645C36.1018 4.58912 36.132 4.71068 36.1422 4.81335C36.1656 5.04829 36.1904 5.28296 36.2147 5.5179C36.2654 6.01036 36.3145 6.50282 36.3486 6.99669C36.3653 7.23699 36.3782 7.47786 36.3844 7.71873C36.3873 7.82422 36.3887 7.92971 36.3881 8.03519C36.3881 8.08878 36.3875 8.14265 36.3859 8.19624C36.3856 8.20781 36.3797 8.27014 36.383 8.27352C36.3605 8.25152 36.5348 8.18214 36.3875 8.21514C35.8959 8.32457 35.3956 8.39255 34.8938 8.43203C34.3717 8.47321 33.848 8.4845 33.3245 8.48619C33.2122 8.48647 33.0991 8.49183 32.9872 8.48252C32.9545 8.4797 32.9257 8.4766 32.8952 8.47152C32.8803 8.46898 32.8648 8.46447 32.8498 8.46306C32.803 8.45883 32.8199 8.43965 32.8346 8.46645C32.8036 8.41032 32.9099 8.52539 32.9026 8.5426C32.9042 8.53865 32.8885 8.50029 32.8862 8.49239C32.8755 8.45319 32.8667 8.41342 32.8591 8.37337C32.8428 8.28678 32.8405 8.26252 32.8329 8.19032C32.7722 7.60761 32.724 7.02292 32.6696 6.43964C32.6431 6.15533 32.6166 5.87103 32.59 5.58672C32.5757 5.43329 32.5616 5.27985 32.5472 5.12642C32.5345 4.98991 32.5004 4.83676 32.5091 4.69996C32.5305 4.37363 32.0226 4.37504 32.0014 4.69996C31.9929 4.82942 32.0248 4.97129 32.0369 5.10019C32.0522 5.26237 32.0671 5.42455 32.0824 5.58672C32.1097 5.87893 32.1368 6.17141 32.1642 6.46362C32.2183 7.04576 32.2634 7.62989 32.3275 8.21119C32.3478 8.39509 32.361 8.61452 32.4566 8.77839C32.5664 8.9668 32.8177 8.98062 33.0131 8.99218C33.3135 9.00967 33.6207 8.99331 33.9216 8.98654C34.2223 8.97977 34.5226 8.96708 34.8227 8.94508C35.3964 8.90277 35.9882 8.84101 36.5469 8.69942C36.8806 8.6148 36.8947 8.32627 36.8958 8.03519C36.8969 7.77345 36.8871 7.51171 36.8724 7.25025C36.8397 6.67148 36.7819 6.09413 36.7226 5.51762C36.6955 5.25503 36.6679 4.99273 36.642 4.73014C36.616 4.46755 36.6279 4.12374 36.3227 4.02784C36.1619 3.97735 35.965 4.00979 35.7998 4.01571C35.6054 4.02248 35.4114 4.03122 35.217 4.04138C34.838 4.0614 34.4592 4.0882 34.0812 4.12176C33.7123 4.15448 33.3437 4.19312 32.9762 4.23853C32.788 4.26166 32.6005 4.28648 32.4126 4.31243C32.2183 4.33922 32.053 4.42355 32.011 4.63312C31.947 4.95211 32.4363 5.08863 32.5006 4.76822V4.76765Z" fill="#210B03"/>
<path d="M32.5473 21.6626C32.3432 21.8204 32.1345 21.9736 31.9219 22.1216C31.9475 22.1745 32 22.2126 32.0505 22.248C32.3059 22.4287 32.5613 22.6095 32.8167 22.7902C33.0884 22.9822 34.0092 23.8319 34.3248 23.9578C34.4445 23.7452 34.5502 23.5264 34.6416 23.3025C33.4895 22.1982 32.6437 21.5654 32.6091 21.7225" fill="#FFFEFC"/>
<path d="M32.4597 21.5121C32.2549 21.6699 32.0461 21.823 31.8343 21.9711C31.7616 22.022 31.7142 22.1278 31.7717 22.2106C31.8732 22.3567 32.0259 22.4442 32.1693 22.5456C32.3264 22.6568 32.4838 22.7679 32.6408 22.8791C32.8157 23.0027 32.9774 23.1415 33.1411 23.2795C33.3397 23.447 33.5379 23.6149 33.7428 23.7751C33.8967 23.8956 34.0561 24.0316 34.2372 24.1093C34.3223 24.1459 34.4261 24.1373 34.4766 24.0468C34.6022 23.8205 34.7118 23.5885 34.8109 23.3498C34.8339 23.295 34.8066 23.2184 34.7658 23.1796C34.2652 22.7007 33.7525 22.2253 33.1947 21.8133C33.0369 21.6967 32.5608 21.3146 32.441 21.6765C32.3703 21.8907 32.7077 21.9824 32.7784 21.7694C32.6276 21.8397 32.5856 21.8747 32.6517 21.8743C32.6237 21.8701 32.6202 21.8708 32.6412 21.8759C32.6564 21.8949 32.6342 21.8673 32.6634 21.8848C32.7139 21.9155 32.7664 21.9416 32.8165 21.9738C32.9603 22.0667 33.0964 22.1717 33.2297 22.2786C33.6787 22.6385 34.1031 23.0291 34.519 23.4268L34.4739 23.2565C34.3865 23.4668 34.2854 23.6709 34.1746 23.8699L34.4141 23.8073C34.0324 23.6437 33.702 23.2962 33.3887 23.0323C33.2418 22.9083 33.0964 22.7815 32.9425 22.6665C32.815 22.5713 32.6824 22.4815 32.5526 22.3897C32.4092 22.2883 32.1752 22.1795 32.0741 22.0341L32.0115 22.2735C32.2234 22.125 32.4317 21.9723 32.6369 21.8145C32.813 21.6792 32.6389 21.3749 32.4605 21.5125L32.4597 21.5121Z" fill="#210B03"/>
<path d="M26.5317 28.9717C26.3276 29.1295 26.1189 29.2826 25.9062 29.4307C25.9319 29.4836 25.9844 29.5217 26.0349 29.5571C26.2903 29.7378 26.5457 29.9185 26.801 30.0993C27.0727 30.2913 27.9935 31.141 28.3092 31.2669C28.4289 31.0543 28.5346 30.8355 28.626 30.6116C27.4739 29.5073 26.6281 28.8745 26.5935 29.0315" fill="#FFFEFC"/>
<path d="M26.4441 28.8207C26.2392 28.9785 26.0305 29.1316 25.8187 29.2797C25.746 29.3306 25.6986 29.4364 25.7561 29.5191C25.8575 29.6653 26.0103 29.7528 26.1537 29.8542C26.3108 29.9654 26.4682 30.0765 26.6252 30.1877C26.8001 30.3113 26.9618 30.4501 27.1255 30.5881C27.3241 30.7556 27.5223 30.9235 27.7272 31.0837C27.8811 31.2041 28.0405 31.3402 28.2216 31.4179C28.3067 31.4545 28.4105 31.4459 28.461 31.3554C28.5866 31.1291 28.6962 30.8971 28.7953 30.6584C28.8182 30.6036 28.791 30.527 28.7502 30.4882C28.2496 30.0093 27.7369 29.5339 27.1791 29.1219C27.0213 29.0053 26.5451 28.6232 26.4254 28.9851C26.3547 29.1993 26.6921 29.291 26.7628 29.078C26.612 29.1483 26.57 29.1833 26.6361 29.1829C26.6081 29.1786 26.6046 29.1794 26.6256 29.1845C26.6408 29.2035 26.6186 29.1759 26.6478 29.1934C26.6983 29.2241 26.7508 29.2502 26.8009 29.2824C26.9447 29.3753 27.0808 29.4803 27.2141 29.5872C27.663 29.9471 28.0875 30.3377 28.5034 30.7354L28.4583 30.5651C28.3708 30.7754 28.2698 30.9795 28.159 31.1785L28.3984 31.1159C28.0167 30.9523 27.6864 30.6048 27.3731 30.3409C27.2261 30.2169 27.0808 30.0901 26.9268 29.9751C26.7993 29.8799 26.6668 29.7901 26.537 29.6983C26.3935 29.5969 26.1596 29.4881 26.0585 29.3427L25.9959 29.5821C26.2078 29.4336 26.4161 29.2809 26.6213 29.1231C26.7974 28.9878 26.6233 28.6835 26.4449 28.821L26.4441 28.8207Z" fill="#210B03"/>
</svg>
