<svg width="109" height="165" viewBox="0 0 109 165" fill="none" xmlns="http://www.w3.org/2000/svg">
<path d="M97.5544 15.9766L24.2072 20.2081L8.69141 128.818L83.4492 127.408L97.5544 15.9766Z" fill="#F2F5C8"/>
<path d="M18.8867 15.4268C11.9392 59.6521 6.49139 104.153 0.431447 148.5C0.23251 150 2.2984 150.306 2.49734 148.776C8.29713 104.382 14.6937 60.0193 19.5907 15.5186C19.6366 15.1208 18.9479 15.0136 18.8714 15.4268H18.8867Z" fill="#210B03"/>
<path d="M19.125 16.3901C22.0172 11.6921 25.996 8.29486 31.505 7.16245C32.4844 6.96351 32.0712 5.43322 31.0919 5.64746C25.4757 6.87169 20.3492 10.5597 18.1303 15.9616C17.8855 16.5431 18.8189 16.8951 19.125 16.3748V16.3901Z" fill="#210B03"/>
<path d="M32.05 7.28673C43.0222 4.9607 55.0809 5.38918 66.2673 4.56282C77.4231 3.72116 88.5789 2.89481 99.7347 2.05315C100.745 1.97664 100.76 0.385142 99.7347 0.461656C87.6148 1.39513 75.4796 2.3286 63.3597 3.27738C53.015 4.08843 41.9357 3.98131 31.8358 6.52159C31.3461 6.64401 31.5603 7.37855 32.05 7.27143V7.28673Z" fill="#210B03"/>
<path d="M100.271 1.22629C103.622 2.31279 106.224 5.15912 106.851 8.63287C106.989 9.39801 108.182 9.07665 108.029 8.31151C107.234 4.42459 104.326 1.37932 100.439 0.598873C100.026 0.522359 99.8728 1.08856 100.271 1.22629Z" fill="#210B03"/>
<path d="M107.285 9.81541C99.9554 56.1371 97.5987 103.056 89.075 149.24C88.8761 150.342 90.5441 150.801 90.7584 149.699C99.3739 103.607 103.46 56.5503 108.02 9.92253C108.066 9.50936 107.347 9.40224 107.285 9.83072V9.81541Z" fill="#210B03"/>
<path d="M0.261456 149.508C4.04127 163.464 14.891 163.082 27.4547 163.571C45.7263 164.291 64.0286 163.847 82.2696 162.515C83.5704 162.424 83.5857 160.373 82.2696 160.465C68.4664 161.49 54.6326 161.995 40.7988 161.873C33.8819 161.812 26.9497 161.674 20.0481 161.276C16.0081 161.046 11.5703 161.291 7.97411 159.072C4.27081 156.777 2.93946 152.752 1.31736 149.049C1.0419 148.437 0.0778215 148.881 0.246153 149.493H0.261456V149.508Z" fill="#210B03"/>
<path d="M82.3268 162.918C86.9636 159.949 89.9476 154.884 91.4014 149.681C91.6463 148.778 90.2384 148.396 89.9935 149.299C88.601 154.547 85.6169 158.511 81.8218 162.275C81.5004 162.597 81.9136 163.178 82.3268 162.918Z" fill="#210B03"/>
<path d="M3.99203 139.046C-1.36398 149.115 10.6335 154.028 18.6981 154.441C38.6072 155.466 58.8988 154.272 78.7772 153.109C79.8943 153.048 79.8943 151.304 78.7772 151.365C66.1217 152.115 53.451 152.604 40.7802 152.773C33.144 152.88 -3.46048 156.17 4.61945 139.398C4.81839 138.985 4.20627 138.618 3.99203 139.031V139.046Z" fill="#210B03"/>
<path d="M76.3519 152.433C78.0659 155.233 79.1371 158.233 79.6114 161.477C79.7186 162.211 80.8663 161.905 80.7439 161.171C80.1623 157.865 78.9381 154.805 77.1018 152.004C76.7957 151.545 76.0612 151.958 76.3519 152.433Z" fill="#210B03"/>
<path d="M84.1494 143.22C85.0829 145.47 86.1694 147.612 87.2712 149.801C87.6232 150.505 88.725 149.877 88.3271 149.189C87.1488 147.092 85.9705 145.026 84.6391 143.021C84.4861 142.792 84.027 142.93 84.1494 143.22Z" fill="#210B03"/>
<path d="M78.2661 153.152C81.7398 150.183 83.9741 145.653 85.1065 141.292C85.3513 140.343 83.9128 139.945 83.6374 140.879C82.3213 145.286 80.0871 148.806 77.4856 152.54C77.149 153.029 77.8682 153.488 78.2661 153.136V153.152Z" fill="#210B03"/>
<path d="M94.5641 2.77384C96.3392 3.70731 97.946 4.57958 99.2621 6.12516C99.8283 6.79849 100.838 5.8038 100.241 5.14578C98.8183 3.60019 96.8901 2.28415 94.7477 2.08521C94.3805 2.05461 94.258 2.60551 94.5641 2.75854V2.77384Z" fill="#210B03"/>
<path d="M102.03 7.81932C95.8783 52.7638 91.0579 97.9072 84.9674 142.867C84.8144 144.03 86.4059 144.26 86.5589 143.081C92.5423 98.1827 98.8318 53.0392 102.765 7.92644C102.795 7.51326 102.091 7.40614 102.03 7.83462V7.81932Z" fill="#210B03"/>
<path d="M20.8633 20.5523C46.771 21.3022 73.2909 18.2722 99.0304 15.6707C99.9027 15.5789 99.918 14.2016 99.0304 14.2935C73.0155 17.0021 46.8629 17.5224 20.8633 19.9555C20.496 19.9861 20.4807 20.537 20.8633 20.5523Z" fill="#210B03"/>
<path d="M7.56451 129.739C33.9008 130.566 60.0993 130.076 86.3897 128.53C87.2007 128.485 87.2007 127.214 86.3897 127.276C60.1911 129.127 33.8243 129.678 7.56451 129.173C7.19725 129.173 7.19725 129.739 7.56451 129.755V129.739Z" fill="#210B03"/>
<path d="M31.6099 139.686C31.5334 140.849 31.4722 142.012 31.4416 143.175C31.4263 143.894 32.574 143.894 32.5587 143.175C32.5281 142.012 32.4669 140.849 32.3903 139.686C32.3597 139.196 31.6558 139.196 31.6252 139.686H31.6099Z" fill="#210B03"/>
<path d="M57.5163 138.999C57.3939 140.163 57.3786 141.326 57.3327 142.489C57.3021 143.147 58.3733 143.147 58.3427 142.489C58.2968 141.326 58.2662 140.163 58.159 138.999C58.1131 138.602 57.5622 138.586 57.5316 138.999H57.5163Z" fill="#210B03"/>
<path d="M32.7111 139.873C40.8369 137.684 48.7332 137.455 56.7672 140.133C57.7925 140.469 58.2363 138.847 57.211 138.511C49.1005 135.848 40.4238 135.695 32.4663 139C31.946 139.215 32.1296 140.026 32.7111 139.873Z" fill="#210B03"/>
<path d="M32.5349 144.494C40.1558 146.728 48.2357 146.437 55.8871 144.478C56.8818 144.218 56.4686 142.657 55.4587 142.933C47.7766 145.014 40.5383 145.014 32.7186 143.82C32.2748 143.759 32.0758 144.371 32.5349 144.509V144.494Z" fill="#210B03"/>
<path d="M46.7976 12.1556C45.8488 12.7677 46.1855 14.0072 46.9047 14.6653C48.0371 15.6753 49.5215 14.9407 50.4397 14.0379C50.8835 13.5941 51.618 13.0126 51.4191 12.3239C51.266 11.773 50.7917 11.3292 50.2867 11.0844C49.1696 10.5335 47.8229 10.809 47.119 11.8495C46.6905 12.477 47.7311 13.0891 48.1443 12.4464C48.4656 11.9567 49.093 11.8495 49.6286 12.0179C49.8429 12.0791 50.1795 12.2168 50.2867 12.4311C50.4244 12.7065 50.0571 12.982 49.8276 13.2421C49.3379 13.7777 48.5421 14.4816 47.7464 14.2674C47.0425 14.0685 46.4303 13.0738 47.0731 12.5076C47.2567 12.3392 47.0118 12.0332 46.8129 12.1556H46.7976Z" fill="#210B03"/>
<path d="M57.0872 11.4465C62.7952 12.3035 68.8398 11.6301 74.5784 11.37C75.8485 11.3088 75.8485 9.33471 74.5784 9.39593C68.8245 9.71729 62.7033 9.62547 57.0872 11.0639C56.9189 11.1098 56.8882 11.4006 57.0872 11.4312V11.4465Z" fill="#210B03"/>
<path d="M33.2539 158.036C33.3304 158.45 33.4222 158.863 33.4988 159.276C33.6212 159.903 34.6465 159.628 34.4628 159.016C34.3404 158.618 34.218 158.205 34.0956 157.807C33.9272 157.271 33.1621 157.501 33.2692 158.036H33.2539Z" fill="#210B03"/>
<path d="M33.6642 158.171C40.3057 157.804 46.9471 157.621 53.6039 157.957C54.4302 158.003 54.4302 156.718 53.6039 156.672C46.8706 156.274 40.2292 156.396 33.5571 157.36C33.098 157.422 33.2052 158.187 33.6642 158.171Z" fill="#210B03"/>
<path d="M33.9581 159.968C40.2629 160.626 46.6595 160.427 52.9949 160.442C53.959 160.442 53.959 158.958 52.9949 158.958C46.6595 158.942 40.2782 158.697 33.9581 159.31C33.5296 159.355 33.5296 159.937 33.9581 159.983V159.968Z" fill="#210B03"/>
<path d="M52.4258 158.08L52.6706 159.626C52.7931 160.422 54.1091 160.1 53.9102 159.289C53.7877 158.784 53.6653 158.279 53.5429 157.774C53.3593 157.04 52.3187 157.361 52.4411 158.08H52.4258Z" fill="#210B03"/>
<path d="M1.33093 143.497C1.23911 147.032 1.75941 150.628 2.2491 154.118C2.37153 154.944 3.67227 154.607 3.51924 153.766C2.87652 150.322 2.58577 146.849 2.06547 143.39C2.00426 142.962 1.34623 143.084 1.33093 143.482V143.497Z" fill="#210B03"/>
<path d="M1.88897 144.538C2.5929 148.058 3.17441 151.593 3.58759 155.159C3.67941 156 4.84243 155.847 4.73531 155.005C4.24562 151.394 3.57229 147.844 2.68472 144.324C2.5623 143.804 1.78185 144.033 1.88897 144.538Z" fill="#210B03"/>
<path d="M3.43451 146.883C3.70996 150.586 4.36798 154.228 5.5157 157.763C5.72994 158.421 6.78584 158.146 6.5716 157.473C5.43918 153.999 4.59752 150.525 4.19965 146.883C4.15374 146.409 3.4039 146.393 3.43451 146.883Z" fill="#210B03"/>
<path d="M12.1704 152.479C12.6295 155.126 12.9049 157.896 13.5935 160.482C13.716 160.926 14.4811 160.85 14.4199 160.375C14.1138 157.667 13.3793 154.958 12.8284 152.295C12.7366 151.852 12.0939 152.051 12.1704 152.479Z" fill="#210B03"/>
<path d="M14.4313 155.156C14.5996 157.253 14.6914 159.364 14.9975 161.446C15.0893 162.058 16.1146 161.92 16.084 161.293C15.9769 159.242 15.6555 157.191 15.4107 155.156C15.3342 154.544 14.3854 154.513 14.4313 155.156Z" fill="#210B03"/>
<path d="M15.2694 153.32C15.5908 155.952 15.9581 158.569 16.3406 161.201C16.4937 162.18 18.0239 161.782 17.8556 160.788C17.3965 158.247 16.9221 155.707 16.4171 153.167C16.2947 152.539 15.1929 152.662 15.2694 153.32Z" fill="#210B03"/>
<path d="M17.1567 153.323C17.5393 156.154 17.8454 159.031 18.3963 161.831C18.5799 162.78 19.9725 162.367 19.8347 161.434C19.4216 158.664 18.7482 155.924 18.1514 153.201C18.029 152.65 17.0802 152.757 17.1567 153.338V153.323Z" fill="#210B03"/>
<path d="M19.2788 154.242C19.4318 156.843 19.692 159.659 20.5642 162.138C20.8856 163.025 22.171 162.673 21.9874 161.74C21.4824 159.169 20.7479 156.69 20.3806 154.088C20.2888 153.461 19.2329 153.614 19.2788 154.242Z" fill="#210B03"/>
<path d="M21.262 154.056C21.6445 156.535 22.0577 159.029 22.4862 161.508C22.6545 162.488 24.2154 162.09 24.0012 161.095C23.4656 158.647 22.8994 156.214 22.3179 153.781C22.1495 153.077 21.1548 153.398 21.262 154.071V154.056Z" fill="#210B03"/>
<path d="M23.2214 154.41C23.757 156.996 24.3385 159.552 24.92 162.123C25.1649 163.194 26.8635 162.735 26.5574 161.664C25.8535 159.124 25.1343 156.599 24.3691 154.089C24.1396 153.339 23.0531 153.66 23.2061 154.41H23.2214Z" fill="#210B03"/>
<path d="M25.556 154.728C25.9233 157.192 26.3058 159.671 26.7037 162.135C26.872 163.16 28.4788 162.732 28.2646 161.707C27.7749 159.273 27.2699 156.84 26.7496 154.407C26.5813 153.611 25.4336 153.963 25.556 154.744V154.728Z" fill="#210B03"/>
<path d="M61.8253 153.425C62.315 155.751 62.8659 158.001 63.0955 160.388C63.172 161.199 64.4574 161.184 64.3656 160.388C64.0442 157.924 63.5699 155.415 62.5752 153.119C62.3762 152.676 61.7335 153.012 61.8253 153.441V153.425Z" fill="#210B03"/>
<path d="M63.8819 153.982C64.3868 157.18 64.7847 160.409 65.2285 163.623C65.3356 164.419 66.6364 164.097 66.468 163.286C65.7794 160.134 65.0296 156.997 64.4021 153.844C64.3409 153.508 63.8359 153.645 63.8819 153.982Z" fill="#210B03"/>
<path d="M65.6838 154.239C65.6073 156.948 66.0817 159.565 66.9233 162.136C67.26 163.146 68.8974 162.671 68.5149 161.692C67.5355 159.243 66.954 156.718 66.602 154.117C66.5255 153.581 65.6991 153.734 65.6838 154.239Z" fill="#210B03"/>
<path d="M67.1729 153.472C67.9686 156.563 68.3971 159.67 68.7797 162.837C68.9021 163.847 70.4936 163.878 70.3865 162.837C70.0498 159.563 69.2541 156.303 68.3053 153.166C68.0911 152.447 66.9893 152.753 67.1729 153.472Z" fill="#210B03"/>
<path d="M69.2338 153.795C69.7388 156.565 70.0908 159.427 70.7794 162.151C71.0396 163.207 72.5545 162.748 72.3862 161.707C71.9271 158.937 71.1161 156.183 70.4733 153.443C70.2744 152.632 69.0961 152.984 69.2338 153.78V153.795Z" fill="#210B03"/>
<path d="M71.4389 153.628C71.6225 156.352 71.898 159.168 72.403 161.846C72.5866 162.794 74.224 162.595 74.1169 161.616C73.8108 158.908 73.2599 156.122 72.6478 153.46C72.4948 152.802 71.393 152.924 71.4389 153.628Z" fill="#210B03"/>
<path d="M73.8047 154.853L74.5851 160.683C74.7382 161.862 76.4215 161.648 76.2072 160.469C75.8553 158.541 75.5033 156.613 75.1513 154.669C75.0136 153.92 73.7129 154.088 73.82 154.853H73.8047Z" fill="#210B03"/>
<path d="M75.3483 152.494C75.991 154.896 76.4348 157.314 76.7409 159.778C76.8786 160.864 78.4395 160.681 78.2405 159.579C77.8121 157.069 77.1387 154.636 76.2971 152.234C76.0828 151.637 75.1647 151.866 75.333 152.494H75.3483Z" fill="#210B03"/>
<path d="M85.5664 138.004C85.5817 139.779 86.3009 141.524 86.8212 143.207C87.4181 145.135 88.0302 147.033 88.6882 148.946C89.0555 150.032 90.8153 149.543 90.4021 148.471C89.6829 146.589 88.9943 144.692 88.3362 142.794C87.7547 141.126 87.3721 139.274 86.4234 137.775C86.1938 137.407 85.5817 137.545 85.5817 138.004H85.5664Z" fill="#210B03"/>
<path d="M86.3125 133.489C87.2766 136.779 88.2254 140.07 89.1894 143.36C89.4496 144.278 90.9187 143.865 90.6126 142.962C89.5108 139.718 88.3937 136.458 87.2919 133.214C87.0777 132.602 86.1289 132.847 86.3125 133.489Z" fill="#210B03"/>
<path d="M86.8472 128.301C87.8725 131.913 88.9896 135.494 90.1527 139.059C90.4128 139.84 91.6523 139.472 91.3769 138.722C90.0455 135.203 88.8213 131.653 87.6736 128.072C87.5053 127.551 86.6942 127.766 86.8472 128.301Z" fill="#210B03"/>
<path d="M87.8284 124.28C88.8996 127.769 89.8943 131.289 90.9043 134.793C91.1798 135.773 92.7559 135.329 92.4193 134.38C91.1798 130.937 89.9402 127.494 88.7619 124.02C88.563 123.423 87.6295 123.668 87.8284 124.28Z" fill="#210B03"/>
<path d="M88.6833 119.704C89.5555 123.606 90.6267 127.416 92.0499 131.15C92.4937 132.329 94.177 131.655 93.6567 130.477C92.0958 126.881 90.7645 123.193 89.7545 119.413C89.5708 118.724 88.5302 119.015 88.6833 119.704Z" fill="#210B03"/>
<path d="M89.0284 115.281C89.8394 118.878 91.4003 122.351 92.3338 125.932C92.6092 126.988 94.2772 126.529 93.9559 125.488C92.9 122.03 91.7982 118.021 89.7782 114.96C89.518 114.578 88.9212 114.807 89.0284 115.281Z" fill="#210B03"/>
<path d="M89.9297 108.334C90.8479 112.512 91.9956 116.628 93.2963 120.714C93.6024 121.678 95.148 121.219 94.796 120.301C93.2351 116.307 91.9803 112.221 90.9244 108.074C90.756 107.447 89.8073 107.707 89.945 108.349L89.9297 108.334Z" fill="#210B03"/>
<path d="M90.7519 104.385C91.8537 107.874 92.9861 111.332 94.0573 114.836C94.3634 115.831 95.9549 115.357 95.5876 114.408C94.2869 110.98 93.0626 107.537 91.8078 104.094C91.5629 103.451 90.5377 103.711 90.7519 104.385Z" fill="#210B03"/>
<path d="M91.2536 99.7133C92.1412 103.095 93.5644 106.385 94.7733 109.675C95.1712 110.762 96.7321 110.15 96.2577 109.048C94.8957 105.834 93.6715 102.468 92.0035 99.3919C91.7739 98.9788 91.1312 99.2542 91.2536 99.7133Z" fill="#210B03"/>
<path d="M91.5182 93.29C92.7118 97.284 93.7218 101.446 95.2827 105.318C95.65 106.221 97.0731 105.9 96.7977 104.905C95.6653 100.88 93.9054 96.9473 92.4058 93.0451C92.1915 92.5095 91.3499 92.7085 91.5182 93.29Z" fill="#210B03"/>
<path d="M92.2916 89.3228C93.6535 93.424 95.0308 97.5404 96.3927 101.642C96.7753 102.774 98.6117 102.254 98.1832 101.152C96.607 97.0966 95.0461 93.0414 93.4699 89.0014C93.1944 88.2822 92.0314 88.573 92.2916 89.3228Z" fill="#210B03"/>
<path d="M93.3761 85.2866C94.4473 88.745 95.5797 92.2034 96.8804 95.5854C97.2171 96.4576 98.6402 96.0598 98.2883 95.2028C96.911 91.8362 95.5338 88.4696 94.2942 85.0417C94.0953 84.4755 93.1924 84.705 93.3761 85.3019V85.2866Z" fill="#210B03"/>
<path d="M93.9492 79.1671C94.6225 81.5543 95.3418 83.911 96.061 86.2829C96.4436 87.5378 96.6425 89.8791 97.6831 90.7667C97.9739 91.0115 98.3105 91.0727 98.6625 90.8891L98.8614 90.782C99.1981 90.6136 99.3052 90.2004 99.244 89.8638C99.244 89.8026 99.2134 89.7414 99.2134 89.6802C98.9839 88.6243 97.2393 89.1139 97.6066 90.1239C97.6219 90.1851 97.6525 90.2311 97.6678 90.2923C97.7902 89.9862 97.9127 89.6802 98.0504 89.3741C98.9074 88.7773 96.9945 85.074 96.719 84.2935C96.0916 82.5031 95.5254 80.6974 94.9592 78.8916C94.7603 78.2795 93.7962 78.5244 93.9798 79.1671H93.9492Z" fill="#210B03"/>
<path d="M94.4222 74.6019C95.6311 78.6265 97.0237 82.59 98.1714 86.6299C98.4775 87.7164 100.237 87.1808 99.8241 86.1708C98.2479 82.2686 96.9013 78.2593 95.4016 74.3264C95.172 73.7296 94.2386 73.9592 94.4222 74.6019Z" fill="#210B03"/>
<path d="M94.7419 68.7756C95.7213 72.7543 97.3587 76.6565 98.6901 80.5282C99.1186 81.783 101.154 81.1862 100.664 79.9772C99.1186 76.1056 97.7872 72.0045 95.8897 68.2859C95.553 67.6278 94.5736 68.1022 94.7419 68.7756Z" fill="#210B03"/>
<path d="M95.7327 63.5226C96.911 67.3483 98.3189 71.1128 99.4819 74.9385C99.8186 76.025 101.456 75.3976 100.951 74.3264C99.2524 70.7762 97.9516 66.9811 96.6203 63.2778C96.4213 62.7269 95.5644 62.9564 95.7327 63.5226Z" fill="#210B03"/>
<path d="M96.1396 57.9689C97.4557 62.3302 98.9247 66.6456 100.302 70.9763C100.685 72.17 102.597 71.5885 102.154 70.4714C100.44 66.2325 98.8176 61.9477 97.0425 57.7241C96.8282 57.2038 95.9866 57.3874 96.1549 57.9689H96.1396Z" fill="#210B03"/>
<path d="M96.2705 53.1223C97.357 57.3306 98.9638 61.4011 100.693 65.3952C101.183 66.5276 102.958 65.5482 102.376 64.4158C100.479 60.636 98.8873 56.7644 97.2652 52.8621C97.0203 52.2653 96.1021 52.4796 96.2705 53.1376V53.1223Z" fill="#210B03"/>
<path d="M97.2141 50.242C98.4383 53.3638 99.6931 56.455 101.009 59.5462C101.453 60.6021 103.121 59.6839 102.585 58.628C101.086 55.7051 99.5401 52.8129 97.9639 49.936C97.7497 49.5534 97.061 49.8135 97.2294 50.242H97.2141Z" fill="#210B03"/>
<path d="M97.5412 43.2787C98.6124 47.2421 99.7754 51.175 101.229 55.0313C101.688 56.2402 103.417 55.5363 102.867 54.3427C101.183 50.6547 99.7142 46.8902 98.597 42.9879C98.3981 42.3146 97.3575 42.6054 97.5412 43.2787Z" fill="#210B03"/>
<path d="M98.0852 39.6073C98.9422 42.9739 100.044 46.2334 101.299 49.4623C101.743 50.6101 103.426 49.9367 102.875 48.8043C101.391 45.7437 100.182 42.5607 99.1411 39.3165C98.9269 38.6432 97.9169 38.9187 98.0852 39.6073Z" fill="#210B03"/>
<path d="M99.0758 36.5316C100.346 39.3167 101.341 42.2548 102.182 45.193C102.488 46.2489 104.172 45.7592 103.804 44.7492C102.687 41.7498 101.341 38.9188 99.8409 36.0878C99.5655 35.5828 98.8462 36.0266 99.0758 36.5316Z" fill="#210B03"/>
<path d="M99.4861 28.5104C100.404 32.6881 101.506 36.8199 102.654 40.9363C102.975 42.084 104.842 41.5331 104.429 40.4466C102.868 36.4373 101.583 32.382 100.481 28.235C100.312 27.5922 99.3483 27.8677 99.4861 28.5104Z" fill="#210B03"/>
<path d="M100.101 24.5148C101.157 28.2181 102.243 31.9061 103.146 35.6553C103.391 36.6806 105.074 36.2062 104.707 35.2268C103.391 31.6 102.274 27.912 101.111 24.2393C100.912 23.5966 99.917 23.8568 100.101 24.5148Z" fill="#210B03"/>
<path d="M100.676 21.2604C100.752 22.7448 101.487 24.1526 101.931 25.5758C102.451 27.1979 102.895 28.8353 103.293 30.488C103.553 31.5439 105.236 31.1001 104.93 30.0289C104.44 28.2691 103.874 26.5552 103.216 24.8566C102.696 23.5252 102.252 22.0409 101.257 21.0003C101.058 20.786 100.645 20.939 100.661 21.2451L100.676 21.2604Z" fill="#210B03"/>
<path d="M101.325 16.2421C102.182 19.2108 103.162 22.455 104.799 25.1024C105.258 25.8523 106.268 25.1942 105.931 24.4291C104.723 21.5828 103.253 18.9201 102.243 15.9819C102.045 15.4004 101.142 15.6453 101.325 16.2421Z" fill="#210B03"/>
<path d="M101.719 12.9497C102.668 15.0768 103.647 17.1886 104.55 19.3463C104.917 20.2185 106.187 19.6829 105.744 18.8413C104.611 16.7448 103.571 14.6177 102.499 12.4906C102.239 11.9703 101.489 12.4294 101.719 12.9497Z" fill="#210B03"/>
<path d="M101.598 8.26721C102.669 11.2054 104.001 14.0211 105.393 16.8215C105.852 17.7397 107.337 16.8674 106.77 16.0258C105.087 13.5008 103.725 10.8075 102.562 8.00706C102.317 7.44086 101.384 7.6551 101.598 8.26721Z" fill="#210B03"/>
<path d="M97.2218 1.43775C97.4207 2.38653 97.6349 3.33531 97.8645 4.28408C98.0328 5.00332 99.2111 4.68196 98.9663 3.97803C98.6602 3.05986 98.3542 2.14168 98.0175 1.22351C97.8339 0.733822 97.1146 0.917456 97.2218 1.43775Z" fill="#210B03"/>
<path d="M99.2226 2.10399C99.4062 3.03746 99.5746 3.95564 99.7123 4.90441C99.8041 5.56244 100.921 5.28698 100.722 4.62896C100.447 3.72609 100.217 2.82322 100.003 1.88975C99.8806 1.38476 99.1308 1.599 99.2226 2.10399Z" fill="#210B03"/>
<path d="M100.131 5.49915C100.59 6.69277 101.095 7.87109 101.585 9.04941C101.891 9.78395 103.069 9.14123 102.672 8.40669C102.09 7.32019 101.509 6.23369 100.896 5.16249C100.667 4.76461 99.9476 5.02476 100.131 5.48385V5.49915Z" fill="#210B03"/>
<path d="M101.246 1.35094C101.354 4.68696 102.149 8.06889 102.685 11.3743C102.823 12.2466 104.215 11.8946 104.032 11.007C103.389 7.77814 102.96 4.39621 101.904 1.27442C101.782 0.937762 101.231 0.968367 101.246 1.36624V1.35094Z" fill="#210B03"/>
<path d="M102.916 2.89419C102.442 6.59748 103.207 10.867 103.589 14.5703C103.697 15.6721 105.41 15.7027 105.334 14.5703C105.043 10.8058 105.058 6.36794 103.895 2.75646C103.712 2.19026 102.993 2.35859 102.916 2.89419Z" fill="#210B03"/>
<path d="M104.906 4.7484C104.906 8.29867 104.998 11.956 105.396 15.491C105.503 16.3939 106.896 16.4245 106.834 15.491C106.59 11.8948 106.023 8.22215 105.381 4.68719C105.335 4.41174 104.906 4.48826 104.906 4.7484Z" fill="#210B03"/>
<path d="M106.341 7.51595C106.28 9.15335 106.218 10.7908 106.203 12.4282C106.203 13.0862 107.228 13.0862 107.213 12.4282C107.198 10.7908 107.121 9.15335 107.075 7.51595C107.06 7.04156 106.371 7.04156 106.341 7.51595Z" fill="#210B03"/>
<path d="M48.1094 11.6154C47.1453 11.5389 46.7781 12.5489 46.7322 13.3447C46.6709 14.324 48.2931 14.2475 48.14 13.161C48.0788 12.7631 48.3084 12.2735 48.339 11.8603C48.339 11.7225 48.2165 11.6307 48.0941 11.6154H48.1094Z" fill="#210B03"/>
<path d="M47.7017 11.7082C47.3956 12.7029 47.4874 13.7588 47.7782 14.7535C47.9924 15.4727 49.1554 15.1207 48.88 14.4474C48.528 13.5751 48.4668 12.7488 48.4974 11.8306C48.4974 11.3562 47.8241 11.295 47.6863 11.7235L47.7017 11.7082Z" fill="#210B03"/>
<path d="M48.5307 11.8597C48.6378 12.5483 48.8061 13.2676 48.7908 13.9562C48.7908 14.7825 50.1681 14.4765 49.7549 13.696C49.4335 13.0839 49.2499 12.38 49.0357 11.722C48.9285 11.4006 48.4848 11.5383 48.5307 11.8597Z" fill="#210B03"/>
<path d="M48.9584 12.2107C48.7442 12.5473 48.836 12.8534 48.8972 13.2206C49.0809 14.3378 51.0549 13.4655 50.1214 12.5014C49.8613 12.226 49.693 12.027 49.2951 12.0117C49.1574 12.0117 49.0196 12.1035 48.9431 12.2107H48.9584Z" fill="#210B03"/>
<path d="M33.1105 143.468C33.7073 143.285 33.6767 142.55 33.7838 142.045C33.9675 141.249 34.1358 140.484 34.4419 139.734C34.8244 138.786 33.2635 138.357 32.8963 139.306C32.5443 140.209 32.2995 141.142 32.3454 142.122C32.3607 142.489 32.4372 143.683 33.1105 143.468Z" fill="#210B03"/>
<path d="M33.4148 140.709C41.3876 139.393 48.4575 138.842 56.1395 141.887C57.3332 142.361 57.9147 140.372 56.6752 139.928C49.2686 137.296 40.4082 136.546 33.2617 140.311C33.0322 140.433 33.2005 140.739 33.4301 140.693L33.4148 140.709Z" fill="#210B03"/>
<path d="M56.1109 139.137C55.6671 140.56 55.6518 142.014 55.6212 143.498C55.6059 144.447 57.1209 144.447 57.0903 143.498C57.0597 142.014 57.0597 140.56 56.6006 139.137C56.5241 138.892 56.1874 138.892 56.0956 139.137H56.1109Z" fill="#210B03"/>
<path d="M57.1984 144.188C57.535 143.928 57.7952 143.683 58.0553 143.346C58.6675 142.581 57.4738 141.724 57.0147 142.55C56.8005 142.933 56.6628 143.27 56.5404 143.683C56.4485 144.019 56.8617 144.433 57.1831 144.173L57.1984 144.188Z" fill="#210B03"/>
<path d="M23.6395 20.3609C19.8291 39.5813 18.3447 59.2761 15.3454 78.6342C13.9834 87.418 13.157 96.3549 11.4278 105.078C9.89754 112.79 7.90816 119.615 9.00997 127.542C9.07118 127.94 9.74451 127.848 9.6986 127.45C8.658 118.116 11.489 109.102 13.203 100.012C14.7179 91.9936 15.6361 83.8678 16.6155 75.7726C18.8497 57.3173 22.5989 38.9539 24.068 20.4222C24.0833 20.1773 23.6854 20.1161 23.6395 20.3609Z" fill="#210B03"/>
<path d="M98.8435 14.4975C94.4516 31.7438 93.8701 50.1991 91.896 67.8433C89.6771 87.737 86.9838 107.493 84.1527 127.295C84.0303 128.136 85.3158 128.504 85.4382 127.647C91.1768 90.1242 94.0231 52.2344 99.624 14.7118C99.7005 14.2221 98.9812 13.9772 98.8435 14.4975Z" fill="#210B03"/>
</svg>
