<svg width="21" height="24" viewBox="0 0 21 24" fill="none" xmlns="http://www.w3.org/2000/svg">
<path d="M9.75132 7.54715C9.75132 7.54715 4.66942 -0.868312 2.13047 2.32018C1.37634 3.26735 0.83677 3.95667 0.377928 4.28073C0.013147 4.53835 -0.106887 5.02784 0.103231 5.42187C0.428936 6.0328 1.2907 6.15775 2.23178 6.07937C3.77865 5.95044 6.4814 6.54921 7.09373 7.03683C7.70607 7.52445 8.70494 8.20113 9.18835 8.16908C9.67176 8.13702 9.75132 7.54715 9.75132 7.54715Z" fill="#A4AE4D"/>
<path d="M9.75293 7.54714L8.14709 0.324059C8.10849 0.150209 8.24794 -0.0119422 8.4253 0.00069294C8.95644 0.0383643 9.982 0.164716 10.7768 0.588694C11.8993 1.18722 11.1018 1.03233 11.6257 1.78061C12.1496 2.52889 12.2729 2.87167 12.1749 3.38831C12.1127 3.71636 11.3693 6.00027 10.7401 7.11637C10.4205 7.68308 9.75293 7.54737 9.75293 7.54737V7.54714Z" fill="#A4AE4D"/>
<path d="M12.5523 7.13483C8.99012 6.99725 5.57817 8.0841 3.85441 10.7246C2.13089 13.3649 2.09532 17.2956 3.90449 19.8893C5.74641 22.5303 7.46829 24.0156 12.5776 23.9999C14.1806 23.995 16.5637 23.4269 17.794 22.5036C18.521 21.9582 19.9431 20.4887 20.2925 19.6979C21.2974 17.4229 21.0686 13.7077 19.9621 11.471C18.8408 9.20465 16.4968 7.85597 12.5521 7.13483" fill="#F2973E"/>
<path d="M9.50362 15.2093C9.76685 15.2093 10.0189 14.9778 10.0068 14.7061C9.99452 14.4335 9.78564 14.2029 9.50362 14.2029C9.24039 14.2029 8.98834 14.4344 9.00042 14.7061C9.01249 14.9778 9.2216 15.2093 9.50362 15.2093Z" fill="#A45314"/>
<path d="M14.4958 15.0064C14.759 15.0064 15.0111 14.7749 14.999 14.5032C14.9867 14.2306 14.7778 14 14.4958 14C14.2326 14 13.9805 14.2315 13.9926 14.5032C14.0049 14.7758 14.2138 15.0064 14.4958 15.0064Z" fill="#A45314"/>
<path d="M11.0875 16.5348C11.2667 17.0709 11.8227 17.367 12.3672 17.3762C12.6582 17.3811 12.944 17.2894 13.1639 17.0971C13.3616 16.9242 13.4911 16.661 13.536 16.4047C13.5642 16.2443 13.4929 16.0793 13.3251 16.0332C13.1793 15.9932 12.9821 16.0826 12.9536 16.2441C12.925 16.4065 12.8745 16.5353 12.7725 16.6366C12.6777 16.731 12.5231 16.7746 12.3668 16.7721C12.2735 16.7708 12.2134 16.7603 12.1199 16.7336C12.0264 16.707 11.9982 16.6947 11.9195 16.6491C11.8408 16.6035 11.822 16.5856 11.752 16.5151C11.7285 16.4872 11.7243 16.4827 11.7388 16.5017C11.7265 16.4845 11.7149 16.4666 11.7039 16.4483C11.6932 16.4299 11.6831 16.4111 11.6739 16.3919C11.6836 16.4147 11.6822 16.4087 11.6695 16.374C11.6178 16.2195 11.4613 16.1182 11.298 16.1631C11.147 16.2047 11.0352 16.3792 11.0871 16.5346L11.0875 16.5348Z" fill="#A45314"/>
</svg>
