<svg width="32" height="40" viewBox="0 0 32 40" fill="none" xmlns="http://www.w3.org/2000/svg">
<path d="M1.01944 4.63132L1.01944 4.6313C1.10477 3.39068 1.79117 2.26743 2.86106 1.65486C3.29946 1.40386 3.83601 1.21211 4.49101 1.15263L4.49111 1.15262C5.93088 1.02161 11.2844 0.822837 16.4108 0.678877C18.969 0.607039 21.4624 0.549058 23.3707 0.52009C24.3252 0.505601 25.1312 0.498404 25.7249 0.500298C26.0221 0.501246 26.2631 0.504466 26.4417 0.510025C26.5311 0.512811 26.6018 0.516091 26.6544 0.519685C26.6959 0.522517 26.7167 0.524963 26.7232 0.525729C26.726 0.526059 26.7261 0.526077 26.7241 0.52568C26.8052 0.541902 26.8871 0.556224 26.9697 0.570676C27.399 0.645814 27.8484 0.724453 28.3151 1.09172C28.8609 1.52124 29.4841 2.40842 29.8692 4.37673C30.2607 6.37733 31.1524 13.7181 31.4217 20.968C31.5563 24.5916 31.5344 28.1712 31.2215 31.0382C31.0649 32.4727 30.8373 33.711 30.5277 34.6802C30.2131 35.6654 29.8366 36.2979 29.4346 36.6096C29.2689 36.7381 28.868 36.9158 28.196 37.1113C27.5469 37.3 26.7073 37.4885 25.7231 37.6664C23.7562 38.022 21.2424 38.3297 18.5833 38.5151C15.9243 38.7005 13.1299 38.7629 10.6007 38.6308C8.06179 38.4982 5.82847 38.1712 4.27011 37.5972C3.11922 37.1733 2.25019 36.2076 1.94518 35.0181C1.15774 31.9469 -0.272902 23.4131 1.01944 4.63132Z" fill="#F2973E" stroke="#210B03"/>
<path d="M24.5621 3.96563L5.88291 4.92495C4.71357 4.98501 3.81431 5.98163 3.87436 7.15097L5.2135 33.2255C5.27356 34.3949 6.27018 35.2941 7.43952 35.2341L26.1188 34.2748C27.2881 34.2147 28.1874 33.2181 28.1273 32.0487L26.7882 5.97417C26.7281 4.80483 25.7315 3.90558 24.5621 3.96563Z" fill="#FFFEFC"/>
<path d="M15.2003 10.317C17.4924 9.98201 19.8047 9.78451 22.1203 9.72032C22.7775 9.70212 23.435 9.69485 24.0922 9.69823C24.5439 9.70031 24.5444 8.99864 24.0922 8.99656C21.7356 8.98513 19.3788 9.11143 17.0373 9.37702C16.3614 9.45368 15.6867 9.54204 15.0137 9.64053C14.826 9.66808 14.7229 9.90561 14.7686 10.0722C14.8239 10.2733 15.0118 10.3448 15.2003 10.3173V10.317Z" fill="#210B03"/>
<path d="M14.7883 16.3383C17.6179 16.12 20.4474 15.9015 23.2769 15.6832C24.0768 15.6213 24.8765 15.5597 25.6764 15.4979C25.8653 15.4833 26.0272 15.3471 26.0272 15.147C26.0272 14.9685 25.8664 14.7817 25.6764 14.7962C22.8469 15.0145 20.0173 15.2331 17.1878 15.4514C16.3879 15.5132 15.5882 15.5748 14.7883 15.6366C14.5994 15.6512 14.4375 15.7874 14.4375 15.9875C14.4375 16.166 14.5984 16.3529 14.7883 16.3383Z" fill="#210B03"/>
<path d="M15.5269 22.781C17.9611 22.5323 20.4048 22.3771 22.851 22.3174C23.5462 22.3005 24.2416 22.2914 24.937 22.2896C25.3884 22.2885 25.3892 21.5869 24.937 21.5879C22.49 21.5941 20.0435 21.6942 17.6043 21.8896C16.9112 21.9452 16.2187 22.0086 15.5266 22.0793C15.3382 22.0985 15.1758 22.2267 15.1758 22.4301C15.1758 22.605 15.3369 22.8005 15.5266 22.781H15.5269Z" fill="#210B03"/>
<path d="M15.5269 29.1931C17.9611 28.9444 20.4048 28.7892 22.851 28.7295C23.5462 28.7126 24.2416 28.7035 24.937 28.7017C25.3884 28.7006 25.3892 27.999 24.937 28C22.49 28.0062 20.0435 28.1063 17.6043 28.3017C16.9112 28.3573 16.2187 28.4207 15.5266 28.4914C15.3382 28.5107 15.1758 28.6388 15.1758 28.8423C15.1758 29.0172 15.3369 29.2126 15.5266 29.1931H15.5269Z" fill="#210B03"/>
<path d="M10.2177 27.2636C9.7803 27.248 9.32864 27.3286 8.94558 27.5476C8.54875 27.7743 8.27458 28.1409 8.13035 28.5705C7.85774 29.3821 8.08513 30.2688 8.66231 30.8865C8.8949 31.1355 9.20338 31.3028 9.53576 31.3741C10.0017 31.4738 10.503 31.4798 10.9357 31.2607C11.2967 31.0781 11.5566 30.7387 11.72 30.3743C11.8999 29.9731 12.0134 29.5196 12.0293 29.0796C12.0457 28.6181 11.8902 28.1747 11.5519 27.8535C11.2135 27.5323 10.7603 27.3699 10.3112 27.2761C10.1259 27.2373 9.93207 27.3304 9.87958 27.5211C9.83176 27.6952 9.93831 27.9138 10.1246 27.9528C10.3071 27.9907 10.4861 28.0391 10.6602 28.1056C10.7174 28.1274 10.653 28.0991 10.706 28.1256C10.7411 28.1433 10.7767 28.1599 10.8112 28.1786C10.8398 28.1942 10.8679 28.2103 10.8954 28.2275C10.9089 28.2358 10.9222 28.2444 10.9355 28.2532C10.9339 28.2522 11.0103 28.3057 10.9757 28.28C10.9497 28.2607 11.0119 28.3101 11.0225 28.3195C11.0485 28.3423 11.0735 28.3662 11.0974 28.3912C11.1213 28.4161 11.1434 28.4416 11.1652 28.4679C11.1907 28.4985 11.1571 28.4582 11.1548 28.4546C11.1657 28.4707 11.1771 28.4863 11.1878 28.5027C11.2065 28.5313 11.2239 28.5609 11.2403 28.591C11.2468 28.603 11.2816 28.6726 11.2689 28.6446C11.2515 28.6053 11.2785 28.6711 11.2814 28.6802C11.2865 28.6968 11.292 28.7132 11.2967 28.7298C11.3014 28.7464 11.3255 28.8652 11.318 28.8127C11.3687 29.1622 11.291 29.4712 11.1847 29.8091C11.1592 29.8902 11.1304 29.9702 11.1005 30.05C11.0722 30.1253 11.1254 30.0087 11.0914 30.0695C11.0703 30.1069 11.0521 30.1459 11.0306 30.1833C10.9916 30.2516 10.9497 30.3182 10.9051 30.3829C10.8952 30.3969 10.8312 30.4788 10.8668 30.4367C10.845 30.4629 10.8227 30.4887 10.7982 30.5126C10.693 30.6152 10.5402 30.6843 10.3975 30.7181C10.3294 30.7342 10.2736 30.7379 10.1784 30.7374C10.0833 30.7368 9.98691 30.7327 9.89179 30.7238C9.87308 30.722 9.85463 30.7202 9.83592 30.7179C9.77459 30.7108 9.88088 30.7259 9.8224 30.7158C9.78888 30.7101 9.75562 30.7041 9.72261 30.6971C9.6514 30.6817 9.58228 30.6615 9.51367 30.6381C9.43129 30.6103 9.5316 30.6519 9.47885 30.6246C9.45442 30.6118 9.42973 30.6004 9.40582 30.5871C9.37853 30.5721 9.35203 30.556 9.32604 30.5388C9.31512 30.5315 9.30447 30.5237 9.29355 30.5165C9.22313 30.471 9.32838 30.5471 9.292 30.5157C9.24912 30.4785 9.20728 30.4408 9.16803 30.3995C9.14984 30.3803 9.13191 30.3605 9.1145 30.3403C9.09891 30.3223 9.03965 30.2444 9.08409 30.3049C8.99678 30.1864 8.91699 30.064 8.84839 29.9336C8.80577 29.8527 8.74288 29.624 8.72936 29.5107C8.72416 29.4666 8.71845 29.3525 8.71897 29.281C8.71949 29.2348 8.72131 29.1885 8.72494 29.1422C8.72624 29.1246 8.73846 29.0261 8.73326 29.0588C8.76548 28.8564 8.81434 28.701 8.90244 28.5463C8.92713 28.5032 8.95364 28.4608 8.98326 28.4208C9.00743 28.3883 8.98976 28.413 8.98456 28.4193C9.00015 28.4005 9.01627 28.3824 9.03264 28.3647C9.06538 28.3293 9.10099 28.2971 9.13633 28.2641C9.13555 28.2649 9.18051 28.227 9.1566 28.2462C9.13269 28.2654 9.2013 28.2145 9.20806 28.2098C9.27069 28.168 9.38035 28.1079 9.42115 28.09C9.42297 28.0892 9.50561 28.0586 9.5342 28.0492C9.57552 28.0359 9.61762 28.024 9.65972 28.0133C9.85021 27.9658 9.99548 27.9567 10.2179 27.9647C10.4074 27.9715 10.5688 27.7987 10.5688 27.6139C10.5688 27.4182 10.4082 27.2698 10.2179 27.2631L10.2177 27.2636Z" fill="#210B03"/>
<path d="M9.43643 7.89177C8.99905 7.87617 8.54739 7.95674 8.16433 8.17581C7.78127 8.39489 7.49333 8.76911 7.3491 9.19868C7.07649 10.0103 7.30388 10.897 7.88106 11.5147C8.11365 11.7637 8.42213 11.931 8.75451 12.0022C9.22047 12.102 9.72177 12.108 10.1545 11.8889C10.5154 11.7062 10.7753 11.3668 10.9388 11.0025C11.1186 10.6012 11.2322 10.1477 11.248 9.70778C11.2644 9.24624 11.109 8.80289 10.7706 8.48168C10.4323 8.16048 9.97905 7.99806 9.52998 7.90424C9.34469 7.86552 9.15082 7.95855 9.09833 8.1493C9.05051 8.32342 9.15706 8.54198 9.34339 8.58096C9.52972 8.61994 9.70488 8.66724 9.879 8.73376C9.93617 8.75559 9.87172 8.72727 9.92474 8.75377C9.95982 8.77145 9.99542 8.78808 10.03 8.80679C10.0586 8.82238 10.0866 8.83849 10.1142 8.85565C10.1277 8.86396 10.141 8.87254 10.1542 8.88137C10.1526 8.88033 10.2291 8.93387 10.1945 8.90814C10.1685 8.88891 10.2306 8.93829 10.2413 8.94764C10.2673 8.97051 10.2922 8.99442 10.3161 9.01937C10.34 9.04432 10.3621 9.06978 10.3839 9.09603C10.4094 9.1267 10.3759 9.08642 10.3735 9.08278C10.3845 9.09889 10.3959 9.11448 10.4065 9.13085C10.4253 9.15944 10.4427 9.18907 10.459 9.21921C10.4655 9.23117 10.5004 9.30081 10.4876 9.27275C10.4702 9.23351 10.4972 9.29925 10.5001 9.30835C10.5053 9.32498 10.5108 9.34135 10.5154 9.35799C10.5201 9.37462 10.5443 9.49338 10.5367 9.44089C10.5874 9.79042 10.5097 10.0994 10.4034 10.4373C10.378 10.5183 10.3491 10.5984 10.3192 10.6782C10.2909 10.7535 10.3442 10.6368 10.3101 10.6976C10.2891 10.7351 10.2709 10.774 10.2493 10.8115C10.2103 10.8798 10.1685 10.9463 10.1238 11.0111C10.1139 11.0251 10.05 11.107 10.0856 11.0649C10.0638 11.0911 10.0414 11.1168 10.017 11.1407C9.91174 11.2434 9.75893 11.3125 9.61626 11.3463C9.54817 11.3624 9.4923 11.366 9.39719 11.3655C9.30207 11.365 9.20566 11.3608 9.11054 11.352C9.09183 11.3502 9.07338 11.3484 9.05467 11.346C8.99334 11.339 9.09963 11.3541 9.04115 11.344C9.00763 11.3382 8.97437 11.3323 8.94136 11.3252C8.87016 11.3099 8.80103 11.2896 8.73242 11.2663C8.65004 11.2384 8.75035 11.28 8.6976 11.2527C8.67317 11.24 8.64848 11.2286 8.62457 11.2153C8.59728 11.2002 8.57078 11.1841 8.54479 11.167C8.53387 11.1597 8.52322 11.1519 8.51231 11.1446C8.44188 11.0992 8.54713 11.1753 8.51075 11.1439C8.46787 11.1067 8.42603 11.069 8.38678 11.0277C8.36859 11.0085 8.35066 10.9887 8.33325 10.9684C8.31766 10.9505 8.25841 10.8725 8.30284 10.9331C8.21553 10.8146 8.13574 10.6922 8.06714 10.5617C8.02452 10.4809 7.96163 10.2522 7.94811 10.1389C7.94292 10.0947 7.9372 9.98065 7.93772 9.90918C7.93824 9.86292 7.94006 9.81667 7.94369 9.77041C7.94499 9.75274 7.95721 9.65424 7.95201 9.68699C7.98424 9.48455 8.03309 9.32914 8.12119 9.17451C8.14588 9.13137 8.17239 9.08902 8.20201 9.04899C8.22618 9.01651 8.20851 9.0412 8.20331 9.04743C8.2189 9.02872 8.23502 9.01053 8.25139 8.99286C8.28413 8.95752 8.31974 8.92529 8.35508 8.89229C8.3543 8.89307 8.39926 8.85513 8.37535 8.87436C8.35144 8.89359 8.42005 8.84265 8.42681 8.83797C8.48944 8.79613 8.5991 8.7361 8.6399 8.71817C8.64172 8.71739 8.72436 8.68673 8.75295 8.67737C8.79427 8.66412 8.83637 8.65216 8.87847 8.64151C9.06896 8.59395 9.21423 8.58486 9.43669 8.59291C9.62614 8.59967 9.78752 8.42685 9.78752 8.24208C9.78752 8.04639 9.62692 7.898 9.43669 7.89125L9.43643 7.89177Z" fill="#210B03"/>
<path d="M9.43643 14.3429C8.99905 14.3273 8.54739 14.4079 8.16433 14.627C7.78127 14.8461 7.49333 15.2203 7.3491 15.6499C7.07649 16.4614 7.30388 17.3481 7.88106 17.9659C8.11365 18.2148 8.42213 18.3822 8.75451 18.4534C9.22047 18.5532 9.72177 18.5592 10.1545 18.3401C10.5154 18.1574 10.7753 17.818 10.9388 17.4537C11.1186 17.0524 11.2322 16.5989 11.248 16.159C11.2644 15.6974 11.109 15.2541 10.7706 14.9329C10.4323 14.6117 9.97905 14.4492 9.52998 14.3554C9.34469 14.3167 9.15082 14.4097 9.09833 14.6005C9.05051 14.7746 9.15706 14.9931 9.34339 15.0321C9.52972 15.0711 9.70488 15.1184 9.879 15.1849C9.93617 15.2068 9.87172 15.1784 9.92474 15.2049C9.95982 15.2226 9.99542 15.2393 10.03 15.258C10.0586 15.2736 10.0866 15.2897 10.1142 15.3068C10.1277 15.3151 10.141 15.3237 10.1542 15.3325C10.1526 15.3315 10.2291 15.385 10.1945 15.3593C10.1685 15.3401 10.2306 15.3895 10.2413 15.3988C10.2673 15.4217 10.2922 15.4456 10.3161 15.4705C10.34 15.4955 10.3621 15.521 10.3839 15.5472C10.4094 15.5779 10.3759 15.5376 10.3735 15.534C10.3845 15.5501 10.3959 15.5657 10.4065 15.582C10.4253 15.6106 10.4427 15.6402 10.459 15.6704C10.4655 15.6823 10.5004 15.752 10.4876 15.7239C10.4702 15.6847 10.4972 15.7504 10.5001 15.7595C10.5053 15.7762 10.5108 15.7925 10.5154 15.8092C10.5201 15.8258 10.5443 15.9446 10.5367 15.8921C10.5874 16.2416 10.5097 16.5506 10.4034 16.8884C10.378 16.9695 10.3491 17.0495 10.3192 17.1293C10.2909 17.2047 10.3442 17.088 10.3101 17.1488C10.2891 17.1862 10.2709 17.2252 10.2493 17.2626C10.2103 17.331 10.1685 17.3975 10.1238 17.4622C10.1139 17.4763 10.05 17.5581 10.0856 17.516C10.0638 17.5423 10.0414 17.568 10.017 17.5919C9.91174 17.6946 9.75893 17.7637 9.61626 17.7975C9.54817 17.8136 9.4923 17.8172 9.39719 17.8167C9.30207 17.8162 9.20566 17.812 9.11054 17.8032C9.09183 17.8014 9.07338 17.7995 9.05467 17.7972C8.99334 17.7902 9.09963 17.8053 9.04115 17.7951C9.00763 17.7894 8.97437 17.7834 8.94136 17.7764C8.87016 17.7611 8.80103 17.7408 8.73242 17.7174C8.65004 17.6896 8.75035 17.7312 8.6976 17.7039C8.67317 17.6912 8.64848 17.6797 8.62457 17.6665C8.59728 17.6514 8.57078 17.6353 8.54479 17.6182C8.53387 17.6109 8.52322 17.6031 8.51231 17.5958C8.44188 17.5503 8.54713 17.6265 8.51075 17.595C8.46787 17.5579 8.42603 17.5202 8.38678 17.4789C8.36859 17.4596 8.35066 17.4399 8.33325 17.4196C8.31766 17.4017 8.25841 17.3237 8.30284 17.3843C8.21553 17.2658 8.13574 17.1434 8.06714 17.0129C8.02452 16.9321 7.96163 16.7034 7.94811 16.5901C7.94292 16.5459 7.9372 16.4318 7.93772 16.3604C7.93824 16.3141 7.94006 16.2678 7.94369 16.2216C7.94499 16.2039 7.95721 16.1054 7.95201 16.1382C7.98424 15.9357 8.03309 15.7803 8.12119 15.6257C8.14588 15.5825 8.17239 15.5402 8.20201 15.5002C8.22618 15.4677 8.20851 15.4924 8.20331 15.4986C8.2189 15.4799 8.23502 15.4617 8.25139 15.444C8.28413 15.4087 8.31974 15.3765 8.35508 15.3435C8.3543 15.3442 8.39926 15.3063 8.37535 15.3255C8.35144 15.3448 8.42005 15.2938 8.42681 15.2891C8.48944 15.2473 8.5991 15.1873 8.6399 15.1693C8.64172 15.1686 8.72436 15.1379 8.75295 15.1285C8.79427 15.1153 8.83637 15.1033 8.87847 15.0927C9.06896 15.0451 9.21423 15.036 9.43669 15.0441C9.62614 15.0508 9.78752 14.878 9.78752 14.6933C9.78752 14.4976 9.62692 14.3492 9.43669 14.3424L9.43643 14.3429Z" fill="#210B03"/>
<path d="M9.74502 20.7941C9.30765 20.7785 8.85598 20.8591 8.47292 21.0782C8.07609 21.3048 7.80192 21.6715 7.65769 22.101C7.38508 22.9126 7.61247 23.7993 8.18966 24.417C8.42225 24.666 8.73072 24.8334 9.0631 24.9046C9.52906 25.0044 10.0304 25.0103 10.4631 24.7913C10.824 24.6086 11.0839 24.2692 11.2474 23.9048C11.4272 23.5036 11.5408 23.0501 11.5566 22.6101C11.573 22.1486 11.4176 21.7052 11.0792 21.384C10.7409 21.0628 10.2876 20.9004 9.83858 20.8066C9.65328 20.7679 9.45942 20.8609 9.40692 21.0516C9.3591 21.2258 9.46565 21.4443 9.65198 21.4833C9.83442 21.5212 10.0135 21.5696 10.1876 21.6361C10.2448 21.6579 10.1803 21.6296 10.2333 21.6561C10.2684 21.6738 10.304 21.6904 10.3386 21.7091C10.3672 21.7247 10.3952 21.7408 10.4228 21.758C10.4363 21.7663 10.4495 21.7749 10.4628 21.7837C10.4612 21.7827 10.5376 21.8362 10.5031 21.8105C10.4771 21.7913 10.5392 21.8406 10.5499 21.85C10.5758 21.8729 10.6008 21.8968 10.6247 21.9217C10.6486 21.9467 10.6707 21.9721 10.6925 21.9984C10.718 22.029 10.6845 21.9888 10.6821 21.9851C10.6931 22.0012 10.7045 22.0168 10.7151 22.0332C10.7339 22.0618 10.7513 22.0914 10.7676 22.1216C10.7741 22.1335 10.809 22.2032 10.7962 22.1751C10.7788 22.1359 10.8058 22.2016 10.8087 22.2107C10.8139 22.2273 10.8194 22.2437 10.824 22.2603C10.8287 22.277 10.8529 22.3957 10.8453 22.3432C10.896 22.6928 10.8183 23.0018 10.712 23.3396C10.6866 23.4207 10.6577 23.5007 10.6278 23.5805C10.5995 23.6559 10.6528 23.5392 10.6187 23.6C10.5977 23.6374 10.5795 23.6764 10.5579 23.7138C10.5189 23.7822 10.4771 23.8487 10.4324 23.9134C10.4225 23.9274 10.3586 24.0093 10.3942 23.9672C10.3724 23.9934 10.35 24.0192 10.3256 24.0431C10.2203 24.1457 10.0675 24.2149 9.92486 24.2486C9.85677 24.2648 9.80089 24.2684 9.70578 24.2679C9.61066 24.2674 9.51425 24.2632 9.41913 24.2544C9.40042 24.2525 9.38197 24.2507 9.36326 24.2484C9.30193 24.2414 9.40822 24.2564 9.34975 24.2463C9.31622 24.2406 9.28296 24.2346 9.24996 24.2276C9.17875 24.2123 9.10962 24.192 9.04101 24.1686C8.95863 24.1408 9.05895 24.1824 9.00619 24.1551C8.98176 24.1423 8.95707 24.1309 8.93317 24.1177C8.90588 24.1026 8.87937 24.0865 8.85338 24.0693C8.84247 24.062 8.83181 24.0543 8.8209 24.047C8.75047 24.0015 8.85572 24.0776 8.81934 24.0462C8.77646 24.009 8.73462 23.9714 8.69538 23.93C8.67719 23.9108 8.65926 23.8911 8.64184 23.8708C8.62625 23.8528 8.567 23.7749 8.61144 23.8354C8.52412 23.7169 8.44434 23.5945 8.37573 23.4641C8.33311 23.3833 8.27022 23.1546 8.25671 23.0413C8.25151 22.9971 8.24579 22.883 8.24631 22.8115C8.24683 22.7653 8.24865 22.719 8.25229 22.6728C8.25359 22.6551 8.2658 22.5566 8.2606 22.5893C8.29283 22.3869 8.34169 22.2315 8.42978 22.0769C8.45447 22.0337 8.48098 21.9914 8.51061 21.9513C8.53477 21.9189 8.5171 21.9435 8.5119 21.9498C8.5275 21.9311 8.54361 21.9129 8.55998 21.8952C8.59273 21.8599 8.62833 21.8276 8.66367 21.7946C8.66289 21.7954 8.70785 21.7575 8.68394 21.7767C8.66004 21.7959 8.72864 21.745 8.7354 21.7403C8.79803 21.6985 8.9077 21.6384 8.9485 21.6205C8.95032 21.6197 9.03296 21.5891 9.06154 21.5797C9.10287 21.5665 9.14497 21.5545 9.18707 21.5439C9.37755 21.4963 9.52283 21.4872 9.74528 21.4953C9.93473 21.502 10.0961 21.3292 10.0961 21.1444C10.0961 20.9487 9.93551 20.8003 9.74528 20.7936L9.74502 20.7941Z" fill="#210B03"/>
<path d="M7.80082 10.2613C8.19323 10.4648 8.58175 10.6964 8.98716 10.8723C9.24028 10.982 9.49314 10.8996 9.64646 10.6722C9.75016 10.5183 9.80629 10.3182 9.88113 10.1488C10.2182 9.38659 10.6033 8.64542 11.0329 7.93128C11.2785 7.52302 11.5391 7.12411 11.8128 6.7343C11.9217 6.57915 11.8409 6.34422 11.687 6.25431C11.5119 6.15192 11.3162 6.22468 11.207 6.38009C10.646 7.17946 10.1421 8.01808 9.7026 8.89049C9.59189 9.11034 9.48534 9.33202 9.38269 9.55577C9.28004 9.77952 9.19012 10.0243 9.07967 10.2504C9.08747 10.2314 9.08357 10.239 9.06746 10.2738C9.04537 10.3102 9.04381 10.3141 9.06278 10.286C9.13035 10.2265 9.19818 10.2088 9.26653 10.2325L9.17765 10.1862L8.86631 10.0246C8.62905 9.9014 8.39204 9.77848 8.15477 9.6553C7.98663 9.56798 7.77379 9.6119 7.67478 9.78108C7.58252 9.93857 7.6319 10.1735 7.80056 10.2611L7.80082 10.2613Z" fill="#5D6716"/>
<path d="M7.29691 17.4305C7.68933 17.634 8.07784 17.8656 8.48325 18.0415C8.73637 18.1512 8.98923 18.0688 9.14256 17.8414C9.24625 17.6875 9.30238 17.4874 9.37723 17.318C9.71429 16.5558 10.0994 15.8146 10.529 15.1005C10.7746 14.6922 11.0352 14.2933 11.3089 13.9035C11.4178 13.7483 11.337 13.5134 11.1831 13.4235C11.008 13.3211 10.8123 13.3939 10.7031 13.5493C10.142 14.3487 9.63814 15.1873 9.19869 16.0597C9.08798 16.2795 8.98144 16.5012 8.87878 16.725C8.77613 16.9487 8.68622 17.1935 8.57577 17.4196C8.58356 17.4006 8.57967 17.4082 8.56355 17.443C8.54146 17.4794 8.5399 17.4833 8.55888 17.4552C8.62644 17.3957 8.69427 17.378 8.76262 17.4017L8.67374 17.3554L8.36241 17.1938C8.12514 17.0706 7.88813 16.9477 7.65087 16.8245C7.48273 16.7372 7.26989 16.7811 7.17087 16.9503C7.07862 17.1078 7.12799 17.3427 7.29665 17.4303L7.29691 17.4305Z" fill="#5D6716"/>
<path d="M7.80082 23.6334C8.19323 23.8369 8.58175 24.0684 8.98716 24.2444C9.24028 24.354 9.49314 24.2717 9.64646 24.0443C9.75016 23.8904 9.80629 23.6903 9.88113 23.5209C10.2182 22.7587 10.6033 22.0175 11.0329 21.3034C11.2785 20.8951 11.5391 20.4962 11.8128 20.1064C11.9217 19.9512 11.8409 19.7163 11.687 19.6264C11.5119 19.524 11.3162 19.5968 11.207 19.7522C10.646 20.5515 10.1421 21.3902 9.7026 22.2626C9.59189 22.4824 9.48534 22.7041 9.38269 22.9278C9.28004 23.1516 9.19012 23.3964 9.07967 23.6225C9.08747 23.6035 9.08357 23.6111 9.06746 23.6459C9.04537 23.6823 9.04381 23.6862 9.06278 23.6581C9.13035 23.5986 9.19818 23.5809 9.26653 23.6046L9.17765 23.5583C9.07396 23.5045 8.97001 23.4507 8.86631 23.3967C8.62905 23.2735 8.39204 23.1506 8.15477 23.0274C7.98663 22.9401 7.77379 22.984 7.67478 23.1532C7.58252 23.3106 7.6319 23.5456 7.80056 23.6331L7.80082 23.6334Z" fill="#5D6716"/>
</svg>
