<svg width="266" height="245" viewBox="0 0 266 245" fill="none" xmlns="http://www.w3.org/2000/svg">
<g clip-path="url(#clip0_1037_49811)">
<path d="M235.732 139.062C286.725 141.316 259.26 185.573 202.368 179.497C174.326 176.502 159.788 185.899 129.787 186.609C83.5013 187.704 93.6445 166.759 29.2373 174.454C-6.93236 178.777 -11.4807 146.814 27.9093 145.3C40.5871 144.813 55.9226 142.682 120.583 140.916C185.244 139.149 218.468 138.301 235.732 139.063L235.732 139.062Z" fill="#FFD697" fill-opacity="0.5"/>
</g>
<path d="M88.6988 42.4396C88.689 37.8668 85.0793 34.1665 80.6316 34.1738L12.0354 34.3135C7.58764 34.3233 3.99022 38.0384 4.00002 42.6111L4.01717 50.8916L4.03678 61.4927L4.18871 140.776C4.19852 145.348 7.80819 149.049 12.256 149.041L155.888 148.747C160.334 148.738 163.934 145.023 163.924 140.45L163.767 58.8486C163.757 54.2758 160.147 50.5755 155.7 50.5828L96.7661 50.7029C92.3207 50.7127 88.7086 47.0123 88.6988 42.4371V42.4396Z" fill="#A4AE4D"/>
<path d="M151.448 0H16.7578V83.4318H151.448V0Z" fill="#FFD697"/>
<path d="M145.616 6.9248H10.9258V90.3567H145.616V6.9248Z" fill="#FFFEFC"/>
<path d="M145.989 90.734H10.5469V6.5498H145.989V90.734ZM11.2992 89.9817H145.237V7.30213H11.2992V89.9817Z" fill="#210B03"/>
<path d="M88.7081 49.5089C88.6983 44.9362 85.0886 41.2358 80.6408 41.2432L12.0447 41.3829C7.59936 41.3927 4.00194 45.1077 4.01174 49.6805L4.02889 57.9609L4.0485 68.562L4.20043 147.845C4.21023 152.418 7.81991 156.118 12.2677 156.111L155.9 155.817C160.345 155.807 163.945 152.092 163.935 147.519L163.779 65.9179C163.769 61.3451 160.159 57.6448 155.711 57.6521L96.7778 57.7722C92.3325 57.782 88.7203 54.0817 88.7105 49.5065L88.7081 49.5089Z" fill="#A4AE4D"/>
<path d="M59.5416 19.7246H18.0879C17.9458 19.7246 17.8281 19.6094 17.8281 19.4648C17.8281 19.3203 17.9433 19.2051 18.0879 19.2051H59.5416C59.6837 19.2051 59.8014 19.3203 59.8014 19.4648C59.8014 19.6094 59.6862 19.7246 59.5416 19.7246Z" fill="#210B03"/>
<path d="M43.4463 24.9004H18.0879C17.9458 24.9004 17.8281 24.7852 17.8281 24.6406C17.8281 24.496 17.9433 24.3809 18.0879 24.3809H43.4463C43.5884 24.3809 43.7061 24.496 43.7061 24.6406C43.7061 24.7852 43.5909 24.9004 43.4463 24.9004Z" fill="#210B03"/>
<path d="M137.163 24.9004H127.873C127.731 24.9004 127.613 24.7852 127.613 24.6406C127.613 24.496 127.728 24.3809 127.873 24.3809H137.163C137.305 24.3809 137.423 24.496 137.423 24.6406C137.423 24.7852 137.308 24.9004 137.163 24.9004Z" fill="#210B03"/>
<path d="M108.214 19.7246H66.1309C65.9887 19.7246 65.8711 19.6094 65.8711 19.4648C65.8711 19.3203 65.9863 19.2051 66.1309 19.2051H108.214C108.356 19.2051 108.474 19.3203 108.474 19.4648C108.474 19.6094 108.359 19.7246 108.214 19.7246Z" fill="#210B03"/>
<path d="M137.165 19.7246H124.807C124.665 19.7246 124.547 19.6094 124.547 19.4648C124.547 19.3203 124.662 19.2051 124.807 19.2051H137.165C137.307 19.2051 137.425 19.3203 137.425 19.4648C137.425 19.6094 137.309 19.7246 137.165 19.7246Z" fill="#210B03"/>
<path d="M59.5416 30.4414H18.0879C17.9458 30.4414 17.8281 30.3262 17.8281 30.1816C17.8281 30.0371 17.9433 29.9219 18.0879 29.9219H59.5416C59.6837 29.9219 59.8014 30.0371 59.8014 30.1816C59.8014 30.3262 59.6862 30.4414 59.5416 30.4414Z" fill="#210B03"/>
<path d="M113.226 30.4414H66.1309C65.9887 30.4414 65.8711 30.3262 65.8711 30.1816C65.8711 30.0371 65.9863 29.9219 66.1309 29.9219H113.226C113.368 29.9219 113.486 30.0371 113.486 30.1816C113.486 30.3262 113.37 30.4414 113.226 30.4414Z" fill="#210B03"/>
<path d="M137.163 30.4414H129.818C129.676 30.4414 129.559 30.3262 129.559 30.1816C129.559 30.0371 129.674 29.9219 129.818 29.9219H137.163C137.305 29.9219 137.422 30.0371 137.422 30.1816C137.422 30.3262 137.307 30.4414 137.163 30.4414Z" fill="#210B03"/>
<path d="M59.5416 36.8613H18.0879C17.9458 36.8613 17.8281 36.7461 17.8281 36.6016C17.8281 36.457 17.9433 36.3418 18.0879 36.3418H59.5416C59.6837 36.3418 59.8014 36.457 59.8014 36.6016C59.8014 36.7461 59.6862 36.8613 59.5416 36.8613Z" fill="#210B03"/>
<path d="M119.448 36.8613H66.1309C65.9887 36.8613 65.8711 36.7461 65.8711 36.6016C65.8711 36.457 65.9863 36.3418 66.1309 36.3418H119.448C119.59 36.3418 119.708 36.457 119.708 36.6016C119.708 36.7461 119.592 36.8613 119.448 36.8613Z" fill="#210B03"/>
<path d="M137.165 36.8613H132.521C132.379 36.8613 132.262 36.7461 132.262 36.6016C132.262 36.457 132.377 36.3418 132.521 36.3418H137.165C137.307 36.3418 137.425 36.457 137.425 36.6016C137.425 36.7461 137.31 36.8613 137.165 36.8613Z" fill="#210B03"/>
<path d="M110.112 24.9004H53.2519C53.1098 24.9004 52.9922 24.7852 52.9922 24.6406C52.9922 24.496 53.1074 24.3809 53.2519 24.3809H110.112C110.254 24.3809 110.372 24.496 110.372 24.6406C110.372 24.7852 110.257 24.9004 110.112 24.9004Z" fill="#210B03"/>
<path d="M189.526 43.9046C189.526 43.9046 161.191 -0.474267 148.023 16.9374C144.112 22.1097 141.315 25.8727 138.902 27.6692C136.983 29.0973 136.406 31.7343 137.584 33.8159C139.409 37.0434 144.04 37.5972 149.068 37.0516C157.334 36.1544 171.885 38.9988 175.229 41.5277C178.573 44.0567 184.011 47.5462 186.595 47.3099C189.179 47.0736 189.526 43.9046 189.526 43.9046Z" fill="#DBE192"/>
<path d="M189.529 43.9047L179.965 5.44517C179.735 4.51949 180.46 3.63264 181.411 3.67657C184.26 3.80722 189.768 4.34655 194.08 6.51033C200.17 9.56488 195.88 8.84219 198.785 12.7786C201.69 16.715 202.396 18.5339 201.941 21.3132C201.651 23.078 197.976 35.4061 194.757 41.4662C193.121 44.5433 189.529 43.906 189.529 43.906L189.529 43.9047Z" fill="#5D6716"/>
<path d="M204.473 41.3231C185.382 41.0629 167.258 47.3386 158.382 61.7072C149.507 76.0745 149.843 97.1253 159.876 110.771C170.092 124.665 179.51 132.387 206.864 131.62C215.447 131.379 228.13 128.019 234.594 122.91C238.414 119.893 245.832 111.835 247.596 107.554C252.673 95.2382 250.951 75.3766 244.727 63.549C238.42 51.5642 225.689 44.6566 204.472 41.3231" fill="#F2973E"/>
<path d="M189.159 85.663C190.569 85.6278 191.887 84.3547 191.786 82.9014C191.684 81.4433 190.535 80.2367 189.025 80.2744C187.615 80.3096 186.297 81.5827 186.398 83.036C186.499 84.4893 187.649 85.7007 189.159 85.663Z" fill="#A45314"/>
<path d="M215.862 83.9081C217.272 83.8729 218.59 82.5998 218.489 81.1465C218.387 79.6885 217.238 78.4818 215.728 78.5195C214.318 78.5548 213 79.8278 213.101 81.2811C213.203 82.7392 214.352 83.9458 215.862 83.9081Z" fill="#A45314"/>
<path d="M197.822 92.4987C198.832 95.3527 201.837 96.8864 204.754 96.8845C206.313 96.8836 207.835 96.3659 208.994 95.3153C210.036 94.371 210.705 92.9493 210.922 91.5726C211.058 90.7112 210.66 89.834 209.758 89.603C208.973 89.4023 207.925 89.8998 207.788 90.7671C207.65 91.6393 207.392 92.3339 206.855 92.886C206.356 93.4002 205.532 93.6482 204.695 93.6497C204.196 93.6512 203.872 93.6006 203.369 93.4668C202.866 93.333 202.714 93.2698 202.288 93.0328C201.862 92.7959 201.76 92.7018 201.379 92.3311C201.25 92.1836 201.227 92.1601 201.307 92.2605C201.239 92.1694 201.175 92.0747 201.115 91.9775C201.056 91.8803 201 91.7807 200.949 91.6785C201.003 91.7998 200.995 91.7676 200.924 91.5831C200.632 90.7604 199.785 90.2325 198.915 90.4885C198.11 90.7254 197.528 91.67 197.82 92.4975L197.822 92.4987Z" fill="#A45314"/>
<path d="M188.992 125.753C189.917 136.115 191.211 157.091 188.992 158.1" stroke="#F2973E" stroke-width="2" stroke-linecap="round"/>
<path d="M214.969 125.753C215.893 136.115 217.188 157.091 214.969 158.1" stroke="#F2973E" stroke-width="2" stroke-linecap="round"/>
<path d="M162.397 93.5287C154.514 93.9371 138.234 92.818 136.176 85.0742" stroke="#F2973E" stroke-width="2" stroke-linecap="round"/>
<path d="M245.102 90.9551C251.718 92.6705 264.78 96.8609 264.093 99.8996C263.407 102.938 251.146 108.191 245.102 110.437" stroke="#F2973E" stroke-width="2" stroke-linecap="round"/>
<path d="M58.607 220.148V210.348H60.105L66.251 217.894H65.509V210.348H67.315V220.148H65.817L59.671 212.602H60.413V220.148H58.607ZM73.133 220.246C72.3677 220.246 71.6863 220.083 71.089 219.756C70.4917 219.42 70.0203 218.963 69.675 218.384C69.3297 217.806 69.157 217.148 69.157 216.41C69.157 215.664 69.3297 215.006 69.675 214.436C70.0203 213.858 70.4917 213.405 71.089 213.078C71.6863 212.752 72.3677 212.588 73.133 212.588C73.9077 212.588 74.5937 212.752 75.191 213.078C75.7977 213.405 76.269 213.853 76.605 214.422C76.9503 214.992 77.123 215.654 77.123 216.41C77.123 217.148 76.9503 217.806 76.605 218.384C76.269 218.963 75.7977 219.42 75.191 219.756C74.5937 220.083 73.9077 220.246 73.133 220.246ZM73.133 218.748C73.5623 218.748 73.945 218.655 74.281 218.468C74.617 218.282 74.8783 218.011 75.065 217.656C75.261 217.302 75.359 216.886 75.359 216.41C75.359 215.925 75.261 215.51 75.065 215.164C74.8783 214.81 74.617 214.539 74.281 214.352C73.945 214.166 73.567 214.072 73.147 214.072C72.7177 214.072 72.335 214.166 71.999 214.352C71.6723 214.539 71.411 214.81 71.215 215.164C71.019 215.51 70.921 215.925 70.921 216.41C70.921 216.886 71.019 217.302 71.215 217.656C71.411 218.011 71.6723 218.282 71.999 218.468C72.335 218.655 72.713 218.748 73.133 218.748ZM82.9036 220.148V212.252C82.9036 211.468 83.1322 210.843 83.5896 210.376C84.0562 209.9 84.7189 209.662 85.5776 209.662C85.8856 209.662 86.1749 209.695 86.4456 209.76C86.7256 209.826 86.9589 209.928 87.1456 210.068L86.6696 211.384C86.5389 211.282 86.3896 211.207 86.2216 211.16C86.0536 211.104 85.8809 211.076 85.7036 211.076C85.3396 211.076 85.0642 211.179 84.8776 211.384C84.6909 211.58 84.5976 211.879 84.5976 212.28V213.12L84.6536 213.904V220.148H82.9036ZM81.6716 214.128V212.728H86.6556V214.128H81.6716ZM87.8746 220.148V209.76H89.6246V220.148H87.8746ZM96.5274 220.148V218.636L96.4294 218.314V215.668C96.4294 215.155 96.2754 214.758 95.9674 214.478C95.6594 214.189 95.1928 214.044 94.5674 214.044C94.1474 214.044 93.7321 214.11 93.3214 214.24C92.9201 214.371 92.5794 214.553 92.2994 214.786L91.6134 213.512C92.0148 213.204 92.4908 212.976 93.0414 212.826C93.6014 212.668 94.1801 212.588 94.7774 212.588C95.8601 212.588 96.6954 212.85 97.2834 213.372C97.8808 213.886 98.1794 214.684 98.1794 215.766V220.148H96.5274ZM94.1754 220.246C93.6154 220.246 93.1254 220.153 92.7054 219.966C92.2854 219.77 91.9588 219.504 91.7254 219.168C91.5014 218.823 91.3894 218.436 91.3894 218.006C91.3894 217.586 91.4874 217.208 91.6834 216.872C91.8888 216.536 92.2201 216.27 92.6774 216.074C93.1348 215.878 93.7414 215.78 94.4974 215.78H96.6674V216.942H94.6234C94.0261 216.942 93.6248 217.04 93.4194 217.236C93.2141 217.423 93.1114 217.656 93.1114 217.936C93.1114 218.254 93.2374 218.506 93.4894 218.692C93.7414 218.879 94.0914 218.972 94.5394 218.972C94.9688 218.972 95.3514 218.874 95.6874 218.678C96.0328 218.482 96.2801 218.193 96.4294 217.81L96.7234 218.86C96.5554 219.299 96.2521 219.64 95.8134 219.882C95.3841 220.125 94.8381 220.246 94.1754 220.246ZM102.735 220.246C102.11 220.246 101.508 220.167 100.929 220.008C100.36 219.84 99.9073 219.64 99.5713 219.406L100.243 218.076C100.579 218.291 100.981 218.468 101.447 218.608C101.914 218.748 102.381 218.818 102.847 218.818C103.398 218.818 103.795 218.744 104.037 218.594C104.289 218.445 104.415 218.244 104.415 217.992C104.415 217.787 104.331 217.633 104.163 217.53C103.995 217.418 103.776 217.334 103.505 217.278C103.235 217.222 102.931 217.171 102.595 217.124C102.269 217.078 101.937 217.017 101.601 216.942C101.275 216.858 100.976 216.742 100.705 216.592C100.435 216.434 100.215 216.224 100.047 215.962C99.8793 215.701 99.7953 215.356 99.7953 214.926C99.7953 214.45 99.9307 214.04 100.201 213.694C100.472 213.34 100.85 213.069 101.335 212.882C101.83 212.686 102.413 212.588 103.085 212.588C103.589 212.588 104.098 212.644 104.611 212.756C105.125 212.868 105.549 213.027 105.885 213.232L105.213 214.562C104.859 214.348 104.499 214.203 104.135 214.128C103.781 214.044 103.426 214.002 103.071 214.002C102.539 214.002 102.143 214.082 101.881 214.24C101.629 214.399 101.503 214.6 101.503 214.842C101.503 215.066 101.587 215.234 101.755 215.346C101.923 215.458 102.143 215.547 102.413 215.612C102.684 215.678 102.983 215.734 103.309 215.78C103.645 215.818 103.977 215.878 104.303 215.962C104.63 216.046 104.929 216.163 105.199 216.312C105.479 216.452 105.703 216.653 105.871 216.914C106.039 217.176 106.123 217.516 106.123 217.936C106.123 218.403 105.983 218.809 105.703 219.154C105.433 219.5 105.045 219.77 104.541 219.966C104.037 220.153 103.435 220.246 102.735 220.246ZM111.872 212.588C112.47 212.588 113.002 212.705 113.468 212.938C113.944 213.172 114.318 213.531 114.588 214.016C114.859 214.492 114.994 215.108 114.994 215.864V220.148H113.244V216.088C113.244 215.426 113.086 214.931 112.768 214.604C112.46 214.278 112.026 214.114 111.466 214.114C111.056 214.114 110.692 214.198 110.374 214.366C110.057 214.534 109.81 214.786 109.632 215.122C109.464 215.449 109.38 215.864 109.38 216.368V220.148H107.63V209.76H109.38V214.688L109.002 214.072C109.264 213.596 109.642 213.232 110.136 212.98C110.64 212.719 111.219 212.588 111.872 212.588ZM120.658 220.246C119.874 220.246 119.174 220.083 118.558 219.756C117.951 219.42 117.475 218.963 117.13 218.384C116.785 217.806 116.612 217.148 116.612 216.41C116.612 215.664 116.785 215.006 117.13 214.436C117.475 213.858 117.951 213.405 118.558 213.078C119.174 212.752 119.874 212.588 120.658 212.588C121.386 212.588 122.025 212.738 122.576 213.036C123.136 213.326 123.561 213.755 123.85 214.324L122.506 215.108C122.282 214.754 122.007 214.492 121.68 214.324C121.363 214.156 121.017 214.072 120.644 214.072C120.215 214.072 119.827 214.166 119.482 214.352C119.137 214.539 118.866 214.81 118.67 215.164C118.474 215.51 118.376 215.925 118.376 216.41C118.376 216.896 118.474 217.316 118.67 217.67C118.866 218.016 119.137 218.282 119.482 218.468C119.827 218.655 120.215 218.748 120.644 218.748C121.017 218.748 121.363 218.664 121.68 218.496C122.007 218.328 122.282 218.067 122.506 217.712L123.85 218.496C123.561 219.056 123.136 219.49 122.576 219.798C122.025 220.097 121.386 220.246 120.658 220.246ZM129.969 220.148V218.636L129.871 218.314V215.668C129.871 215.155 129.717 214.758 129.409 214.478C129.101 214.189 128.634 214.044 128.009 214.044C127.589 214.044 127.174 214.11 126.763 214.24C126.362 214.371 126.021 214.553 125.741 214.786L125.055 213.512C125.456 213.204 125.932 212.976 126.483 212.826C127.043 212.668 127.622 212.588 128.219 212.588C129.302 212.588 130.137 212.85 130.725 213.372C131.322 213.886 131.621 214.684 131.621 215.766V220.148H129.969ZM127.617 220.246C127.057 220.246 126.567 220.153 126.147 219.966C125.727 219.77 125.4 219.504 125.167 219.168C124.943 218.823 124.831 218.436 124.831 218.006C124.831 217.586 124.929 217.208 125.125 216.872C125.33 216.536 125.662 216.27 126.119 216.074C126.576 215.878 127.183 215.78 127.939 215.78H130.109V216.942H128.065C127.468 216.942 127.066 217.04 126.861 217.236C126.656 217.423 126.553 217.656 126.553 217.936C126.553 218.254 126.679 218.506 126.931 218.692C127.183 218.879 127.533 218.972 127.981 218.972C128.41 218.972 128.793 218.874 129.129 218.678C129.474 218.482 129.722 218.193 129.871 217.81L130.165 218.86C129.997 219.299 129.694 219.64 129.255 219.882C128.826 220.125 128.28 220.246 127.617 220.246ZM133.867 220.148V212.672H135.533V214.73L135.337 214.128C135.561 213.624 135.911 213.242 136.387 212.98C136.872 212.719 137.474 212.588 138.193 212.588V214.254C138.118 214.236 138.048 214.226 137.983 214.226C137.917 214.217 137.852 214.212 137.787 214.212C137.124 214.212 136.597 214.408 136.205 214.8C135.813 215.183 135.617 215.757 135.617 216.522V220.148H133.867ZM142.773 220.246C142.054 220.246 141.406 220.088 140.827 219.77C140.258 219.444 139.81 218.996 139.483 218.426C139.156 217.857 138.993 217.185 138.993 216.41C138.993 215.636 139.156 214.964 139.483 214.394C139.81 213.825 140.258 213.382 140.827 213.064C141.406 212.747 142.054 212.588 142.773 212.588C143.398 212.588 143.958 212.728 144.453 213.008C144.948 213.279 145.34 213.694 145.629 214.254C145.918 214.814 146.063 215.533 146.063 216.41C146.063 217.278 145.923 217.997 145.643 218.566C145.363 219.126 144.976 219.546 144.481 219.826C143.986 220.106 143.417 220.246 142.773 220.246ZM142.983 218.748C143.403 218.748 143.776 218.655 144.103 218.468C144.439 218.282 144.705 218.011 144.901 217.656C145.106 217.302 145.209 216.886 145.209 216.41C145.209 215.925 145.106 215.51 144.901 215.164C144.705 214.81 144.439 214.539 144.103 214.352C143.776 214.166 143.403 214.072 142.983 214.072C142.563 214.072 142.185 214.166 141.849 214.352C141.522 214.539 141.256 214.81 141.051 215.164C140.855 215.51 140.757 215.925 140.757 216.41C140.757 216.886 140.855 217.302 141.051 217.656C141.256 218.011 141.522 218.282 141.849 218.468C142.185 218.655 142.563 218.748 142.983 218.748ZM145.251 220.148V218.384L145.321 216.396L145.181 214.408V209.76H146.917V220.148H145.251ZM156.519 220.246C155.735 220.246 155.035 220.083 154.419 219.756C153.813 219.42 153.337 218.963 152.991 218.384C152.646 217.806 152.473 217.148 152.473 216.41C152.473 215.664 152.646 215.006 152.991 214.436C153.337 213.858 153.813 213.405 154.419 213.078C155.035 212.752 155.735 212.588 156.519 212.588C157.247 212.588 157.887 212.738 158.437 213.036C158.997 213.326 159.422 213.755 159.711 214.324L158.367 215.108C158.143 214.754 157.868 214.492 157.541 214.324C157.224 214.156 156.879 214.072 156.505 214.072C156.076 214.072 155.689 214.166 155.343 214.352C154.998 214.539 154.727 214.81 154.531 215.164C154.335 215.51 154.237 215.925 154.237 216.41C154.237 216.896 154.335 217.316 154.531 217.67C154.727 218.016 154.998 218.282 155.343 218.468C155.689 218.655 156.076 218.748 156.505 218.748C156.879 218.748 157.224 218.664 157.541 218.496C157.868 218.328 158.143 218.067 158.367 217.712L159.711 218.496C159.422 219.056 158.997 219.49 158.437 219.798C157.887 220.097 157.247 220.246 156.519 220.246ZM161.224 220.148V212.672H162.89V214.73L162.694 214.128C162.918 213.624 163.268 213.242 163.744 212.98C164.23 212.719 164.832 212.588 165.55 212.588V214.254C165.476 214.236 165.406 214.226 165.34 214.226C165.275 214.217 165.21 214.212 165.144 214.212C164.482 214.212 163.954 214.408 163.562 214.8C163.17 215.183 162.974 215.757 162.974 216.522V220.148H161.224ZM170.48 220.246C169.65 220.246 168.922 220.083 168.296 219.756C167.68 219.42 167.2 218.963 166.854 218.384C166.518 217.806 166.35 217.148 166.35 216.41C166.35 215.664 166.514 215.006 166.84 214.436C167.176 213.858 167.634 213.405 168.212 213.078C168.8 212.752 169.468 212.588 170.214 212.588C170.942 212.588 171.591 212.747 172.16 213.064C172.73 213.382 173.178 213.83 173.504 214.408C173.831 214.987 173.994 215.668 173.994 216.452C173.994 216.527 173.99 216.611 173.98 216.704C173.98 216.798 173.976 216.886 173.966 216.97H167.736V215.808H173.042L172.356 216.172C172.366 215.743 172.277 215.365 172.09 215.038C171.904 214.712 171.647 214.455 171.32 214.268C171.003 214.082 170.634 213.988 170.214 213.988C169.785 213.988 169.407 214.082 169.08 214.268C168.763 214.455 168.511 214.716 168.324 215.052C168.147 215.379 168.058 215.766 168.058 216.214V216.494C168.058 216.942 168.161 217.339 168.366 217.684C168.572 218.03 168.861 218.296 169.234 218.482C169.608 218.669 170.037 218.762 170.522 218.762C170.942 218.762 171.32 218.697 171.656 218.566C171.992 218.436 172.291 218.23 172.552 217.95L173.49 219.028C173.154 219.42 172.73 219.724 172.216 219.938C171.712 220.144 171.134 220.246 170.48 220.246ZM180.076 220.148V218.636L179.978 218.314V215.668C179.978 215.155 179.824 214.758 179.516 214.478C179.208 214.189 178.742 214.044 178.116 214.044C177.696 214.044 177.281 214.11 176.87 214.24C176.469 214.371 176.128 214.553 175.848 214.786L175.162 213.512C175.564 213.204 176.04 212.976 176.59 212.826C177.15 212.668 177.729 212.588 178.326 212.588C179.409 212.588 180.244 212.85 180.832 213.372C181.43 213.886 181.728 214.684 181.728 215.766V220.148H180.076ZM177.724 220.246C177.164 220.246 176.674 220.153 176.254 219.966C175.834 219.77 175.508 219.504 175.274 219.168C175.05 218.823 174.938 218.436 174.938 218.006C174.938 217.586 175.036 217.208 175.232 216.872C175.438 216.536 175.769 216.27 176.226 216.074C176.684 215.878 177.29 215.78 178.046 215.78H180.216V216.942H178.172C177.575 216.942 177.174 217.04 176.968 217.236C176.763 217.423 176.66 217.656 176.66 217.936C176.66 218.254 176.786 218.506 177.038 218.692C177.29 218.879 177.64 218.972 178.088 218.972C178.518 218.972 178.9 218.874 179.236 218.678C179.582 218.482 179.829 218.193 179.978 217.81L180.272 218.86C180.104 219.299 179.801 219.64 179.362 219.882C178.933 220.125 178.387 220.246 177.724 220.246ZM186.788 220.246C185.967 220.246 185.332 220.036 184.884 219.616C184.436 219.187 184.212 218.557 184.212 217.726V211.02H185.962V217.684C185.962 218.039 186.051 218.314 186.228 218.51C186.415 218.706 186.672 218.804 186.998 218.804C187.39 218.804 187.717 218.702 187.978 218.496L188.468 219.742C188.263 219.91 188.011 220.036 187.712 220.12C187.414 220.204 187.106 220.246 186.788 220.246ZM182.98 214.128V212.728H187.964V214.128H182.98ZM193.176 220.246C192.345 220.246 191.617 220.083 190.992 219.756C190.376 219.42 189.895 218.963 189.55 218.384C189.214 217.806 189.046 217.148 189.046 216.41C189.046 215.664 189.209 215.006 189.536 214.436C189.872 213.858 190.329 213.405 190.908 213.078C191.496 212.752 192.163 212.588 192.91 212.588C193.638 212.588 194.286 212.747 194.856 213.064C195.425 213.382 195.873 213.83 196.2 214.408C196.526 214.987 196.69 215.668 196.69 216.452C196.69 216.527 196.685 216.611 196.676 216.704C196.676 216.798 196.671 216.886 196.662 216.97H190.432V215.808H195.738L195.052 216.172C195.061 215.743 194.972 215.365 194.786 215.038C194.599 214.712 194.342 214.455 194.016 214.268C193.698 214.082 193.33 213.988 192.91 213.988C192.48 213.988 192.102 214.082 191.776 214.268C191.458 214.455 191.206 214.716 191.02 215.052C190.842 215.379 190.754 215.766 190.754 216.214V216.494C190.754 216.942 190.856 217.339 191.062 217.684C191.267 218.03 191.556 218.296 191.93 218.482C192.303 218.669 192.732 218.762 193.218 218.762C193.638 218.762 194.016 218.697 194.352 218.566C194.688 218.436 194.986 218.23 195.248 217.95L196.186 219.028C195.85 219.42 195.425 219.724 194.912 219.938C194.408 220.144 193.829 220.246 193.176 220.246ZM201.535 220.246C200.816 220.246 200.167 220.088 199.589 219.77C199.019 219.444 198.571 218.996 198.245 218.426C197.918 217.857 197.755 217.185 197.755 216.41C197.755 215.636 197.918 214.964 198.245 214.394C198.571 213.825 199.019 213.382 199.589 213.064C200.167 212.747 200.816 212.588 201.535 212.588C202.16 212.588 202.72 212.728 203.215 213.008C203.709 213.279 204.101 213.694 204.391 214.254C204.68 214.814 204.825 215.533 204.825 216.41C204.825 217.278 204.685 217.997 204.405 218.566C204.125 219.126 203.737 219.546 203.243 219.826C202.748 220.106 202.179 220.246 201.535 220.246ZM201.745 218.748C202.165 218.748 202.538 218.655 202.865 218.468C203.201 218.282 203.467 218.011 203.663 217.656C203.868 217.302 203.971 216.886 203.971 216.41C203.971 215.925 203.868 215.51 203.663 215.164C203.467 214.81 203.201 214.539 202.865 214.352C202.538 214.166 202.165 214.072 201.745 214.072C201.325 214.072 200.947 214.166 200.611 214.352C200.284 214.539 200.018 214.81 199.813 215.164C199.617 215.51 199.519 215.925 199.519 216.41C199.519 216.886 199.617 217.302 199.813 217.656C200.018 218.011 200.284 218.282 200.611 218.468C200.947 218.655 201.325 218.748 201.745 218.748ZM204.013 220.148V218.384L204.083 216.396L203.943 214.408V209.76H205.679V220.148H204.013Z" fill="#210B03"/>
<path d="M60.7366 240.208C60.21 240.208 59.7233 240.122 59.2766 239.948C58.83 239.768 58.4433 239.518 58.1166 239.198C57.79 238.878 57.5333 238.502 57.3466 238.068C57.1666 237.635 57.0766 237.162 57.0766 236.648C57.0766 236.135 57.1666 235.662 57.3466 235.228C57.5333 234.795 57.79 234.418 58.1166 234.098C58.45 233.778 58.84 233.532 59.2866 233.358C59.7333 233.178 60.22 233.088 60.7466 233.088C61.2533 233.088 61.73 233.175 62.1766 233.348C62.6233 233.515 63 233.768 63.3066 234.108L62.8366 234.578C62.55 234.285 62.2333 234.075 61.8866 233.948C61.54 233.815 61.1666 233.748 60.7666 233.748C60.3466 233.748 59.9566 233.822 59.5966 233.968C59.2366 234.108 58.9233 234.312 58.6566 234.578C58.39 234.838 58.18 235.145 58.0266 235.498C57.88 235.845 57.8066 236.228 57.8066 236.648C57.8066 237.068 57.88 237.455 58.0266 237.808C58.18 238.155 58.39 238.462 58.6566 238.728C58.9233 238.988 59.2366 239.192 59.5966 239.338C59.9566 239.478 60.3466 239.548 60.7666 239.548C61.1666 239.548 61.54 239.482 61.8866 239.348C62.2333 239.215 62.55 239.002 62.8366 238.708L63.3066 239.178C63 239.518 62.6233 239.775 62.1766 239.948C61.73 240.122 61.25 240.208 60.7366 240.208ZM64.7341 240.148V234.898H65.4141V236.328L65.3441 236.078C65.4908 235.678 65.7375 235.375 66.0841 235.168C66.4308 234.955 66.8608 234.848 67.3741 234.848V235.538C67.3475 235.538 67.3208 235.538 67.2941 235.538C67.2675 235.532 67.2408 235.528 67.2141 235.528C66.6608 235.528 66.2275 235.698 65.9141 236.038C65.6008 236.372 65.4441 236.848 65.4441 237.468V240.148H64.7341ZM70.8509 240.198C70.3042 240.198 69.8242 240.085 69.4109 239.858C68.9975 239.625 68.6742 239.308 68.4409 238.908C68.2075 238.502 68.0909 238.038 68.0909 237.518C68.0909 236.998 68.2009 236.538 68.4209 236.138C68.6475 235.738 68.9542 235.425 69.3409 235.198C69.7342 234.965 70.1742 234.848 70.6609 234.848C71.1542 234.848 71.5909 234.962 71.9709 235.188C72.3575 235.408 72.6609 235.722 72.8809 236.128C73.1009 236.528 73.2109 236.992 73.2109 237.518C73.2109 237.552 73.2075 237.588 73.2009 237.628C73.2009 237.662 73.2009 237.698 73.2009 237.738H68.6309V237.208H72.8209L72.5409 237.418C72.5409 237.038 72.4575 236.702 72.2909 236.408C72.1309 236.108 71.9109 235.875 71.6309 235.708C71.3509 235.542 71.0275 235.458 70.6609 235.458C70.3009 235.458 69.9775 235.542 69.6909 235.708C69.4042 235.875 69.1809 236.108 69.0209 236.408C68.8609 236.708 68.7809 237.052 68.7809 237.438V237.548C68.7809 237.948 68.8675 238.302 69.0409 238.608C69.2209 238.908 69.4675 239.145 69.7809 239.318C70.1009 239.485 70.4642 239.568 70.8709 239.568C71.1909 239.568 71.4875 239.512 71.7609 239.398C72.0409 239.285 72.2809 239.112 72.4809 238.878L72.8809 239.338C72.6475 239.618 72.3542 239.832 72.0009 239.978C71.6542 240.125 71.2709 240.198 70.8509 240.198ZM77.7995 240.148V238.988L77.7695 238.798V236.858C77.7695 236.412 77.6429 236.068 77.3895 235.828C77.1429 235.588 76.7729 235.468 76.2795 235.468C75.9395 235.468 75.6162 235.525 75.3095 235.638C75.0029 235.752 74.7429 235.902 74.5295 236.088L74.2095 235.558C74.4762 235.332 74.7962 235.158 75.1695 235.038C75.5429 234.912 75.9362 234.848 76.3495 234.848C77.0295 234.848 77.5529 235.018 77.9195 235.358C78.2929 235.692 78.4795 236.202 78.4795 236.888V240.148H77.7995ZM75.9895 240.198C75.5962 240.198 75.2529 240.135 74.9595 240.008C74.6729 239.875 74.4529 239.695 74.2995 239.468C74.1462 239.235 74.0695 238.968 74.0695 238.668C74.0695 238.395 74.1329 238.148 74.2595 237.928C74.3929 237.702 74.6062 237.522 74.8995 237.388C75.1995 237.248 75.5995 237.178 76.0995 237.178H77.9095V237.708H76.1195C75.6129 237.708 75.2595 237.798 75.0595 237.978C74.8662 238.158 74.7695 238.382 74.7695 238.648C74.7695 238.948 74.8862 239.188 75.1195 239.368C75.3529 239.548 75.6795 239.638 76.0995 239.638C76.4995 239.638 76.8429 239.548 77.1295 239.368C77.4229 239.182 77.6362 238.915 77.7695 238.568L77.9295 239.058C77.7962 239.405 77.5629 239.682 77.2295 239.888C76.9029 240.095 76.4895 240.198 75.9895 240.198ZM82.068 240.198C81.5746 240.198 81.1946 240.065 80.928 239.798C80.6613 239.532 80.528 239.155 80.528 238.668V233.738H81.238V238.628C81.238 238.935 81.3146 239.172 81.468 239.338C81.628 239.505 81.8546 239.588 82.148 239.588C82.4613 239.588 82.7213 239.498 82.928 239.318L83.178 239.828C83.038 239.955 82.868 240.048 82.668 240.108C82.4746 240.168 82.2746 240.198 82.068 240.198ZM79.588 235.488V234.898H82.838V235.488H79.588ZM86.5149 240.198C85.9683 240.198 85.4883 240.085 85.0749 239.858C84.6616 239.625 84.3383 239.308 84.1049 238.908C83.8716 238.502 83.7549 238.038 83.7549 237.518C83.7549 236.998 83.8649 236.538 84.0849 236.138C84.3116 235.738 84.6183 235.425 85.0049 235.198C85.3983 234.965 85.8383 234.848 86.3249 234.848C86.8183 234.848 87.2549 234.962 87.6349 235.188C88.0216 235.408 88.3249 235.722 88.5449 236.128C88.7649 236.528 88.8749 236.992 88.8749 237.518C88.8749 237.552 88.8716 237.588 88.8649 237.628C88.8649 237.662 88.8649 237.698 88.8649 237.738H84.2949V237.208H88.4849L88.2049 237.418C88.2049 237.038 88.1216 236.702 87.9549 236.408C87.7949 236.108 87.5749 235.875 87.2949 235.708C87.0149 235.542 86.6916 235.458 86.3249 235.458C85.9649 235.458 85.6416 235.542 85.3549 235.708C85.0683 235.875 84.8449 236.108 84.6849 236.408C84.5249 236.708 84.4449 237.052 84.4449 237.438V237.548C84.4449 237.948 84.5316 238.302 84.7049 238.608C84.8849 238.908 85.1316 239.145 85.4449 239.318C85.7649 239.485 86.1283 239.568 86.5349 239.568C86.8549 239.568 87.1516 239.512 87.4249 239.398C87.7049 239.285 87.9449 239.112 88.1449 238.878L88.5449 239.338C88.3116 239.618 88.0183 239.832 87.6649 239.978C87.3183 240.125 86.9349 240.198 86.5149 240.198ZM92.9773 242.138C92.7306 242.138 92.4939 242.098 92.2673 242.018C92.0473 241.938 91.8573 241.818 91.6973 241.658L92.0273 241.128C92.1606 241.255 92.3039 241.352 92.4573 241.418C92.6173 241.492 92.7939 241.528 92.9873 241.528C93.2206 241.528 93.4206 241.462 93.5873 241.328C93.7606 241.202 93.9239 240.975 94.0773 240.648L94.4173 239.878L94.4973 239.768L96.6573 234.898H97.3573L94.7273 240.778C94.5806 241.118 94.4173 241.388 94.2373 241.588C94.0639 241.788 93.8739 241.928 93.6673 242.008C93.4606 242.095 93.2306 242.138 92.9773 242.138ZM94.3773 240.298L91.9573 234.898H92.6973L94.8373 239.718L94.3773 240.298ZM100.351 240.198C99.844 240.198 99.3874 240.085 98.9807 239.858C98.5807 239.625 98.264 239.308 98.0307 238.908C97.7974 238.502 97.6807 238.038 97.6807 237.518C97.6807 236.992 97.7974 236.528 98.0307 236.128C98.264 235.728 98.5807 235.415 98.9807 235.188C99.3807 234.962 99.8374 234.848 100.351 234.848C100.871 234.848 101.331 234.962 101.731 235.188C102.137 235.415 102.454 235.728 102.681 236.128C102.914 236.528 103.031 236.992 103.031 237.518C103.031 238.038 102.914 238.502 102.681 238.908C102.454 239.308 102.137 239.625 101.731 239.858C101.324 240.085 100.864 240.198 100.351 240.198ZM100.351 239.568C100.731 239.568 101.067 239.485 101.361 239.318C101.654 239.145 101.884 238.905 102.051 238.598C102.224 238.285 102.311 237.925 102.311 237.518C102.311 237.105 102.224 236.745 102.051 236.438C101.884 236.132 101.654 235.895 101.361 235.728C101.067 235.555 100.734 235.468 100.361 235.468C99.9874 235.468 99.654 235.555 99.3607 235.728C99.0674 235.895 98.834 236.132 98.6607 236.438C98.4874 236.745 98.4007 237.105 98.4007 237.518C98.4007 237.925 98.4874 238.285 98.6607 238.598C98.834 238.905 99.0674 239.145 99.3607 239.318C99.654 239.485 99.984 239.568 100.351 239.568ZM106.65 240.198C106.204 240.198 105.814 240.115 105.48 239.948C105.147 239.782 104.887 239.532 104.7 239.198C104.52 238.865 104.43 238.448 104.43 237.948V234.898H105.14V237.868C105.14 238.428 105.277 238.852 105.55 239.138C105.83 239.418 106.22 239.558 106.72 239.558C107.087 239.558 107.404 239.485 107.67 239.338C107.944 239.185 108.15 238.965 108.29 238.678C108.437 238.392 108.51 238.048 108.51 237.648V234.898H109.22V240.148H108.54V238.708L108.65 238.968C108.484 239.355 108.224 239.658 107.87 239.878C107.524 240.092 107.117 240.198 106.65 240.198ZM111.199 240.148V234.898H111.879V236.328L111.809 236.078C111.956 235.678 112.202 235.375 112.549 235.168C112.896 234.955 113.326 234.848 113.839 234.848V235.538C113.812 235.538 113.786 235.538 113.759 235.538C113.732 235.532 113.706 235.528 113.679 235.528C113.126 235.528 112.692 235.698 112.379 236.038C112.066 236.372 111.909 236.848 111.909 237.468V240.148H111.199ZM117.95 240.148V234.238C117.95 233.772 118.087 233.395 118.36 233.108C118.633 232.822 119.027 232.678 119.54 232.678C119.74 232.678 119.933 232.705 120.12 232.758C120.307 232.812 120.463 232.895 120.59 233.008L120.35 233.538C120.25 233.452 120.133 233.388 120 233.348C119.867 233.302 119.723 233.278 119.57 233.278C119.27 233.278 119.04 233.362 118.88 233.528C118.72 233.695 118.64 233.942 118.64 234.268V235.068L118.66 235.398V240.148H117.95ZM117.01 235.488V234.898H120.26V235.488H117.01ZM121.219 240.148V234.898H121.929V240.148H121.219ZM121.579 233.738C121.432 233.738 121.309 233.688 121.209 233.588C121.109 233.488 121.059 233.368 121.059 233.228C121.059 233.088 121.109 232.972 121.209 232.878C121.309 232.778 121.432 232.728 121.579 232.728C121.725 232.728 121.849 232.775 121.949 232.868C122.049 232.962 122.099 233.078 122.099 233.218C122.099 233.365 122.049 233.488 121.949 233.588C121.855 233.688 121.732 233.738 121.579 233.738ZM123.904 240.148V234.898H124.584V236.328L124.514 236.078C124.661 235.678 124.907 235.375 125.254 235.168C125.601 234.955 126.031 234.848 126.544 234.848V235.538C126.517 235.538 126.491 235.538 126.464 235.538C126.437 235.532 126.411 235.528 126.384 235.528C125.831 235.528 125.397 235.698 125.084 236.038C124.771 236.372 124.614 236.848 124.614 237.468V240.148H123.904ZM129.308 240.198C128.875 240.198 128.465 240.138 128.078 240.018C127.692 239.892 127.388 239.735 127.168 239.548L127.488 238.988C127.702 239.148 127.975 239.288 128.308 239.408C128.642 239.522 128.992 239.578 129.358 239.578C129.858 239.578 130.218 239.502 130.438 239.348C130.658 239.188 130.768 238.978 130.768 238.718C130.768 238.525 130.705 238.375 130.578 238.268C130.458 238.155 130.298 238.072 130.098 238.018C129.898 237.958 129.675 237.908 129.428 237.868C129.182 237.828 128.935 237.782 128.688 237.728C128.448 237.675 128.228 237.598 128.028 237.498C127.828 237.392 127.665 237.248 127.538 237.068C127.418 236.888 127.358 236.648 127.358 236.348C127.358 236.062 127.438 235.805 127.598 235.578C127.758 235.352 127.992 235.175 128.298 235.048C128.612 234.915 128.992 234.848 129.438 234.848C129.778 234.848 130.118 234.895 130.458 234.988C130.798 235.075 131.078 235.192 131.298 235.338L130.988 235.908C130.755 235.748 130.505 235.635 130.238 235.568C129.972 235.495 129.705 235.458 129.438 235.458C128.965 235.458 128.615 235.542 128.388 235.708C128.168 235.868 128.058 236.075 128.058 236.328C128.058 236.528 128.118 236.685 128.238 236.798C128.365 236.912 128.528 237.002 128.728 237.068C128.935 237.128 129.158 237.178 129.398 237.218C129.645 237.258 129.888 237.308 130.128 237.368C130.375 237.422 130.598 237.498 130.798 237.598C131.005 237.692 131.168 237.828 131.288 238.008C131.415 238.182 131.478 238.412 131.478 238.698C131.478 239.005 131.392 239.272 131.218 239.498C131.052 239.718 130.805 239.892 130.478 240.018C130.158 240.138 129.768 240.198 129.308 240.198ZM134.441 240.198C133.948 240.198 133.568 240.065 133.301 239.798C133.034 239.532 132.901 239.155 132.901 238.668V233.738H133.611V238.628C133.611 238.935 133.688 239.172 133.841 239.338C134.001 239.505 134.228 239.588 134.521 239.588C134.834 239.588 135.094 239.498 135.301 239.318L135.551 239.828C135.411 239.955 135.241 240.048 135.041 240.108C134.848 240.168 134.648 240.198 134.441 240.198ZM131.961 235.488V234.898H135.211V235.488H131.961ZM139.581 240.148V234.238C139.581 233.772 139.717 233.395 139.991 233.108C140.264 232.822 140.657 232.678 141.171 232.678C141.371 232.678 141.564 232.705 141.751 232.758C141.937 232.812 142.094 232.895 142.221 233.008L141.981 233.538C141.881 233.452 141.764 233.388 141.631 233.348C141.497 233.302 141.354 233.278 141.201 233.278C140.901 233.278 140.671 233.362 140.511 233.528C140.351 233.695 140.271 233.942 140.271 234.268V235.068L140.291 235.398V240.148H139.581ZM138.641 235.488V234.898H141.891V235.488H138.641ZM142.849 240.148V232.728H143.559V240.148H142.849ZM148.825 240.148V238.988L148.795 238.798V236.858C148.795 236.412 148.668 236.068 148.415 235.828C148.168 235.588 147.798 235.468 147.305 235.468C146.965 235.468 146.642 235.525 146.335 235.638C146.028 235.752 145.768 235.902 145.555 236.088L145.235 235.558C145.502 235.332 145.822 235.158 146.195 235.038C146.568 234.912 146.962 234.848 147.375 234.848C148.055 234.848 148.578 235.018 148.945 235.358C149.318 235.692 149.505 236.202 149.505 236.888V240.148H148.825ZM147.015 240.198C146.622 240.198 146.278 240.135 145.985 240.008C145.698 239.875 145.478 239.695 145.325 239.468C145.172 239.235 145.095 238.968 145.095 238.668C145.095 238.395 145.158 238.148 145.285 237.928C145.418 237.702 145.632 237.522 145.925 237.388C146.225 237.248 146.625 237.178 147.125 237.178H148.935V237.708H147.145C146.638 237.708 146.285 237.798 146.085 237.978C145.892 238.158 145.795 238.382 145.795 238.648C145.795 238.948 145.912 239.188 146.145 239.368C146.378 239.548 146.705 239.638 147.125 239.638C147.525 239.638 147.868 239.548 148.155 239.368C148.448 239.182 148.662 238.915 148.795 238.568L148.955 239.058C148.822 239.405 148.588 239.682 148.255 239.888C147.928 240.095 147.515 240.198 147.015 240.198ZM152.843 240.198C152.41 240.198 152 240.138 151.613 240.018C151.227 239.892 150.923 239.735 150.703 239.548L151.023 238.988C151.237 239.148 151.51 239.288 151.843 239.408C152.177 239.522 152.527 239.578 152.893 239.578C153.393 239.578 153.753 239.502 153.973 239.348C154.193 239.188 154.303 238.978 154.303 238.718C154.303 238.525 154.24 238.375 154.113 238.268C153.993 238.155 153.833 238.072 153.633 238.018C153.433 237.958 153.21 237.908 152.963 237.868C152.717 237.828 152.47 237.782 152.223 237.728C151.983 237.675 151.763 237.598 151.563 237.498C151.363 237.392 151.2 237.248 151.073 237.068C150.953 236.888 150.893 236.648 150.893 236.348C150.893 236.062 150.973 235.805 151.133 235.578C151.293 235.352 151.527 235.175 151.833 235.048C152.147 234.915 152.527 234.848 152.973 234.848C153.313 234.848 153.653 234.895 153.993 234.988C154.333 235.075 154.613 235.192 154.833 235.338L154.523 235.908C154.29 235.748 154.04 235.635 153.773 235.568C153.507 235.495 153.24 235.458 152.973 235.458C152.5 235.458 152.15 235.542 151.923 235.708C151.703 235.868 151.593 236.075 151.593 236.328C151.593 236.528 151.653 236.685 151.773 236.798C151.9 236.912 152.063 237.002 152.263 237.068C152.47 237.128 152.693 237.178 152.933 237.218C153.18 237.258 153.423 237.308 153.663 237.368C153.91 237.422 154.133 237.498 154.333 237.598C154.54 237.692 154.703 237.828 154.823 238.008C154.95 238.182 155.013 238.412 155.013 238.698C155.013 239.005 154.927 239.272 154.753 239.498C154.587 239.718 154.34 239.892 154.013 240.018C153.693 240.138 153.303 240.198 152.843 240.198ZM158.996 234.848C159.423 234.848 159.796 234.932 160.116 235.098C160.443 235.258 160.696 235.505 160.876 235.838C161.063 236.172 161.156 236.592 161.156 237.098V240.148H160.446V237.168C160.446 236.615 160.306 236.198 160.026 235.918C159.753 235.632 159.366 235.488 158.866 235.488C158.493 235.488 158.166 235.565 157.886 235.718C157.613 235.865 157.4 236.082 157.246 236.368C157.1 236.648 157.026 236.988 157.026 237.388V240.148H156.316V232.728H157.026V236.338L156.886 236.068C157.053 235.688 157.32 235.392 157.686 235.178C158.053 234.958 158.49 234.848 158.996 234.848ZM165.254 240.198C164.734 240.198 164.267 240.085 163.854 239.858C163.447 239.625 163.127 239.308 162.894 238.908C162.661 238.502 162.544 238.038 162.544 237.518C162.544 236.992 162.661 236.528 162.894 236.128C163.127 235.728 163.447 235.415 163.854 235.188C164.267 234.962 164.734 234.848 165.254 234.848C165.701 234.848 166.104 234.935 166.464 235.108C166.824 235.282 167.107 235.542 167.314 235.888L166.784 236.248C166.604 235.982 166.381 235.785 166.114 235.658C165.847 235.532 165.557 235.468 165.244 235.468C164.871 235.468 164.534 235.555 164.234 235.728C163.934 235.895 163.697 236.132 163.524 236.438C163.351 236.745 163.264 237.105 163.264 237.518C163.264 237.932 163.351 238.292 163.524 238.598C163.697 238.905 163.934 239.145 164.234 239.318C164.534 239.485 164.871 239.568 165.244 239.568C165.557 239.568 165.847 239.505 166.114 239.378C166.381 239.252 166.604 239.058 166.784 238.798L167.314 239.158C167.107 239.498 166.824 239.758 166.464 239.938C166.104 240.112 165.701 240.198 165.254 240.198ZM171.999 240.148V238.988L171.969 238.798V236.858C171.969 236.412 171.842 236.068 171.589 235.828C171.342 235.588 170.972 235.468 170.479 235.468C170.139 235.468 169.815 235.525 169.509 235.638C169.202 235.752 168.942 235.902 168.729 236.088L168.409 235.558C168.675 235.332 168.995 235.158 169.369 235.038C169.742 234.912 170.135 234.848 170.549 234.848C171.229 234.848 171.752 235.018 172.119 235.358C172.492 235.692 172.679 236.202 172.679 236.888V240.148H171.999ZM170.189 240.198C169.795 240.198 169.452 240.135 169.159 240.008C168.872 239.875 168.652 239.695 168.499 239.468C168.345 239.235 168.269 238.968 168.269 238.668C168.269 238.395 168.332 238.148 168.459 237.928C168.592 237.702 168.805 237.522 169.099 237.388C169.399 237.248 169.799 237.178 170.299 237.178H172.109V237.708H170.319C169.812 237.708 169.459 237.798 169.259 237.978C169.065 238.158 168.969 238.382 168.969 238.648C168.969 238.948 169.085 239.188 169.319 239.368C169.552 239.548 169.879 239.638 170.299 239.638C170.699 239.638 171.042 239.548 171.329 239.368C171.622 239.182 171.835 238.915 171.969 238.568L172.129 239.058C171.995 239.405 171.762 239.682 171.429 239.888C171.102 240.095 170.689 240.198 170.189 240.198ZM174.607 240.148V234.898H175.287V236.328L175.217 236.078C175.364 235.678 175.611 235.375 175.957 235.168C176.304 234.955 176.734 234.848 177.247 234.848V235.538C177.221 235.538 177.194 235.538 177.167 235.538C177.141 235.532 177.114 235.528 177.087 235.528C176.534 235.528 176.101 235.698 175.787 236.038C175.474 236.372 175.317 236.848 175.317 237.468V240.148H174.607ZM180.584 240.198C180.084 240.198 179.634 240.085 179.234 239.858C178.841 239.632 178.531 239.318 178.304 238.918C178.077 238.512 177.964 238.045 177.964 237.518C177.964 236.985 178.077 236.518 178.304 236.118C178.531 235.718 178.841 235.408 179.234 235.188C179.634 234.962 180.084 234.848 180.584 234.848C181.044 234.848 181.454 234.952 181.814 235.158C182.181 235.365 182.471 235.668 182.684 236.068C182.904 236.462 183.014 236.945 183.014 237.518C183.014 238.085 182.907 238.568 182.694 238.968C182.481 239.368 182.191 239.675 181.824 239.888C181.464 240.095 181.051 240.198 180.584 240.198ZM180.634 239.568C181.007 239.568 181.341 239.485 181.634 239.318C181.934 239.145 182.167 238.905 182.334 238.598C182.507 238.285 182.594 237.925 182.594 237.518C182.594 237.105 182.507 236.745 182.334 236.438C182.167 236.132 181.934 235.895 181.634 235.728C181.341 235.555 181.007 235.468 180.634 235.468C180.267 235.468 179.937 235.555 179.644 235.728C179.351 235.895 179.117 236.132 178.944 236.438C178.771 236.745 178.684 237.105 178.684 237.518C178.684 237.925 178.771 238.285 178.944 238.598C179.117 238.905 179.351 239.145 179.644 239.318C179.937 239.485 180.267 239.568 180.634 239.568ZM182.614 240.148V238.568L182.684 237.508L182.584 236.448V232.728H183.294V240.148H182.614ZM190.568 234.848C190.995 234.848 191.368 234.932 191.688 235.098C192.015 235.258 192.268 235.505 192.448 235.838C192.635 236.172 192.728 236.592 192.728 237.098V240.148H192.018V237.168C192.018 236.615 191.878 236.198 191.598 235.918C191.325 235.632 190.938 235.488 190.438 235.488C190.065 235.488 189.738 235.565 189.458 235.718C189.185 235.865 188.972 236.082 188.818 236.368C188.672 236.648 188.598 236.988 188.598 237.388V240.148H187.888V234.898H188.568V236.338L188.458 236.068C188.625 235.688 188.892 235.392 189.258 235.178C189.625 234.958 190.062 234.848 190.568 234.848ZM196.786 240.198C196.28 240.198 195.823 240.085 195.416 239.858C195.016 239.625 194.7 239.308 194.466 238.908C194.233 238.502 194.116 238.038 194.116 237.518C194.116 236.992 194.233 236.528 194.466 236.128C194.7 235.728 195.016 235.415 195.416 235.188C195.816 234.962 196.273 234.848 196.786 234.848C197.306 234.848 197.766 234.962 198.166 235.188C198.573 235.415 198.89 235.728 199.116 236.128C199.35 236.528 199.466 236.992 199.466 237.518C199.466 238.038 199.35 238.502 199.116 238.908C198.89 239.308 198.573 239.625 198.166 239.858C197.76 240.085 197.3 240.198 196.786 240.198ZM196.786 239.568C197.166 239.568 197.503 239.485 197.796 239.318C198.09 239.145 198.32 238.905 198.486 238.598C198.66 238.285 198.746 237.925 198.746 237.518C198.746 237.105 198.66 236.745 198.486 236.438C198.32 236.132 198.09 235.895 197.796 235.728C197.503 235.555 197.17 235.468 196.796 235.468C196.423 235.468 196.09 235.555 195.796 235.728C195.503 235.895 195.27 236.132 195.096 236.438C194.923 236.745 194.836 237.105 194.836 237.518C194.836 237.925 194.923 238.285 195.096 238.598C195.27 238.905 195.503 239.145 195.796 239.318C196.09 239.485 196.42 239.568 196.786 239.568ZM201.839 240.148L199.859 234.898H200.539L202.339 239.768H202.029L203.879 234.898H204.489L206.319 239.768H206.009L207.839 234.898H208.489L206.499 240.148H205.829L204.069 235.568H204.279L202.509 240.148H201.839Z" fill="#210B03" fill-opacity="0.7"/>
<defs>
<clipPath id="clip0_1037_49811">
<rect width="262.525" height="46" fill="white" transform="translate(0 142.152) rotate(-0.712759)"/>
</clipPath>
</defs>
</svg>
