<svg width="320" height="396" viewBox="0 0 320 396" fill="none" xmlns="http://www.w3.org/2000/svg">
<rect width="320" height="396" fill="#FDF1D6"/>
<g clip-path="url(#clip0_778_14551)">
<path d="M138.751 252.828C136.14 256.084 133.526 259.331 130.943 262.613C130.763 262.839 130.763 263.319 130.853 263.625C133.054 270.922 131.532 277.438 126.564 283.123C125.738 284.069 124.604 284.764 123.203 285.174C121.356 285.719 119.676 284.733 119.171 282.871C118.729 281.243 119.027 279.67 119.498 278.115C120.553 274.674 122.366 271.597 124.28 268.591C125.492 266.685 126.817 264.856 128.124 262.933C127.348 262.235 126.034 262.031 125.133 262.47C123.422 263.295 122.733 264.022 121.604 265.065C118.059 268.339 115.446 272.333 113.438 276.676C111.943 279.907 110.682 283.243 109.32 286.534C109.2 286.82 109.105 287.124 108.975 287.386C108.773 287.796 108.503 288.029 108.128 287.943C107.751 287.922 107.671 287.353 107.654 287.046C107.626 286.541 107.7 286.014 107.846 285.534C110.092 277.927 113.314 270.82 118.775 264.928C119.974 263.636 121.386 262.511 122.83 261.494C124.907 260.039 127.122 259.731 129.338 261.414C131.933 258.404 134.489 255.437 137.089 252.417C135.884 252.88 134.744 253.32 133.595 253.762C133.402 253.836 133.219 253.934 133.02 253.992C132.482 254.153 131.832 254.524 131.493 253.787C131.16 253.067 131.856 252.79 132.311 252.605C134.61 251.655 136.927 250.726 139.27 249.889C140.228 249.548 140.927 249.998 140.869 250.998C140.729 253.893 140.453 256.794 140.163 259.682C140.137 259.95 139.86 260.453 139.316 260.404C138.898 260.325 138.696 259.776 138.698 259.471C138.717 257.628 138.818 255.781 138.9 253.933C138.912 253.606 138.94 253.272 138.961 252.941C139.083 252.396 138.957 252.573 138.751 252.828ZM129.57 264.7C129.483 264.402 129.195 264.946 129.141 265.022C126.329 269.001 123.648 273.058 121.896 277.634C121.426 278.858 121.153 280.208 121.076 281.519C120.982 283.262 122.224 283.973 123.724 283.055C124.694 282.46 125.646 281.697 126.343 280.801C129.319 277.008 130.667 271.334 130.226 267.842C130.045 266.51 129.916 266.172 129.57 264.7Z" fill="black"/>
</g>
<path d="M28.916 248.132C28.916 248.132 2.68901 195.996 -13.7983 213.706C-18.6955 218.967 -22.2047 222.8 -25.0688 224.508C-27.3458 225.866 -28.2804 228.708 -27.2171 231.137C-25.5689 234.902 -20.5254 236.036 -14.9194 236.003C-5.70467 235.948 10.0185 240.729 13.4196 243.895C16.8208 247.062 22.4233 251.524 25.2992 251.556C28.1751 251.587 28.916 248.132 28.916 248.132Z" fill="#A4AE4D"/>
<path d="M28.9204 248.134L22.722 204.647C22.5731 203.6 23.4727 202.704 24.5167 202.86C27.6432 203.326 33.6555 204.544 38.166 207.417C44.5355 211.473 39.8866 210.192 42.6449 214.86C45.4032 219.529 45.9762 221.614 45.1594 224.628C44.6408 226.541 39.1955 239.719 34.9605 246.037C32.8093 249.245 28.9203 248.136 28.9203 248.136L28.9204 248.134Z" fill="#5D6716"/>
<path d="M45.685 246.975C24.6639 244.531 3.97148 249.402 -7.43994 264.242C-18.8499 279.08 -20.8596 302.329 -11.3387 318.509C-1.64546 334.984 7.86629 344.564 38.1146 346.809C47.605 347.514 61.9705 345.242 69.675 340.341C74.2277 337.445 83.3179 329.399 85.7476 324.878C92.7372 311.872 93.0834 289.778 87.5579 276.033C81.9588 262.105 68.702 253.049 45.6836 246.975" fill="#F2973E"/>
<path d="M20.0499 288.496C20.7888 291.303 23.5386 293.006 26.3258 293.234C27.8149 293.357 29.31 292.982 30.5006 292.07C31.5713 291.251 32.3227 289.945 32.6386 288.647C32.8365 287.835 32.5261 286.965 31.6821 286.673C30.9483 286.419 29.9078 286.812 29.7083 287.63C29.5074 288.452 29.2055 289.095 28.6491 289.58C28.1317 290.032 27.3253 290.204 26.5252 290.139C26.0478 290.101 25.7431 290.027 25.273 289.86C24.8029 289.692 24.6626 289.62 24.2745 289.36C23.8864 289.1 23.7961 289.002 23.461 288.617C23.35 288.466 23.3297 288.442 23.3978 288.544C23.3406 288.452 23.2869 288.356 23.2369 288.259C23.188 288.161 23.1427 288.061 23.1022 287.96C23.1438 288.08 23.139 288.048 23.0852 287.867C22.8722 287.058 22.1039 286.486 21.2523 286.662C20.465 286.825 19.8338 287.681 20.0477 288.495L20.0499 288.496Z" fill="#A45314"/>
<path d="M46.4367 290.141C47.1755 292.948 49.9253 294.651 52.7125 294.879C54.2016 295.002 55.6967 294.627 56.8873 293.715C57.958 292.896 58.7094 291.59 59.0253 290.292C59.2233 289.48 58.9128 288.61 58.0688 288.318C57.3351 288.064 56.2945 288.457 56.0951 289.275C55.8942 290.097 55.5922 290.74 55.0358 291.225C54.5184 291.677 53.7121 291.849 52.9119 291.784C52.4345 291.746 52.1298 291.672 51.6597 291.505C51.1896 291.337 51.0493 291.265 50.6612 291.005C50.2731 290.745 50.1828 290.647 49.8477 290.262C49.7367 290.111 49.7164 290.087 49.7845 290.189C49.7273 290.097 49.6737 290.001 49.6236 289.904C49.5748 289.806 49.5295 289.706 49.4889 289.605C49.5306 289.725 49.5257 289.694 49.472 289.512C49.2589 288.703 48.4906 288.131 47.6391 288.307C46.8517 288.47 46.2205 289.326 46.4344 290.14L46.4367 290.141Z" fill="#A45314"/>
<path d="M32.7079 302.494C33.575 305.788 36.802 307.786 40.0729 308.055C41.8205 308.198 43.5751 307.759 44.9724 306.689C46.2289 305.727 47.1106 304.195 47.4814 302.671C47.7137 301.718 47.3494 300.698 46.3589 300.355C45.4978 300.057 44.2766 300.518 44.0426 301.477C43.8068 302.442 43.4524 303.197 42.7995 303.766C42.1923 304.297 41.246 304.498 40.307 304.422C39.7467 304.378 39.3891 304.291 38.8374 304.094C38.2858 303.898 38.1211 303.813 37.6657 303.507C37.2102 303.202 37.1042 303.087 36.7109 302.636C36.5807 302.459 36.5569 302.43 36.6369 302.55C36.5696 302.442 36.5067 302.33 36.448 302.215C36.3907 302.101 36.3375 301.984 36.2899 301.865C36.3388 302.006 36.3331 301.969 36.27 301.755C36.02 300.806 35.1183 300.135 34.119 300.342C33.195 300.533 32.4543 301.538 32.7053 302.493L32.7079 302.494Z" fill="#A45314"/>
<path d="M36.4235 341.601C34.9442 352.695 32.9398 373.873 35.3043 379.334M35.3043 379.334C35.6039 380.026 35.9736 380.466 36.4235 380.601C40.4235 381.801 37.344 380.257 35.3043 379.334Z" stroke="#F2973E" stroke-width="7.4995"/>
<path d="M110.668 282.498L113.946 284.319C114.255 283.762 114.418 283.136 114.418 282.498H110.668ZM80.9978 307.529C86.0406 305.616 93.3405 302.147 99.3948 298.709C102.417 296.993 105.244 295.219 107.36 293.592C108.407 292.787 109.399 291.928 110.165 291.05C110.772 290.355 111.918 288.906 111.918 286.999H104.418C104.418 285.966 104.975 285.591 104.515 286.119C104.213 286.464 103.658 286.978 102.789 287.647C101.072 288.967 98.586 290.544 95.6912 292.188C89.9121 295.47 82.962 298.763 78.3381 300.517L80.9978 307.529ZM111.918 286.999C111.918 285.851 112.317 284.975 112.499 284.713C112.534 284.662 112.491 284.739 112.34 284.871C112.266 284.934 111.729 285.412 110.78 285.54C110.234 285.614 109.535 285.569 108.826 285.232C108.119 284.895 107.653 284.388 107.376 283.941C106.896 283.168 106.918 282.505 106.918 282.498H114.418C114.418 281.992 114.362 280.976 113.746 279.983C113.4 279.426 112.851 278.842 112.049 278.46C111.245 278.077 110.438 278.019 109.775 278.108C108.592 278.268 107.781 278.896 107.414 279.215C106.97 279.602 106.614 280.039 106.337 280.438C105.269 281.978 104.418 284.351 104.418 286.999H111.918ZM107.39 280.677L104.89 285.178L111.446 288.82L113.946 284.319L107.39 280.677Z" fill="#F2973E"/>
<path d="M13.8766 337.601C12.3973 348.695 10.3929 369.873 12.7574 375.334M12.7574 375.334C13.057 376.026 13.4268 376.466 13.8766 376.601C17.8766 377.801 14.7972 376.256 12.7574 375.334Z" stroke="#F2973E" stroke-width="7.4995"/>
<g clip-path="url(#clip1_778_14551)">
<path d="M309.23 342.086C308.503 340.587 307.677 339.05 307.022 337.434C306.771 336.819 306.644 335.821 306.979 335.396C307.325 334.963 308.346 334.765 308.971 334.909C311.168 335.401 313.332 336.026 315.473 336.732C316.311 337.005 316.859 336.838 317.537 336.395C319.8 334.887 322.072 333.392 324.391 332C324.957 331.656 326.041 331.394 326.399 331.686C326.868 332.07 327.11 333.076 327.002 333.75C326.705 335.595 326.23 337.422 325.736 339.235C325.506 340.07 325.282 340.268 326.504 340.805C327.874 341.409 329.274 341.964 330.581 342.696C331.039 342.95 331.544 343.648 331.521 344.123C331.508 344.599 330.954 345.329 330.492 345.489C328.602 346.131 326.67 346.639 324.726 347.091C323.986 347.259 323.589 347.482 323.358 348.253C322.42 351.505 321.402 354.723 320.403 357.954C320.315 358.238 319.738 360.304 318.516 360.096C317.988 360.011 317.49 359.931 316.899 358.847C315.402 355.862 313.997 352.829 312.638 349.781C312.278 348.979 311.905 348.653 310.987 348.739C308.912 348.947 306.829 349.069 304.744 349.137C304.232 349.15 303.387 349.376 303.19 348.621C303.006 348.113 303.512 347.61 303.854 347.271C305.579 345.539 307.37 343.86 309.23 342.086ZM322.713 341.694C320.754 340.985 318.96 340.303 317.144 339.692C316.883 339.596 316.468 339.668 316.23 339.821C314.743 340.804 313.278 341.845 311.77 342.888C312.273 343.99 312.66 344.957 313.162 345.867C313.308 346.146 313.783 346.435 314.085 346.409C316.408 346.177 318.72 345.89 321.027 345.56C321.32 345.522 321.731 345.216 321.827 344.955C322.171 343.936 322.405 342.878 322.713 341.694ZM318.36 356.838C319.306 353.609 320.151 350.736 321.037 347.741C318.737 348.03 316.61 348.294 314.298 348.581C315.66 351.352 316.934 353.94 318.36 356.838ZM324.806 334.045C322.724 335.422 320.938 336.602 318.94 337.918C320.538 338.494 321.884 338.987 323.341 339.509C323.823 337.705 324.261 336.042 324.806 334.045ZM314.23 338.574C312.373 338.019 310.812 337.545 308.894 336.97C309.669 338.499 310.285 339.693 310.908 340.91C311.998 340.15 312.982 339.457 314.23 338.574ZM328.386 343.842C327.253 343.415 326.12 342.988 324.917 342.538C324.675 343.446 324.482 344.181 324.235 345.119C325.794 344.753 328.392 343.938 328.386 343.842ZM307.192 346.618C307.23 346.709 309.823 346.722 311.209 346.637C310.817 345.766 310.504 345.067 310.134 344.263C309.058 345.132 308.13 345.875 307.192 346.618Z" fill="#210B03"/>
<path d="M289.863 366.595C288.674 365.723 287.479 364.892 286.338 363.985C284.903 362.861 285.054 361.588 286.793 361.028C288.611 360.438 290.502 359.988 292.392 359.739C293.349 359.606 294.364 359.248 294.364 359.248C294.364 359.248 295.1 358.176 295.309 357.805C296.17 356.285 297.208 354.857 298.224 353.436C299.338 351.872 300.659 351.989 301.39 353.787C301.985 355.244 302.363 356.793 302.877 358.418C304.7 358.393 306.605 358.38 308.516 358.337C309.422 358.323 310.533 358.29 310.687 359.314C310.789 360.001 310.305 361.029 309.747 361.523C308.452 362.697 307.002 363.708 305.532 364.652C304.63 365.23 304.352 365.77 304.601 366.863C305.088 369.057 305.418 371.301 305.675 373.533C305.748 374.14 305.49 375.077 305.06 375.37C304.62 375.66 303.648 375.557 303.111 375.258C301.004 374.078 298.934 372.799 296.932 371.434C296.088 370.862 295.517 370.908 294.7 371.425C292.687 372.696 290.649 373.931 288.553 375.061C288.029 375.339 287.243 375.531 286.605 375.205C286.022 374.994 286.349 373.888 286.569 373.381C287.57 371.128 288.697 368.949 289.863 366.595ZM292.541 366.08C293.558 366.764 294.421 367.414 295.354 367.958C295.636 368.12 296.178 368.122 296.469 367.967C298.009 367.12 299.515 366.224 300.996 365.282C301.267 365.114 301.596 364.986 301.5 364.332C301.347 363.233 301.054 362.144 300.791 360.943C299.005 361.134 297.309 361.297 295.633 361.537C295.328 361.584 295.222 361.513 294.806 362.18C294.026 363.394 293.339 364.688 292.541 366.08ZM297.802 369.596C299.61 370.653 301.223 371.593 303.1 372.683C302.726 370.581 302.41 368.849 302.066 366.954C300.625 367.849 299.326 368.65 297.802 369.596ZM296.619 359.048C298.014 358.9 299.108 358.779 300.341 358.648C300.056 357.379 299.812 356.255 299.476 354.776C298.425 356.35 297.6 357.579 296.619 359.048ZM289.436 371.822C289.491 371.873 292.419 370.335 293.943 369.453C293.093 368.859 292.396 368.364 291.603 367.811C290.842 369.23 290.133 370.53 289.436 371.822ZM303.854 363.052C305.028 362.231 306.216 361.391 307.437 360.545C306.107 360.618 304.764 360.7 303.306 360.773C303.515 361.658 303.702 362.411 303.854 363.052ZM292.685 361.881C290.959 362.231 289.62 362.493 287.982 362.825C289.096 363.632 289.952 364.259 290.896 364.932C291.468 363.961 291.982 363.076 292.685 361.881Z" fill="#210B03"/>
<path d="M291.686 333.944C293.622 333.607 295.503 333.218 297.394 332.97C297.947 332.9 298.86 333.046 299.032 333.361C299.419 334.062 299.119 334.736 298.769 335.127C297.117 336.998 295.38 338.803 293.59 340.546C292.86 341.247 292.525 341.874 292.695 342.932C293 344.736 293.183 346.573 293.26 348.404C293.287 349.026 293.02 349.961 292.573 350.229C292.137 350.489 291.197 350.252 290.664 349.932C289.37 349.182 288.142 348.293 286.959 347.379C286.193 346.788 285.618 346.791 284.758 347.312C283.263 348.209 281.664 348.962 280.054 349.649C278.673 350.234 277.911 349.75 278.235 348.399C278.434 347.623 278.6 346.788 278.884 346.015C279.194 345.15 279.967 343.318 279.977 343.128C278.798 342.46 277.527 341.83 276.354 341.056C275.856 340.72 275.222 340.034 275.283 339.586C275.351 339.033 275.977 338.315 276.533 338.097C278.473 337.346 283.622 335.878 283.622 335.878C284.29 334.699 285.226 332.584 285.855 331.388C286.511 330.154 287.167 328.92 287.851 327.711C288.118 327.244 288.775 326.658 289.183 326.703C289.622 326.752 290.205 327.42 290.348 327.922C290.866 329.856 291.229 331.828 291.686 333.944ZM282.572 342.398C283.559 343.003 284.398 343.542 285.265 344.033C285.49 344.154 285.888 344.261 286.044 344.148C287.358 343.19 288.647 342.185 289.915 341.177C290.023 341.098 290.072 340.862 290.054 340.71C289.884 339.321 289.702 337.942 289.517 336.519C288.012 336.882 286.71 337.173 285.43 337.53C285.063 337.63 284.608 337.876 284.453 338.181C283.79 339.521 283.227 340.908 282.572 342.398ZM292.267 339.248C293.868 337.762 296.516 334.987 296.446 334.891C294.931 335.253 293.407 335.603 291.837 335.978C291.975 337.032 292.1 337.977 292.267 339.248ZM285.802 335.282C287.131 334.954 288.171 334.707 289.289 334.43C289.072 332.938 288.875 331.524 288.622 329.792C287.63 331.727 286.779 333.377 285.802 335.282ZM287.484 345.507C288.705 346.31 289.783 347.015 291.051 347.857C290.823 346.236 290.634 344.898 290.421 343.449C289.391 344.166 288.528 344.771 287.484 345.507ZM282.275 338.298C280.664 338.794 279.355 339.2 277.711 339.701C278.981 340.394 279.911 340.895 280.88 341.413C281.332 340.39 281.728 339.518 282.275 338.298ZM280.322 347.193C280.414 347.282 282.838 346.226 284.134 345.51C283.221 344.969 282.56 344.586 281.802 344.145C281.274 345.241 280.798 346.217 280.322 347.193Z" fill="#210B03"/>
</g>
<defs>
<clipPath id="clip0_778_14551">
<rect width="49.5776" height="49.5776" fill="white" transform="translate(92.668 255.812) rotate(-21.0564)"/>
</clipPath>
<clipPath id="clip1_778_14551">
<rect width="60.4738" height="60.4738" fill="white" transform="translate(276.613 318) rotate(9.14818)"/>
</clipPath>
</defs>
</svg>
