<svg width="320" height="289" viewBox="0 0 320 289" fill="none" xmlns="http://www.w3.org/2000/svg">
<rect width="320" height="289" fill="#5D6716"/>
<mask id="mask0_954_12845" style="mask-type:alpha" maskUnits="userSpaceOnUse" x="0" y="0" width="320" height="289">
<rect width="320" height="289" fill="#5D6716"/>
</mask>
<g mask="url(#mask0_954_12845)">
<path d="M276.746 218.403C276.746 218.403 244.962 177.321 233.573 195.599C230.19 201.028 227.777 204.973 225.566 206.953C223.808 208.527 223.475 211.169 224.817 213.109C226.898 216.118 231.497 216.25 236.388 215.267C244.429 213.651 258.978 215.151 262.488 217.339C265.998 219.526 271.651 222.471 274.169 222.009C276.687 221.547 276.746 218.403 276.746 218.403Z" fill="#A4AE4D"/>
<path d="M276.746 218.404L263.93 181.469C263.622 180.58 264.255 179.644 265.194 179.603C268.004 179.478 273.464 179.518 277.893 181.26C284.148 183.72 279.868 183.391 283.072 187C286.277 190.61 287.132 192.334 286.931 195.105C286.804 196.864 284.29 209.303 281.665 215.543C280.332 218.712 276.746 218.405 276.746 218.405L276.746 218.404Z" fill="#DBE192"/>
<path d="M291.198 214.538C272.418 215.979 255.171 223.756 247.728 238.662C240.286 253.567 242.487 274.218 253.558 286.732C264.83 299.475 274.769 306.224 301.576 303.038C309.986 302.039 322.149 297.61 328.045 292.016C331.529 288.712 338.101 280.136 339.454 275.773C343.346 263.222 339.889 243.862 332.722 232.795C325.461 221.581 312.339 215.926 291.197 214.538" fill="#F2973E"/>
<path d="M280.114 258.767C281.496 258.607 282.678 257.239 282.449 255.82C282.219 254.397 280.983 253.313 279.503 253.485C278.121 253.645 276.939 255.012 277.167 256.431C277.396 257.85 278.634 258.938 280.114 258.767Z" fill="#A45314"/>
<path d="M278.723 255.995C279.244 255.935 279.69 255.419 279.604 254.884C279.517 254.348 279.051 253.939 278.493 254.004C277.972 254.064 277.526 254.58 277.612 255.115C277.698 255.65 278.165 256.06 278.723 255.995Z" fill="#FFFEFC"/>
<path d="M281.108 258.012C281.386 257.979 281.624 257.704 281.578 257.419C281.532 257.132 281.283 256.914 280.985 256.949C280.707 256.981 280.469 257.256 280.515 257.542C280.561 257.827 280.81 258.046 281.108 258.012Z" fill="#FFFEFC"/>
<path d="M264.994 272.264C268.052 271.91 270.669 268.882 270.163 265.741C269.654 262.59 266.917 260.192 263.64 260.571C260.582 260.925 257.965 263.954 258.471 267.094C258.976 270.235 261.717 272.643 264.994 272.264Z" fill="#FEB167"/>
<path d="M306.184 254.67C307.566 254.51 308.748 253.142 308.52 251.723C308.289 250.3 307.053 249.217 305.573 249.388C304.191 249.548 303.009 250.916 303.238 252.335C303.468 253.758 304.704 254.841 306.184 254.67Z" fill="#A45314"/>
<path d="M289.225 264.596C290.421 267.332 293.487 268.628 296.357 268.419C297.89 268.308 299.351 267.69 300.417 266.575C301.376 265.572 301.933 264.125 302.049 262.755C302.121 261.898 301.668 261.063 300.764 260.9C299.977 260.758 298.982 261.322 298.908 262.185C298.834 263.053 298.629 263.755 298.14 264.336C297.686 264.877 296.893 265.18 296.069 265.241C295.578 265.278 295.256 265.251 294.752 265.155C294.247 265.059 294.093 265.007 293.657 264.804C293.222 264.602 293.114 264.516 292.713 264.179C292.576 264.042 292.552 264.021 292.637 264.114C292.564 264.029 292.494 263.941 292.428 263.849C292.363 263.758 292.301 263.664 292.244 263.567C292.305 263.682 292.295 263.651 292.212 263.475C291.867 262.686 290.995 262.227 290.157 262.54C289.383 262.83 288.877 263.801 289.223 264.595L289.225 264.596Z" fill="#A45314"/>
<path d="M305.176 251.856C305.697 251.795 306.143 251.279 306.057 250.745C305.97 250.208 305.504 249.8 304.946 249.864C304.425 249.924 303.979 250.44 304.065 250.975C304.151 251.51 304.618 251.92 305.176 251.856Z" fill="#FFFEFC"/>
<path d="M307.1 253.924C307.378 253.892 307.616 253.617 307.57 253.331C307.524 253.045 307.275 252.827 306.977 252.861C306.699 252.893 306.461 253.169 306.507 253.454C306.553 253.74 306.802 253.959 307.1 253.924Z" fill="#FFFEFC"/>
<path d="M247.569 272.13C237.683 270.585 218.578 266.167 221.243 260.851" stroke="#F2973E" stroke-width="4" stroke-linejoin="round"/>
<path fill-rule="evenodd" clip-rule="evenodd" d="M227.657 250.187C226.805 249.447 225.703 249.027 224.552 249.002C223.401 248.977 222.277 249.35 221.385 250.053C220.376 249.406 219.147 249.151 217.947 249.34C216.746 249.529 215.663 250.148 214.915 251.071C214.167 251.995 213.81 253.155 213.916 254.317C214.022 255.48 214.583 256.559 215.486 257.337L221.467 262.527C221.542 262.593 221.63 262.643 221.725 262.676C221.82 262.708 221.921 262.722 222.022 262.717C222.123 262.712 222.222 262.688 222.314 262.646C222.405 262.604 222.487 262.545 222.555 262.473L227.985 256.708C228.41 256.258 228.738 255.732 228.951 255.16C229.165 254.588 229.259 253.983 229.229 253.377C229.198 252.771 229.044 252.178 228.774 251.631C228.504 251.083 228.125 250.593 227.657 250.187ZM221.884 260.899L221.933 260.941L221.977 260.895L221.884 260.899Z" fill="#FFFEFC"/>
</g>
</svg>
